<?xml version="1.0" encoding="UTF-8" standalone="no"?>
<!DOCTYPE svg PUBLIC "-//W3C//DTD SVG 1.1//EN"
 "http://www.w3.org/Graphics/SVG/1.1/DTD/svg11.dtd">
<!-- Generated by graphviz version 2.49.0 (20210830.1337)
 -->
<!-- Title: PitchRollJoint.cc Pages: 1 -->
<svg width="398pt" height="196pt"
 viewBox="0.00 0.00 397.50 196.00" xmlns="http://www.w3.org/2000/svg" xmlns:xlink="http://www.w3.org/1999/xlink">
<g id="graph0" class="graph" transform="scale(1 1) rotate(0) translate(4 192)">
<title>PitchRollJoint.cc</title>
<!-- Node1 -->
<g id="node1" class="node">
<title>Node1</title>
<g id="a_node1"><a xlink:title=" ">
<polygon fill="#bfbfbf" stroke="black" points="139.5,-168.5 139.5,-187.5 228.5,-187.5 228.5,-168.5 139.5,-168.5"/>
<text text-anchor="middle" x="184" y="-175.5" font-family="Helvetica,sans-Serif" font-size="10.00">PitchRollJoint.cc</text>
</a>
</g>
</g>
<!-- Node2 -->
<g id="node2" class="node">
<title>Node2</title>
<g id="a_node2"><a xlink:href="_pitch_roll_joint_8hpp.html" target="_top" xlink:title=" ">
<polygon fill="none" stroke="black" points="136.5,-112.5 136.5,-131.5 231.5,-131.5 231.5,-112.5 136.5,-112.5"/>
<text text-anchor="middle" x="184" y="-119.5" font-family="Helvetica,sans-Serif" font-size="10.00">PitchRollJoint.hpp</text>
</a>
</g>
</g>
<!-- Node1&#45;&gt;Node2 -->
<g id="edge1" class="edge">
<title>Node1&#45;&gt;Node2</title>
<path fill="none" stroke="midnightblue" d="M184,-168.08C184,-161.01 184,-150.86 184,-141.99"/>
<polygon fill="midnightblue" stroke="midnightblue" points="187.5,-141.75 184,-131.75 180.5,-141.75 187.5,-141.75"/>
</g>
<!-- Node3 -->
<g id="node3" class="node">
<title>Node3</title>
<g id="a_node3"><a xlink:href="pitch__roll__joint_8h.html" target="_top" xlink:title=" ">
<polygon fill="none" stroke="black" points="73,-56.5 73,-75.5 159,-75.5 159,-56.5 73,-56.5"/>
<text text-anchor="middle" x="116" y="-63.5" font-family="Helvetica,sans-Serif" font-size="10.00">pitch_roll_joint.h</text>
</a>
</g>
</g>
<!-- Node2&#45;&gt;Node3 -->
<g id="edge2" class="edge">
<title>Node2&#45;&gt;Node3</title>
<path fill="none" stroke="midnightblue" d="M173.07,-112.32C162.83,-104.18 147.28,-91.84 135,-82.09"/>
<polygon fill="midnightblue" stroke="midnightblue" points="137.13,-79.31 127.12,-75.83 132.78,-84.79 137.13,-79.31"/>
</g>
<!-- Node4 -->
<g id="node4" class="node">
<title>Node4</title>
<g id="a_node4"><a xlink:title=" ">
<polygon fill="none" stroke="#bfbfbf" points="0,-0.5 0,-19.5 90,-19.5 90,-0.5 0,-0.5"/>
<text text-anchor="middle" x="45" y="-7.5" font-family="Helvetica,sans-Serif" font-size="10.00">guunits/guunits.h</text>
</a>
</g>
</g>
<!-- Node2&#45;&gt;Node4 -->
<g id="edge5" class="edge">
<title>Node2&#45;&gt;Node4</title>
<path fill="none" stroke="midnightblue" d="M136.46,-113.65C111.74,-107.5 82.85,-96.3 64,-76 52.39,-63.49 47.84,-44.26 46.07,-29.96"/>
<polygon fill="midnightblue" stroke="midnightblue" points="49.54,-29.42 45.17,-19.77 42.56,-30.04 49.54,-29.42"/>
</g>
<!-- Node6 -->
<g id="node6" class="node">
<title>Node6</title>
<g id="a_node6"><a xlink:title=" ">
<polygon fill="none" stroke="#bfbfbf" points="177.5,-56.5 177.5,-75.5 326.5,-75.5 326.5,-56.5 177.5,-56.5"/>
<text text-anchor="middle" x="252" y="-63.5" font-family="Helvetica,sans-Serif" font-size="10.00">gucoordinates/gucoordinates.h</text>
</a>
</g>
</g>
<!-- Node2&#45;&gt;Node6 -->
<g id="edge6" class="edge">
<title>Node2&#45;&gt;Node6</title>
<path fill="none" stroke="midnightblue" d="M194.93,-112.32C205.17,-104.18 220.72,-91.84 233,-82.09"/>
<polygon fill="midnightblue" stroke="midnightblue" points="235.22,-84.79 240.88,-75.83 230.87,-79.31 235.22,-84.79"/>
</g>
<!-- Node7 -->
<g id="node7" class="node">
<title>Node7</title>
<g id="a_node7"><a xlink:title=" ">
<polygon fill="none" stroke="#bfbfbf" points="344.5,-56.5 344.5,-75.5 389.5,-75.5 389.5,-56.5 344.5,-56.5"/>
<text text-anchor="middle" x="367" y="-63.5" font-family="Helvetica,sans-Serif" font-size="10.00">cstdlib</text>
</a>
</g>
</g>
<!-- Node2&#45;&gt;Node7 -->
<g id="edge7" class="edge">
<title>Node2&#45;&gt;Node7</title>
<path fill="none" stroke="midnightblue" d="M213,-112.44C246.06,-102.69 299.98,-86.78 334.45,-76.6"/>
<polygon fill="midnightblue" stroke="midnightblue" points="335.88,-79.83 344.48,-73.64 333.9,-73.12 335.88,-79.83"/>
</g>
<!-- Node3&#45;&gt;Node4 -->
<g id="edge3" class="edge">
<title>Node3&#45;&gt;Node4</title>
<path fill="none" stroke="midnightblue" d="M104.59,-56.32C93.89,-48.18 77.66,-35.84 64.84,-26.09"/>
<polygon fill="midnightblue" stroke="midnightblue" points="66.69,-23.1 56.61,-19.83 62.46,-28.67 66.69,-23.1"/>
</g>
<!-- Node5 -->
<g id="node5" class="node">
<title>Node5</title>
<g id="a_node5"><a xlink:title=" ">
<polygon fill="none" stroke="#bfbfbf" points="108,-0.5 108,-19.5 164,-19.5 164,-0.5 108,-0.5"/>
<text text-anchor="middle" x="136" y="-7.5" font-family="Helvetica,sans-Serif" font-size="10.00">stdbool.h</text>
</a>
</g>
</g>
<!-- Node3&#45;&gt;Node5 -->
<g id="edge4" class="edge">
<title>Node3&#45;&gt;Node5</title>
<path fill="none" stroke="midnightblue" d="M119.3,-56.08C121.98,-48.85 125.85,-38.41 129.19,-29.4"/>
<polygon fill="midnightblue" stroke="midnightblue" points="132.57,-30.34 132.76,-19.75 126,-27.91 132.57,-30.34"/>
</g>
</g>
</svg>
