<?xml version="1.0" encoding="UTF-8" standalone="no"?>
<!DOCTYPE svg PUBLIC "-//W3C//DTD SVG 1.1//EN"
 "http://www.w3.org/Graphics/SVG/1.1/DTD/svg11.dtd">
<!-- Generated by graphviz version 2.49.0 (20210830.1337)
 -->
<!-- Title: PitchYawJoint.cc Pages: 1 -->
<svg width="403pt" height="196pt"
 viewBox="0.00 0.00 402.50 196.00" xmlns="http://www.w3.org/2000/svg" xmlns:xlink="http://www.w3.org/1999/xlink">
<g id="graph0" class="graph" transform="scale(1 1) rotate(0) translate(4 192)">
<title>PitchYawJoint.cc</title>
<!-- Node1 -->
<g id="node1" class="node">
<title>Node1</title>
<g id="a_node1"><a xlink:title=" ">
<polygon fill="#bfbfbf" stroke="black" points="142,-168.5 142,-187.5 234,-187.5 234,-168.5 142,-168.5"/>
<text text-anchor="middle" x="188" y="-175.5" font-family="Helvetica,sans-Serif" font-size="10.00">PitchYawJoint.cc</text>
</a>
</g>
</g>
<!-- Node2 -->
<g id="node2" class="node">
<title>Node2</title>
<g id="a_node2"><a xlink:href="_pitch_yaw_joint_8hpp.html" target="_top" xlink:title=" ">
<polygon fill="none" stroke="black" points="139,-112.5 139,-131.5 237,-131.5 237,-112.5 139,-112.5"/>
<text text-anchor="middle" x="188" y="-119.5" font-family="Helvetica,sans-Serif" font-size="10.00">PitchYawJoint.hpp</text>
</a>
</g>
</g>
<!-- Node1&#45;&gt;Node2 -->
<g id="edge1" class="edge">
<title>Node1&#45;&gt;Node2</title>
<path fill="none" stroke="midnightblue" d="M188,-168.08C188,-161.01 188,-150.86 188,-141.99"/>
<polygon fill="midnightblue" stroke="midnightblue" points="191.5,-141.75 188,-131.75 184.5,-141.75 191.5,-141.75"/>
</g>
<!-- Node3 -->
<g id="node3" class="node">
<title>Node3</title>
<g id="a_node3"><a xlink:href="pitch__yaw__joint_8h.html" target="_top" xlink:title=" ">
<polygon fill="none" stroke="black" points="73.5,-56.5 73.5,-75.5 164.5,-75.5 164.5,-56.5 73.5,-56.5"/>
<text text-anchor="middle" x="119" y="-63.5" font-family="Helvetica,sans-Serif" font-size="10.00">pitch_yaw_joint.h</text>
</a>
</g>
</g>
<!-- Node2&#45;&gt;Node3 -->
<g id="edge2" class="edge">
<title>Node2&#45;&gt;Node3</title>
<path fill="none" stroke="midnightblue" d="M176.91,-112.32C166.51,-104.18 150.74,-91.84 138.28,-82.09"/>
<polygon fill="midnightblue" stroke="midnightblue" points="140.32,-79.24 130.29,-75.83 136.01,-84.75 140.32,-79.24"/>
</g>
<!-- Node4 -->
<g id="node4" class="node">
<title>Node4</title>
<g id="a_node4"><a xlink:title=" ">
<polygon fill="none" stroke="#bfbfbf" points="0,-0.5 0,-19.5 90,-19.5 90,-0.5 0,-0.5"/>
<text text-anchor="middle" x="45" y="-7.5" font-family="Helvetica,sans-Serif" font-size="10.00">guunits/guunits.h</text>
</a>
</g>
</g>
<!-- Node2&#45;&gt;Node4 -->
<g id="edge5" class="edge">
<title>Node2&#45;&gt;Node4</title>
<path fill="none" stroke="midnightblue" d="M138.9,-114.04C113.37,-108.01 83.51,-96.79 64,-76 52.32,-63.55 47.78,-44.32 46.03,-30"/>
<polygon fill="midnightblue" stroke="midnightblue" points="49.5,-29.45 45.15,-19.79 42.53,-30.05 49.5,-29.45"/>
</g>
<!-- Node6 -->
<g id="node6" class="node">
<title>Node6</title>
<g id="a_node6"><a xlink:title=" ">
<polygon fill="none" stroke="#bfbfbf" points="182.5,-56.5 182.5,-75.5 331.5,-75.5 331.5,-56.5 182.5,-56.5"/>
<text text-anchor="middle" x="257" y="-63.5" font-family="Helvetica,sans-Serif" font-size="10.00">gucoordinates/gucoordinates.h</text>
</a>
</g>
</g>
<!-- Node2&#45;&gt;Node6 -->
<g id="edge6" class="edge">
<title>Node2&#45;&gt;Node6</title>
<path fill="none" stroke="midnightblue" d="M199.09,-112.32C209.49,-104.18 225.26,-91.84 237.72,-82.09"/>
<polygon fill="midnightblue" stroke="midnightblue" points="239.99,-84.75 245.71,-75.83 235.68,-79.24 239.99,-84.75"/>
</g>
<!-- Node7 -->
<g id="node7" class="node">
<title>Node7</title>
<g id="a_node7"><a xlink:title=" ">
<polygon fill="none" stroke="#bfbfbf" points="349.5,-56.5 349.5,-75.5 394.5,-75.5 394.5,-56.5 349.5,-56.5"/>
<text text-anchor="middle" x="372" y="-63.5" font-family="Helvetica,sans-Serif" font-size="10.00">cstdlib</text>
</a>
</g>
</g>
<!-- Node2&#45;&gt;Node7 -->
<g id="edge7" class="edge">
<title>Node2&#45;&gt;Node7</title>
<path fill="none" stroke="midnightblue" d="M217.16,-112.44C250.54,-102.65 305.08,-86.64 339.72,-76.47"/>
<polygon fill="midnightblue" stroke="midnightblue" points="340.75,-79.82 349.36,-73.64 338.78,-73.1 340.75,-79.82"/>
</g>
<!-- Node3&#45;&gt;Node4 -->
<g id="edge3" class="edge">
<title>Node3&#45;&gt;Node4</title>
<path fill="none" stroke="midnightblue" d="M107.11,-56.32C95.85,-48.11 78.71,-35.6 65.29,-25.81"/>
<polygon fill="midnightblue" stroke="midnightblue" points="67.25,-22.9 57.11,-19.83 63.12,-28.56 67.25,-22.9"/>
</g>
<!-- Node5 -->
<g id="node5" class="node">
<title>Node5</title>
<g id="a_node5"><a xlink:title=" ">
<polygon fill="none" stroke="#bfbfbf" points="108,-0.5 108,-19.5 164,-19.5 164,-0.5 108,-0.5"/>
<text text-anchor="middle" x="136" y="-7.5" font-family="Helvetica,sans-Serif" font-size="10.00">stdbool.h</text>
</a>
</g>
</g>
<!-- Node3&#45;&gt;Node5 -->
<g id="edge4" class="edge">
<title>Node3&#45;&gt;Node5</title>
<path fill="none" stroke="midnightblue" d="M121.81,-56.08C124.08,-48.85 127.37,-38.41 130.21,-29.4"/>
<polygon fill="midnightblue" stroke="midnightblue" points="133.58,-30.34 133.25,-19.75 126.9,-28.24 133.58,-30.34"/>
</g>
</g>
</svg>
