<?xml version="1.0" encoding="UTF-8" standalone="no"?>
<!DOCTYPE svg PUBLIC "-//W3C//DTD SVG 1.1//EN"
 "http://www.w3.org/Graphics/SVG/1.1/DTD/svg11.dtd">
<!-- Generated by graphviz version 2.49.0 (20210830.1337)
 -->
<!-- Title: SoccerLocations.cc Pages: 1 -->
<svg width="384pt" height="196pt"
 viewBox="0.00 0.00 384.00 196.00" xmlns="http://www.w3.org/2000/svg" xmlns:xlink="http://www.w3.org/1999/xlink">
<g id="graph0" class="graph" transform="scale(1 1) rotate(0) translate(4 192)">
<title>SoccerLocations.cc</title>
<!-- Node1 -->
<g id="node1" class="node">
<title>Node1</title>
<g id="a_node1"><a xlink:title=" ">
<polygon fill="#bfbfbf" stroke="black" points="147.5,-168.5 147.5,-187.5 250.5,-187.5 250.5,-168.5 147.5,-168.5"/>
<text text-anchor="middle" x="199" y="-175.5" font-family="Helvetica,sans-Serif" font-size="10.00">SoccerLocations.cc</text>
</a>
</g>
</g>
<!-- Node2 -->
<g id="node2" class="node">
<title>Node2</title>
<g id="a_node2"><a xlink:href="_soccer_locations_8hpp.html" target="_top" xlink:title=" ">
<polygon fill="none" stroke="black" points="145,-112.5 145,-131.5 253,-131.5 253,-112.5 145,-112.5"/>
<text text-anchor="middle" x="199" y="-119.5" font-family="Helvetica,sans-Serif" font-size="10.00">SoccerLocations.hpp</text>
</a>
</g>
</g>
<!-- Node1&#45;&gt;Node2 -->
<g id="edge1" class="edge">
<title>Node1&#45;&gt;Node2</title>
<path fill="none" stroke="midnightblue" d="M199,-168.08C199,-161.01 199,-150.86 199,-141.99"/>
<polygon fill="midnightblue" stroke="midnightblue" points="202.5,-141.75 199,-131.75 195.5,-141.75 202.5,-141.75"/>
</g>
<!-- Node3 -->
<g id="node3" class="node">
<title>Node3</title>
<g id="a_node3"><a xlink:href="soccer__locations_8h.html" target="_top" xlink:title=" ">
<polygon fill="none" stroke="black" points="0,-56.5 0,-75.5 98,-75.5 98,-56.5 0,-56.5"/>
<text text-anchor="middle" x="49" y="-63.5" font-family="Helvetica,sans-Serif" font-size="10.00">soccer_locations.h</text>
</a>
</g>
</g>
<!-- Node2&#45;&gt;Node3 -->
<g id="edge2" class="edge">
<title>Node2&#45;&gt;Node3</title>
<path fill="none" stroke="midnightblue" d="M175.23,-112.44C150.11,-103.4 110.29,-89.06 82.1,-78.92"/>
<polygon fill="midnightblue" stroke="midnightblue" points="83.25,-75.61 72.66,-75.52 80.88,-82.2 83.25,-75.61"/>
</g>
<!-- Node4 -->
<g id="node4" class="node">
<title>Node4</title>
<g id="a_node4"><a xlink:title=" ">
<polygon fill="none" stroke="#bfbfbf" points="12.5,-0.5 12.5,-19.5 161.5,-19.5 161.5,-0.5 12.5,-0.5"/>
<text text-anchor="middle" x="87" y="-7.5" font-family="Helvetica,sans-Serif" font-size="10.00">gucoordinates/gucoordinates.h</text>
</a>
</g>
</g>
<!-- Node2&#45;&gt;Node4 -->
<g id="edge5" class="edge">
<title>Node2&#45;&gt;Node4</title>
<path fill="none" stroke="midnightblue" d="M187.84,-112.49C176.62,-103.76 159.04,-89.57 145,-76 128.94,-60.48 112.11,-41.24 100.75,-27.73"/>
<polygon fill="midnightblue" stroke="midnightblue" points="103.21,-25.23 94.13,-19.78 97.83,-29.71 103.21,-25.23"/>
</g>
<!-- Node5 -->
<g id="node5" class="node">
<title>Node5</title>
<g id="a_node5"><a xlink:title=" ">
<polygon fill="none" stroke="#bfbfbf" points="154,-56.5 154,-75.5 244,-75.5 244,-56.5 154,-56.5"/>
<text text-anchor="middle" x="199" y="-63.5" font-family="Helvetica,sans-Serif" font-size="10.00">guunits/guunits.h</text>
</a>
</g>
</g>
<!-- Node2&#45;&gt;Node5 -->
<g id="edge4" class="edge">
<title>Node2&#45;&gt;Node5</title>
<path fill="none" stroke="midnightblue" d="M199,-112.08C199,-105.01 199,-94.86 199,-85.99"/>
<polygon fill="midnightblue" stroke="midnightblue" points="202.5,-85.75 199,-75.75 195.5,-85.75 202.5,-85.75"/>
</g>
<!-- Node6 -->
<g id="node6" class="node">
<title>Node6</title>
<g id="a_node6"><a xlink:title=" ">
<polygon fill="none" stroke="#bfbfbf" points="262.5,-56.5 262.5,-75.5 307.5,-75.5 307.5,-56.5 262.5,-56.5"/>
<text text-anchor="middle" x="285" y="-63.5" font-family="Helvetica,sans-Serif" font-size="10.00">cstdlib</text>
</a>
</g>
</g>
<!-- Node2&#45;&gt;Node6 -->
<g id="edge6" class="edge">
<title>Node2&#45;&gt;Node6</title>
<path fill="none" stroke="midnightblue" d="M212.82,-112.32C226.23,-103.9 246.82,-90.97 262.59,-81.07"/>
<polygon fill="midnightblue" stroke="midnightblue" points="264.61,-83.94 271.22,-75.65 260.89,-78.01 264.61,-83.94"/>
</g>
<!-- Node7 -->
<g id="node7" class="node">
<title>Node7</title>
<g id="a_node7"><a xlink:title=" ">
<polygon fill="none" stroke="#bfbfbf" points="326,-56.5 326,-75.5 376,-75.5 376,-56.5 326,-56.5"/>
<text text-anchor="middle" x="351" y="-63.5" font-family="Helvetica,sans-Serif" font-size="10.00">optional</text>
</a>
</g>
</g>
<!-- Node2&#45;&gt;Node7 -->
<g id="edge7" class="edge">
<title>Node2&#45;&gt;Node7</title>
<path fill="none" stroke="midnightblue" d="M223.08,-112.44C248.54,-103.4 288.89,-89.06 317.46,-78.92"/>
<polygon fill="midnightblue" stroke="midnightblue" points="318.78,-82.16 327.03,-75.52 316.43,-75.57 318.78,-82.16"/>
</g>
<!-- Node3&#45;&gt;Node4 -->
<g id="edge3" class="edge">
<title>Node3&#45;&gt;Node4</title>
<path fill="none" stroke="midnightblue" d="M55.27,-56.08C60.64,-48.46 68.52,-37.26 75.08,-27.94"/>
<polygon fill="midnightblue" stroke="midnightblue" points="77.95,-29.94 80.84,-19.75 72.22,-25.91 77.95,-29.94"/>
</g>
</g>
</svg>
