<?xml version="1.0" encoding="UTF-8" standalone="no"?>
<!DOCTYPE svg PUBLIC "-//W3C//DTD SVG 1.1//EN"
 "http://www.w3.org/Graphics/SVG/1.1/DTD/svg11.dtd">
<!-- Generated by graphviz version 2.49.0 (20210830.1337)
 -->
<!-- Title: ball_position.c Pages: 1 -->
<svg width="267pt" height="196pt"
 viewBox="0.00 0.00 266.61 196.00" xmlns="http://www.w3.org/2000/svg" xmlns:xlink="http://www.w3.org/1999/xlink">
<g id="graph0" class="graph" transform="scale(1 1) rotate(0) translate(4 192)">
<title>ball_position.c</title>
<!-- Node1 -->
<g id="node1" class="node">
<title>Node1</title>
<g id="a_node1"><a xlink:title=" ">
<polygon fill="#bfbfbf" stroke="black" points="47.61,-168.5 47.61,-187.5 125.61,-187.5 125.61,-168.5 47.61,-168.5"/>
<text text-anchor="middle" x="86.61" y="-175.5" font-family="Helvetica,sans-Serif" font-size="10.00">ball_position.c</text>
</a>
</g>
</g>
<!-- Node2 -->
<g id="node2" class="node">
<title>Node2</title>
<g id="a_node2"><a xlink:href="ball__position_8h.html" target="_top" xlink:title=" ">
<polygon fill="none" stroke="black" points="47.61,-112.5 47.61,-131.5 125.61,-131.5 125.61,-112.5 47.61,-112.5"/>
<text text-anchor="middle" x="86.61" y="-119.5" font-family="Helvetica,sans-Serif" font-size="10.00">ball_position.h</text>
</a>
</g>
</g>
<!-- Node1&#45;&gt;Node2 -->
<g id="edge1" class="edge">
<title>Node1&#45;&gt;Node2</title>
<path fill="none" stroke="midnightblue" d="M86.61,-168.08C86.61,-161.01 86.61,-150.86 86.61,-141.99"/>
<polygon fill="midnightblue" stroke="midnightblue" points="90.11,-141.75 86.61,-131.75 83.11,-141.75 90.11,-141.75"/>
</g>
<!-- Node3 -->
<g id="node3" class="node">
<title>Node3</title>
<g id="a_node3"><a xlink:title=" ">
<polygon fill="none" stroke="#bfbfbf" points="25.61,-0.5 25.61,-19.5 81.61,-19.5 81.61,-0.5 25.61,-0.5"/>
<text text-anchor="middle" x="53.61" y="-7.5" font-family="Helvetica,sans-Serif" font-size="10.00">stdbool.h</text>
</a>
</g>
</g>
<!-- Node2&#45;&gt;Node3 -->
<g id="edge2" class="edge">
<title>Node2&#45;&gt;Node3</title>
<path fill="none" stroke="midnightblue" d="M54.43,-112.49C36.07,-105.8 14.6,-94.45 3.61,-76 -7.47,-57.39 12.27,-37.95 30.12,-25.23"/>
<polygon fill="midnightblue" stroke="midnightblue" points="32.22,-28.04 38.58,-19.56 28.33,-22.22 32.22,-28.04"/>
</g>
<!-- Node4 -->
<g id="node4" class="node">
<title>Node4</title>
<g id="a_node4"><a xlink:title=" ">
<polygon fill="none" stroke="#bfbfbf" points="12.11,-56.5 12.11,-75.5 161.11,-75.5 161.11,-56.5 12.11,-56.5"/>
<text text-anchor="middle" x="86.61" y="-63.5" font-family="Helvetica,sans-Serif" font-size="10.00">gucoordinates/gucoordinates.h</text>
</a>
</g>
</g>
<!-- Node2&#45;&gt;Node4 -->
<g id="edge3" class="edge">
<title>Node2&#45;&gt;Node4</title>
<path fill="none" stroke="midnightblue" d="M86.61,-112.08C86.61,-105.01 86.61,-94.86 86.61,-85.99"/>
<polygon fill="midnightblue" stroke="midnightblue" points="90.11,-85.75 86.61,-75.75 83.11,-85.75 90.11,-85.75"/>
</g>
<!-- Node5 -->
<g id="node5" class="node">
<title>Node5</title>
<g id="a_node5"><a xlink:href="orientation_8h.html" target="_top" xlink:title=" ">
<polygon fill="none" stroke="black" points="179.11,-56.5 179.11,-75.5 248.11,-75.5 248.11,-56.5 179.11,-56.5"/>
<text text-anchor="middle" x="213.61" y="-63.5" font-family="Helvetica,sans-Serif" font-size="10.00">orientation.h</text>
</a>
</g>
</g>
<!-- Node2&#45;&gt;Node5 -->
<g id="edge4" class="edge">
<title>Node2&#45;&gt;Node5</title>
<path fill="none" stroke="midnightblue" d="M106.74,-112.44C127.64,-103.56 160.55,-89.56 184.33,-79.45"/>
<polygon fill="midnightblue" stroke="midnightblue" points="185.75,-82.65 193.58,-75.52 183.01,-76.21 185.75,-82.65"/>
</g>
<!-- Node5&#45;&gt;Node3 -->
<g id="edge5" class="edge">
<title>Node5&#45;&gt;Node3</title>
<path fill="none" stroke="midnightblue" d="M188.26,-56.44C161.34,-47.36 118.62,-32.94 88.53,-22.78"/>
<polygon fill="midnightblue" stroke="midnightblue" points="89.44,-19.4 78.85,-19.52 87.2,-26.03 89.44,-19.4"/>
</g>
<!-- Node6 -->
<g id="node6" class="node">
<title>Node6</title>
<g id="a_node6"><a xlink:title=" ">
<polygon fill="none" stroke="#bfbfbf" points="168.61,-0.5 168.61,-19.5 258.61,-19.5 258.61,-0.5 168.61,-0.5"/>
<text text-anchor="middle" x="213.61" y="-7.5" font-family="Helvetica,sans-Serif" font-size="10.00">guunits/guunits.h</text>
</a>
</g>
</g>
<!-- Node5&#45;&gt;Node6 -->
<g id="edge6" class="edge">
<title>Node5&#45;&gt;Node6</title>
<path fill="none" stroke="midnightblue" d="M213.61,-56.08C213.61,-49.01 213.61,-38.86 213.61,-29.99"/>
<polygon fill="midnightblue" stroke="midnightblue" points="217.11,-29.75 213.61,-19.75 210.11,-29.75 217.11,-29.75"/>
</g>
</g>
</svg>
