<?xml version="1.0" encoding="UTF-8" standalone="no"?>
<!DOCTYPE svg PUBLIC "-//W3C//DTD SVG 1.1//EN"
 "http://www.w3.org/Graphics/SVG/1.1/DTD/svg11.dtd">
<!-- Generated by graphviz version 2.49.0 (20210830.1337)
 -->
<!-- Title: ctests/camera_fakes.h Pages: 1 -->
<svg width="222pt" height="140pt"
 viewBox="0.00 0.00 221.50 140.00" xmlns="http://www.w3.org/2000/svg" xmlns:xlink="http://www.w3.org/1999/xlink">
<g id="graph0" class="graph" transform="scale(1 1) rotate(0) translate(4 136)">
<title>ctests/camera_fakes.h</title>
<!-- Node1 -->
<g id="node1" class="node">
<title>Node1</title>
<g id="a_node1"><a xlink:title=" ">
<polygon fill="#bfbfbf" stroke="black" points="48.5,-112.5 48.5,-131.5 164.5,-131.5 164.5,-112.5 48.5,-112.5"/>
<text text-anchor="middle" x="106.5" y="-119.5" font-family="Helvetica,sans-Serif" font-size="10.00">ctests/camera_fakes.h</text>
</a>
</g>
</g>
<!-- Node2 -->
<g id="node2" class="node">
<title>Node2</title>
<g id="a_node2"><a xlink:href="ctests_2fff_8h.html" target="_top" xlink:title=" ">
<polygon fill="none" stroke="black" points="43.5,-56.5 43.5,-75.5 75.5,-75.5 75.5,-56.5 43.5,-56.5"/>
<text text-anchor="middle" x="59.5" y="-63.5" font-family="Helvetica,sans-Serif" font-size="10.00">fff.h</text>
</a>
</g>
</g>
<!-- Node1&#45;&gt;Node2 -->
<g id="edge1" class="edge">
<title>Node1&#45;&gt;Node2</title>
<path fill="none" stroke="midnightblue" d="M98.74,-112.08C91.96,-104.3 81.96,-92.8 73.74,-83.37"/>
<polygon fill="midnightblue" stroke="midnightblue" points="76.32,-81 67.12,-75.75 71.04,-85.59 76.32,-81"/>
</g>
<!-- Node5 -->
<g id="node5" class="node">
<title>Node5</title>
<g id="a_node5"><a xlink:title=" ">
<polygon fill="none" stroke="#bfbfbf" points="93.5,-56.5 93.5,-75.5 213.5,-75.5 213.5,-56.5 93.5,-56.5"/>
<text text-anchor="middle" x="153.5" y="-63.5" font-family="Helvetica,sans-Serif" font-size="10.00">gucoordinates/camera.h</text>
</a>
</g>
</g>
<!-- Node1&#45;&gt;Node5 -->
<g id="edge4" class="edge">
<title>Node1&#45;&gt;Node5</title>
<path fill="none" stroke="midnightblue" d="M114.26,-112.08C121.04,-104.3 131.04,-92.8 139.26,-83.37"/>
<polygon fill="midnightblue" stroke="midnightblue" points="141.96,-85.59 145.88,-75.75 136.68,-81 141.96,-85.59"/>
</g>
<!-- Node3 -->
<g id="node3" class="node">
<title>Node3</title>
<g id="a_node3"><a xlink:title=" ">
<polygon fill="none" stroke="#bfbfbf" points="0,-0.5 0,-19.5 51,-19.5 51,-0.5 0,-0.5"/>
<text text-anchor="middle" x="25.5" y="-7.5" font-family="Helvetica,sans-Serif" font-size="10.00">stdarg.h</text>
</a>
</g>
</g>
<!-- Node2&#45;&gt;Node3 -->
<g id="edge2" class="edge">
<title>Node2&#45;&gt;Node3</title>
<path fill="none" stroke="midnightblue" d="M53.89,-56.08C49.13,-48.53 42.18,-37.49 36.35,-28.23"/>
<polygon fill="midnightblue" stroke="midnightblue" points="39.3,-26.35 31.01,-19.75 33.38,-30.08 39.3,-26.35"/>
</g>
<!-- Node4 -->
<g id="node4" class="node">
<title>Node4</title>
<g id="a_node4"><a xlink:title=" ">
<polygon fill="none" stroke="#bfbfbf" points="69.5,-0.5 69.5,-19.5 117.5,-19.5 117.5,-0.5 69.5,-0.5"/>
<text text-anchor="middle" x="93.5" y="-7.5" font-family="Helvetica,sans-Serif" font-size="10.00">string.h</text>
</a>
</g>
</g>
<!-- Node2&#45;&gt;Node4 -->
<g id="edge3" class="edge">
<title>Node2&#45;&gt;Node4</title>
<path fill="none" stroke="midnightblue" d="M65.11,-56.08C69.87,-48.53 76.82,-37.49 82.65,-28.23"/>
<polygon fill="midnightblue" stroke="midnightblue" points="85.62,-30.08 87.99,-19.75 79.7,-26.35 85.62,-30.08"/>
</g>
</g>
</svg>
