<?xml version="1.0" encoding="UTF-8" standalone="no"?>
<!DOCTYPE svg PUBLIC "-//W3C//DTD SVG 1.1//EN"
 "http://www.w3.org/Graphics/SVG/1.1/DTD/svg11.dtd">
<!-- Generated by graphviz version 2.49.0 (20210830.1337)
 -->
<!-- Title: ctests/camera_pivot_fakes.c Pages: 1 -->
<svg width="215pt" height="218pt"
 viewBox="0.00 0.00 215.00 218.00" xmlns="http://www.w3.org/2000/svg" xmlns:xlink="http://www.w3.org/1999/xlink">
<g id="graph0" class="graph" transform="scale(1 1) rotate(0) translate(4 214)">
<title>ctests/camera_pivot_fakes.c</title>
<!-- Node1 -->
<g id="node1" class="node">
<title>Node1</title>
<g id="a_node1"><a xlink:title=" ">
<polygon fill="#bfbfbf" stroke="black" points="52,-179.5 52,-209.5 157,-209.5 157,-179.5 52,-179.5"/>
<text text-anchor="start" x="60" y="-197.5" font-family="Helvetica,sans-Serif" font-size="10.00">ctests/camera_pivot</text>
<text text-anchor="middle" x="104.5" y="-186.5" font-family="Helvetica,sans-Serif" font-size="10.00">_fakes.c</text>
</a>
</g>
</g>
<!-- Node2 -->
<g id="node2" class="node">
<title>Node2</title>
<g id="a_node2"><a xlink:href="camera__pivot__fakes_8h.html" target="_top" xlink:title=" ">
<polygon fill="none" stroke="black" points="48.5,-123.5 48.5,-142.5 160.5,-142.5 160.5,-123.5 48.5,-123.5"/>
<text text-anchor="middle" x="104.5" y="-130.5" font-family="Helvetica,sans-Serif" font-size="10.00">camera_pivot_fakes.h</text>
</a>
</g>
</g>
<!-- Node1&#45;&gt;Node2 -->
<g id="edge1" class="edge">
<title>Node1&#45;&gt;Node2</title>
<path fill="none" stroke="midnightblue" d="M104.5,-179.4C104.5,-171.47 104.5,-161.46 104.5,-152.86"/>
<polygon fill="midnightblue" stroke="midnightblue" points="108,-152.66 104.5,-142.66 101,-152.66 108,-152.66"/>
</g>
<!-- Node3 -->
<g id="node3" class="node">
<title>Node3</title>
<g id="a_node3"><a xlink:href="ctests_2fff_8h.html" target="_top" xlink:title=" ">
<polygon fill="none" stroke="black" points="43.5,-62 43.5,-81 75.5,-81 75.5,-62 43.5,-62"/>
<text text-anchor="middle" x="59.5" y="-69" font-family="Helvetica,sans-Serif" font-size="10.00">fff.h</text>
</a>
</g>
</g>
<!-- Node2&#45;&gt;Node3 -->
<g id="edge2" class="edge">
<title>Node2&#45;&gt;Node3</title>
<path fill="none" stroke="midnightblue" d="M98.05,-123.48C91.3,-114.55 80.53,-100.31 72.09,-89.14"/>
<polygon fill="midnightblue" stroke="midnightblue" points="74.76,-86.87 65.94,-81.01 69.18,-91.1 74.76,-86.87"/>
</g>
<!-- Node6 -->
<g id="node6" class="node">
<title>Node6</title>
<g id="a_node6"><a xlink:title=" ">
<polygon fill="none" stroke="#bfbfbf" points="94,-56.5 94,-86.5 207,-86.5 207,-56.5 94,-56.5"/>
<text text-anchor="start" x="102" y="-74.5" font-family="Helvetica,sans-Serif" font-size="10.00">gucoordinates/camera</text>
<text text-anchor="middle" x="150.5" y="-63.5" font-family="Helvetica,sans-Serif" font-size="10.00">_pivot.h</text>
</a>
</g>
</g>
<!-- Node2&#45;&gt;Node6 -->
<g id="edge5" class="edge">
<title>Node2&#45;&gt;Node6</title>
<path fill="none" stroke="midnightblue" d="M111.09,-123.48C116.91,-115.94 125.66,-104.63 133.44,-94.57"/>
<polygon fill="midnightblue" stroke="midnightblue" points="136.31,-96.58 139.66,-86.52 130.77,-92.29 136.31,-96.58"/>
</g>
<!-- Node4 -->
<g id="node4" class="node">
<title>Node4</title>
<g id="a_node4"><a xlink:title=" ">
<polygon fill="none" stroke="#bfbfbf" points="0,-0.5 0,-19.5 51,-19.5 51,-0.5 0,-0.5"/>
<text text-anchor="middle" x="25.5" y="-7.5" font-family="Helvetica,sans-Serif" font-size="10.00">stdarg.h</text>
</a>
</g>
</g>
<!-- Node3&#45;&gt;Node4 -->
<g id="edge3" class="edge">
<title>Node3&#45;&gt;Node4</title>
<path fill="none" stroke="midnightblue" d="M54.63,-61.98C49.63,-53.23 41.71,-39.37 35.39,-28.31"/>
<polygon fill="midnightblue" stroke="midnightblue" points="38.36,-26.46 30.36,-19.51 32.28,-29.93 38.36,-26.46"/>
</g>
<!-- Node5 -->
<g id="node5" class="node">
<title>Node5</title>
<g id="a_node5"><a xlink:title=" ">
<polygon fill="none" stroke="#bfbfbf" points="69.5,-0.5 69.5,-19.5 117.5,-19.5 117.5,-0.5 69.5,-0.5"/>
<text text-anchor="middle" x="93.5" y="-7.5" font-family="Helvetica,sans-Serif" font-size="10.00">string.h</text>
</a>
</g>
</g>
<!-- Node3&#45;&gt;Node5 -->
<g id="edge4" class="edge">
<title>Node3&#45;&gt;Node5</title>
<path fill="none" stroke="midnightblue" d="M64.37,-61.98C69.37,-53.23 77.29,-39.37 83.61,-28.31"/>
<polygon fill="midnightblue" stroke="midnightblue" points="86.72,-29.93 88.64,-19.51 80.64,-26.46 86.72,-29.93"/>
</g>
</g>
</svg>
