<?xml version="1.0" encoding="UTF-8" standalone="no"?>
<!DOCTYPE svg PUBLIC "-//W3C//DTD SVG 1.1//EN"
 "http://www.w3.org/Graphics/SVG/1.1/DTD/svg11.dtd">
<!-- Generated by graphviz version 2.49.0 (20210830.1337)
 -->
<!-- Title: ctests/camera_fakes.h Pages: 1 -->
<svg width="246pt" height="140pt"
 viewBox="0.00 0.00 245.50 140.00" xmlns="http://www.w3.org/2000/svg" xmlns:xlink="http://www.w3.org/1999/xlink">
<g id="graph0" class="graph" transform="scale(1 1) rotate(0) translate(4 136)">
<title>ctests/camera_fakes.h</title>
<!-- Node1 -->
<g id="node1" class="node">
<title>Node1</title>
<g id="a_node1"><a xlink:title=" ">
<polygon fill="#bfbfbf" stroke="black" points="57,-112.5 57,-131.5 173,-131.5 173,-112.5 57,-112.5"/>
<text text-anchor="middle" x="115" y="-119.5" font-family="Helvetica,sans-Serif" font-size="10.00">ctests/camera_fakes.h</text>
</a>
</g>
</g>
<!-- Node2 -->
<g id="node2" class="node">
<title>Node2</title>
<g id="a_node2"><a xlink:href="camera__fakes_8c.html" target="_top" xlink:title=" ">
<polygon fill="none" stroke="black" points="0,-56.5 0,-75.5 116,-75.5 116,-56.5 0,-56.5"/>
<text text-anchor="middle" x="58" y="-63.5" font-family="Helvetica,sans-Serif" font-size="10.00">ctests/camera_fakes.c</text>
</a>
</g>
</g>
<!-- Node1&#45;&gt;Node2 -->
<g id="edge1" class="edge">
<title>Node1&#45;&gt;Node2</title>
<path fill="none" stroke="midnightblue" d="M98.38,-105.25C88.27,-95.67 75.72,-83.79 67.32,-75.83"/>
<polygon fill="midnightblue" stroke="midnightblue" points="96.18,-107.99 105.84,-112.32 100.99,-102.91 96.18,-107.99"/>
</g>
<!-- Node3 -->
<g id="node3" class="node">
<title>Node3</title>
<g id="a_node3"><a xlink:href="ctests_2fakes_8h.html" target="_top" xlink:title=" ">
<polygon fill="none" stroke="black" points="134,-56.5 134,-75.5 212,-75.5 212,-56.5 134,-56.5"/>
<text text-anchor="middle" x="173" y="-63.5" font-family="Helvetica,sans-Serif" font-size="10.00">ctests/fakes.h</text>
</a>
</g>
</g>
<!-- Node1&#45;&gt;Node3 -->
<g id="edge2" class="edge">
<title>Node1&#45;&gt;Node3</title>
<path fill="none" stroke="midnightblue" d="M131.91,-105.25C142.2,-95.67 154.97,-83.79 163.51,-75.83"/>
<polygon fill="midnightblue" stroke="midnightblue" points="129.25,-102.95 124.32,-112.32 134.02,-108.07 129.25,-102.95"/>
</g>
<!-- Node4 -->
<g id="node4" class="node">
<title>Node4</title>
<g id="a_node4"><a xlink:href="gurobots__tests_8hpp.html" target="_top" xlink:title=" ">
<polygon fill="none" stroke="black" points="108.5,-0.5 108.5,-19.5 237.5,-19.5 237.5,-0.5 108.5,-0.5"/>
<text text-anchor="middle" x="173" y="-7.5" font-family="Helvetica,sans-Serif" font-size="10.00">ctests/gurobots_tests.hpp</text>
</a>
</g>
</g>
<!-- Node3&#45;&gt;Node4 -->
<g id="edge3" class="edge">
<title>Node3&#45;&gt;Node4</title>
<path fill="none" stroke="midnightblue" d="M173,-45.8C173,-36.91 173,-26.78 173,-19.75"/>
<polygon fill="midnightblue" stroke="midnightblue" points="169.5,-46.08 173,-56.08 176.5,-46.08 169.5,-46.08"/>
</g>
</g>
</svg>
