<?xml version="1.0" encoding="UTF-8" standalone="no"?>
<!DOCTYPE svg PUBLIC "-//W3C//DTD SVG 1.1//EN"
 "http://www.w3.org/Graphics/SVG/1.1/DTD/svg11.dtd">
<!-- Generated by graphviz version 2.49.0 (20210830.1337)
 -->
<!-- Title: ctests/cartesian_coordinate_fakes.c Pages: 1 -->
<svg width="222pt" height="229pt"
 viewBox="0.00 0.00 221.50 229.00" xmlns="http://www.w3.org/2000/svg" xmlns:xlink="http://www.w3.org/1999/xlink">
<g id="graph0" class="graph" transform="scale(1 1) rotate(0) translate(4 225)">
<title>ctests/cartesian_coordinate_fakes.c</title>
<!-- Node1 -->
<g id="node1" class="node">
<title>Node1</title>
<g id="a_node1"><a xlink:title=" ">
<polygon fill="#bfbfbf" stroke="black" points="38,-190.5 38,-220.5 175,-220.5 175,-190.5 38,-190.5"/>
<text text-anchor="start" x="46" y="-208.5" font-family="Helvetica,sans-Serif" font-size="10.00">ctests/cartesian_coordinate</text>
<text text-anchor="middle" x="106.5" y="-197.5" font-family="Helvetica,sans-Serif" font-size="10.00">_fakes.c</text>
</a>
</g>
</g>
<!-- Node2 -->
<g id="node2" class="node">
<title>Node2</title>
<g id="a_node2"><a xlink:href="cartesian__coordinate__fakes_8h.html" target="_top" xlink:title=" ">
<polygon fill="none" stroke="black" points="53,-123.5 53,-153.5 160,-153.5 160,-123.5 53,-123.5"/>
<text text-anchor="start" x="61" y="-141.5" font-family="Helvetica,sans-Serif" font-size="10.00">cartesian_coordinate</text>
<text text-anchor="middle" x="106.5" y="-130.5" font-family="Helvetica,sans-Serif" font-size="10.00">_fakes.h</text>
</a>
</g>
</g>
<!-- Node1&#45;&gt;Node2 -->
<g id="edge1" class="edge">
<title>Node1&#45;&gt;Node2</title>
<path fill="none" stroke="midnightblue" d="M106.5,-190.4C106.5,-182.64 106.5,-172.81 106.5,-163.86"/>
<polygon fill="midnightblue" stroke="midnightblue" points="110,-163.58 106.5,-153.58 103,-163.58 110,-163.58"/>
</g>
<!-- Node3 -->
<g id="node3" class="node">
<title>Node3</title>
<g id="a_node3"><a xlink:href="ctests_2fff_8h.html" target="_top" xlink:title=" ">
<polygon fill="none" stroke="black" points="43.5,-62 43.5,-81 75.5,-81 75.5,-62 43.5,-62"/>
<text text-anchor="middle" x="59.5" y="-69" font-family="Helvetica,sans-Serif" font-size="10.00">fff.h</text>
</a>
</g>
</g>
<!-- Node2&#45;&gt;Node3 -->
<g id="edge2" class="edge">
<title>Node2&#45;&gt;Node3</title>
<path fill="none" stroke="midnightblue" d="M96.3,-123.4C89.12,-113.46 79.46,-100.11 71.84,-89.57"/>
<polygon fill="midnightblue" stroke="midnightblue" points="74.48,-87.25 65.79,-81.19 68.81,-91.35 74.48,-87.25"/>
</g>
<!-- Node6 -->
<g id="node6" class="node">
<title>Node6</title>
<g id="a_node6"><a xlink:title=" ">
<polygon fill="none" stroke="#bfbfbf" points="93.5,-56.5 93.5,-86.5 213.5,-86.5 213.5,-56.5 93.5,-56.5"/>
<text text-anchor="start" x="101.5" y="-74.5" font-family="Helvetica,sans-Serif" font-size="10.00">gucoordinates/cartesian</text>
<text text-anchor="middle" x="153.5" y="-63.5" font-family="Helvetica,sans-Serif" font-size="10.00">_coordinate.h</text>
</a>
</g>
</g>
<!-- Node2&#45;&gt;Node6 -->
<g id="edge5" class="edge">
<title>Node2&#45;&gt;Node6</title>
<path fill="none" stroke="midnightblue" d="M116.7,-123.4C122.73,-115.05 130.52,-104.29 137.37,-94.81"/>
<polygon fill="midnightblue" stroke="midnightblue" points="140.3,-96.73 143.32,-86.58 134.63,-92.63 140.3,-96.73"/>
</g>
<!-- Node4 -->
<g id="node4" class="node">
<title>Node4</title>
<g id="a_node4"><a xlink:title=" ">
<polygon fill="none" stroke="#bfbfbf" points="0,-0.5 0,-19.5 51,-19.5 51,-0.5 0,-0.5"/>
<text text-anchor="middle" x="25.5" y="-7.5" font-family="Helvetica,sans-Serif" font-size="10.00">stdarg.h</text>
</a>
</g>
</g>
<!-- Node3&#45;&gt;Node4 -->
<g id="edge3" class="edge">
<title>Node3&#45;&gt;Node4</title>
<path fill="none" stroke="midnightblue" d="M54.63,-61.98C49.63,-53.23 41.71,-39.37 35.39,-28.31"/>
<polygon fill="midnightblue" stroke="midnightblue" points="38.36,-26.46 30.36,-19.51 32.28,-29.93 38.36,-26.46"/>
</g>
<!-- Node5 -->
<g id="node5" class="node">
<title>Node5</title>
<g id="a_node5"><a xlink:title=" ">
<polygon fill="none" stroke="#bfbfbf" points="69.5,-0.5 69.5,-19.5 117.5,-19.5 117.5,-0.5 69.5,-0.5"/>
<text text-anchor="middle" x="93.5" y="-7.5" font-family="Helvetica,sans-Serif" font-size="10.00">string.h</text>
</a>
</g>
</g>
<!-- Node3&#45;&gt;Node5 -->
<g id="edge4" class="edge">
<title>Node3&#45;&gt;Node5</title>
<path fill="none" stroke="midnightblue" d="M64.37,-61.98C69.37,-53.23 77.29,-39.37 83.61,-28.31"/>
<polygon fill="midnightblue" stroke="midnightblue" points="86.72,-29.93 88.64,-19.51 80.64,-26.46 86.72,-29.93"/>
</g>
</g>
</svg>
