<?xml version="1.0" encoding="UTF-8" standalone="no"?>
<!DOCTYPE svg PUBLIC "-//W3C//DTD SVG 1.1//EN"
 "http://www.w3.org/Graphics/SVG/1.1/DTD/svg11.dtd">
<!-- Generated by graphviz version 2.49.0 (20210830.1337)
 -->
<!-- Title: ctests/conversion_fakes.h Pages: 1 -->
<svg width="261pt" height="140pt"
 viewBox="0.00 0.00 261.00 140.00" xmlns="http://www.w3.org/2000/svg" xmlns:xlink="http://www.w3.org/1999/xlink">
<g id="graph0" class="graph" transform="scale(1 1) rotate(0) translate(4 136)">
<title>ctests/conversion_fakes.h</title>
<!-- Node1 -->
<g id="node1" class="node">
<title>Node1</title>
<g id="a_node1"><a xlink:title=" ">
<polygon fill="#bfbfbf" stroke="black" points="61,-112.5 61,-131.5 192,-131.5 192,-112.5 61,-112.5"/>
<text text-anchor="middle" x="126.5" y="-119.5" font-family="Helvetica,sans-Serif" font-size="10.00">ctests/conversion_fakes.h</text>
</a>
</g>
</g>
<!-- Node2 -->
<g id="node2" class="node">
<title>Node2</title>
<g id="a_node2"><a xlink:href="conversion__fakes_8c.html" target="_top" xlink:title=" ">
<polygon fill="none" stroke="black" points="0,-56.5 0,-75.5 131,-75.5 131,-56.5 0,-56.5"/>
<text text-anchor="middle" x="65.5" y="-63.5" font-family="Helvetica,sans-Serif" font-size="10.00">ctests/conversion_fakes.c</text>
</a>
</g>
</g>
<!-- Node1&#45;&gt;Node2 -->
<g id="edge1" class="edge">
<title>Node1&#45;&gt;Node2</title>
<path fill="none" stroke="midnightblue" d="M109.03,-105.54C98.16,-95.91 84.56,-83.87 75.48,-75.83"/>
<polygon fill="midnightblue" stroke="midnightblue" points="106.89,-108.32 116.7,-112.32 111.53,-103.07 106.89,-108.32"/>
</g>
<!-- Node3 -->
<g id="node3" class="node">
<title>Node3</title>
<g id="a_node3"><a xlink:href="ctests_2fakes_8h.html" target="_top" xlink:title=" ">
<polygon fill="none" stroke="black" points="149.5,-56.5 149.5,-75.5 227.5,-75.5 227.5,-56.5 149.5,-56.5"/>
<text text-anchor="middle" x="188.5" y="-63.5" font-family="Helvetica,sans-Serif" font-size="10.00">ctests/fakes.h</text>
</a>
</g>
</g>
<!-- Node1&#45;&gt;Node3 -->
<g id="edge2" class="edge">
<title>Node1&#45;&gt;Node3</title>
<path fill="none" stroke="midnightblue" d="M144.25,-105.54C155.31,-95.91 169.13,-83.87 178.36,-75.83"/>
<polygon fill="midnightblue" stroke="midnightblue" points="141.7,-103.12 136.46,-112.32 146.3,-108.4 141.7,-103.12"/>
</g>
<!-- Node4 -->
<g id="node4" class="node">
<title>Node4</title>
<g id="a_node4"><a xlink:href="gurobots__tests_8hpp.html" target="_top" xlink:title=" ">
<polygon fill="none" stroke="black" points="124,-0.5 124,-19.5 253,-19.5 253,-0.5 124,-0.5"/>
<text text-anchor="middle" x="188.5" y="-7.5" font-family="Helvetica,sans-Serif" font-size="10.00">ctests/gurobots_tests.hpp</text>
</a>
</g>
</g>
<!-- Node3&#45;&gt;Node4 -->
<g id="edge3" class="edge">
<title>Node3&#45;&gt;Node4</title>
<path fill="none" stroke="midnightblue" d="M188.5,-45.8C188.5,-36.91 188.5,-26.78 188.5,-19.75"/>
<polygon fill="midnightblue" stroke="midnightblue" points="185,-46.08 188.5,-56.08 192,-46.08 185,-46.08"/>
</g>
</g>
</svg>
