<?xml version="1.0" encoding="UTF-8" standalone="no"?>
<!DOCTYPE svg PUBLIC "-//W3C//DTD SVG 1.1//EN"
 "http://www.w3.org/Graphics/SVG/1.1/DTD/svg11.dtd">
<!-- Generated by graphviz version 2.49.0 (20210830.1337)
 -->
<!-- Title: corner_sighting.h Pages: 1 -->
<svg width="401pt" height="476pt"
 viewBox="0.00 0.00 400.50 476.00" xmlns="http://www.w3.org/2000/svg" xmlns:xlink="http://www.w3.org/1999/xlink">
<g id="graph0" class="graph" transform="scale(1 1) rotate(0) translate(4 472)">
<title>corner_sighting.h</title>
<!-- Node1 -->
<g id="node1" class="node">
<title>Node1</title>
<g id="a_node1"><a xlink:title=" ">
<polygon fill="#bfbfbf" stroke="black" points="134,-448.5 134,-467.5 224,-467.5 224,-448.5 134,-448.5"/>
<text text-anchor="middle" x="179" y="-455.5" font-family="Helvetica,sans-Serif" font-size="10.00">corner_sighting.h</text>
</a>
</g>
</g>
<!-- Node2 -->
<g id="node2" class="node">
<title>Node2</title>
<g id="a_node2"><a xlink:href="corner__sighting_8c.html" target="_top" xlink:title=" ">
<polygon fill="none" stroke="black" points="24,-392.5 24,-411.5 114,-411.5 114,-392.5 24,-392.5"/>
<text text-anchor="middle" x="69" y="-399.5" font-family="Helvetica,sans-Serif" font-size="10.00">corner_sighting.c</text>
</a>
</g>
</g>
<!-- Node1&#45;&gt;Node2 -->
<g id="edge1" class="edge">
<title>Node1&#45;&gt;Node2</title>
<path fill="none" stroke="midnightblue" d="M152.24,-443.86C131.84,-433.85 104.33,-420.35 86.63,-411.65"/>
<polygon fill="midnightblue" stroke="midnightblue" points="150.81,-447.06 161.33,-448.32 153.89,-440.78 150.81,-447.06"/>
</g>
<!-- Node3 -->
<g id="node3" class="node">
<title>Node3</title>
<g id="a_node3"><a xlink:href="horizon__sighting_8h.html" target="_top" xlink:title=" ">
<polygon fill="none" stroke="black" points="132,-392.5 132,-411.5 226,-411.5 226,-392.5 132,-392.5"/>
<text text-anchor="middle" x="179" y="-399.5" font-family="Helvetica,sans-Serif" font-size="10.00">horizon_sighting.h</text>
</a>
</g>
</g>
<!-- Node1&#45;&gt;Node3 -->
<g id="edge2" class="edge">
<title>Node1&#45;&gt;Node3</title>
<path fill="none" stroke="midnightblue" d="M179,-437.8C179,-428.91 179,-418.78 179,-411.75"/>
<polygon fill="midnightblue" stroke="midnightblue" points="175.5,-438.08 179,-448.08 182.5,-438.08 175.5,-438.08"/>
</g>
<!-- Node17 -->
<g id="node17" class="node">
<title>Node17</title>
<g id="a_node17"><a xlink:href="optional__corner__sighting_8h.html" target="_top" xlink:title=" ">
<polygon fill="none" stroke="black" points="254.5,-392.5 254.5,-411.5 383.5,-411.5 383.5,-392.5 254.5,-392.5"/>
<text text-anchor="middle" x="319" y="-399.5" font-family="Helvetica,sans-Serif" font-size="10.00">optional_corner_sighting.h</text>
</a>
</g>
</g>
<!-- Node1&#45;&gt;Node17 -->
<g id="edge17" class="edge">
<title>Node1&#45;&gt;Node17</title>
<path fill="none" stroke="midnightblue" d="M210.7,-444.77C237,-434.63 273.72,-420.47 296.92,-411.52"/>
<polygon fill="midnightblue" stroke="midnightblue" points="209.25,-441.58 201.18,-448.44 211.77,-448.11 209.25,-441.58"/>
</g>
<!-- Node4 -->
<g id="node4" class="node">
<title>Node4</title>
<g id="a_node4"><a xlink:href="horizon__sighting_8c.html" target="_top" xlink:title=" ">
<polygon fill="none" stroke="black" points="0,-336.5 0,-355.5 94,-355.5 94,-336.5 0,-336.5"/>
<text text-anchor="middle" x="47" y="-343.5" font-family="Helvetica,sans-Serif" font-size="10.00">horizon_sighting.c</text>
</a>
</g>
</g>
<!-- Node3&#45;&gt;Node4 -->
<g id="edge3" class="edge">
<title>Node3&#45;&gt;Node4</title>
<path fill="none" stroke="midnightblue" d="M148.78,-388.64C124.01,-378.5 89.6,-364.43 67.82,-355.52"/>
<polygon fill="midnightblue" stroke="midnightblue" points="147.5,-391.9 158.08,-392.44 150.15,-385.42 147.5,-391.9"/>
</g>
<!-- Node5 -->
<g id="node5" class="node">
<title>Node5</title>
<g id="a_node5"><a xlink:href="optional__horizon__sighting_8h.html" target="_top" xlink:title=" ">
<polygon fill="none" stroke="black" points="112.5,-336.5 112.5,-355.5 245.5,-355.5 245.5,-336.5 112.5,-336.5"/>
<text text-anchor="middle" x="179" y="-343.5" font-family="Helvetica,sans-Serif" font-size="10.00">optional_horizon_sighting.h</text>
</a>
</g>
</g>
<!-- Node3&#45;&gt;Node5 -->
<g id="edge4" class="edge">
<title>Node3&#45;&gt;Node5</title>
<path fill="none" stroke="midnightblue" d="M179,-381.8C179,-372.91 179,-362.78 179,-355.75"/>
<polygon fill="midnightblue" stroke="midnightblue" points="175.5,-382.08 179,-392.08 182.5,-382.08 175.5,-382.08"/>
</g>
<!-- Node6 -->
<g id="node6" class="node">
<title>Node6</title>
<g id="a_node6"><a xlink:href="optional__horizon__sighting_8c.html" target="_top" xlink:title=" ">
<polygon fill="none" stroke="black" points="45.5,-280.5 45.5,-299.5 178.5,-299.5 178.5,-280.5 45.5,-280.5"/>
<text text-anchor="middle" x="112" y="-287.5" font-family="Helvetica,sans-Serif" font-size="10.00">optional_horizon_sighting.c</text>
</a>
</g>
</g>
<!-- Node5&#45;&gt;Node6 -->
<g id="edge5" class="edge">
<title>Node5&#45;&gt;Node6</title>
<path fill="none" stroke="midnightblue" d="M160.17,-329.82C148.16,-320.15 133.03,-307.95 122.96,-299.83"/>
<polygon fill="midnightblue" stroke="midnightblue" points="158.25,-332.77 168.24,-336.32 162.65,-327.32 158.25,-332.77"/>
</g>
<!-- Node7 -->
<g id="node7" class="node">
<title>Node7</title>
<g id="a_node7"><a xlink:href="soccer__sightings_8h.html" target="_top" xlink:title=" ">
<polygon fill="none" stroke="black" points="197,-280.5 197,-299.5 295,-299.5 295,-280.5 197,-280.5"/>
<text text-anchor="middle" x="246" y="-287.5" font-family="Helvetica,sans-Serif" font-size="10.00">soccer_sightings.h</text>
</a>
</g>
</g>
<!-- Node5&#45;&gt;Node7 -->
<g id="edge6" class="edge">
<title>Node5&#45;&gt;Node7</title>
<path fill="none" stroke="midnightblue" d="M197.83,-329.82C209.84,-320.15 224.97,-307.95 235.04,-299.83"/>
<polygon fill="midnightblue" stroke="midnightblue" points="195.35,-327.32 189.76,-336.32 199.75,-332.77 195.35,-327.32"/>
</g>
<!-- Node8 -->
<g id="node8" class="node">
<title>Node8</title>
<g id="a_node8"><a xlink:href="nao_8h.html" target="_top" xlink:title=" ">
<polygon fill="none" stroke="black" points="183,-224.5 183,-243.5 223,-243.5 223,-224.5 183,-224.5"/>
<text text-anchor="middle" x="203" y="-231.5" font-family="Helvetica,sans-Serif" font-size="10.00">nao.h</text>
</a>
</g>
</g>
<!-- Node7&#45;&gt;Node8 -->
<g id="edge7" class="edge">
<title>Node7&#45;&gt;Node8</title>
<path fill="none" stroke="midnightblue" d="M232.58,-272.14C225.09,-262.74 216.06,-251.4 209.97,-243.75"/>
<polygon fill="midnightblue" stroke="midnightblue" points="229.93,-274.44 238.9,-280.08 235.41,-270.08 229.93,-274.44"/>
</g>
<!-- Node16 -->
<g id="node16" class="node">
<title>Node16</title>
<g id="a_node16"><a xlink:href="soccer__sightings_8c.html" target="_top" xlink:title=" ">
<polygon fill="none" stroke="black" points="241,-224.5 241,-243.5 339,-243.5 339,-224.5 241,-224.5"/>
<text text-anchor="middle" x="290" y="-231.5" font-family="Helvetica,sans-Serif" font-size="10.00">soccer_sightings.c</text>
</a>
</g>
</g>
<!-- Node7&#45;&gt;Node16 -->
<g id="edge16" class="edge">
<title>Node7&#45;&gt;Node16</title>
<path fill="none" stroke="midnightblue" d="M259.73,-272.14C267.4,-262.74 276.63,-251.4 282.87,-243.75"/>
<polygon fill="midnightblue" stroke="midnightblue" points="256.87,-270.12 253.27,-280.08 262.3,-274.54 256.87,-270.12"/>
</g>
<!-- Node9 -->
<g id="node9" class="node">
<title>Node9</title>
<g id="a_node9"><a xlink:href="_nao_v5_8hpp.html" target="_top" xlink:title=" ">
<polygon fill="none" stroke="black" points="109.5,-168.5 109.5,-187.5 174.5,-187.5 174.5,-168.5 109.5,-168.5"/>
<text text-anchor="middle" x="142" y="-175.5" font-family="Helvetica,sans-Serif" font-size="10.00">NaoV5.hpp</text>
</a>
</g>
</g>
<!-- Node8&#45;&gt;Node9 -->
<g id="edge8" class="edge">
<title>Node8&#45;&gt;Node9</title>
<path fill="none" stroke="midnightblue" d="M185.53,-217.54C174.66,-207.91 161.06,-195.87 151.98,-187.83"/>
<polygon fill="midnightblue" stroke="midnightblue" points="183.39,-220.32 193.2,-224.32 188.03,-215.07 183.39,-220.32"/>
</g>
<!-- Node11 -->
<g id="node11" class="node">
<title>Node11</title>
<g id="a_node11"><a xlink:href="gurobots_8h.html" target="_top" xlink:title=" ">
<polygon fill="none" stroke="black" points="172,-112.5 172,-131.5 234,-131.5 234,-112.5 172,-112.5"/>
<text text-anchor="middle" x="203" y="-119.5" font-family="Helvetica,sans-Serif" font-size="10.00">gurobots.h</text>
</a>
</g>
</g>
<!-- Node8&#45;&gt;Node11 -->
<g id="edge14" class="edge">
<title>Node8&#45;&gt;Node11</title>
<path fill="none" stroke="midnightblue" d="M203,-214.35C203,-190.25 203,-149.31 203,-131.59"/>
<polygon fill="midnightblue" stroke="midnightblue" points="199.5,-214.37 203,-224.37 206.5,-214.37 199.5,-214.37"/>
</g>
<!-- Node15 -->
<g id="node15" class="node">
<title>Node15</title>
<g id="a_node15"><a xlink:href="nao_8c.html" target="_top" xlink:title=" ">
<polygon fill="none" stroke="black" points="231,-168.5 231,-187.5 271,-187.5 271,-168.5 231,-168.5"/>
<text text-anchor="middle" x="251" y="-175.5" font-family="Helvetica,sans-Serif" font-size="10.00">nao.c</text>
</a>
</g>
</g>
<!-- Node8&#45;&gt;Node15 -->
<g id="edge15" class="edge">
<title>Node8&#45;&gt;Node15</title>
<path fill="none" stroke="midnightblue" d="M217.73,-216.43C226.14,-206.97 236.35,-195.48 243.22,-187.75"/>
<polygon fill="midnightblue" stroke="midnightblue" points="214.95,-214.28 210.93,-224.08 220.19,-218.93 214.95,-214.28"/>
</g>
<!-- Node10 -->
<g id="node10" class="node">
<title>Node10</title>
<g id="a_node10"><a xlink:href="_nao_v5_8cc.html" target="_top" xlink:title=" ">
<polygon fill="none" stroke="black" points="94.5,-112.5 94.5,-131.5 153.5,-131.5 153.5,-112.5 94.5,-112.5"/>
<text text-anchor="middle" x="124" y="-119.5" font-family="Helvetica,sans-Serif" font-size="10.00">NaoV5.cc</text>
</a>
</g>
</g>
<!-- Node9&#45;&gt;Node10 -->
<g id="edge9" class="edge">
<title>Node9&#45;&gt;Node10</title>
<path fill="none" stroke="midnightblue" d="M135.8,-158.4C132.79,-149.36 129.31,-138.94 126.92,-131.75"/>
<polygon fill="midnightblue" stroke="midnightblue" points="132.54,-159.7 139.03,-168.08 139.19,-157.49 132.54,-159.7"/>
</g>
<!-- Node9&#45;&gt;Node11 -->
<g id="edge10" class="edge">
<title>Node9&#45;&gt;Node11</title>
<path fill="none" stroke="midnightblue" d="M159.47,-161.54C170.34,-151.91 183.94,-139.87 193.02,-131.83"/>
<polygon fill="midnightblue" stroke="midnightblue" points="156.97,-159.07 151.8,-168.32 161.61,-164.32 156.97,-159.07"/>
</g>
<!-- Node12 -->
<g id="node12" class="node">
<title>Node12</title>
<g id="a_node12"><a xlink:href="gurobots__tests_8hpp.html" target="_top" xlink:title=" ">
<polygon fill="none" stroke="black" points="64.5,-56.5 64.5,-75.5 193.5,-75.5 193.5,-56.5 64.5,-56.5"/>
<text text-anchor="middle" x="129" y="-63.5" font-family="Helvetica,sans-Serif" font-size="10.00">ctests/gurobots_tests.hpp</text>
</a>
</g>
</g>
<!-- Node11&#45;&gt;Node12 -->
<g id="edge11" class="edge">
<title>Node11&#45;&gt;Node12</title>
<path fill="none" stroke="midnightblue" d="M182.97,-106.38C169.59,-96.62 152.44,-84.11 141.11,-75.83"/>
<polygon fill="midnightblue" stroke="midnightblue" points="180.97,-109.26 191.11,-112.32 185.1,-103.6 180.97,-109.26"/>
</g>
<!-- Node13 -->
<g id="node13" class="node">
<title>Node13</title>
<g id="a_node13"><a xlink:href="_g_u_robots_tests_8hpp.html" target="_top" xlink:title=" ">
<polygon fill="none" stroke="black" points="212,-56.5 212,-75.5 342,-75.5 342,-56.5 212,-56.5"/>
<text text-anchor="middle" x="277" y="-63.5" font-family="Helvetica,sans-Serif" font-size="10.00">tests/GURobotsTests.hpp</text>
</a>
</g>
</g>
<!-- Node11&#45;&gt;Node13 -->
<g id="edge12" class="edge">
<title>Node11&#45;&gt;Node13</title>
<path fill="none" stroke="midnightblue" d="M223.03,-106.38C236.41,-96.62 253.56,-84.11 264.89,-75.83"/>
<polygon fill="midnightblue" stroke="midnightblue" points="220.9,-103.6 214.89,-112.32 225.03,-109.26 220.9,-103.6"/>
</g>
<!-- Node14 -->
<g id="node14" class="node">
<title>Node14</title>
<g id="a_node14"><a xlink:href="_nao_v5_tests_8cc.html" target="_top" xlink:title=" ">
<polygon fill="none" stroke="black" points="222.5,-0.5 222.5,-19.5 331.5,-19.5 331.5,-0.5 222.5,-0.5"/>
<text text-anchor="middle" x="277" y="-7.5" font-family="Helvetica,sans-Serif" font-size="10.00">tests/NaoV5Tests.cc</text>
</a>
</g>
</g>
<!-- Node13&#45;&gt;Node14 -->
<g id="edge13" class="edge">
<title>Node13&#45;&gt;Node14</title>
<path fill="none" stroke="midnightblue" d="M277,-45.8C277,-36.91 277,-26.78 277,-19.75"/>
<polygon fill="midnightblue" stroke="midnightblue" points="273.5,-46.08 277,-56.08 280.5,-46.08 273.5,-46.08"/>
</g>
<!-- Node18 -->
<g id="node18" class="node">
<title>Node18</title>
<g id="a_node18"><a xlink:href="optional__corner__sighting_8c.html" target="_top" xlink:title=" ">
<polygon fill="none" stroke="black" points="263.5,-336.5 263.5,-355.5 392.5,-355.5 392.5,-336.5 263.5,-336.5"/>
<text text-anchor="middle" x="328" y="-343.5" font-family="Helvetica,sans-Serif" font-size="10.00">optional_corner_sighting.c</text>
</a>
</g>
</g>
<!-- Node17&#45;&gt;Node18 -->
<g id="edge18" class="edge">
<title>Node17&#45;&gt;Node18</title>
<path fill="none" stroke="midnightblue" d="M322.15,-382.1C323.64,-373.14 325.36,-362.86 326.54,-355.75"/>
<polygon fill="midnightblue" stroke="midnightblue" points="318.68,-381.64 320.49,-392.08 325.58,-382.79 318.68,-381.64"/>
</g>
</g>
</svg>
