<?xml version="1.0" encoding="UTF-8" standalone="no"?>
<!DOCTYPE svg PUBLIC "-//W3C//DTD SVG 1.1//EN"
 "http://www.w3.org/Graphics/SVG/1.1/DTD/svg11.dtd">
<!-- Generated by graphviz version 2.49.0 (20210830.1337)
 -->
<!-- Title: ctests/fakes.h Pages: 1 -->
<svg width="1316pt" height="218pt"
 viewBox="0.00 0.00 1315.50 218.00" xmlns="http://www.w3.org/2000/svg" xmlns:xlink="http://www.w3.org/1999/xlink">
<g id="graph0" class="graph" transform="scale(1 1) rotate(0) translate(4 214)">
<title>ctests/fakes.h</title>
<!-- Node1 -->
<g id="node1" class="node">
<title>Node1</title>
<g id="a_node1"><a xlink:title=" ">
<polygon fill="#bfbfbf" stroke="black" points="647,-190.5 647,-209.5 725,-209.5 725,-190.5 647,-190.5"/>
<text text-anchor="middle" x="686" y="-197.5" font-family="Helvetica,sans-Serif" font-size="10.00">ctests/fakes.h</text>
</a>
</g>
</g>
<!-- Node2 -->
<g id="node2" class="node">
<title>Node2</title>
<g id="a_node2"><a xlink:href="ctests_2fff_8h.html" target="_top" xlink:title=" ">
<polygon fill="none" stroke="black" points="622,-62 622,-81 654,-81 654,-62 622,-62"/>
<text text-anchor="middle" x="638" y="-69" font-family="Helvetica,sans-Serif" font-size="10.00">fff.h</text>
</a>
</g>
</g>
<!-- Node1&#45;&gt;Node2 -->
<g id="edge1" class="edge">
<title>Node1&#45;&gt;Node2</title>
<path fill="none" stroke="midnightblue" d="M682.21,-190.43C678.26,-181.42 671.98,-166.81 667,-154 658.61,-132.41 649.8,-107.26 644.13,-90.67"/>
<polygon fill="midnightblue" stroke="midnightblue" points="647.42,-89.47 640.89,-81.13 640.79,-91.72 647.42,-89.47"/>
</g>
<!-- Node5 -->
<g id="node5" class="node">
<title>Node5</title>
<g id="a_node5"><a xlink:href="conversion__fakes_8h.html" target="_top" xlink:title=" ">
<polygon fill="none" stroke="black" points="102.5,-129 102.5,-148 203.5,-148 203.5,-129 102.5,-129"/>
<text text-anchor="middle" x="153" y="-136" font-family="Helvetica,sans-Serif" font-size="10.00">conversion_fakes.h</text>
</a>
</g>
</g>
<!-- Node1&#45;&gt;Node5 -->
<g id="edge4" class="edge">
<title>Node1&#45;&gt;Node5</title>
<path fill="none" stroke="midnightblue" d="M646.78,-196.98C565.84,-192.44 374.59,-179.73 216,-154 209.67,-152.97 203.04,-151.68 196.54,-150.3"/>
<polygon fill="midnightblue" stroke="midnightblue" points="197.04,-146.82 186.52,-148.07 195.52,-153.66 197.04,-146.82"/>
</g>
<!-- Node8 -->
<g id="node8" class="node">
<title>Node8</title>
<g id="a_node8"><a xlink:href="camera__coordinate__fakes_8h.html" target="_top" xlink:title=" ">
<polygon fill="none" stroke="black" points="225,-129 225,-148 361,-148 361,-129 225,-129"/>
<text text-anchor="middle" x="293" y="-136" font-family="Helvetica,sans-Serif" font-size="10.00">camera_coordinate_fakes.h</text>
</a>
</g>
</g>
<!-- Node1&#45;&gt;Node8 -->
<g id="edge8" class="edge">
<title>Node1&#45;&gt;Node8</title>
<path fill="none" stroke="midnightblue" d="M647,-194.02C587.24,-186.25 469.5,-170.45 370,-154 362.36,-152.74 354.3,-151.32 346.4,-149.88"/>
<polygon fill="midnightblue" stroke="midnightblue" points="346.98,-146.42 336.51,-148.04 345.71,-153.31 346.98,-146.42"/>
</g>
<!-- Node10 -->
<g id="node10" class="node">
<title>Node10</title>
<g id="a_node10"><a xlink:href="pixel__coordinate__fakes_8h.html" target="_top" xlink:title=" ">
<polygon fill="none" stroke="black" points="379.5,-129 379.5,-148 502.5,-148 502.5,-129 379.5,-129"/>
<text text-anchor="middle" x="441" y="-136" font-family="Helvetica,sans-Serif" font-size="10.00">pixel_coordinate_fakes.h</text>
</a>
</g>
</g>
<!-- Node1&#45;&gt;Node10 -->
<g id="edge11" class="edge">
<title>Node1&#45;&gt;Node10</title>
<path fill="none" stroke="midnightblue" d="M650.9,-190.48C607.51,-179.94 533.59,-161.99 486.05,-150.44"/>
<polygon fill="midnightblue" stroke="midnightblue" points="486.58,-146.97 476.04,-148.01 484.93,-153.77 486.58,-146.97"/>
</g>
<!-- Node12 -->
<g id="node12" class="node">
<title>Node12</title>
<g id="a_node12"><a xlink:href="percent__coordinate__fakes_8h.html" target="_top" xlink:title=" ">
<polygon fill="none" stroke="black" points="520.5,-123.5 520.5,-153.5 619.5,-153.5 619.5,-123.5 520.5,-123.5"/>
<text text-anchor="start" x="528.5" y="-141.5" font-family="Helvetica,sans-Serif" font-size="10.00">percent_coordinate</text>
<text text-anchor="middle" x="570" y="-130.5" font-family="Helvetica,sans-Serif" font-size="10.00">_fakes.h</text>
</a>
</g>
</g>
<!-- Node1&#45;&gt;Node12 -->
<g id="edge14" class="edge">
<title>Node1&#45;&gt;Node12</title>
<path fill="none" stroke="midnightblue" d="M669.38,-190.48C653.01,-182.08 627.46,-168.97 606.37,-158.15"/>
<polygon fill="midnightblue" stroke="midnightblue" points="607.83,-154.97 597.34,-153.52 604.64,-161.2 607.83,-154.97"/>
</g>
<!-- Node14 -->
<g id="node14" class="node">
<title>Node14</title>
<g id="a_node14"><a xlink:href="relative__coordinate__fakes_8h.html" target="_top" xlink:title=" ">
<polygon fill="none" stroke="black" points="676,-123.5 676,-153.5 774,-153.5 774,-123.5 676,-123.5"/>
<text text-anchor="start" x="684" y="-141.5" font-family="Helvetica,sans-Serif" font-size="10.00">relative_coordinate</text>
<text text-anchor="middle" x="725" y="-130.5" font-family="Helvetica,sans-Serif" font-size="10.00">_fakes.h</text>
</a>
</g>
</g>
<!-- Node1&#45;&gt;Node14 -->
<g id="edge17" class="edge">
<title>Node1&#45;&gt;Node14</title>
<path fill="none" stroke="midnightblue" d="M691.59,-190.48C696.43,-183.09 703.65,-172.08 710.14,-162.17"/>
<polygon fill="midnightblue" stroke="midnightblue" points="713.25,-163.81 715.81,-153.52 707.4,-159.97 713.25,-163.81"/>
</g>
<!-- Node16 -->
<g id="node16" class="node">
<title>Node16</title>
<g id="a_node16"><a xlink:href="cartesian__coordinate__fakes_8h.html" target="_top" xlink:title=" ">
<polygon fill="none" stroke="black" points="791.5,-123.5 791.5,-153.5 898.5,-153.5 898.5,-123.5 791.5,-123.5"/>
<text text-anchor="start" x="799.5" y="-141.5" font-family="Helvetica,sans-Serif" font-size="10.00">cartesian_coordinate</text>
<text text-anchor="middle" x="845" y="-130.5" font-family="Helvetica,sans-Serif" font-size="10.00">_fakes.h</text>
</a>
</g>
</g>
<!-- Node1&#45;&gt;Node16 -->
<g id="edge20" class="edge">
<title>Node1&#45;&gt;Node16</title>
<path fill="none" stroke="midnightblue" d="M708.78,-190.48C731.93,-181.81 768.45,-168.15 797.86,-157.14"/>
<polygon fill="midnightblue" stroke="midnightblue" points="799.39,-160.31 807.53,-153.52 796.93,-153.75 799.39,-160.31"/>
</g>
<!-- Node18 -->
<g id="node18" class="node">
<title>Node18</title>
<g id="a_node18"><a xlink:href="field__coordinate__fakes_8h.html" target="_top" xlink:title=" ">
<polygon fill="none" stroke="black" points="916.5,-129 916.5,-148 1037.5,-148 1037.5,-129 916.5,-129"/>
<text text-anchor="middle" x="977" y="-136" font-family="Helvetica,sans-Serif" font-size="10.00">field_coordinate_fakes.h</text>
</a>
</g>
</g>
<!-- Node1&#45;&gt;Node18 -->
<g id="edge23" class="edge">
<title>Node1&#45;&gt;Node18</title>
<path fill="none" stroke="midnightblue" d="M725.32,-191.12C769.7,-182.2 844.07,-167.2 908,-154 914.06,-152.75 920.41,-151.43 926.71,-150.11"/>
<polygon fill="midnightblue" stroke="midnightblue" points="927.44,-153.53 936.51,-148.06 926.01,-146.68 927.44,-153.53"/>
</g>
<!-- Node20 -->
<g id="node20" class="node">
<title>Node20</title>
<g id="a_node20"><a xlink:href="camera__fakes_8h.html" target="_top" xlink:title=" ">
<polygon fill="none" stroke="black" points="1056,-129 1056,-148 1142,-148 1142,-129 1056,-129"/>
<text text-anchor="middle" x="1099" y="-136" font-family="Helvetica,sans-Serif" font-size="10.00">camera_fakes.h</text>
</a>
</g>
</g>
<!-- Node1&#45;&gt;Node20 -->
<g id="edge26" class="edge">
<title>Node1&#45;&gt;Node20</title>
<path fill="none" stroke="midnightblue" d="M725.04,-196.04C791.58,-190.57 931.05,-177.26 1047,-154 1051.75,-153.05 1056.7,-151.89 1061.57,-150.65"/>
<polygon fill="midnightblue" stroke="midnightblue" points="1062.63,-153.99 1071.39,-148.02 1060.82,-147.22 1062.63,-153.99"/>
</g>
<!-- Node22 -->
<g id="node22" class="node">
<title>Node22</title>
<g id="a_node22"><a xlink:href="camera__pivot__fakes_8h.html" target="_top" xlink:title=" ">
<polygon fill="none" stroke="black" points="1160,-129 1160,-148 1272,-148 1272,-129 1160,-129"/>
<text text-anchor="middle" x="1216" y="-136" font-family="Helvetica,sans-Serif" font-size="10.00">camera_pivot_fakes.h</text>
</a>
</g>
</g>
<!-- Node1&#45;&gt;Node22 -->
<g id="edge29" class="edge">
<title>Node1&#45;&gt;Node22</title>
<path fill="none" stroke="midnightblue" d="M725.09,-196.85C805.32,-192.07 994.21,-178.98 1151,-154 1157.67,-152.94 1164.69,-151.6 1171.54,-150.18"/>
<polygon fill="midnightblue" stroke="midnightblue" points="1172.37,-153.58 1181.41,-148.05 1170.89,-146.74 1172.37,-153.58"/>
</g>
<!-- Node3 -->
<g id="node3" class="node">
<title>Node3</title>
<g id="a_node3"><a xlink:title=" ">
<polygon fill="none" stroke="#bfbfbf" points="578.5,-0.5 578.5,-19.5 629.5,-19.5 629.5,-0.5 578.5,-0.5"/>
<text text-anchor="middle" x="604" y="-7.5" font-family="Helvetica,sans-Serif" font-size="10.00">stdarg.h</text>
</a>
</g>
</g>
<!-- Node2&#45;&gt;Node3 -->
<g id="edge2" class="edge">
<title>Node2&#45;&gt;Node3</title>
<path fill="none" stroke="midnightblue" d="M633.13,-61.98C628.13,-53.23 620.21,-39.37 613.89,-28.31"/>
<polygon fill="midnightblue" stroke="midnightblue" points="616.86,-26.46 608.86,-19.51 610.78,-29.93 616.86,-26.46"/>
</g>
<!-- Node4 -->
<g id="node4" class="node">
<title>Node4</title>
<g id="a_node4"><a xlink:title=" ">
<polygon fill="none" stroke="#bfbfbf" points="648,-0.5 648,-19.5 696,-19.5 696,-0.5 648,-0.5"/>
<text text-anchor="middle" x="672" y="-7.5" font-family="Helvetica,sans-Serif" font-size="10.00">string.h</text>
</a>
</g>
</g>
<!-- Node2&#45;&gt;Node4 -->
<g id="edge3" class="edge">
<title>Node2&#45;&gt;Node4</title>
<path fill="none" stroke="midnightblue" d="M642.87,-61.98C647.87,-53.23 655.79,-39.37 662.11,-28.31"/>
<polygon fill="midnightblue" stroke="midnightblue" points="665.22,-29.93 667.14,-19.51 659.14,-26.46 665.22,-29.93"/>
</g>
<!-- Node5&#45;&gt;Node2 -->
<g id="edge5" class="edge">
<title>Node5&#45;&gt;Node2</title>
<path fill="none" stroke="midnightblue" d="M186.18,-128.98C195.75,-126.76 206.25,-124.56 216,-123 390.51,-95.12 443.15,-139.17 612,-87 613.25,-86.61 614.51,-86.16 615.76,-85.66"/>
<polygon fill="midnightblue" stroke="midnightblue" points="617.54,-88.69 624.99,-81.15 614.47,-82.4 617.54,-88.69"/>
</g>
<!-- Node6 -->
<g id="node6" class="node">
<title>Node6</title>
<g id="a_node6"><a xlink:title=" ">
<polygon fill="none" stroke="#bfbfbf" points="73.5,-62 73.5,-81 222.5,-81 222.5,-62 73.5,-62"/>
<text text-anchor="middle" x="148" y="-69" font-family="Helvetica,sans-Serif" font-size="10.00">gucoordinates/gucoordinates.h</text>
</a>
</g>
</g>
<!-- Node5&#45;&gt;Node6 -->
<g id="edge6" class="edge">
<title>Node5&#45;&gt;Node6</title>
<path fill="none" stroke="midnightblue" d="M152.33,-128.73C151.59,-119.18 150.39,-103.62 149.44,-91.28"/>
<polygon fill="midnightblue" stroke="midnightblue" points="152.92,-90.83 148.66,-81.13 145.94,-91.37 152.92,-90.83"/>
</g>
<!-- Node7 -->
<g id="node7" class="node">
<title>Node7</title>
<g id="a_node7"><a xlink:title=" ">
<polygon fill="none" stroke="#bfbfbf" points="0,-62 0,-81 56,-81 56,-62 0,-62"/>
<text text-anchor="middle" x="28" y="-69" font-family="Helvetica,sans-Serif" font-size="10.00">stdbool.h</text>
</a>
</g>
</g>
<!-- Node5&#45;&gt;Node7 -->
<g id="edge7" class="edge">
<title>Node5&#45;&gt;Node7</title>
<path fill="none" stroke="midnightblue" d="M136.4,-128.87C115.29,-117.89 78.62,-98.82 53.84,-85.94"/>
<polygon fill="midnightblue" stroke="midnightblue" points="55.15,-82.68 44.67,-81.17 51.93,-88.89 55.15,-82.68"/>
</g>
<!-- Node8&#45;&gt;Node2 -->
<g id="edge9" class="edge">
<title>Node8&#45;&gt;Node2</title>
<path fill="none" stroke="midnightblue" d="M336.92,-128.93C347.73,-126.9 359.27,-124.81 370,-123 477.23,-104.94 509.07,-122.05 612,-87 613.21,-86.59 614.43,-86.12 615.65,-85.61"/>
<polygon fill="midnightblue" stroke="midnightblue" points="617.26,-88.72 624.67,-81.14 614.15,-82.44 617.26,-88.72"/>
</g>
<!-- Node9 -->
<g id="node9" class="node">
<title>Node9</title>
<g id="a_node9"><a xlink:title=" ">
<polygon fill="none" stroke="#bfbfbf" points="240.5,-56.5 240.5,-86.5 353.5,-86.5 353.5,-56.5 240.5,-56.5"/>
<text text-anchor="start" x="248.5" y="-74.5" font-family="Helvetica,sans-Serif" font-size="10.00">gucoordinates/camera</text>
<text text-anchor="middle" x="297" y="-63.5" font-family="Helvetica,sans-Serif" font-size="10.00">_coordinate.h</text>
</a>
</g>
</g>
<!-- Node8&#45;&gt;Node9 -->
<g id="edge10" class="edge">
<title>Node8&#45;&gt;Node9</title>
<path fill="none" stroke="midnightblue" d="M293.54,-128.73C294.04,-120.54 294.82,-107.92 295.51,-96.71"/>
<polygon fill="midnightblue" stroke="midnightblue" points="299.01,-96.79 296.13,-86.59 292.03,-96.36 299.01,-96.79"/>
</g>
<!-- Node10&#45;&gt;Node2 -->
<g id="edge12" class="edge">
<title>Node10&#45;&gt;Node2</title>
<path fill="none" stroke="midnightblue" d="M478.51,-128.97C513.72,-120.37 567.48,-105.71 612,-87 613,-86.58 614.01,-86.13 615.03,-85.66"/>
<polygon fill="midnightblue" stroke="midnightblue" points="616.68,-88.74 623.98,-81.06 613.49,-82.52 616.68,-88.74"/>
</g>
<!-- Node11 -->
<g id="node11" class="node">
<title>Node11</title>
<g id="a_node11"><a xlink:title=" ">
<polygon fill="none" stroke="#bfbfbf" points="372,-56.5 372,-86.5 472,-86.5 472,-56.5 372,-56.5"/>
<text text-anchor="start" x="380" y="-74.5" font-family="Helvetica,sans-Serif" font-size="10.00">gucoordinates/pixel</text>
<text text-anchor="middle" x="422" y="-63.5" font-family="Helvetica,sans-Serif" font-size="10.00">_coordinate.h</text>
</a>
</g>
</g>
<!-- Node10&#45;&gt;Node11 -->
<g id="edge13" class="edge">
<title>Node10&#45;&gt;Node11</title>
<path fill="none" stroke="midnightblue" d="M438.44,-128.73C436.02,-120.46 432.28,-107.66 428.98,-96.37"/>
<polygon fill="midnightblue" stroke="midnightblue" points="432.28,-95.21 426.12,-86.59 425.56,-97.17 432.28,-95.21"/>
</g>
<!-- Node12&#45;&gt;Node2 -->
<g id="edge15" class="edge">
<title>Node12&#45;&gt;Node2</title>
<path fill="none" stroke="midnightblue" d="M584.75,-123.4C595.57,-113.06 610.25,-99.02 621.46,-88.31"/>
<polygon fill="midnightblue" stroke="midnightblue" points="624.09,-90.63 628.9,-81.19 619.26,-85.57 624.09,-90.63"/>
</g>
<!-- Node13 -->
<g id="node13" class="node">
<title>Node13</title>
<g id="a_node13"><a xlink:title=" ">
<polygon fill="none" stroke="#bfbfbf" points="490.5,-56.5 490.5,-86.5 603.5,-86.5 603.5,-56.5 490.5,-56.5"/>
<text text-anchor="start" x="498.5" y="-74.5" font-family="Helvetica,sans-Serif" font-size="10.00">gucoordinates/percent</text>
<text text-anchor="middle" x="547" y="-63.5" font-family="Helvetica,sans-Serif" font-size="10.00">_coordinate.h</text>
</a>
</g>
</g>
<!-- Node12&#45;&gt;Node13 -->
<g id="edge16" class="edge">
<title>Node12&#45;&gt;Node13</title>
<path fill="none" stroke="midnightblue" d="M565.01,-123.4C562.21,-115.47 558.63,-105.38 555.41,-96.27"/>
<polygon fill="midnightblue" stroke="midnightblue" points="558.62,-94.84 551.98,-86.58 552.02,-97.17 558.62,-94.84"/>
</g>
<!-- Node14&#45;&gt;Node2 -->
<g id="edge18" class="edge">
<title>Node14&#45;&gt;Node2</title>
<path fill="none" stroke="midnightblue" d="M706.12,-123.4C691.89,-112.76 672.4,-98.2 657.92,-87.38"/>
<polygon fill="midnightblue" stroke="midnightblue" points="659.74,-84.38 649.64,-81.19 655.55,-89.98 659.74,-84.38"/>
</g>
<!-- Node15 -->
<g id="node15" class="node">
<title>Node15</title>
<g id="a_node15"><a xlink:title=" ">
<polygon fill="none" stroke="#bfbfbf" points="672,-56.5 672,-86.5 784,-86.5 784,-56.5 672,-56.5"/>
<text text-anchor="start" x="680" y="-74.5" font-family="Helvetica,sans-Serif" font-size="10.00">gucoordinates/relative</text>
<text text-anchor="middle" x="728" y="-63.5" font-family="Helvetica,sans-Serif" font-size="10.00">_coordinate.h</text>
</a>
</g>
</g>
<!-- Node14&#45;&gt;Node15 -->
<g id="edge19" class="edge">
<title>Node14&#45;&gt;Node15</title>
<path fill="none" stroke="midnightblue" d="M725.65,-123.4C726.01,-115.64 726.46,-105.81 726.88,-96.86"/>
<polygon fill="midnightblue" stroke="midnightblue" points="730.39,-96.73 727.35,-86.58 723.39,-96.4 730.39,-96.73"/>
</g>
<!-- Node16&#45;&gt;Node2 -->
<g id="edge21" class="edge">
<title>Node16&#45;&gt;Node2</title>
<path fill="none" stroke="midnightblue" d="M791.11,-124.16C746.22,-112.76 686.05,-96.69 663,-87 662.15,-86.64 661.29,-86.26 660.44,-85.86"/>
<polygon fill="midnightblue" stroke="midnightblue" points="661.91,-82.68 651.43,-81.13 658.65,-88.88 661.91,-82.68"/>
</g>
<!-- Node17 -->
<g id="node17" class="node">
<title>Node17</title>
<g id="a_node17"><a xlink:title=" ">
<polygon fill="none" stroke="#bfbfbf" points="802,-56.5 802,-86.5 922,-86.5 922,-56.5 802,-56.5"/>
<text text-anchor="start" x="810" y="-74.5" font-family="Helvetica,sans-Serif" font-size="10.00">gucoordinates/cartesian</text>
<text text-anchor="middle" x="862" y="-63.5" font-family="Helvetica,sans-Serif" font-size="10.00">_coordinate.h</text>
</a>
</g>
</g>
<!-- Node16&#45;&gt;Node17 -->
<g id="edge22" class="edge">
<title>Node16&#45;&gt;Node17</title>
<path fill="none" stroke="midnightblue" d="M848.69,-123.4C850.76,-115.47 853.4,-105.38 855.78,-96.27"/>
<polygon fill="midnightblue" stroke="midnightblue" points="859.17,-97.14 858.32,-86.58 852.4,-95.37 859.17,-97.14"/>
</g>
<!-- Node18&#45;&gt;Node2 -->
<g id="edge24" class="edge">
<title>Node18&#45;&gt;Node2</title>
<path fill="none" stroke="midnightblue" d="M938.4,-128.95C928.51,-126.88 917.88,-124.76 908,-123 799.65,-103.67 766.91,-123.26 663,-87 661.93,-86.63 660.86,-86.21 659.79,-85.76"/>
<polygon fill="midnightblue" stroke="midnightblue" points="661.02,-82.45 650.52,-81.01 657.83,-88.68 661.02,-82.45"/>
</g>
<!-- Node19 -->
<g id="node19" class="node">
<title>Node19</title>
<g id="a_node19"><a xlink:title=" ">
<polygon fill="none" stroke="#bfbfbf" points="940,-56.5 940,-86.5 1038,-86.5 1038,-56.5 940,-56.5"/>
<text text-anchor="start" x="948" y="-74.5" font-family="Helvetica,sans-Serif" font-size="10.00">gucoordinates/field</text>
<text text-anchor="middle" x="989" y="-63.5" font-family="Helvetica,sans-Serif" font-size="10.00">_coordinate.h</text>
</a>
</g>
</g>
<!-- Node18&#45;&gt;Node19 -->
<g id="edge25" class="edge">
<title>Node18&#45;&gt;Node19</title>
<path fill="none" stroke="midnightblue" d="M978.62,-128.73C980.13,-120.54 982.46,-107.92 984.53,-96.71"/>
<polygon fill="midnightblue" stroke="midnightblue" points="988.03,-97.06 986.4,-86.59 981.14,-95.79 988.03,-97.06"/>
</g>
<!-- Node20&#45;&gt;Node2 -->
<g id="edge27" class="edge">
<title>Node20&#45;&gt;Node2</title>
<path fill="none" stroke="midnightblue" d="M1071.96,-128.97C1063.99,-126.73 1055.2,-124.52 1047,-123 878.44,-91.86 826.27,-139.21 663,-87 661.92,-86.66 660.85,-86.26 659.77,-85.83"/>
<polygon fill="midnightblue" stroke="midnightblue" points="660.98,-82.52 650.48,-81.15 657.84,-88.77 660.98,-82.52"/>
</g>
<!-- Node21 -->
<g id="node21" class="node">
<title>Node21</title>
<g id="a_node21"><a xlink:title=" ">
<polygon fill="none" stroke="#bfbfbf" points="1056,-62 1056,-81 1176,-81 1176,-62 1056,-62"/>
<text text-anchor="middle" x="1116" y="-69" font-family="Helvetica,sans-Serif" font-size="10.00">gucoordinates/camera.h</text>
</a>
</g>
</g>
<!-- Node20&#45;&gt;Node21 -->
<g id="edge28" class="edge">
<title>Node20&#45;&gt;Node21</title>
<path fill="none" stroke="midnightblue" d="M1101.29,-128.73C1103.82,-119.09 1107.94,-103.3 1111.19,-90.91"/>
<polygon fill="midnightblue" stroke="midnightblue" points="1114.6,-91.69 1113.74,-81.13 1107.83,-89.92 1114.6,-91.69"/>
</g>
<!-- Node22&#45;&gt;Node2 -->
<g id="edge30" class="edge">
<title>Node22&#45;&gt;Node2</title>
<path fill="none" stroke="midnightblue" d="M1182.1,-128.96C1172.14,-126.71 1161.18,-124.5 1151,-123 935.85,-91.24 870.79,-151.19 663,-87 661.76,-86.62 660.51,-86.16 659.28,-85.66"/>
<polygon fill="midnightblue" stroke="midnightblue" points="660.71,-82.46 650.2,-81.05 657.54,-88.7 660.71,-82.46"/>
</g>
<!-- Node23 -->
<g id="node23" class="node">
<title>Node23</title>
<g id="a_node23"><a xlink:title=" ">
<polygon fill="none" stroke="#bfbfbf" points="1194.5,-56.5 1194.5,-86.5 1307.5,-86.5 1307.5,-56.5 1194.5,-56.5"/>
<text text-anchor="start" x="1202.5" y="-74.5" font-family="Helvetica,sans-Serif" font-size="10.00">gucoordinates/camera</text>
<text text-anchor="middle" x="1251" y="-63.5" font-family="Helvetica,sans-Serif" font-size="10.00">_pivot.h</text>
</a>
</g>
</g>
<!-- Node22&#45;&gt;Node23 -->
<g id="edge31" class="edge">
<title>Node22&#45;&gt;Node23</title>
<path fill="none" stroke="midnightblue" d="M1220.72,-128.73C1225.27,-120.29 1232.35,-107.14 1238.52,-95.68"/>
<polygon fill="midnightblue" stroke="midnightblue" points="1241.75,-97.05 1243.41,-86.59 1235.59,-93.73 1241.75,-97.05"/>
</g>
</g>
</svg>
