<?xml version="1.0" encoding="UTF-8" standalone="no"?>
<!DOCTYPE svg PUBLIC "-//W3C//DTD SVG 1.1//EN"
 "http://www.w3.org/Graphics/SVG/1.1/DTD/svg11.dtd">
<!-- Generated by graphviz version 2.49.0 (20210830.1337)
 -->
<!-- Title: ctests/fff.h Pages: 1 -->
<svg width="1475pt" height="218pt"
 viewBox="0.00 0.00 1474.50 218.00" xmlns="http://www.w3.org/2000/svg" xmlns:xlink="http://www.w3.org/1999/xlink">
<g id="graph0" class="graph" transform="scale(1 1) rotate(0) translate(4 214)">
<title>ctests/fff.h</title>
<!-- Node1 -->
<g id="node1" class="node">
<title>Node1</title>
<g id="a_node1"><a xlink:title=" ">
<polygon fill="#bfbfbf" stroke="black" points="761.5,-190.5 761.5,-209.5 823.5,-209.5 823.5,-190.5 761.5,-190.5"/>
<text text-anchor="middle" x="792.5" y="-197.5" font-family="Helvetica,sans-Serif" font-size="10.00">ctests/fff.h</text>
</a>
</g>
</g>
<!-- Node2 -->
<g id="node2" class="node">
<title>Node2</title>
<g id="a_node2"><a xlink:href="camera__coordinate__fakes_8h.html" target="_top" xlink:title=" ">
<polygon fill="none" stroke="black" points="58,-123.5 58,-153.5 187,-153.5 187,-123.5 58,-123.5"/>
<text text-anchor="start" x="66" y="-141.5" font-family="Helvetica,sans-Serif" font-size="10.00">ctests/camera_coordinate</text>
<text text-anchor="middle" x="122.5" y="-130.5" font-family="Helvetica,sans-Serif" font-size="10.00">_fakes.h</text>
</a>
</g>
</g>
<!-- Node1&#45;&gt;Node2 -->
<g id="edge1" class="edge">
<title>Node1&#45;&gt;Node2</title>
<path fill="none" stroke="midnightblue" d="M751.06,-197.56C653.84,-193.8 403.65,-182.02 196.5,-154 193.52,-153.6 190.47,-153.15 187.4,-152.67"/>
<polygon fill="midnightblue" stroke="midnightblue" points="751.22,-201.07 761.34,-197.95 751.48,-194.07 751.22,-201.07"/>
</g>
<!-- Node4 -->
<g id="node4" class="node">
<title>Node4</title>
<g id="a_node4"><a xlink:href="ctests_2fakes_8h.html" target="_top" xlink:title=" ">
<polygon fill="none" stroke="black" points="560.5,-62 560.5,-81 638.5,-81 638.5,-62 560.5,-62"/>
<text text-anchor="middle" x="599.5" y="-69" font-family="Helvetica,sans-Serif" font-size="10.00">ctests/fakes.h</text>
</a>
</g>
</g>
<!-- Node1&#45;&gt;Node4 -->
<g id="edge17" class="edge">
<title>Node1&#45;&gt;Node4</title>
<path fill="none" stroke="midnightblue" d="M751.32,-194.35C720.06,-189.03 677.48,-177.74 647.5,-154 622.52,-134.22 607.84,-97.62 602.19,-81.05"/>
<polygon fill="midnightblue" stroke="midnightblue" points="751.03,-197.85 761.45,-195.93 752.12,-190.93 751.03,-197.85"/>
</g>
<!-- Node5 -->
<g id="node5" class="node">
<title>Node5</title>
<g id="a_node5"><a xlink:href="gurobots__tests_8hpp.html" target="_top" xlink:title=" ">
<polygon fill="none" stroke="black" points="923,-0.5 923,-19.5 1052,-19.5 1052,-0.5 923,-0.5"/>
<text text-anchor="middle" x="987.5" y="-7.5" font-family="Helvetica,sans-Serif" font-size="10.00">ctests/gurobots_tests.hpp</text>
</a>
</g>
</g>
<!-- Node1&#45;&gt;Node5 -->
<g id="edge22" class="edge">
<title>Node1&#45;&gt;Node5</title>
<path fill="none" stroke="midnightblue" d="M834,-198.86C958.46,-198.02 1322.15,-192.28 1357.5,-154 1387.05,-122 1386.38,-88.6 1357.5,-56 1337.63,-33.57 1152.77,-20.04 1052.11,-14.27"/>
<polygon fill="midnightblue" stroke="midnightblue" points="833.72,-195.36 823.75,-198.92 833.77,-202.36 833.72,-195.36"/>
</g>
<!-- Node6 -->
<g id="node6" class="node">
<title>Node6</title>
<g id="a_node6"><a xlink:href="camera__fakes_8h.html" target="_top" xlink:title=" ">
<polygon fill="none" stroke="black" points="205.5,-129 205.5,-148 321.5,-148 321.5,-129 205.5,-129"/>
<text text-anchor="middle" x="263.5" y="-136" font-family="Helvetica,sans-Serif" font-size="10.00">ctests/camera_fakes.h</text>
</a>
</g>
</g>
<!-- Node1&#45;&gt;Node6 -->
<g id="edge5" class="edge">
<title>Node1&#45;&gt;Node6</title>
<path fill="none" stroke="midnightblue" d="M750.96,-196.58C669.79,-191.48 484.61,-178.1 330.5,-154 320.27,-152.4 309.26,-150.21 299.17,-148.02"/>
<polygon fill="midnightblue" stroke="midnightblue" points="751.05,-200.09 761.25,-197.21 751.48,-193.1 751.05,-200.09"/>
</g>
<!-- Node8 -->
<g id="node8" class="node">
<title>Node8</title>
<g id="a_node8"><a xlink:href="camera__pivot__fakes_8h.html" target="_top" xlink:title=" ">
<polygon fill="none" stroke="black" points="340,-123.5 340,-153.5 445,-153.5 445,-123.5 340,-123.5"/>
<text text-anchor="start" x="348" y="-141.5" font-family="Helvetica,sans-Serif" font-size="10.00">ctests/camera_pivot</text>
<text text-anchor="middle" x="392.5" y="-130.5" font-family="Helvetica,sans-Serif" font-size="10.00">_fakes.h</text>
</a>
</g>
</g>
<!-- Node1&#45;&gt;Node8 -->
<g id="edge8" class="edge">
<title>Node1&#45;&gt;Node8</title>
<path fill="none" stroke="midnightblue" d="M751.4,-194.9C687.41,-188.22 560.24,-173.72 453.5,-154 450.72,-153.49 447.87,-152.93 445,-152.34"/>
<polygon fill="midnightblue" stroke="midnightblue" points="751.18,-198.4 761.49,-195.95 751.9,-191.44 751.18,-198.4"/>
</g>
<!-- Node10 -->
<g id="node10" class="node">
<title>Node10</title>
<g id="a_node10"><a xlink:href="cartesian__coordinate__fakes_8h.html" target="_top" xlink:title=" ">
<polygon fill="none" stroke="black" points="463,-123.5 463,-153.5 600,-153.5 600,-123.5 463,-123.5"/>
<text text-anchor="start" x="471" y="-141.5" font-family="Helvetica,sans-Serif" font-size="10.00">ctests/cartesian_coordinate</text>
<text text-anchor="middle" x="531.5" y="-130.5" font-family="Helvetica,sans-Serif" font-size="10.00">_fakes.h</text>
</a>
</g>
</g>
<!-- Node1&#45;&gt;Node10 -->
<g id="edge11" class="edge">
<title>Node1&#45;&gt;Node10</title>
<path fill="none" stroke="midnightblue" d="M751.27,-189.6C708.72,-179.9 641.86,-164.66 593.05,-153.53"/>
<polygon fill="midnightblue" stroke="midnightblue" points="750.75,-193.07 761.28,-191.88 752.3,-186.25 750.75,-193.07"/>
</g>
<!-- Node12 -->
<g id="node12" class="node">
<title>Node12</title>
<g id="a_node12"><a xlink:href="conversion__fakes_8h.html" target="_top" xlink:title=" ">
<polygon fill="none" stroke="black" points="657,-129 657,-148 788,-148 788,-129 657,-129"/>
<text text-anchor="middle" x="722.5" y="-136" font-family="Helvetica,sans-Serif" font-size="10.00">ctests/conversion_fakes.h</text>
</a>
</g>
</g>
<!-- Node1&#45;&gt;Node12 -->
<g id="edge14" class="edge">
<title>Node1&#45;&gt;Node12</title>
<path fill="none" stroke="midnightblue" d="M774.82,-183.97C761.43,-172.59 743.52,-157.37 732.51,-148.01"/>
<polygon fill="midnightblue" stroke="midnightblue" points="772.58,-186.67 782.47,-190.48 777.12,-181.33 772.58,-186.67"/>
</g>
<!-- Node14 -->
<g id="node14" class="node">
<title>Node14</title>
<g id="a_node14"><a xlink:href="ctests_2fff_8c.html" target="_top" xlink:title=" ">
<polygon fill="none" stroke="black" points="1404.5,-129 1404.5,-148 1466.5,-148 1466.5,-129 1404.5,-129"/>
<text text-anchor="middle" x="1435.5" y="-136" font-family="Helvetica,sans-Serif" font-size="10.00">ctests/fff.c</text>
</a>
</g>
</g>
<!-- Node1&#45;&gt;Node14 -->
<g id="edge18" class="edge">
<title>Node1&#45;&gt;Node14</title>
<path fill="none" stroke="midnightblue" d="M833.7,-199.23C931.37,-199.07 1184.22,-194.4 1390.5,-154 1397.75,-152.58 1405.46,-150.37 1412.42,-148.09"/>
<polygon fill="midnightblue" stroke="midnightblue" points="833.65,-195.73 823.65,-199.24 833.66,-202.73 833.65,-195.73"/>
</g>
<!-- Node15 -->
<g id="node15" class="node">
<title>Node15</title>
<g id="a_node15"><a xlink:href="field__coordinate__fakes_8h.html" target="_top" xlink:title=" ">
<polygon fill="none" stroke="black" points="806.5,-123.5 806.5,-153.5 920.5,-153.5 920.5,-123.5 806.5,-123.5"/>
<text text-anchor="start" x="814.5" y="-141.5" font-family="Helvetica,sans-Serif" font-size="10.00">ctests/field_coordinate</text>
<text text-anchor="middle" x="863.5" y="-130.5" font-family="Helvetica,sans-Serif" font-size="10.00">_fakes.h</text>
</a>
</g>
</g>
<!-- Node1&#45;&gt;Node15 -->
<g id="edge19" class="edge">
<title>Node1&#45;&gt;Node15</title>
<path fill="none" stroke="midnightblue" d="M810.49,-183.92C821.64,-174.58 835.86,-162.66 846.77,-153.52"/>
<polygon fill="midnightblue" stroke="midnightblue" points="808.09,-181.37 802.67,-190.48 812.59,-186.73 808.09,-181.37"/>
</g>
<!-- Node17 -->
<g id="node17" class="node">
<title>Node17</title>
<g id="a_node17"><a xlink:href="percent__coordinate__fakes_8h.html" target="_top" xlink:title=" ">
<polygon fill="none" stroke="black" points="939,-123.5 939,-153.5 1068,-153.5 1068,-123.5 939,-123.5"/>
<text text-anchor="start" x="947" y="-141.5" font-family="Helvetica,sans-Serif" font-size="10.00">ctests/percent_coordinate</text>
<text text-anchor="middle" x="1003.5" y="-130.5" font-family="Helvetica,sans-Serif" font-size="10.00">_fakes.h</text>
</a>
</g>
</g>
<!-- Node1&#45;&gt;Node17 -->
<g id="edge23" class="edge">
<title>Node1&#45;&gt;Node17</title>
<path fill="none" stroke="midnightblue" d="M832.45,-187.73C866.89,-178.02 916.76,-163.96 953.77,-153.52"/>
<polygon fill="midnightblue" stroke="midnightblue" points="831.41,-184.39 822.73,-190.48 833.31,-191.13 831.41,-184.39"/>
</g>
<!-- Node19 -->
<g id="node19" class="node">
<title>Node19</title>
<g id="a_node19"><a xlink:href="pixel__coordinate__fakes_8h.html" target="_top" xlink:title=" ">
<polygon fill="none" stroke="black" points="1086.5,-123.5 1086.5,-153.5 1202.5,-153.5 1202.5,-123.5 1086.5,-123.5"/>
<text text-anchor="start" x="1094.5" y="-141.5" font-family="Helvetica,sans-Serif" font-size="10.00">ctests/pixel_coordinate</text>
<text text-anchor="middle" x="1144.5" y="-130.5" font-family="Helvetica,sans-Serif" font-size="10.00">_fakes.h</text>
</a>
</g>
</g>
<!-- Node1&#45;&gt;Node19 -->
<g id="edge26" class="edge">
<title>Node1&#45;&gt;Node19</title>
<path fill="none" stroke="midnightblue" d="M833.96,-193.2C889.55,-185.26 991.23,-170.13 1077.5,-154 1080.42,-153.45 1083.42,-152.87 1086.44,-152.28"/>
<polygon fill="midnightblue" stroke="midnightblue" points="833.21,-189.77 823.81,-194.65 834.2,-196.7 833.21,-189.77"/>
</g>
<!-- Node21 -->
<g id="node21" class="node">
<title>Node21</title>
<g id="a_node21"><a xlink:href="relative__coordinate__fakes_8h.html" target="_top" xlink:title=" ">
<polygon fill="none" stroke="black" points="1220.5,-123.5 1220.5,-153.5 1348.5,-153.5 1348.5,-123.5 1220.5,-123.5"/>
<text text-anchor="start" x="1228.5" y="-141.5" font-family="Helvetica,sans-Serif" font-size="10.00">ctests/relative_coordinate</text>
<text text-anchor="middle" x="1284.5" y="-130.5" font-family="Helvetica,sans-Serif" font-size="10.00">_fakes.h</text>
</a>
</g>
</g>
<!-- Node1&#45;&gt;Node21 -->
<g id="edge29" class="edge">
<title>Node1&#45;&gt;Node21</title>
<path fill="none" stroke="midnightblue" d="M833.65,-195.81C908.91,-189.69 1073.7,-175.04 1211.5,-154 1214.44,-153.55 1217.44,-153.07 1220.46,-152.56"/>
<polygon fill="midnightblue" stroke="midnightblue" points="833.32,-192.32 823.64,-196.61 833.88,-199.3 833.32,-192.32"/>
</g>
<!-- Node3 -->
<g id="node3" class="node">
<title>Node3</title>
<g id="a_node3"><a xlink:href="camera__coordinate__fakes_8c.html" target="_top" xlink:title=" ">
<polygon fill="none" stroke="black" points="0,-56.5 0,-86.5 129,-86.5 129,-56.5 0,-56.5"/>
<text text-anchor="start" x="8" y="-74.5" font-family="Helvetica,sans-Serif" font-size="10.00">ctests/camera_coordinate</text>
<text text-anchor="middle" x="64.5" y="-63.5" font-family="Helvetica,sans-Serif" font-size="10.00">_fakes.c</text>
</a>
</g>
</g>
<!-- Node2&#45;&gt;Node3 -->
<g id="edge2" class="edge">
<title>Node2&#45;&gt;Node3</title>
<path fill="none" stroke="midnightblue" d="M103.08,-115.74C94.5,-106.12 84.66,-95.09 77.06,-86.58"/>
<polygon fill="midnightblue" stroke="midnightblue" points="100.65,-118.26 109.91,-123.4 105.87,-113.6 100.65,-118.26"/>
</g>
<!-- Node2&#45;&gt;Node4 -->
<g id="edge3" class="edge">
<title>Node2&#45;&gt;Node4</title>
<path fill="none" stroke="midnightblue" d="M197.07,-123.03C354.72,-100.48 398.52,-116.94 550.5,-87 558.25,-85.47 566.53,-83.26 574.04,-81.01"/>
<polygon fill="midnightblue" stroke="midnightblue" points="196.4,-119.59 187.01,-124.5 197.41,-126.51 196.4,-119.59"/>
</g>
<!-- Node4&#45;&gt;Node5 -->
<g id="edge4" class="edge">
<title>Node4&#45;&gt;Node5</title>
<path fill="none" stroke="midnightblue" d="M634.74,-59.15C639.01,-57.98 643.34,-56.9 647.5,-56 742.23,-35.56 853.93,-22.92 922.73,-16.43"/>
<polygon fill="midnightblue" stroke="midnightblue" points="633.59,-55.84 624.96,-61.97 635.54,-62.56 633.59,-55.84"/>
</g>
<!-- Node6&#45;&gt;Node4 -->
<g id="edge7" class="edge">
<title>Node6&#45;&gt;Node4</title>
<path fill="none" stroke="midnightblue" d="M311.33,-126.84C317.76,-125.5 324.28,-124.18 330.5,-123 427.84,-104.52 453.92,-109.1 550.5,-87 557.85,-85.32 565.72,-83.15 572.96,-81.01"/>
<polygon fill="midnightblue" stroke="midnightblue" points="310.4,-123.46 301.34,-128.96 311.85,-130.31 310.4,-123.46"/>
</g>
<!-- Node7 -->
<g id="node7" class="node">
<title>Node7</title>
<g id="a_node7"><a xlink:href="camera__fakes_8c.html" target="_top" xlink:title=" ">
<polygon fill="none" stroke="black" points="147.5,-62 147.5,-81 263.5,-81 263.5,-62 147.5,-62"/>
<text text-anchor="middle" x="205.5" y="-69" font-family="Helvetica,sans-Serif" font-size="10.00">ctests/camera_fakes.c</text>
</a>
</g>
</g>
<!-- Node6&#45;&gt;Node7 -->
<g id="edge6" class="edge">
<title>Node6&#45;&gt;Node7</title>
<path fill="none" stroke="midnightblue" d="M248.9,-121.13C237.55,-108.42 222.27,-91.3 213.2,-81.13"/>
<polygon fill="midnightblue" stroke="midnightblue" points="246.41,-123.6 255.68,-128.73 251.63,-118.94 246.41,-123.6"/>
</g>
<!-- Node8&#45;&gt;Node4 -->
<g id="edge10" class="edge">
<title>Node8&#45;&gt;Node4</title>
<path fill="none" stroke="midnightblue" d="M446.86,-120.43C487.23,-107.75 540.58,-91 572.34,-81.03"/>
<polygon fill="midnightblue" stroke="midnightblue" points="445.65,-117.14 437.16,-123.48 447.75,-123.82 445.65,-117.14"/>
</g>
<!-- Node9 -->
<g id="node9" class="node">
<title>Node9</title>
<g id="a_node9"><a xlink:href="camera__pivot__fakes_8c.html" target="_top" xlink:title=" ">
<polygon fill="none" stroke="black" points="282,-56.5 282,-86.5 387,-86.5 387,-56.5 282,-56.5"/>
<text text-anchor="start" x="290" y="-74.5" font-family="Helvetica,sans-Serif" font-size="10.00">ctests/camera_pivot</text>
<text text-anchor="middle" x="334.5" y="-63.5" font-family="Helvetica,sans-Serif" font-size="10.00">_fakes.c</text>
</a>
</g>
</g>
<!-- Node8&#45;&gt;Node9 -->
<g id="edge9" class="edge">
<title>Node8&#45;&gt;Node9</title>
<path fill="none" stroke="midnightblue" d="M373.08,-115.74C364.5,-106.12 354.66,-95.09 347.06,-86.58"/>
<polygon fill="midnightblue" stroke="midnightblue" points="370.65,-118.26 379.91,-123.4 375.87,-113.6 370.65,-118.26"/>
</g>
<!-- Node10&#45;&gt;Node4 -->
<g id="edge13" class="edge">
<title>Node10&#45;&gt;Node4</title>
<path fill="none" stroke="midnightblue" d="M553.64,-116.34C566.13,-104.4 581.05,-90.14 590.4,-81.19"/>
<polygon fill="midnightblue" stroke="midnightblue" points="551.07,-113.96 546.25,-123.4 555.9,-119.02 551.07,-113.96"/>
</g>
<!-- Node11 -->
<g id="node11" class="node">
<title>Node11</title>
<g id="a_node11"><a xlink:href="cartesian__coordinate__fakes_8c.html" target="_top" xlink:title=" ">
<polygon fill="none" stroke="black" points="405,-56.5 405,-86.5 542,-86.5 542,-56.5 405,-56.5"/>
<text text-anchor="start" x="413" y="-74.5" font-family="Helvetica,sans-Serif" font-size="10.00">ctests/cartesian_coordinate</text>
<text text-anchor="middle" x="473.5" y="-63.5" font-family="Helvetica,sans-Serif" font-size="10.00">_fakes.c</text>
</a>
</g>
</g>
<!-- Node10&#45;&gt;Node11 -->
<g id="edge12" class="edge">
<title>Node10&#45;&gt;Node11</title>
<path fill="none" stroke="midnightblue" d="M512.08,-115.74C503.5,-106.12 493.66,-95.09 486.06,-86.58"/>
<polygon fill="midnightblue" stroke="midnightblue" points="509.65,-118.26 518.91,-123.4 514.87,-113.6 509.65,-118.26"/>
</g>
<!-- Node12&#45;&gt;Node4 -->
<g id="edge16" class="edge">
<title>Node12&#45;&gt;Node4</title>
<path fill="none" stroke="midnightblue" d="M697.15,-124.1C672.79,-111.23 636.7,-92.16 615.9,-81.17"/>
<polygon fill="midnightblue" stroke="midnightblue" points="695.69,-127.29 706.17,-128.87 698.96,-121.1 695.69,-127.29"/>
</g>
<!-- Node13 -->
<g id="node13" class="node">
<title>Node13</title>
<g id="a_node13"><a xlink:href="conversion__fakes_8c.html" target="_top" xlink:title=" ">
<polygon fill="none" stroke="black" points="657,-62 657,-81 788,-81 788,-62 657,-62"/>
<text text-anchor="middle" x="722.5" y="-69" font-family="Helvetica,sans-Serif" font-size="10.00">ctests/conversion_fakes.c</text>
</a>
</g>
</g>
<!-- Node12&#45;&gt;Node13 -->
<g id="edge15" class="edge">
<title>Node12&#45;&gt;Node13</title>
<path fill="none" stroke="midnightblue" d="M722.5,-118.54C722.5,-106.17 722.5,-90.62 722.5,-81.13"/>
<polygon fill="midnightblue" stroke="midnightblue" points="719,-118.73 722.5,-128.73 726,-118.73 719,-118.73"/>
</g>
<!-- Node15&#45;&gt;Node4 -->
<g id="edge20" class="edge">
<title>Node15&#45;&gt;Node4</title>
<path fill="none" stroke="midnightblue" d="M796.51,-122.33C743.97,-110.34 675.24,-94.42 647.5,-87 640.69,-85.18 633.38,-83.06 626.58,-81.01"/>
<polygon fill="midnightblue" stroke="midnightblue" points="795.93,-125.79 806.45,-124.6 797.48,-118.96 795.93,-125.79"/>
</g>
<!-- Node16 -->
<g id="node16" class="node">
<title>Node16</title>
<g id="a_node16"><a xlink:href="field__coordinate__fakes_8c.html" target="_top" xlink:title=" ">
<polygon fill="none" stroke="black" points="806.5,-56.5 806.5,-86.5 920.5,-86.5 920.5,-56.5 806.5,-56.5"/>
<text text-anchor="start" x="814.5" y="-74.5" font-family="Helvetica,sans-Serif" font-size="10.00">ctests/field_coordinate</text>
<text text-anchor="middle" x="863.5" y="-63.5" font-family="Helvetica,sans-Serif" font-size="10.00">_fakes.c</text>
</a>
</g>
</g>
<!-- Node15&#45;&gt;Node16 -->
<g id="edge21" class="edge">
<title>Node15&#45;&gt;Node16</title>
<path fill="none" stroke="midnightblue" d="M863.5,-113.11C863.5,-104.15 863.5,-94.32 863.5,-86.58"/>
<polygon fill="midnightblue" stroke="midnightblue" points="860,-113.4 863.5,-123.4 867,-113.4 860,-113.4"/>
</g>
<!-- Node17&#45;&gt;Node4 -->
<g id="edge24" class="edge">
<title>Node17&#45;&gt;Node4</title>
<path fill="none" stroke="midnightblue" d="M928.94,-123C803,-103.35 767.93,-112.69 647.5,-87 640.09,-85.42 632.18,-83.24 624.95,-81.05"/>
<polygon fill="midnightblue" stroke="midnightblue" points="928.55,-126.48 938.97,-124.59 929.65,-119.57 928.55,-126.48"/>
</g>
<!-- Node18 -->
<g id="node18" class="node">
<title>Node18</title>
<g id="a_node18"><a xlink:href="percent__coordinate__fakes_8c.html" target="_top" xlink:title=" ">
<polygon fill="none" stroke="black" points="939,-56.5 939,-86.5 1068,-86.5 1068,-56.5 939,-56.5"/>
<text text-anchor="start" x="947" y="-74.5" font-family="Helvetica,sans-Serif" font-size="10.00">ctests/percent_coordinate</text>
<text text-anchor="middle" x="1003.5" y="-63.5" font-family="Helvetica,sans-Serif" font-size="10.00">_fakes.c</text>
</a>
</g>
</g>
<!-- Node17&#45;&gt;Node18 -->
<g id="edge25" class="edge">
<title>Node17&#45;&gt;Node18</title>
<path fill="none" stroke="midnightblue" d="M1003.5,-113.11C1003.5,-104.15 1003.5,-94.32 1003.5,-86.58"/>
<polygon fill="midnightblue" stroke="midnightblue" points="1000,-113.4 1003.5,-123.4 1007,-113.4 1000,-113.4"/>
</g>
<!-- Node19&#45;&gt;Node4 -->
<g id="edge27" class="edge">
<title>Node19&#45;&gt;Node4</title>
<path fill="none" stroke="midnightblue" d="M1076.42,-122.98C886.01,-95.61 832.67,-122.31 647.5,-87 639.8,-85.53 631.59,-83.3 624.17,-81.03"/>
<polygon fill="midnightblue" stroke="midnightblue" points="1076.08,-126.47 1086.48,-124.46 1077.1,-119.55 1076.08,-126.47"/>
</g>
<!-- Node20 -->
<g id="node20" class="node">
<title>Node20</title>
<g id="a_node20"><a xlink:href="pixel__coordinate__fakes_8c.html" target="_top" xlink:title=" ">
<polygon fill="none" stroke="black" points="1086.5,-56.5 1086.5,-86.5 1202.5,-86.5 1202.5,-56.5 1086.5,-56.5"/>
<text text-anchor="start" x="1094.5" y="-74.5" font-family="Helvetica,sans-Serif" font-size="10.00">ctests/pixel_coordinate</text>
<text text-anchor="middle" x="1144.5" y="-63.5" font-family="Helvetica,sans-Serif" font-size="10.00">_fakes.c</text>
</a>
</g>
</g>
<!-- Node19&#45;&gt;Node20 -->
<g id="edge28" class="edge">
<title>Node19&#45;&gt;Node20</title>
<path fill="none" stroke="midnightblue" d="M1144.5,-113.11C1144.5,-104.15 1144.5,-94.32 1144.5,-86.58"/>
<polygon fill="midnightblue" stroke="midnightblue" points="1141,-113.4 1144.5,-123.4 1148,-113.4 1141,-113.4"/>
</g>
<!-- Node21&#45;&gt;Node4 -->
<g id="edge30" class="edge">
<title>Node21&#45;&gt;Node4</title>
<path fill="none" stroke="midnightblue" d="M1210.38,-122.99C960.62,-91.53 891.42,-131.02 647.5,-87 639.79,-85.61 631.57,-83.4 624.15,-81.13"/>
<polygon fill="midnightblue" stroke="midnightblue" points="1210.12,-126.48 1220.49,-124.29 1211.01,-119.54 1210.12,-126.48"/>
</g>
<!-- Node22 -->
<g id="node22" class="node">
<title>Node22</title>
<g id="a_node22"><a xlink:href="relative__coordinate__fakes_8c.html" target="_top" xlink:title=" ">
<polygon fill="none" stroke="black" points="1220.5,-56.5 1220.5,-86.5 1348.5,-86.5 1348.5,-56.5 1220.5,-56.5"/>
<text text-anchor="start" x="1228.5" y="-74.5" font-family="Helvetica,sans-Serif" font-size="10.00">ctests/relative_coordinate</text>
<text text-anchor="middle" x="1284.5" y="-63.5" font-family="Helvetica,sans-Serif" font-size="10.00">_fakes.c</text>
</a>
</g>
</g>
<!-- Node21&#45;&gt;Node22 -->
<g id="edge31" class="edge">
<title>Node21&#45;&gt;Node22</title>
<path fill="none" stroke="midnightblue" d="M1284.5,-113.11C1284.5,-104.15 1284.5,-94.32 1284.5,-86.58"/>
<polygon fill="midnightblue" stroke="midnightblue" points="1281,-113.4 1284.5,-123.4 1288,-113.4 1281,-113.4"/>
</g>
</g>
</svg>
