<?xml version="1.0" encoding="UTF-8" standalone="no"?>
<!DOCTYPE svg PUBLIC "-//W3C//DTD SVG 1.1//EN"
 "http://www.w3.org/Graphics/SVG/1.1/DTD/svg11.dtd">
<!-- Generated by graphviz version 2.49.0 (20210830.1337)
 -->
<!-- Title: ellipse_sighting.h Pages: 1 -->
<svg width="344pt" height="420pt"
 viewBox="0.00 0.00 343.50 420.00" xmlns="http://www.w3.org/2000/svg" xmlns:xlink="http://www.w3.org/1999/xlink">
<g id="graph0" class="graph" transform="scale(1 1) rotate(0) translate(4 416)">
<title>ellipse_sighting.h</title>
<!-- Node1 -->
<g id="node1" class="node">
<title>Node1</title>
<g id="a_node1"><a xlink:title=" ">
<polygon fill="#bfbfbf" stroke="black" points="64,-392.5 64,-411.5 155,-411.5 155,-392.5 64,-392.5"/>
<text text-anchor="middle" x="109.5" y="-399.5" font-family="Helvetica,sans-Serif" font-size="10.00">ellipse_sighting.h</text>
</a>
</g>
</g>
<!-- Node2 -->
<g id="node2" class="node">
<title>Node2</title>
<g id="a_node2"><a xlink:href="ellipse__sighting_8c.html" target="_top" xlink:title=" ">
<polygon fill="none" stroke="black" points="0,-336.5 0,-355.5 91,-355.5 91,-336.5 0,-336.5"/>
<text text-anchor="middle" x="45.5" y="-343.5" font-family="Helvetica,sans-Serif" font-size="10.00">ellipse_sighting.c</text>
</a>
</g>
</g>
<!-- Node1&#45;&gt;Node2 -->
<g id="edge1" class="edge">
<title>Node1&#45;&gt;Node2</title>
<path fill="none" stroke="midnightblue" d="M91.51,-385.82C80.04,-376.15 65.59,-363.95 55.97,-355.83"/>
<polygon fill="midnightblue" stroke="midnightblue" points="89.32,-388.55 99.22,-392.32 93.83,-383.2 89.32,-388.55"/>
</g>
<!-- Node3 -->
<g id="node3" class="node">
<title>Node3</title>
<g id="a_node3"><a xlink:href="optional__ellipse__sighting_8h.html" target="_top" xlink:title=" ">
<polygon fill="none" stroke="black" points="109.5,-336.5 109.5,-355.5 239.5,-355.5 239.5,-336.5 109.5,-336.5"/>
<text text-anchor="middle" x="174.5" y="-343.5" font-family="Helvetica,sans-Serif" font-size="10.00">optional_ellipse_sighting.h</text>
</a>
</g>
</g>
<!-- Node1&#45;&gt;Node3 -->
<g id="edge2" class="edge">
<title>Node1&#45;&gt;Node3</title>
<path fill="none" stroke="midnightblue" d="M127.77,-385.82C139.42,-376.15 154.1,-363.95 163.87,-355.83"/>
<polygon fill="midnightblue" stroke="midnightblue" points="125.4,-383.24 119.94,-392.32 129.87,-388.63 125.4,-383.24"/>
</g>
<!-- Node4 -->
<g id="node4" class="node">
<title>Node4</title>
<g id="a_node4"><a xlink:href="optional__ellipse__sighting_8c.html" target="_top" xlink:title=" ">
<polygon fill="none" stroke="black" points="43.5,-280.5 43.5,-299.5 173.5,-299.5 173.5,-280.5 43.5,-280.5"/>
<text text-anchor="middle" x="108.5" y="-287.5" font-family="Helvetica,sans-Serif" font-size="10.00">optional_ellipse_sighting.c</text>
</a>
</g>
</g>
<!-- Node3&#45;&gt;Node4 -->
<g id="edge3" class="edge">
<title>Node3&#45;&gt;Node4</title>
<path fill="none" stroke="midnightblue" d="M155.95,-329.82C144.12,-320.15 129.21,-307.95 119.3,-299.83"/>
<polygon fill="midnightblue" stroke="midnightblue" points="153.94,-332.7 163.9,-336.32 158.37,-327.28 153.94,-332.7"/>
</g>
<!-- Node5 -->
<g id="node5" class="node">
<title>Node5</title>
<g id="a_node5"><a xlink:href="soccer__sightings_8h.html" target="_top" xlink:title=" ">
<polygon fill="none" stroke="black" points="191.5,-280.5 191.5,-299.5 289.5,-299.5 289.5,-280.5 191.5,-280.5"/>
<text text-anchor="middle" x="240.5" y="-287.5" font-family="Helvetica,sans-Serif" font-size="10.00">soccer_sightings.h</text>
</a>
</g>
</g>
<!-- Node3&#45;&gt;Node5 -->
<g id="edge4" class="edge">
<title>Node3&#45;&gt;Node5</title>
<path fill="none" stroke="midnightblue" d="M193.05,-329.82C204.88,-320.15 219.79,-307.95 229.7,-299.83"/>
<polygon fill="midnightblue" stroke="midnightblue" points="190.63,-327.28 185.1,-336.32 195.06,-332.7 190.63,-327.28"/>
</g>
<!-- Node6 -->
<g id="node6" class="node">
<title>Node6</title>
<g id="a_node6"><a xlink:href="nao_8h.html" target="_top" xlink:title=" ">
<polygon fill="none" stroke="black" points="176.5,-224.5 176.5,-243.5 216.5,-243.5 216.5,-224.5 176.5,-224.5"/>
<text text-anchor="middle" x="196.5" y="-231.5" font-family="Helvetica,sans-Serif" font-size="10.00">nao.h</text>
</a>
</g>
</g>
<!-- Node5&#45;&gt;Node6 -->
<g id="edge5" class="edge">
<title>Node5&#45;&gt;Node6</title>
<path fill="none" stroke="midnightblue" d="M226.77,-272.14C219.1,-262.74 209.87,-251.4 203.63,-243.75"/>
<polygon fill="midnightblue" stroke="midnightblue" points="224.2,-274.54 233.23,-280.08 229.63,-270.12 224.2,-274.54"/>
</g>
<!-- Node14 -->
<g id="node14" class="node">
<title>Node14</title>
<g id="a_node14"><a xlink:href="soccer__sightings_8c.html" target="_top" xlink:title=" ">
<polygon fill="none" stroke="black" points="234.5,-224.5 234.5,-243.5 332.5,-243.5 332.5,-224.5 234.5,-224.5"/>
<text text-anchor="middle" x="283.5" y="-231.5" font-family="Helvetica,sans-Serif" font-size="10.00">soccer_sightings.c</text>
</a>
</g>
</g>
<!-- Node5&#45;&gt;Node14 -->
<g id="edge14" class="edge">
<title>Node5&#45;&gt;Node14</title>
<path fill="none" stroke="midnightblue" d="M253.92,-272.14C261.41,-262.74 270.44,-251.4 276.53,-243.75"/>
<polygon fill="midnightblue" stroke="midnightblue" points="251.09,-270.08 247.6,-280.08 256.57,-274.44 251.09,-270.08"/>
</g>
<!-- Node7 -->
<g id="node7" class="node">
<title>Node7</title>
<g id="a_node7"><a xlink:href="_nao_v5_8hpp.html" target="_top" xlink:title=" ">
<polygon fill="none" stroke="black" points="103,-168.5 103,-187.5 168,-187.5 168,-168.5 103,-168.5"/>
<text text-anchor="middle" x="135.5" y="-175.5" font-family="Helvetica,sans-Serif" font-size="10.00">NaoV5.hpp</text>
</a>
</g>
</g>
<!-- Node6&#45;&gt;Node7 -->
<g id="edge6" class="edge">
<title>Node6&#45;&gt;Node7</title>
<path fill="none" stroke="midnightblue" d="M179.03,-217.54C168.16,-207.91 154.56,-195.87 145.48,-187.83"/>
<polygon fill="midnightblue" stroke="midnightblue" points="176.89,-220.32 186.7,-224.32 181.53,-215.07 176.89,-220.32"/>
</g>
<!-- Node9 -->
<g id="node9" class="node">
<title>Node9</title>
<g id="a_node9"><a xlink:href="gurobots_8h.html" target="_top" xlink:title=" ">
<polygon fill="none" stroke="black" points="165.5,-112.5 165.5,-131.5 227.5,-131.5 227.5,-112.5 165.5,-112.5"/>
<text text-anchor="middle" x="196.5" y="-119.5" font-family="Helvetica,sans-Serif" font-size="10.00">gurobots.h</text>
</a>
</g>
</g>
<!-- Node6&#45;&gt;Node9 -->
<g id="edge12" class="edge">
<title>Node6&#45;&gt;Node9</title>
<path fill="none" stroke="midnightblue" d="M196.5,-214.35C196.5,-190.25 196.5,-149.31 196.5,-131.59"/>
<polygon fill="midnightblue" stroke="midnightblue" points="193,-214.37 196.5,-224.37 200,-214.37 193,-214.37"/>
</g>
<!-- Node13 -->
<g id="node13" class="node">
<title>Node13</title>
<g id="a_node13"><a xlink:href="nao_8c.html" target="_top" xlink:title=" ">
<polygon fill="none" stroke="black" points="224.5,-168.5 224.5,-187.5 264.5,-187.5 264.5,-168.5 224.5,-168.5"/>
<text text-anchor="middle" x="244.5" y="-175.5" font-family="Helvetica,sans-Serif" font-size="10.00">nao.c</text>
</a>
</g>
</g>
<!-- Node6&#45;&gt;Node13 -->
<g id="edge13" class="edge">
<title>Node6&#45;&gt;Node13</title>
<path fill="none" stroke="midnightblue" d="M211.23,-216.43C219.64,-206.97 229.85,-195.48 236.72,-187.75"/>
<polygon fill="midnightblue" stroke="midnightblue" points="208.45,-214.28 204.43,-224.08 213.69,-218.93 208.45,-214.28"/>
</g>
<!-- Node8 -->
<g id="node8" class="node">
<title>Node8</title>
<g id="a_node8"><a xlink:href="_nao_v5_8cc.html" target="_top" xlink:title=" ">
<polygon fill="none" stroke="black" points="88,-112.5 88,-131.5 147,-131.5 147,-112.5 88,-112.5"/>
<text text-anchor="middle" x="117.5" y="-119.5" font-family="Helvetica,sans-Serif" font-size="10.00">NaoV5.cc</text>
</a>
</g>
</g>
<!-- Node7&#45;&gt;Node8 -->
<g id="edge7" class="edge">
<title>Node7&#45;&gt;Node8</title>
<path fill="none" stroke="midnightblue" d="M129.3,-158.4C126.29,-149.36 122.81,-138.94 120.42,-131.75"/>
<polygon fill="midnightblue" stroke="midnightblue" points="126.04,-159.7 132.53,-168.08 132.69,-157.49 126.04,-159.7"/>
</g>
<!-- Node7&#45;&gt;Node9 -->
<g id="edge8" class="edge">
<title>Node7&#45;&gt;Node9</title>
<path fill="none" stroke="midnightblue" d="M152.97,-161.54C163.84,-151.91 177.44,-139.87 186.52,-131.83"/>
<polygon fill="midnightblue" stroke="midnightblue" points="150.47,-159.07 145.3,-168.32 155.11,-164.32 150.47,-159.07"/>
</g>
<!-- Node10 -->
<g id="node10" class="node">
<title>Node10</title>
<g id="a_node10"><a xlink:href="gurobots__tests_8hpp.html" target="_top" xlink:title=" ">
<polygon fill="none" stroke="black" points="58,-56.5 58,-75.5 187,-75.5 187,-56.5 58,-56.5"/>
<text text-anchor="middle" x="122.5" y="-63.5" font-family="Helvetica,sans-Serif" font-size="10.00">ctests/gurobots_tests.hpp</text>
</a>
</g>
</g>
<!-- Node9&#45;&gt;Node10 -->
<g id="edge9" class="edge">
<title>Node9&#45;&gt;Node10</title>
<path fill="none" stroke="midnightblue" d="M176.47,-106.38C163.09,-96.62 145.94,-84.11 134.61,-75.83"/>
<polygon fill="midnightblue" stroke="midnightblue" points="174.47,-109.26 184.61,-112.32 178.6,-103.6 174.47,-109.26"/>
</g>
<!-- Node11 -->
<g id="node11" class="node">
<title>Node11</title>
<g id="a_node11"><a xlink:href="_g_u_robots_tests_8hpp.html" target="_top" xlink:title=" ">
<polygon fill="none" stroke="black" points="205.5,-56.5 205.5,-75.5 335.5,-75.5 335.5,-56.5 205.5,-56.5"/>
<text text-anchor="middle" x="270.5" y="-63.5" font-family="Helvetica,sans-Serif" font-size="10.00">tests/GURobotsTests.hpp</text>
</a>
</g>
</g>
<!-- Node9&#45;&gt;Node11 -->
<g id="edge10" class="edge">
<title>Node9&#45;&gt;Node11</title>
<path fill="none" stroke="midnightblue" d="M216.53,-106.38C229.91,-96.62 247.06,-84.11 258.39,-75.83"/>
<polygon fill="midnightblue" stroke="midnightblue" points="214.4,-103.6 208.39,-112.32 218.53,-109.26 214.4,-103.6"/>
</g>
<!-- Node12 -->
<g id="node12" class="node">
<title>Node12</title>
<g id="a_node12"><a xlink:href="_nao_v5_tests_8cc.html" target="_top" xlink:title=" ">
<polygon fill="none" stroke="black" points="216,-0.5 216,-19.5 325,-19.5 325,-0.5 216,-0.5"/>
<text text-anchor="middle" x="270.5" y="-7.5" font-family="Helvetica,sans-Serif" font-size="10.00">tests/NaoV5Tests.cc</text>
</a>
</g>
</g>
<!-- Node11&#45;&gt;Node12 -->
<g id="edge11" class="edge">
<title>Node11&#45;&gt;Node12</title>
<path fill="none" stroke="midnightblue" d="M270.5,-45.8C270.5,-36.91 270.5,-26.78 270.5,-19.75"/>
<polygon fill="midnightblue" stroke="midnightblue" points="267,-46.08 270.5,-56.08 274,-46.08 267,-46.08"/>
</g>
</g>
</svg>
