<?xml version="1.0" encoding="UTF-8" standalone="no"?>
<!DOCTYPE svg PUBLIC "-//W3C//DTD SVG 1.1//EN"
 "http://www.w3.org/Graphics/SVG/1.1/DTD/svg11.dtd">
<!-- Generated by graphviz version 2.49.0 (20210830.1337)
 -->
<!-- Title: horizon_sighting.c Pages: 1 -->
<svg width="538pt" height="218pt"
 viewBox="0.00 0.00 537.50 218.00" xmlns="http://www.w3.org/2000/svg" xmlns:xlink="http://www.w3.org/1999/xlink">
<g id="graph0" class="graph" transform="scale(1 1) rotate(0) translate(4 214)">
<title>horizon_sighting.c</title>
<!-- Node1 -->
<g id="node1" class="node">
<title>Node1</title>
<g id="a_node1"><a xlink:title=" ">
<polygon fill="#bfbfbf" stroke="black" points="185,-190.5 185,-209.5 279,-209.5 279,-190.5 185,-190.5"/>
<text text-anchor="middle" x="232" y="-197.5" font-family="Helvetica,sans-Serif" font-size="10.00">horizon_sighting.c</text>
</a>
</g>
</g>
<!-- Node2 -->
<g id="node2" class="node">
<title>Node2</title>
<g id="a_node2"><a xlink:href="horizon__sighting_8h.html" target="_top" xlink:title=" ">
<polygon fill="none" stroke="black" points="185,-134.5 185,-153.5 279,-153.5 279,-134.5 185,-134.5"/>
<text text-anchor="middle" x="232" y="-141.5" font-family="Helvetica,sans-Serif" font-size="10.00">horizon_sighting.h</text>
</a>
</g>
</g>
<!-- Node1&#45;&gt;Node2 -->
<g id="edge1" class="edge">
<title>Node1&#45;&gt;Node2</title>
<path fill="none" stroke="midnightblue" d="M232,-190.08C232,-183.01 232,-172.86 232,-163.99"/>
<polygon fill="midnightblue" stroke="midnightblue" points="235.5,-163.75 232,-153.75 228.5,-163.75 235.5,-163.75"/>
</g>
<!-- Node3 -->
<g id="node3" class="node">
<title>Node3</title>
<g id="a_node3"><a xlink:title=" ">
<polygon fill="none" stroke="#bfbfbf" points="0,-0.5 0,-19.5 90,-19.5 90,-0.5 0,-0.5"/>
<text text-anchor="middle" x="45" y="-7.5" font-family="Helvetica,sans-Serif" font-size="10.00">guunits/guunits.h</text>
</a>
</g>
</g>
<!-- Node2&#45;&gt;Node3 -->
<g id="edge2" class="edge">
<title>Node2&#45;&gt;Node3</title>
<path fill="none" stroke="midnightblue" d="M184.97,-140.31C126.24,-135.86 30.79,-124.63 9,-98 -8.49,-76.62 12.8,-45.56 29.29,-26.91"/>
<polygon fill="midnightblue" stroke="midnightblue" points="31.91,-29.23 36.15,-19.52 26.78,-24.46 31.91,-29.23"/>
</g>
<!-- Node4 -->
<g id="node4" class="node">
<title>Node4</title>
<g id="a_node4"><a xlink:title=" ">
<polygon fill="none" stroke="#bfbfbf" points="108.5,-0.5 108.5,-19.5 257.5,-19.5 257.5,-0.5 108.5,-0.5"/>
<text text-anchor="middle" x="183" y="-7.5" font-family="Helvetica,sans-Serif" font-size="10.00">gucoordinates/gucoordinates.h</text>
</a>
</g>
</g>
<!-- Node2&#45;&gt;Node4 -->
<g id="edge3" class="edge">
<title>Node2&#45;&gt;Node4</title>
<path fill="none" stroke="midnightblue" d="M231.18,-134.28C229.44,-118.23 224.54,-83.18 213,-56 208.79,-46.08 202.32,-36.01 196.47,-27.91"/>
<polygon fill="midnightblue" stroke="midnightblue" points="199.1,-25.59 190.27,-19.73 193.52,-29.82 199.1,-25.59"/>
</g>
<!-- Node5 -->
<g id="node5" class="node">
<title>Node5</title>
<g id="a_node5"><a xlink:title=" ">
<polygon fill="none" stroke="#bfbfbf" points="260,-67.5 260,-86.5 316,-86.5 316,-67.5 260,-67.5"/>
<text text-anchor="middle" x="288" y="-74.5" font-family="Helvetica,sans-Serif" font-size="10.00">stdbool.h</text>
</a>
</g>
</g>
<!-- Node2&#45;&gt;Node5 -->
<g id="edge4" class="edge">
<title>Node2&#45;&gt;Node5</title>
<path fill="none" stroke="midnightblue" d="M239.55,-134.23C248.28,-124.1 262.85,-107.19 273.74,-94.56"/>
<polygon fill="midnightblue" stroke="midnightblue" points="276.69,-96.49 280.57,-86.63 271.39,-91.92 276.69,-96.49"/>
</g>
<!-- Node6 -->
<g id="node6" class="node">
<title>Node6</title>
<g id="a_node6"><a xlink:title=" ">
<polygon fill="none" stroke="#bfbfbf" points="334,-67.5 334,-86.5 382,-86.5 382,-67.5 334,-67.5"/>
<text text-anchor="middle" x="358" y="-74.5" font-family="Helvetica,sans-Serif" font-size="10.00">stdint.h</text>
</a>
</g>
</g>
<!-- Node2&#45;&gt;Node6 -->
<g id="edge5" class="edge">
<title>Node2&#45;&gt;Node6</title>
<path fill="none" stroke="midnightblue" d="M251.14,-134.38C270.13,-125.68 299.94,-111.62 325,-98 328.44,-96.13 332.03,-94.07 335.52,-92.01"/>
<polygon fill="midnightblue" stroke="midnightblue" points="337.62,-94.83 344.36,-86.66 333.99,-88.84 337.62,-94.83"/>
</g>
<!-- Node7 -->
<g id="node7" class="node">
<title>Node7</title>
<g id="a_node7"><a xlink:href="line__sighting_8h.html" target="_top" xlink:title=" ">
<polygon fill="none" stroke="black" points="126,-67.5 126,-86.5 204,-86.5 204,-67.5 126,-67.5"/>
<text text-anchor="middle" x="165" y="-74.5" font-family="Helvetica,sans-Serif" font-size="10.00">line_sighting.h</text>
</a>
</g>
</g>
<!-- Node2&#45;&gt;Node7 -->
<g id="edge6" class="edge">
<title>Node2&#45;&gt;Node7</title>
<path fill="none" stroke="midnightblue" d="M222.96,-134.23C212.32,-123.9 194.42,-106.54 181.32,-93.83"/>
<polygon fill="midnightblue" stroke="midnightblue" points="183.51,-91.08 173.89,-86.63 178.63,-96.1 183.51,-91.08"/>
</g>
<!-- Node8 -->
<g id="node8" class="node">
<title>Node8</title>
<g id="a_node8"><a xlink:href="corner__sighting_8h.html" target="_top" xlink:title=" ">
<polygon fill="none" stroke="black" points="18,-67.5 18,-86.5 108,-86.5 108,-67.5 18,-67.5"/>
<text text-anchor="middle" x="63" y="-74.5" font-family="Helvetica,sans-Serif" font-size="10.00">corner_sighting.h</text>
</a>
</g>
</g>
<!-- Node2&#45;&gt;Node8 -->
<g id="edge9" class="edge">
<title>Node2&#45;&gt;Node8</title>
<path fill="none" stroke="midnightblue" d="M209.56,-134.37C180.18,-123.07 128.51,-103.2 95.03,-90.32"/>
<polygon fill="midnightblue" stroke="midnightblue" points="95.86,-86.89 85.27,-86.56 93.34,-93.42 95.86,-86.89"/>
</g>
<!-- Node9 -->
<g id="node9" class="node">
<title>Node9</title>
<g id="a_node9"><a xlink:title=" ">
<polygon fill="none" stroke="#bfbfbf" points="400.5,-56.5 400.5,-97.5 529.5,-97.5 529.5,-56.5 400.5,-56.5"/>
<text text-anchor="start" x="408.5" y="-85.5" font-family="Helvetica,sans-Serif" font-size="10.00">gusimplewhiteboard</text>
<text text-anchor="start" x="408.5" y="-74.5" font-family="Helvetica,sans-Serif" font-size="10.00">/typeClassDefs/wb_vision</text>
<text text-anchor="middle" x="465" y="-63.5" font-family="Helvetica,sans-Serif" font-size="10.00">_detection_horizon.h</text>
</a>
</g>
</g>
<!-- Node2&#45;&gt;Node9 -->
<g id="edge12" class="edge">
<title>Node2&#45;&gt;Node9</title>
<path fill="none" stroke="midnightblue" d="M262.94,-134.37C295.39,-125.31 347.59,-110.75 390.8,-98.7"/>
<polygon fill="midnightblue" stroke="midnightblue" points="391.75,-102.07 400.44,-96.01 389.87,-95.33 391.75,-102.07"/>
</g>
<!-- Node7&#45;&gt;Node3 -->
<g id="edge7" class="edge">
<title>Node7&#45;&gt;Node3</title>
<path fill="none" stroke="midnightblue" d="M148.82,-67.23C128.57,-56.27 93.7,-37.38 70.01,-24.55"/>
<polygon fill="midnightblue" stroke="midnightblue" points="71.39,-21.31 60.93,-19.63 68.05,-27.47 71.39,-21.31"/>
</g>
<!-- Node7&#45;&gt;Node4 -->
<g id="edge8" class="edge">
<title>Node7&#45;&gt;Node4</title>
<path fill="none" stroke="midnightblue" d="M167.43,-67.23C170.1,-57.59 174.47,-41.8 177.9,-29.41"/>
<polygon fill="midnightblue" stroke="midnightblue" points="181.32,-30.2 180.61,-19.63 174.57,-28.33 181.32,-30.2"/>
</g>
<!-- Node8&#45;&gt;Node3 -->
<g id="edge10" class="edge">
<title>Node8&#45;&gt;Node3</title>
<path fill="none" stroke="midnightblue" d="M60.57,-67.23C57.9,-57.59 53.53,-41.8 50.1,-29.41"/>
<polygon fill="midnightblue" stroke="midnightblue" points="53.43,-28.33 47.39,-19.63 46.68,-30.2 53.43,-28.33"/>
</g>
<!-- Node8&#45;&gt;Node4 -->
<g id="edge11" class="edge">
<title>Node8&#45;&gt;Node4</title>
<path fill="none" stroke="midnightblue" d="M79.18,-67.23C99.43,-56.27 134.3,-37.38 157.99,-24.55"/>
<polygon fill="midnightblue" stroke="midnightblue" points="159.95,-27.47 167.07,-19.63 156.61,-21.31 159.95,-27.47"/>
</g>
</g>
</svg>
