<?xml version="1.0" encoding="UTF-8" standalone="no"?>
<!DOCTYPE svg PUBLIC "-//W3C//DTD SVG 1.1//EN"
 "http://www.w3.org/Graphics/SVG/1.1/DTD/svg11.dtd">
<!-- Generated by graphviz version 2.49.0 (20210830.1337)
 -->
<!-- Title: horizon_sighting.h Pages: 1 -->
<svg width="349pt" height="420pt"
 viewBox="0.00 0.00 349.00 420.00" xmlns="http://www.w3.org/2000/svg" xmlns:xlink="http://www.w3.org/1999/xlink">
<g id="graph0" class="graph" transform="scale(1 1) rotate(0) translate(4 416)">
<title>horizon_sighting.h</title>
<!-- Node1 -->
<g id="node1" class="node">
<title>Node1</title>
<g id="a_node1"><a xlink:title=" ">
<polygon fill="#bfbfbf" stroke="black" points="66,-392.5 66,-411.5 160,-411.5 160,-392.5 66,-392.5"/>
<text text-anchor="middle" x="113" y="-399.5" font-family="Helvetica,sans-Serif" font-size="10.00">horizon_sighting.h</text>
</a>
</g>
</g>
<!-- Node2 -->
<g id="node2" class="node">
<title>Node2</title>
<g id="a_node2"><a xlink:href="horizon__sighting_8c.html" target="_top" xlink:title=" ">
<polygon fill="none" stroke="black" points="0,-336.5 0,-355.5 94,-355.5 94,-336.5 0,-336.5"/>
<text text-anchor="middle" x="47" y="-343.5" font-family="Helvetica,sans-Serif" font-size="10.00">horizon_sighting.c</text>
</a>
</g>
</g>
<!-- Node1&#45;&gt;Node2 -->
<g id="edge1" class="edge">
<title>Node1&#45;&gt;Node2</title>
<path fill="none" stroke="midnightblue" d="M94.45,-385.82C82.62,-376.15 67.71,-363.95 57.8,-355.83"/>
<polygon fill="midnightblue" stroke="midnightblue" points="92.44,-388.7 102.4,-392.32 96.87,-383.28 92.44,-388.7"/>
</g>
<!-- Node3 -->
<g id="node3" class="node">
<title>Node3</title>
<g id="a_node3"><a xlink:href="optional__horizon__sighting_8h.html" target="_top" xlink:title=" ">
<polygon fill="none" stroke="black" points="112.5,-336.5 112.5,-355.5 245.5,-355.5 245.5,-336.5 112.5,-336.5"/>
<text text-anchor="middle" x="179" y="-343.5" font-family="Helvetica,sans-Serif" font-size="10.00">optional_horizon_sighting.h</text>
</a>
</g>
</g>
<!-- Node1&#45;&gt;Node3 -->
<g id="edge2" class="edge">
<title>Node1&#45;&gt;Node3</title>
<path fill="none" stroke="midnightblue" d="M131.55,-385.82C143.38,-376.15 158.29,-363.95 168.2,-355.83"/>
<polygon fill="midnightblue" stroke="midnightblue" points="129.13,-383.28 123.6,-392.32 133.56,-388.7 129.13,-383.28"/>
</g>
<!-- Node4 -->
<g id="node4" class="node">
<title>Node4</title>
<g id="a_node4"><a xlink:href="optional__horizon__sighting_8c.html" target="_top" xlink:title=" ">
<polygon fill="none" stroke="black" points="45.5,-280.5 45.5,-299.5 178.5,-299.5 178.5,-280.5 45.5,-280.5"/>
<text text-anchor="middle" x="112" y="-287.5" font-family="Helvetica,sans-Serif" font-size="10.00">optional_horizon_sighting.c</text>
</a>
</g>
</g>
<!-- Node3&#45;&gt;Node4 -->
<g id="edge3" class="edge">
<title>Node3&#45;&gt;Node4</title>
<path fill="none" stroke="midnightblue" d="M160.17,-329.82C148.16,-320.15 133.03,-307.95 122.96,-299.83"/>
<polygon fill="midnightblue" stroke="midnightblue" points="158.25,-332.77 168.24,-336.32 162.65,-327.32 158.25,-332.77"/>
</g>
<!-- Node5 -->
<g id="node5" class="node">
<title>Node5</title>
<g id="a_node5"><a xlink:href="soccer__sightings_8h.html" target="_top" xlink:title=" ">
<polygon fill="none" stroke="black" points="197,-280.5 197,-299.5 295,-299.5 295,-280.5 197,-280.5"/>
<text text-anchor="middle" x="246" y="-287.5" font-family="Helvetica,sans-Serif" font-size="10.00">soccer_sightings.h</text>
</a>
</g>
</g>
<!-- Node3&#45;&gt;Node5 -->
<g id="edge4" class="edge">
<title>Node3&#45;&gt;Node5</title>
<path fill="none" stroke="midnightblue" d="M197.83,-329.82C209.84,-320.15 224.97,-307.95 235.04,-299.83"/>
<polygon fill="midnightblue" stroke="midnightblue" points="195.35,-327.32 189.76,-336.32 199.75,-332.77 195.35,-327.32"/>
</g>
<!-- Node6 -->
<g id="node6" class="node">
<title>Node6</title>
<g id="a_node6"><a xlink:href="nao_8h.html" target="_top" xlink:title=" ">
<polygon fill="none" stroke="black" points="182,-224.5 182,-243.5 222,-243.5 222,-224.5 182,-224.5"/>
<text text-anchor="middle" x="202" y="-231.5" font-family="Helvetica,sans-Serif" font-size="10.00">nao.h</text>
</a>
</g>
</g>
<!-- Node5&#45;&gt;Node6 -->
<g id="edge5" class="edge">
<title>Node5&#45;&gt;Node6</title>
<path fill="none" stroke="midnightblue" d="M232.27,-272.14C224.6,-262.74 215.37,-251.4 209.13,-243.75"/>
<polygon fill="midnightblue" stroke="midnightblue" points="229.7,-274.54 238.73,-280.08 235.13,-270.12 229.7,-274.54"/>
</g>
<!-- Node14 -->
<g id="node14" class="node">
<title>Node14</title>
<g id="a_node14"><a xlink:href="soccer__sightings_8c.html" target="_top" xlink:title=" ">
<polygon fill="none" stroke="black" points="240,-224.5 240,-243.5 338,-243.5 338,-224.5 240,-224.5"/>
<text text-anchor="middle" x="289" y="-231.5" font-family="Helvetica,sans-Serif" font-size="10.00">soccer_sightings.c</text>
</a>
</g>
</g>
<!-- Node5&#45;&gt;Node14 -->
<g id="edge14" class="edge">
<title>Node5&#45;&gt;Node14</title>
<path fill="none" stroke="midnightblue" d="M259.42,-272.14C266.91,-262.74 275.94,-251.4 282.03,-243.75"/>
<polygon fill="midnightblue" stroke="midnightblue" points="256.59,-270.08 253.1,-280.08 262.07,-274.44 256.59,-270.08"/>
</g>
<!-- Node7 -->
<g id="node7" class="node">
<title>Node7</title>
<g id="a_node7"><a xlink:href="_nao_v5_8hpp.html" target="_top" xlink:title=" ">
<polygon fill="none" stroke="black" points="108.5,-168.5 108.5,-187.5 173.5,-187.5 173.5,-168.5 108.5,-168.5"/>
<text text-anchor="middle" x="141" y="-175.5" font-family="Helvetica,sans-Serif" font-size="10.00">NaoV5.hpp</text>
</a>
</g>
</g>
<!-- Node6&#45;&gt;Node7 -->
<g id="edge6" class="edge">
<title>Node6&#45;&gt;Node7</title>
<path fill="none" stroke="midnightblue" d="M184.53,-217.54C173.66,-207.91 160.06,-195.87 150.98,-187.83"/>
<polygon fill="midnightblue" stroke="midnightblue" points="182.39,-220.32 192.2,-224.32 187.03,-215.07 182.39,-220.32"/>
</g>
<!-- Node9 -->
<g id="node9" class="node">
<title>Node9</title>
<g id="a_node9"><a xlink:href="gurobots_8h.html" target="_top" xlink:title=" ">
<polygon fill="none" stroke="black" points="171,-112.5 171,-131.5 233,-131.5 233,-112.5 171,-112.5"/>
<text text-anchor="middle" x="202" y="-119.5" font-family="Helvetica,sans-Serif" font-size="10.00">gurobots.h</text>
</a>
</g>
</g>
<!-- Node6&#45;&gt;Node9 -->
<g id="edge12" class="edge">
<title>Node6&#45;&gt;Node9</title>
<path fill="none" stroke="midnightblue" d="M202,-214.35C202,-190.25 202,-149.31 202,-131.59"/>
<polygon fill="midnightblue" stroke="midnightblue" points="198.5,-214.37 202,-224.37 205.5,-214.37 198.5,-214.37"/>
</g>
<!-- Node13 -->
<g id="node13" class="node">
<title>Node13</title>
<g id="a_node13"><a xlink:href="nao_8c.html" target="_top" xlink:title=" ">
<polygon fill="none" stroke="black" points="230,-168.5 230,-187.5 270,-187.5 270,-168.5 230,-168.5"/>
<text text-anchor="middle" x="250" y="-175.5" font-family="Helvetica,sans-Serif" font-size="10.00">nao.c</text>
</a>
</g>
</g>
<!-- Node6&#45;&gt;Node13 -->
<g id="edge13" class="edge">
<title>Node6&#45;&gt;Node13</title>
<path fill="none" stroke="midnightblue" d="M216.73,-216.43C225.14,-206.97 235.35,-195.48 242.22,-187.75"/>
<polygon fill="midnightblue" stroke="midnightblue" points="213.95,-214.28 209.93,-224.08 219.19,-218.93 213.95,-214.28"/>
</g>
<!-- Node8 -->
<g id="node8" class="node">
<title>Node8</title>
<g id="a_node8"><a xlink:href="_nao_v5_8cc.html" target="_top" xlink:title=" ">
<polygon fill="none" stroke="black" points="93.5,-112.5 93.5,-131.5 152.5,-131.5 152.5,-112.5 93.5,-112.5"/>
<text text-anchor="middle" x="123" y="-119.5" font-family="Helvetica,sans-Serif" font-size="10.00">NaoV5.cc</text>
</a>
</g>
</g>
<!-- Node7&#45;&gt;Node8 -->
<g id="edge7" class="edge">
<title>Node7&#45;&gt;Node8</title>
<path fill="none" stroke="midnightblue" d="M134.8,-158.4C131.79,-149.36 128.31,-138.94 125.92,-131.75"/>
<polygon fill="midnightblue" stroke="midnightblue" points="131.54,-159.7 138.03,-168.08 138.19,-157.49 131.54,-159.7"/>
</g>
<!-- Node7&#45;&gt;Node9 -->
<g id="edge8" class="edge">
<title>Node7&#45;&gt;Node9</title>
<path fill="none" stroke="midnightblue" d="M158.47,-161.54C169.34,-151.91 182.94,-139.87 192.02,-131.83"/>
<polygon fill="midnightblue" stroke="midnightblue" points="155.97,-159.07 150.8,-168.32 160.61,-164.32 155.97,-159.07"/>
</g>
<!-- Node10 -->
<g id="node10" class="node">
<title>Node10</title>
<g id="a_node10"><a xlink:href="gurobots__tests_8hpp.html" target="_top" xlink:title=" ">
<polygon fill="none" stroke="black" points="63.5,-56.5 63.5,-75.5 192.5,-75.5 192.5,-56.5 63.5,-56.5"/>
<text text-anchor="middle" x="128" y="-63.5" font-family="Helvetica,sans-Serif" font-size="10.00">ctests/gurobots_tests.hpp</text>
</a>
</g>
</g>
<!-- Node9&#45;&gt;Node10 -->
<g id="edge9" class="edge">
<title>Node9&#45;&gt;Node10</title>
<path fill="none" stroke="midnightblue" d="M181.97,-106.38C168.59,-96.62 151.44,-84.11 140.11,-75.83"/>
<polygon fill="midnightblue" stroke="midnightblue" points="179.97,-109.26 190.11,-112.32 184.1,-103.6 179.97,-109.26"/>
</g>
<!-- Node11 -->
<g id="node11" class="node">
<title>Node11</title>
<g id="a_node11"><a xlink:href="_g_u_robots_tests_8hpp.html" target="_top" xlink:title=" ">
<polygon fill="none" stroke="black" points="211,-56.5 211,-75.5 341,-75.5 341,-56.5 211,-56.5"/>
<text text-anchor="middle" x="276" y="-63.5" font-family="Helvetica,sans-Serif" font-size="10.00">tests/GURobotsTests.hpp</text>
</a>
</g>
</g>
<!-- Node9&#45;&gt;Node11 -->
<g id="edge10" class="edge">
<title>Node9&#45;&gt;Node11</title>
<path fill="none" stroke="midnightblue" d="M222.03,-106.38C235.41,-96.62 252.56,-84.11 263.89,-75.83"/>
<polygon fill="midnightblue" stroke="midnightblue" points="219.9,-103.6 213.89,-112.32 224.03,-109.26 219.9,-103.6"/>
</g>
<!-- Node12 -->
<g id="node12" class="node">
<title>Node12</title>
<g id="a_node12"><a xlink:href="_nao_v5_tests_8cc.html" target="_top" xlink:title=" ">
<polygon fill="none" stroke="black" points="221.5,-0.5 221.5,-19.5 330.5,-19.5 330.5,-0.5 221.5,-0.5"/>
<text text-anchor="middle" x="276" y="-7.5" font-family="Helvetica,sans-Serif" font-size="10.00">tests/NaoV5Tests.cc</text>
</a>
</g>
</g>
<!-- Node11&#45;&gt;Node12 -->
<g id="edge11" class="edge">
<title>Node11&#45;&gt;Node12</title>
<path fill="none" stroke="midnightblue" d="M276,-45.8C276,-36.91 276,-26.78 276,-19.75"/>
<polygon fill="midnightblue" stroke="midnightblue" points="272.5,-46.08 276,-56.08 279.5,-46.08 272.5,-46.08"/>
</g>
</g>
</svg>
