<?xml version="1.0" encoding="UTF-8" standalone="no"?>
<!DOCTYPE svg PUBLIC "-//W3C//DTD SVG 1.1//EN"
 "http://www.w3.org/Graphics/SVG/1.1/DTD/svg11.dtd">
<!-- Generated by graphviz version 2.49.0 (20210830.1337)
 -->
<!-- Title: Graphical Class Hierarchy Pages: 1 -->
<svg width="416pt" height="88pt"
 viewBox="0.00 0.00 416.00 88.00" xmlns="http://www.w3.org/2000/svg" xmlns:xlink="http://www.w3.org/1999/xlink">
<g id="graph0" class="graph" transform="scale(1 1) rotate(0) translate(4 84)">
<title>Graphical Class Hierarchy</title>
<!-- Node65 -->
<g id="node1" class="node">
<title>Node65</title>
<g id="a_node1"><a xlink:title=" ">
<polygon fill="none" stroke="#bfbfbf" points="0,-30 0,-49 70,-49 70,-30 0,-30"/>
<text text-anchor="middle" x="35" y="-37" font-family="Helvetica,sans-Serif" font-size="10.00">testing::Test</text>
</a>
</g>
</g>
<!-- Node0 -->
<g id="node2" class="node">
<title>Node0</title>
<g id="a_node2"><a xlink:href="class_c_g_t_e_s_t_1_1_g_u_robots_tests.html" target="_top" xlink:title=" ">
<polygon fill="none" stroke="black" points="106,-49.5 106,-79.5 237,-79.5 237,-49.5 106,-49.5"/>
<text text-anchor="start" x="114" y="-67.5" font-family="Helvetica,sans-Serif" font-size="10.00">CGTEST::GURobotsTests</text>
<text text-anchor="middle" x="171.5" y="-56.5" font-family="Helvetica,sans-Serif" font-size="10.00">&lt; GU::NaoV5 &gt;</text>
</a>
</g>
</g>
<!-- Node65&#45;&gt;Node0 -->
<g id="edge1" class="edge">
<title>Node65&#45;&gt;Node0</title>
<path fill="none" stroke="midnightblue" d="M80.35,-47.74C88.55,-49.27 97.27,-50.89 105.92,-52.5"/>
<polygon fill="midnightblue" stroke="midnightblue" points="80.76,-44.26 70.29,-45.87 79.48,-51.14 80.76,-44.26"/>
</g>
<!-- Node68 -->
<g id="node4" class="node">
<title>Node68</title>
<g id="a_node4"><a xlink:href="class_c_g_t_e_s_t_1_1_g_u_robots_tests.html" target="_top" xlink:title=" ">
<polygon fill="none" stroke="black" points="106,-0.5 106,-30.5 237,-30.5 237,-0.5 106,-0.5"/>
<text text-anchor="start" x="114" y="-18.5" font-family="Helvetica,sans-Serif" font-size="10.00">CGTEST::GURobotsTests</text>
<text text-anchor="middle" x="171.5" y="-7.5" font-family="Helvetica,sans-Serif" font-size="10.00">&lt; Class &gt;</text>
</a>
</g>
</g>
<!-- Node65&#45;&gt;Node68 -->
<g id="edge3" class="edge">
<title>Node65&#45;&gt;Node68</title>
<path fill="none" stroke="midnightblue" d="M80.35,-31.59C88.55,-30.12 97.27,-28.57 105.92,-27.02"/>
<polygon fill="midnightblue" stroke="midnightblue" points="79.52,-28.18 70.29,-33.38 80.75,-35.07 79.52,-28.18"/>
</g>
<!-- Node1 -->
<g id="node3" class="node">
<title>Node1</title>
<g id="a_node3"><a xlink:href="class_c_g_t_e_s_t_1_1_nao_v5_c_p_p_tests.html" target="_top" xlink:title=" ">
<polygon fill="none" stroke="black" points="273,-55 273,-74 408,-74 408,-55 273,-55"/>
<text text-anchor="middle" x="340.5" y="-62" font-family="Helvetica,sans-Serif" font-size="10.00">CGTEST::NaoV5CPPTests</text>
</a>
</g>
</g>
<!-- Node0&#45;&gt;Node1 -->
<g id="edge2" class="edge">
<title>Node0&#45;&gt;Node1</title>
<path fill="none" stroke="midnightblue" d="M247.08,-64.5C255.68,-64.5 264.41,-64.5 272.9,-64.5"/>
<polygon fill="midnightblue" stroke="midnightblue" points="247.07,-61 237.07,-64.5 247.07,-68 247.07,-61"/>
</g>
</g>
</svg>
