<?xml version="1.0" encoding="UTF-8" standalone="no"?>
<!DOCTYPE svg PUBLIC "-//W3C//DTD SVG 1.1//EN"
 "http://www.w3.org/Graphics/SVG/1.1/DTD/svg11.dtd">
<!-- Generated by graphviz version 2.49.0 (20210830.1337)
 -->
<!-- Title: line_sighting.h Pages: 1 -->
<svg width="448pt" height="476pt"
 viewBox="0.00 0.00 447.50 476.00" xmlns="http://www.w3.org/2000/svg" xmlns:xlink="http://www.w3.org/1999/xlink">
<g id="graph0" class="graph" transform="scale(1 1) rotate(0) translate(4 472)">
<title>line_sighting.h</title>
<!-- Node1 -->
<g id="node1" class="node">
<title>Node1</title>
<g id="a_node1"><a xlink:title=" ">
<polygon fill="#bfbfbf" stroke="black" points="182,-448.5 182,-467.5 260,-467.5 260,-448.5 182,-448.5"/>
<text text-anchor="middle" x="221" y="-455.5" font-family="Helvetica,sans-Serif" font-size="10.00">line_sighting.h</text>
</a>
</g>
</g>
<!-- Node2 -->
<g id="node2" class="node">
<title>Node2</title>
<g id="a_node2"><a xlink:href="horizon__sighting_8h.html" target="_top" xlink:title=" ">
<polygon fill="none" stroke="black" points="70,-392.5 70,-411.5 164,-411.5 164,-392.5 70,-392.5"/>
<text text-anchor="middle" x="117" y="-399.5" font-family="Helvetica,sans-Serif" font-size="10.00">horizon_sighting.h</text>
</a>
</g>
</g>
<!-- Node1&#45;&gt;Node2 -->
<g id="edge1" class="edge">
<title>Node1&#45;&gt;Node2</title>
<path fill="none" stroke="midnightblue" d="M195.17,-443.59C175.94,-433.61 150.26,-420.27 133.67,-411.65"/>
<polygon fill="midnightblue" stroke="midnightblue" points="193.8,-446.82 204.29,-448.32 197.03,-440.61 193.8,-446.82"/>
</g>
<!-- Node16 -->
<g id="node16" class="node">
<title>Node16</title>
<g id="a_node16"><a xlink:href="line__sighting_8c.html" target="_top" xlink:title=" ">
<polygon fill="none" stroke="black" points="182,-392.5 182,-411.5 260,-411.5 260,-392.5 182,-392.5"/>
<text text-anchor="middle" x="221" y="-399.5" font-family="Helvetica,sans-Serif" font-size="10.00">line_sighting.c</text>
</a>
</g>
</g>
<!-- Node1&#45;&gt;Node16 -->
<g id="edge16" class="edge">
<title>Node1&#45;&gt;Node16</title>
<path fill="none" stroke="midnightblue" d="M221,-437.8C221,-428.91 221,-418.78 221,-411.75"/>
<polygon fill="midnightblue" stroke="midnightblue" points="217.5,-438.08 221,-448.08 224.5,-438.08 217.5,-438.08"/>
</g>
<!-- Node17 -->
<g id="node17" class="node">
<title>Node17</title>
<g id="a_node17"><a xlink:href="optional__line__sighting_8h.html" target="_top" xlink:title=" ">
<polygon fill="none" stroke="black" points="278.5,-392.5 278.5,-411.5 395.5,-411.5 395.5,-392.5 278.5,-392.5"/>
<text text-anchor="middle" x="337" y="-399.5" font-family="Helvetica,sans-Serif" font-size="10.00">optional_line_sighting.h</text>
</a>
</g>
</g>
<!-- Node1&#45;&gt;Node17 -->
<g id="edge17" class="edge">
<title>Node1&#45;&gt;Node17</title>
<path fill="none" stroke="midnightblue" d="M248.72,-444.1C270.39,-434.01 299.9,-420.27 318.71,-411.52"/>
<polygon fill="midnightblue" stroke="midnightblue" points="246.97,-441.05 239.38,-448.44 249.92,-447.4 246.97,-441.05"/>
</g>
<!-- Node3 -->
<g id="node3" class="node">
<title>Node3</title>
<g id="a_node3"><a xlink:href="horizon__sighting_8c.html" target="_top" xlink:title=" ">
<polygon fill="none" stroke="black" points="0,-336.5 0,-355.5 94,-355.5 94,-336.5 0,-336.5"/>
<text text-anchor="middle" x="47" y="-343.5" font-family="Helvetica,sans-Serif" font-size="10.00">horizon_sighting.c</text>
</a>
</g>
</g>
<!-- Node2&#45;&gt;Node3 -->
<g id="edge2" class="edge">
<title>Node2&#45;&gt;Node3</title>
<path fill="none" stroke="midnightblue" d="M97.69,-386.1C85.09,-376.38 69.07,-364.03 58.45,-355.83"/>
<polygon fill="midnightblue" stroke="midnightblue" points="95.7,-388.99 105.75,-392.32 99.97,-383.44 95.7,-388.99"/>
</g>
<!-- Node4 -->
<g id="node4" class="node">
<title>Node4</title>
<g id="a_node4"><a xlink:href="optional__horizon__sighting_8h.html" target="_top" xlink:title=" ">
<polygon fill="none" stroke="black" points="112.5,-336.5 112.5,-355.5 245.5,-355.5 245.5,-336.5 112.5,-336.5"/>
<text text-anchor="middle" x="179" y="-343.5" font-family="Helvetica,sans-Serif" font-size="10.00">optional_horizon_sighting.h</text>
</a>
</g>
</g>
<!-- Node2&#45;&gt;Node4 -->
<g id="edge3" class="edge">
<title>Node2&#45;&gt;Node4</title>
<path fill="none" stroke="midnightblue" d="M134.75,-385.54C145.81,-375.91 159.63,-363.87 168.86,-355.83"/>
<polygon fill="midnightblue" stroke="midnightblue" points="132.2,-383.12 126.96,-392.32 136.8,-388.4 132.2,-383.12"/>
</g>
<!-- Node5 -->
<g id="node5" class="node">
<title>Node5</title>
<g id="a_node5"><a xlink:href="optional__horizon__sighting_8c.html" target="_top" xlink:title=" ">
<polygon fill="none" stroke="black" points="93.5,-280.5 93.5,-299.5 226.5,-299.5 226.5,-280.5 93.5,-280.5"/>
<text text-anchor="middle" x="160" y="-287.5" font-family="Helvetica,sans-Serif" font-size="10.00">optional_horizon_sighting.c</text>
</a>
</g>
</g>
<!-- Node4&#45;&gt;Node5 -->
<g id="edge4" class="edge">
<title>Node4&#45;&gt;Node5</title>
<path fill="none" stroke="midnightblue" d="M172.45,-326.4C169.28,-317.36 165.61,-306.94 163.08,-299.75"/>
<polygon fill="midnightblue" stroke="midnightblue" points="169.24,-327.81 175.86,-336.08 175.85,-325.49 169.24,-327.81"/>
</g>
<!-- Node6 -->
<g id="node6" class="node">
<title>Node6</title>
<g id="a_node6"><a xlink:href="soccer__sightings_8h.html" target="_top" xlink:title=" ">
<polygon fill="none" stroke="black" points="245,-280.5 245,-299.5 343,-299.5 343,-280.5 245,-280.5"/>
<text text-anchor="middle" x="294" y="-287.5" font-family="Helvetica,sans-Serif" font-size="10.00">soccer_sightings.h</text>
</a>
</g>
</g>
<!-- Node4&#45;&gt;Node6 -->
<g id="edge5" class="edge">
<title>Node4&#45;&gt;Node6</title>
<path fill="none" stroke="midnightblue" d="M206.48,-332.1C227.97,-322.01 257.22,-308.27 275.86,-299.52"/>
<polygon fill="midnightblue" stroke="midnightblue" points="204.79,-329.02 197.22,-336.44 207.76,-335.36 204.79,-329.02"/>
</g>
<!-- Node7 -->
<g id="node7" class="node">
<title>Node7</title>
<g id="a_node7"><a xlink:href="nao_8h.html" target="_top" xlink:title=" ">
<polygon fill="none" stroke="black" points="230,-224.5 230,-243.5 270,-243.5 270,-224.5 230,-224.5"/>
<text text-anchor="middle" x="250" y="-231.5" font-family="Helvetica,sans-Serif" font-size="10.00">nao.h</text>
</a>
</g>
</g>
<!-- Node6&#45;&gt;Node7 -->
<g id="edge6" class="edge">
<title>Node6&#45;&gt;Node7</title>
<path fill="none" stroke="midnightblue" d="M280.27,-272.14C272.6,-262.74 263.37,-251.4 257.13,-243.75"/>
<polygon fill="midnightblue" stroke="midnightblue" points="277.7,-274.54 286.73,-280.08 283.13,-270.12 277.7,-274.54"/>
</g>
<!-- Node15 -->
<g id="node15" class="node">
<title>Node15</title>
<g id="a_node15"><a xlink:href="soccer__sightings_8c.html" target="_top" xlink:title=" ">
<polygon fill="none" stroke="black" points="288,-224.5 288,-243.5 386,-243.5 386,-224.5 288,-224.5"/>
<text text-anchor="middle" x="337" y="-231.5" font-family="Helvetica,sans-Serif" font-size="10.00">soccer_sightings.c</text>
</a>
</g>
</g>
<!-- Node6&#45;&gt;Node15 -->
<g id="edge15" class="edge">
<title>Node6&#45;&gt;Node15</title>
<path fill="none" stroke="midnightblue" d="M307.42,-272.14C314.91,-262.74 323.94,-251.4 330.03,-243.75"/>
<polygon fill="midnightblue" stroke="midnightblue" points="304.59,-270.08 301.1,-280.08 310.07,-274.44 304.59,-270.08"/>
</g>
<!-- Node8 -->
<g id="node8" class="node">
<title>Node8</title>
<g id="a_node8"><a xlink:href="_nao_v5_8hpp.html" target="_top" xlink:title=" ">
<polygon fill="none" stroke="black" points="156.5,-168.5 156.5,-187.5 221.5,-187.5 221.5,-168.5 156.5,-168.5"/>
<text text-anchor="middle" x="189" y="-175.5" font-family="Helvetica,sans-Serif" font-size="10.00">NaoV5.hpp</text>
</a>
</g>
</g>
<!-- Node7&#45;&gt;Node8 -->
<g id="edge7" class="edge">
<title>Node7&#45;&gt;Node8</title>
<path fill="none" stroke="midnightblue" d="M232.53,-217.54C221.66,-207.91 208.06,-195.87 198.98,-187.83"/>
<polygon fill="midnightblue" stroke="midnightblue" points="230.39,-220.32 240.2,-224.32 235.03,-215.07 230.39,-220.32"/>
</g>
<!-- Node10 -->
<g id="node10" class="node">
<title>Node10</title>
<g id="a_node10"><a xlink:href="gurobots_8h.html" target="_top" xlink:title=" ">
<polygon fill="none" stroke="black" points="219,-112.5 219,-131.5 281,-131.5 281,-112.5 219,-112.5"/>
<text text-anchor="middle" x="250" y="-119.5" font-family="Helvetica,sans-Serif" font-size="10.00">gurobots.h</text>
</a>
</g>
</g>
<!-- Node7&#45;&gt;Node10 -->
<g id="edge13" class="edge">
<title>Node7&#45;&gt;Node10</title>
<path fill="none" stroke="midnightblue" d="M250,-214.35C250,-190.25 250,-149.31 250,-131.59"/>
<polygon fill="midnightblue" stroke="midnightblue" points="246.5,-214.37 250,-224.37 253.5,-214.37 246.5,-214.37"/>
</g>
<!-- Node14 -->
<g id="node14" class="node">
<title>Node14</title>
<g id="a_node14"><a xlink:href="nao_8c.html" target="_top" xlink:title=" ">
<polygon fill="none" stroke="black" points="278,-168.5 278,-187.5 318,-187.5 318,-168.5 278,-168.5"/>
<text text-anchor="middle" x="298" y="-175.5" font-family="Helvetica,sans-Serif" font-size="10.00">nao.c</text>
</a>
</g>
</g>
<!-- Node7&#45;&gt;Node14 -->
<g id="edge14" class="edge">
<title>Node7&#45;&gt;Node14</title>
<path fill="none" stroke="midnightblue" d="M264.73,-216.43C273.14,-206.97 283.35,-195.48 290.22,-187.75"/>
<polygon fill="midnightblue" stroke="midnightblue" points="261.95,-214.28 257.93,-224.08 267.19,-218.93 261.95,-214.28"/>
</g>
<!-- Node9 -->
<g id="node9" class="node">
<title>Node9</title>
<g id="a_node9"><a xlink:href="_nao_v5_8cc.html" target="_top" xlink:title=" ">
<polygon fill="none" stroke="black" points="141.5,-112.5 141.5,-131.5 200.5,-131.5 200.5,-112.5 141.5,-112.5"/>
<text text-anchor="middle" x="171" y="-119.5" font-family="Helvetica,sans-Serif" font-size="10.00">NaoV5.cc</text>
</a>
</g>
</g>
<!-- Node8&#45;&gt;Node9 -->
<g id="edge8" class="edge">
<title>Node8&#45;&gt;Node9</title>
<path fill="none" stroke="midnightblue" d="M182.8,-158.4C179.79,-149.36 176.31,-138.94 173.92,-131.75"/>
<polygon fill="midnightblue" stroke="midnightblue" points="179.54,-159.7 186.03,-168.08 186.19,-157.49 179.54,-159.7"/>
</g>
<!-- Node8&#45;&gt;Node10 -->
<g id="edge9" class="edge">
<title>Node8&#45;&gt;Node10</title>
<path fill="none" stroke="midnightblue" d="M206.47,-161.54C217.34,-151.91 230.94,-139.87 240.02,-131.83"/>
<polygon fill="midnightblue" stroke="midnightblue" points="203.97,-159.07 198.8,-168.32 208.61,-164.32 203.97,-159.07"/>
</g>
<!-- Node11 -->
<g id="node11" class="node">
<title>Node11</title>
<g id="a_node11"><a xlink:href="gurobots__tests_8hpp.html" target="_top" xlink:title=" ">
<polygon fill="none" stroke="black" points="111.5,-56.5 111.5,-75.5 240.5,-75.5 240.5,-56.5 111.5,-56.5"/>
<text text-anchor="middle" x="176" y="-63.5" font-family="Helvetica,sans-Serif" font-size="10.00">ctests/gurobots_tests.hpp</text>
</a>
</g>
</g>
<!-- Node10&#45;&gt;Node11 -->
<g id="edge10" class="edge">
<title>Node10&#45;&gt;Node11</title>
<path fill="none" stroke="midnightblue" d="M229.97,-106.38C216.59,-96.62 199.44,-84.11 188.11,-75.83"/>
<polygon fill="midnightblue" stroke="midnightblue" points="227.97,-109.26 238.11,-112.32 232.1,-103.6 227.97,-109.26"/>
</g>
<!-- Node12 -->
<g id="node12" class="node">
<title>Node12</title>
<g id="a_node12"><a xlink:href="_g_u_robots_tests_8hpp.html" target="_top" xlink:title=" ">
<polygon fill="none" stroke="black" points="259,-56.5 259,-75.5 389,-75.5 389,-56.5 259,-56.5"/>
<text text-anchor="middle" x="324" y="-63.5" font-family="Helvetica,sans-Serif" font-size="10.00">tests/GURobotsTests.hpp</text>
</a>
</g>
</g>
<!-- Node10&#45;&gt;Node12 -->
<g id="edge11" class="edge">
<title>Node10&#45;&gt;Node12</title>
<path fill="none" stroke="midnightblue" d="M270.03,-106.38C283.41,-96.62 300.56,-84.11 311.89,-75.83"/>
<polygon fill="midnightblue" stroke="midnightblue" points="267.9,-103.6 261.89,-112.32 272.03,-109.26 267.9,-103.6"/>
</g>
<!-- Node13 -->
<g id="node13" class="node">
<title>Node13</title>
<g id="a_node13"><a xlink:href="_nao_v5_tests_8cc.html" target="_top" xlink:title=" ">
<polygon fill="none" stroke="black" points="269.5,-0.5 269.5,-19.5 378.5,-19.5 378.5,-0.5 269.5,-0.5"/>
<text text-anchor="middle" x="324" y="-7.5" font-family="Helvetica,sans-Serif" font-size="10.00">tests/NaoV5Tests.cc</text>
</a>
</g>
</g>
<!-- Node12&#45;&gt;Node13 -->
<g id="edge12" class="edge">
<title>Node12&#45;&gt;Node13</title>
<path fill="none" stroke="midnightblue" d="M324,-45.8C324,-36.91 324,-26.78 324,-19.75"/>
<polygon fill="midnightblue" stroke="midnightblue" points="320.5,-46.08 324,-56.08 327.5,-46.08 320.5,-46.08"/>
</g>
<!-- Node17&#45;&gt;Node6 -->
<g id="edge19" class="edge">
<title>Node17&#45;&gt;Node6</title>
<path fill="none" stroke="midnightblue" d="M326.53,-383.4C321.96,-375.25 316.8,-365.33 313,-356 305.01,-336.4 298.86,-312.23 295.92,-299.6"/>
<polygon fill="midnightblue" stroke="midnightblue" points="323.63,-385.38 331.66,-392.3 329.7,-381.89 323.63,-385.38"/>
</g>
<!-- Node18 -->
<g id="node18" class="node">
<title>Node18</title>
<g id="a_node18"><a xlink:href="optional__line__sighting_8c.html" target="_top" xlink:title=" ">
<polygon fill="none" stroke="black" points="322.5,-336.5 322.5,-355.5 439.5,-355.5 439.5,-336.5 322.5,-336.5"/>
<text text-anchor="middle" x="381" y="-343.5" font-family="Helvetica,sans-Serif" font-size="10.00">optional_line_sighting.c</text>
</a>
</g>
</g>
<!-- Node17&#45;&gt;Node18 -->
<g id="edge18" class="edge">
<title>Node17&#45;&gt;Node18</title>
<path fill="none" stroke="midnightblue" d="M350.73,-384.14C358.4,-374.74 367.63,-363.4 373.87,-355.75"/>
<polygon fill="midnightblue" stroke="midnightblue" points="347.87,-382.12 344.27,-392.08 353.3,-386.54 347.87,-382.12"/>
</g>
</g>
</svg>
