<?xml version="1.0" encoding="UTF-8" standalone="no"?>
<!DOCTYPE svg PUBLIC "-//W3C//DTD SVG 1.1//EN"
 "http://www.w3.org/Graphics/SVG/1.1/DTD/svg11.dtd">
<!-- Generated by graphviz version 2.49.0 (20210830.1337)
 -->
<!-- Title: nao.h Pages: 1 -->
<svg width="286pt" height="252pt"
 viewBox="0.00 0.00 285.50 252.00" xmlns="http://www.w3.org/2000/svg" xmlns:xlink="http://www.w3.org/1999/xlink">
<g id="graph0" class="graph" transform="scale(1 1) rotate(0) translate(4 248)">
<title>nao.h</title>
<!-- Node1 -->
<g id="node1" class="node">
<title>Node1</title>
<g id="a_node1"><a xlink:title=" ">
<polygon fill="#bfbfbf" stroke="black" points="118.5,-224.5 118.5,-243.5 158.5,-243.5 158.5,-224.5 118.5,-224.5"/>
<text text-anchor="middle" x="138.5" y="-231.5" font-family="Helvetica,sans-Serif" font-size="10.00">nao.h</text>
</a>
</g>
</g>
<!-- Node2 -->
<g id="node2" class="node">
<title>Node2</title>
<g id="a_node2"><a xlink:href="_nao_v5_8hpp.html" target="_top" xlink:title=" ">
<polygon fill="none" stroke="black" points="45,-168.5 45,-187.5 110,-187.5 110,-168.5 45,-168.5"/>
<text text-anchor="middle" x="77.5" y="-175.5" font-family="Helvetica,sans-Serif" font-size="10.00">NaoV5.hpp</text>
</a>
</g>
</g>
<!-- Node1&#45;&gt;Node2 -->
<g id="edge1" class="edge">
<title>Node1&#45;&gt;Node2</title>
<path fill="none" stroke="midnightblue" d="M121.03,-217.54C110.16,-207.91 96.56,-195.87 87.48,-187.83"/>
<polygon fill="midnightblue" stroke="midnightblue" points="118.89,-220.32 128.7,-224.32 123.53,-215.07 118.89,-220.32"/>
</g>
<!-- Node4 -->
<g id="node4" class="node">
<title>Node4</title>
<g id="a_node4"><a xlink:href="gurobots_8h.html" target="_top" xlink:title=" ">
<polygon fill="none" stroke="black" points="107.5,-112.5 107.5,-131.5 169.5,-131.5 169.5,-112.5 107.5,-112.5"/>
<text text-anchor="middle" x="138.5" y="-119.5" font-family="Helvetica,sans-Serif" font-size="10.00">gurobots.h</text>
</a>
</g>
</g>
<!-- Node1&#45;&gt;Node4 -->
<g id="edge7" class="edge">
<title>Node1&#45;&gt;Node4</title>
<path fill="none" stroke="midnightblue" d="M138.5,-214.35C138.5,-190.25 138.5,-149.31 138.5,-131.59"/>
<polygon fill="midnightblue" stroke="midnightblue" points="135,-214.37 138.5,-224.37 142,-214.37 135,-214.37"/>
</g>
<!-- Node8 -->
<g id="node8" class="node">
<title>Node8</title>
<g id="a_node8"><a xlink:href="nao_8c.html" target="_top" xlink:title=" ">
<polygon fill="none" stroke="black" points="166.5,-168.5 166.5,-187.5 206.5,-187.5 206.5,-168.5 166.5,-168.5"/>
<text text-anchor="middle" x="186.5" y="-175.5" font-family="Helvetica,sans-Serif" font-size="10.00">nao.c</text>
</a>
</g>
</g>
<!-- Node1&#45;&gt;Node8 -->
<g id="edge8" class="edge">
<title>Node1&#45;&gt;Node8</title>
<path fill="none" stroke="midnightblue" d="M153.23,-216.43C161.64,-206.97 171.85,-195.48 178.72,-187.75"/>
<polygon fill="midnightblue" stroke="midnightblue" points="150.45,-214.28 146.43,-224.08 155.69,-218.93 150.45,-214.28"/>
</g>
<!-- Node3 -->
<g id="node3" class="node">
<title>Node3</title>
<g id="a_node3"><a xlink:href="_nao_v5_8cc.html" target="_top" xlink:title=" ">
<polygon fill="none" stroke="black" points="30,-112.5 30,-131.5 89,-131.5 89,-112.5 30,-112.5"/>
<text text-anchor="middle" x="59.5" y="-119.5" font-family="Helvetica,sans-Serif" font-size="10.00">NaoV5.cc</text>
</a>
</g>
</g>
<!-- Node2&#45;&gt;Node3 -->
<g id="edge2" class="edge">
<title>Node2&#45;&gt;Node3</title>
<path fill="none" stroke="midnightblue" d="M71.3,-158.4C68.29,-149.36 64.81,-138.94 62.42,-131.75"/>
<polygon fill="midnightblue" stroke="midnightblue" points="68.04,-159.7 74.53,-168.08 74.69,-157.49 68.04,-159.7"/>
</g>
<!-- Node2&#45;&gt;Node4 -->
<g id="edge3" class="edge">
<title>Node2&#45;&gt;Node4</title>
<path fill="none" stroke="midnightblue" d="M94.97,-161.54C105.84,-151.91 119.44,-139.87 128.52,-131.83"/>
<polygon fill="midnightblue" stroke="midnightblue" points="92.47,-159.07 87.3,-168.32 97.11,-164.32 92.47,-159.07"/>
</g>
<!-- Node5 -->
<g id="node5" class="node">
<title>Node5</title>
<g id="a_node5"><a xlink:href="gurobots__tests_8hpp.html" target="_top" xlink:title=" ">
<polygon fill="none" stroke="black" points="0,-56.5 0,-75.5 129,-75.5 129,-56.5 0,-56.5"/>
<text text-anchor="middle" x="64.5" y="-63.5" font-family="Helvetica,sans-Serif" font-size="10.00">ctests/gurobots_tests.hpp</text>
</a>
</g>
</g>
<!-- Node4&#45;&gt;Node5 -->
<g id="edge4" class="edge">
<title>Node4&#45;&gt;Node5</title>
<path fill="none" stroke="midnightblue" d="M118.47,-106.38C105.09,-96.62 87.94,-84.11 76.61,-75.83"/>
<polygon fill="midnightblue" stroke="midnightblue" points="116.47,-109.26 126.61,-112.32 120.6,-103.6 116.47,-109.26"/>
</g>
<!-- Node6 -->
<g id="node6" class="node">
<title>Node6</title>
<g id="a_node6"><a xlink:href="_g_u_robots_tests_8hpp.html" target="_top" xlink:title=" ">
<polygon fill="none" stroke="black" points="147.5,-56.5 147.5,-75.5 277.5,-75.5 277.5,-56.5 147.5,-56.5"/>
<text text-anchor="middle" x="212.5" y="-63.5" font-family="Helvetica,sans-Serif" font-size="10.00">tests/GURobotsTests.hpp</text>
</a>
</g>
</g>
<!-- Node4&#45;&gt;Node6 -->
<g id="edge5" class="edge">
<title>Node4&#45;&gt;Node6</title>
<path fill="none" stroke="midnightblue" d="M158.53,-106.38C171.91,-96.62 189.06,-84.11 200.39,-75.83"/>
<polygon fill="midnightblue" stroke="midnightblue" points="156.4,-103.6 150.39,-112.32 160.53,-109.26 156.4,-103.6"/>
</g>
<!-- Node7 -->
<g id="node7" class="node">
<title>Node7</title>
<g id="a_node7"><a xlink:href="_nao_v5_tests_8cc.html" target="_top" xlink:title=" ">
<polygon fill="none" stroke="black" points="158,-0.5 158,-19.5 267,-19.5 267,-0.5 158,-0.5"/>
<text text-anchor="middle" x="212.5" y="-7.5" font-family="Helvetica,sans-Serif" font-size="10.00">tests/NaoV5Tests.cc</text>
</a>
</g>
</g>
<!-- Node6&#45;&gt;Node7 -->
<g id="edge6" class="edge">
<title>Node6&#45;&gt;Node7</title>
<path fill="none" stroke="midnightblue" d="M212.5,-45.8C212.5,-36.91 212.5,-26.78 212.5,-19.75"/>
<polygon fill="midnightblue" stroke="midnightblue" points="209,-46.08 212.5,-56.08 216,-46.08 209,-46.08"/>
</g>
</g>
</svg>
