<?xml version="1.0" encoding="UTF-8" standalone="no"?>
<!DOCTYPE svg PUBLIC "-//W3C//DTD SVG 1.1//EN"
 "http://www.w3.org/Graphics/SVG/1.1/DTD/svg11.dtd">
<!-- Generated by graphviz version 2.49.0 (20210830.1337)
 -->
<!-- Title: optional_ellipse_sighting.h Pages: 1 -->
<svg width="456pt" height="162pt"
 viewBox="0.00 0.00 455.50 162.00" xmlns="http://www.w3.org/2000/svg" xmlns:xlink="http://www.w3.org/1999/xlink">
<g id="graph0" class="graph" transform="scale(1 1) rotate(0) translate(4 158)">
<title>optional_ellipse_sighting.h</title>
<!-- Node1 -->
<g id="node1" class="node">
<title>Node1</title>
<g id="a_node1"><a xlink:title=" ">
<polygon fill="#bfbfbf" stroke="black" points="176,-134.5 176,-153.5 306,-153.5 306,-134.5 176,-134.5"/>
<text text-anchor="middle" x="241" y="-141.5" font-family="Helvetica,sans-Serif" font-size="10.00">optional_ellipse_sighting.h</text>
</a>
</g>
</g>
<!-- Node2 -->
<g id="node2" class="node">
<title>Node2</title>
<g id="a_node2"><a xlink:href="ellipse__sighting_8h.html" target="_top" xlink:title=" ">
<polygon fill="none" stroke="black" points="68.5,-67.5 68.5,-86.5 159.5,-86.5 159.5,-67.5 68.5,-67.5"/>
<text text-anchor="middle" x="114" y="-74.5" font-family="Helvetica,sans-Serif" font-size="10.00">ellipse_sighting.h</text>
</a>
</g>
</g>
<!-- Node1&#45;&gt;Node2 -->
<g id="edge1" class="edge">
<title>Node1&#45;&gt;Node2</title>
<path fill="none" stroke="midnightblue" d="M224.14,-134.37C202.6,-123.34 165.1,-104.16 139.92,-91.27"/>
<polygon fill="midnightblue" stroke="midnightblue" points="141.43,-88.11 130.93,-86.67 138.24,-94.34 141.43,-88.11"/>
</g>
<!-- Node5 -->
<g id="node5" class="node">
<title>Node5</title>
<g id="a_node5"><a xlink:title=" ">
<polygon fill="none" stroke="#bfbfbf" points="178,-67.5 178,-86.5 234,-86.5 234,-67.5 178,-67.5"/>
<text text-anchor="middle" x="206" y="-74.5" font-family="Helvetica,sans-Serif" font-size="10.00">stdbool.h</text>
</a>
</g>
</g>
<!-- Node1&#45;&gt;Node5 -->
<g id="edge4" class="edge">
<title>Node1&#45;&gt;Node5</title>
<path fill="none" stroke="midnightblue" d="M236.28,-134.23C230.98,-124.39 222.24,-108.16 215.51,-95.66"/>
<polygon fill="midnightblue" stroke="midnightblue" points="218.47,-93.77 210.65,-86.63 212.3,-97.09 218.47,-93.77"/>
</g>
<!-- Node6 -->
<g id="node6" class="node">
<title>Node6</title>
<g id="a_node6"><a xlink:title=" ">
<polygon fill="none" stroke="#bfbfbf" points="252,-67.5 252,-86.5 300,-86.5 300,-67.5 252,-67.5"/>
<text text-anchor="middle" x="276" y="-74.5" font-family="Helvetica,sans-Serif" font-size="10.00">stdint.h</text>
</a>
</g>
</g>
<!-- Node1&#45;&gt;Node6 -->
<g id="edge5" class="edge">
<title>Node1&#45;&gt;Node6</title>
<path fill="none" stroke="midnightblue" d="M245.72,-134.23C251.02,-124.39 259.76,-108.16 266.49,-95.66"/>
<polygon fill="midnightblue" stroke="midnightblue" points="269.7,-97.09 271.35,-86.63 263.53,-93.77 269.7,-97.09"/>
</g>
<!-- Node7 -->
<g id="node7" class="node">
<title>Node7</title>
<g id="a_node7"><a xlink:title=" ">
<polygon fill="none" stroke="#bfbfbf" points="318.5,-56.5 318.5,-97.5 447.5,-97.5 447.5,-56.5 318.5,-56.5"/>
<text text-anchor="start" x="326.5" y="-85.5" font-family="Helvetica,sans-Serif" font-size="10.00">gusimplewhiteboard</text>
<text text-anchor="start" x="326.5" y="-74.5" font-family="Helvetica,sans-Serif" font-size="10.00">/typeClassDefs/wb_vision</text>
<text text-anchor="middle" x="383" y="-63.5" font-family="Helvetica,sans-Serif" font-size="10.00">_detection_ball.h</text>
</a>
</g>
</g>
<!-- Node1&#45;&gt;Node7 -->
<g id="edge6" class="edge">
<title>Node1&#45;&gt;Node7</title>
<path fill="none" stroke="midnightblue" d="M259.86,-134.37C277.92,-126.1 306.01,-113.24 330.81,-101.89"/>
<polygon fill="midnightblue" stroke="midnightblue" points="332.49,-104.97 340.13,-97.63 329.58,-98.61 332.49,-104.97"/>
</g>
<!-- Node3 -->
<g id="node3" class="node">
<title>Node3</title>
<g id="a_node3"><a xlink:title=" ">
<polygon fill="none" stroke="#bfbfbf" points="0,-0.5 0,-19.5 90,-19.5 90,-0.5 0,-0.5"/>
<text text-anchor="middle" x="45" y="-7.5" font-family="Helvetica,sans-Serif" font-size="10.00">guunits/guunits.h</text>
</a>
</g>
</g>
<!-- Node2&#45;&gt;Node3 -->
<g id="edge2" class="edge">
<title>Node2&#45;&gt;Node3</title>
<path fill="none" stroke="midnightblue" d="M104.69,-67.23C93.73,-56.9 75.29,-39.54 61.81,-26.83"/>
<polygon fill="midnightblue" stroke="midnightblue" points="63.84,-23.94 54.16,-19.63 59.04,-29.03 63.84,-23.94"/>
</g>
<!-- Node4 -->
<g id="node4" class="node">
<title>Node4</title>
<g id="a_node4"><a xlink:title=" ">
<polygon fill="none" stroke="#bfbfbf" points="108.5,-0.5 108.5,-19.5 257.5,-19.5 257.5,-0.5 108.5,-0.5"/>
<text text-anchor="middle" x="183" y="-7.5" font-family="Helvetica,sans-Serif" font-size="10.00">gucoordinates/gucoordinates.h</text>
</a>
</g>
</g>
<!-- Node2&#45;&gt;Node4 -->
<g id="edge3" class="edge">
<title>Node2&#45;&gt;Node4</title>
<path fill="none" stroke="midnightblue" d="M123.31,-67.23C134.27,-56.9 152.71,-39.54 166.19,-26.83"/>
<polygon fill="midnightblue" stroke="midnightblue" points="168.96,-29.03 173.84,-19.63 164.16,-23.94 168.96,-29.03"/>
</g>
</g>
</svg>
