<?xml version="1.0" encoding="UTF-8" standalone="no"?>
<!DOCTYPE svg PUBLIC "-//W3C//DTD SVG 1.1//EN"
 "http://www.w3.org/Graphics/SVG/1.1/DTD/svg11.dtd">
<!-- Generated by graphviz version 2.49.0 (20210830.1337)
 -->
<!-- Title: optional_line_sighting.h Pages: 1 -->
<svg width="288pt" height="364pt"
 viewBox="0.00 0.00 287.50 364.00" xmlns="http://www.w3.org/2000/svg" xmlns:xlink="http://www.w3.org/1999/xlink">
<g id="graph0" class="graph" transform="scale(1 1) rotate(0) translate(4 360)">
<title>optional_line_sighting.h</title>
<!-- Node1 -->
<g id="node1" class="node">
<title>Node1</title>
<g id="a_node1"><a xlink:title=" ">
<polygon fill="#bfbfbf" stroke="black" points="63,-336.5 63,-355.5 180,-355.5 180,-336.5 63,-336.5"/>
<text text-anchor="middle" x="121.5" y="-343.5" font-family="Helvetica,sans-Serif" font-size="10.00">optional_line_sighting.h</text>
</a>
</g>
</g>
<!-- Node2 -->
<g id="node2" class="node">
<title>Node2</title>
<g id="a_node2"><a xlink:href="optional__line__sighting_8c.html" target="_top" xlink:title=" ">
<polygon fill="none" stroke="black" points="0,-280.5 0,-299.5 117,-299.5 117,-280.5 0,-280.5"/>
<text text-anchor="middle" x="58.5" y="-287.5" font-family="Helvetica,sans-Serif" font-size="10.00">optional_line_sighting.c</text>
</a>
</g>
</g>
<!-- Node1&#45;&gt;Node2 -->
<g id="edge1" class="edge">
<title>Node1&#45;&gt;Node2</title>
<path fill="none" stroke="midnightblue" d="M103.46,-329.54C92.23,-319.91 78.18,-307.87 68.81,-299.83"/>
<polygon fill="midnightblue" stroke="midnightblue" points="101.51,-332.47 111.38,-336.32 106.06,-327.16 101.51,-332.47"/>
</g>
<!-- Node3 -->
<g id="node3" class="node">
<title>Node3</title>
<g id="a_node3"><a xlink:href="soccer__sightings_8h.html" target="_top" xlink:title=" ">
<polygon fill="none" stroke="black" points="135.5,-280.5 135.5,-299.5 233.5,-299.5 233.5,-280.5 135.5,-280.5"/>
<text text-anchor="middle" x="184.5" y="-287.5" font-family="Helvetica,sans-Serif" font-size="10.00">soccer_sightings.h</text>
</a>
</g>
</g>
<!-- Node1&#45;&gt;Node3 -->
<g id="edge2" class="edge">
<title>Node1&#45;&gt;Node3</title>
<path fill="none" stroke="midnightblue" d="M139.54,-329.54C150.77,-319.91 164.82,-307.87 174.19,-299.83"/>
<polygon fill="midnightblue" stroke="midnightblue" points="136.94,-327.16 131.62,-336.32 141.49,-332.47 136.94,-327.16"/>
</g>
<!-- Node4 -->
<g id="node4" class="node">
<title>Node4</title>
<g id="a_node4"><a xlink:href="nao_8h.html" target="_top" xlink:title=" ">
<polygon fill="none" stroke="black" points="120.5,-224.5 120.5,-243.5 160.5,-243.5 160.5,-224.5 120.5,-224.5"/>
<text text-anchor="middle" x="140.5" y="-231.5" font-family="Helvetica,sans-Serif" font-size="10.00">nao.h</text>
</a>
</g>
</g>
<!-- Node3&#45;&gt;Node4 -->
<g id="edge3" class="edge">
<title>Node3&#45;&gt;Node4</title>
<path fill="none" stroke="midnightblue" d="M170.77,-272.14C163.1,-262.74 153.87,-251.4 147.63,-243.75"/>
<polygon fill="midnightblue" stroke="midnightblue" points="168.2,-274.54 177.23,-280.08 173.63,-270.12 168.2,-274.54"/>
</g>
<!-- Node12 -->
<g id="node12" class="node">
<title>Node12</title>
<g id="a_node12"><a xlink:href="soccer__sightings_8c.html" target="_top" xlink:title=" ">
<polygon fill="none" stroke="black" points="178.5,-224.5 178.5,-243.5 276.5,-243.5 276.5,-224.5 178.5,-224.5"/>
<text text-anchor="middle" x="227.5" y="-231.5" font-family="Helvetica,sans-Serif" font-size="10.00">soccer_sightings.c</text>
</a>
</g>
</g>
<!-- Node3&#45;&gt;Node12 -->
<g id="edge12" class="edge">
<title>Node3&#45;&gt;Node12</title>
<path fill="none" stroke="midnightblue" d="M197.92,-272.14C205.41,-262.74 214.44,-251.4 220.53,-243.75"/>
<polygon fill="midnightblue" stroke="midnightblue" points="195.09,-270.08 191.6,-280.08 200.57,-274.44 195.09,-270.08"/>
</g>
<!-- Node5 -->
<g id="node5" class="node">
<title>Node5</title>
<g id="a_node5"><a xlink:href="_nao_v5_8hpp.html" target="_top" xlink:title=" ">
<polygon fill="none" stroke="black" points="47,-168.5 47,-187.5 112,-187.5 112,-168.5 47,-168.5"/>
<text text-anchor="middle" x="79.5" y="-175.5" font-family="Helvetica,sans-Serif" font-size="10.00">NaoV5.hpp</text>
</a>
</g>
</g>
<!-- Node4&#45;&gt;Node5 -->
<g id="edge4" class="edge">
<title>Node4&#45;&gt;Node5</title>
<path fill="none" stroke="midnightblue" d="M123.03,-217.54C112.16,-207.91 98.56,-195.87 89.48,-187.83"/>
<polygon fill="midnightblue" stroke="midnightblue" points="120.89,-220.32 130.7,-224.32 125.53,-215.07 120.89,-220.32"/>
</g>
<!-- Node7 -->
<g id="node7" class="node">
<title>Node7</title>
<g id="a_node7"><a xlink:href="gurobots_8h.html" target="_top" xlink:title=" ">
<polygon fill="none" stroke="black" points="109.5,-112.5 109.5,-131.5 171.5,-131.5 171.5,-112.5 109.5,-112.5"/>
<text text-anchor="middle" x="140.5" y="-119.5" font-family="Helvetica,sans-Serif" font-size="10.00">gurobots.h</text>
</a>
</g>
</g>
<!-- Node4&#45;&gt;Node7 -->
<g id="edge10" class="edge">
<title>Node4&#45;&gt;Node7</title>
<path fill="none" stroke="midnightblue" d="M140.5,-214.35C140.5,-190.25 140.5,-149.31 140.5,-131.59"/>
<polygon fill="midnightblue" stroke="midnightblue" points="137,-214.37 140.5,-224.37 144,-214.37 137,-214.37"/>
</g>
<!-- Node11 -->
<g id="node11" class="node">
<title>Node11</title>
<g id="a_node11"><a xlink:href="nao_8c.html" target="_top" xlink:title=" ">
<polygon fill="none" stroke="black" points="168.5,-168.5 168.5,-187.5 208.5,-187.5 208.5,-168.5 168.5,-168.5"/>
<text text-anchor="middle" x="188.5" y="-175.5" font-family="Helvetica,sans-Serif" font-size="10.00">nao.c</text>
</a>
</g>
</g>
<!-- Node4&#45;&gt;Node11 -->
<g id="edge11" class="edge">
<title>Node4&#45;&gt;Node11</title>
<path fill="none" stroke="midnightblue" d="M155.23,-216.43C163.64,-206.97 173.85,-195.48 180.72,-187.75"/>
<polygon fill="midnightblue" stroke="midnightblue" points="152.45,-214.28 148.43,-224.08 157.69,-218.93 152.45,-214.28"/>
</g>
<!-- Node6 -->
<g id="node6" class="node">
<title>Node6</title>
<g id="a_node6"><a xlink:href="_nao_v5_8cc.html" target="_top" xlink:title=" ">
<polygon fill="none" stroke="black" points="32,-112.5 32,-131.5 91,-131.5 91,-112.5 32,-112.5"/>
<text text-anchor="middle" x="61.5" y="-119.5" font-family="Helvetica,sans-Serif" font-size="10.00">NaoV5.cc</text>
</a>
</g>
</g>
<!-- Node5&#45;&gt;Node6 -->
<g id="edge5" class="edge">
<title>Node5&#45;&gt;Node6</title>
<path fill="none" stroke="midnightblue" d="M73.3,-158.4C70.29,-149.36 66.81,-138.94 64.42,-131.75"/>
<polygon fill="midnightblue" stroke="midnightblue" points="70.04,-159.7 76.53,-168.08 76.69,-157.49 70.04,-159.7"/>
</g>
<!-- Node5&#45;&gt;Node7 -->
<g id="edge6" class="edge">
<title>Node5&#45;&gt;Node7</title>
<path fill="none" stroke="midnightblue" d="M96.97,-161.54C107.84,-151.91 121.44,-139.87 130.52,-131.83"/>
<polygon fill="midnightblue" stroke="midnightblue" points="94.47,-159.07 89.3,-168.32 99.11,-164.32 94.47,-159.07"/>
</g>
<!-- Node8 -->
<g id="node8" class="node">
<title>Node8</title>
<g id="a_node8"><a xlink:href="gurobots__tests_8hpp.html" target="_top" xlink:title=" ">
<polygon fill="none" stroke="black" points="2,-56.5 2,-75.5 131,-75.5 131,-56.5 2,-56.5"/>
<text text-anchor="middle" x="66.5" y="-63.5" font-family="Helvetica,sans-Serif" font-size="10.00">ctests/gurobots_tests.hpp</text>
</a>
</g>
</g>
<!-- Node7&#45;&gt;Node8 -->
<g id="edge7" class="edge">
<title>Node7&#45;&gt;Node8</title>
<path fill="none" stroke="midnightblue" d="M120.47,-106.38C107.09,-96.62 89.94,-84.11 78.61,-75.83"/>
<polygon fill="midnightblue" stroke="midnightblue" points="118.47,-109.26 128.61,-112.32 122.6,-103.6 118.47,-109.26"/>
</g>
<!-- Node9 -->
<g id="node9" class="node">
<title>Node9</title>
<g id="a_node9"><a xlink:href="_g_u_robots_tests_8hpp.html" target="_top" xlink:title=" ">
<polygon fill="none" stroke="black" points="149.5,-56.5 149.5,-75.5 279.5,-75.5 279.5,-56.5 149.5,-56.5"/>
<text text-anchor="middle" x="214.5" y="-63.5" font-family="Helvetica,sans-Serif" font-size="10.00">tests/GURobotsTests.hpp</text>
</a>
</g>
</g>
<!-- Node7&#45;&gt;Node9 -->
<g id="edge8" class="edge">
<title>Node7&#45;&gt;Node9</title>
<path fill="none" stroke="midnightblue" d="M160.53,-106.38C173.91,-96.62 191.06,-84.11 202.39,-75.83"/>
<polygon fill="midnightblue" stroke="midnightblue" points="158.4,-103.6 152.39,-112.32 162.53,-109.26 158.4,-103.6"/>
</g>
<!-- Node10 -->
<g id="node10" class="node">
<title>Node10</title>
<g id="a_node10"><a xlink:href="_nao_v5_tests_8cc.html" target="_top" xlink:title=" ">
<polygon fill="none" stroke="black" points="160,-0.5 160,-19.5 269,-19.5 269,-0.5 160,-0.5"/>
<text text-anchor="middle" x="214.5" y="-7.5" font-family="Helvetica,sans-Serif" font-size="10.00">tests/NaoV5Tests.cc</text>
</a>
</g>
</g>
<!-- Node9&#45;&gt;Node10 -->
<g id="edge9" class="edge">
<title>Node9&#45;&gt;Node10</title>
<path fill="none" stroke="midnightblue" d="M214.5,-45.8C214.5,-36.91 214.5,-26.78 214.5,-19.75"/>
<polygon fill="midnightblue" stroke="midnightblue" points="211,-46.08 214.5,-56.08 218,-46.08 211,-46.08"/>
</g>
</g>
</svg>
