<?xml version="1.0" encoding="UTF-8" standalone="no"?>
<!DOCTYPE svg PUBLIC "-//W3C//DTD SVG 1.1//EN"
 "http://www.w3.org/Graphics/SVG/1.1/DTD/svg11.dtd">
<!-- Generated by graphviz version 2.49.0 (20210830.1337)
 -->
<!-- Title: optional_ball_position.h Pages: 1 -->
<svg width="346pt" height="196pt"
 viewBox="0.00 0.00 345.50 196.00" xmlns="http://www.w3.org/2000/svg" xmlns:xlink="http://www.w3.org/1999/xlink">
<g id="graph0" class="graph" transform="scale(1 1) rotate(0) translate(4 192)">
<title>optional_ball_position.h</title>
<!-- Node1 -->
<g id="node1" class="node">
<title>Node1</title>
<g id="a_node1"><a xlink:title=" ">
<polygon fill="#bfbfbf" stroke="black" points="0,-168.5 0,-187.5 117,-187.5 117,-168.5 0,-168.5"/>
<text text-anchor="middle" x="58.5" y="-175.5" font-family="Helvetica,sans-Serif" font-size="10.00">optional_ball_position.h</text>
</a>
</g>
</g>
<!-- Node2 -->
<g id="node2" class="node">
<title>Node2</title>
<g id="a_node2"><a xlink:title=" ">
<polygon fill="none" stroke="#bfbfbf" points="35.5,-0.5 35.5,-19.5 91.5,-19.5 91.5,-0.5 35.5,-0.5"/>
<text text-anchor="middle" x="63.5" y="-7.5" font-family="Helvetica,sans-Serif" font-size="10.00">stdbool.h</text>
</a>
</g>
</g>
<!-- Node1&#45;&gt;Node2 -->
<g id="edge1" class="edge">
<title>Node1&#45;&gt;Node2</title>
<path fill="none" stroke="midnightblue" d="M58.77,-168.08C59.56,-141.95 61.87,-65.21 62.94,-29.58"/>
<polygon fill="midnightblue" stroke="midnightblue" points="66.44,-29.67 63.24,-19.57 59.44,-29.46 66.44,-29.67"/>
</g>
<!-- Node3 -->
<g id="node3" class="node">
<title>Node3</title>
<g id="a_node3"><a xlink:href="ball__position_8h.html" target="_top" xlink:title=" ">
<polygon fill="none" stroke="black" points="89.5,-112.5 89.5,-131.5 167.5,-131.5 167.5,-112.5 89.5,-112.5"/>
<text text-anchor="middle" x="128.5" y="-119.5" font-family="Helvetica,sans-Serif" font-size="10.00">ball_position.h</text>
</a>
</g>
</g>
<!-- Node1&#45;&gt;Node3 -->
<g id="edge2" class="edge">
<title>Node1&#45;&gt;Node3</title>
<path fill="none" stroke="midnightblue" d="M69.75,-168.32C80.3,-160.18 96.3,-147.84 108.94,-138.09"/>
<polygon fill="midnightblue" stroke="midnightblue" points="111.27,-140.71 117.05,-131.83 106.99,-135.17 111.27,-140.71"/>
</g>
<!-- Node3&#45;&gt;Node2 -->
<g id="edge3" class="edge">
<title>Node3&#45;&gt;Node2</title>
<path fill="none" stroke="midnightblue" d="M116.63,-112.29C106.2,-104.04 91.35,-90.75 82.5,-76 73.9,-61.67 68.99,-43.2 66.33,-29.62"/>
<polygon fill="midnightblue" stroke="midnightblue" points="69.74,-28.81 64.59,-19.55 62.84,-30 69.74,-28.81"/>
</g>
<!-- Node4 -->
<g id="node4" class="node">
<title>Node4</title>
<g id="a_node4"><a xlink:title=" ">
<polygon fill="none" stroke="#bfbfbf" points="91,-56.5 91,-75.5 240,-75.5 240,-56.5 91,-56.5"/>
<text text-anchor="middle" x="165.5" y="-63.5" font-family="Helvetica,sans-Serif" font-size="10.00">gucoordinates/gucoordinates.h</text>
</a>
</g>
</g>
<!-- Node3&#45;&gt;Node4 -->
<g id="edge4" class="edge">
<title>Node3&#45;&gt;Node4</title>
<path fill="none" stroke="midnightblue" d="M134.61,-112.08C139.78,-104.53 147.35,-93.49 153.69,-84.23"/>
<polygon fill="midnightblue" stroke="midnightblue" points="156.74,-85.98 159.5,-75.75 150.96,-82.02 156.74,-85.98"/>
</g>
<!-- Node5 -->
<g id="node5" class="node">
<title>Node5</title>
<g id="a_node5"><a xlink:href="orientation_8h.html" target="_top" xlink:title=" ">
<polygon fill="none" stroke="black" points="258,-56.5 258,-75.5 327,-75.5 327,-56.5 258,-56.5"/>
<text text-anchor="middle" x="292.5" y="-63.5" font-family="Helvetica,sans-Serif" font-size="10.00">orientation.h</text>
</a>
</g>
</g>
<!-- Node3&#45;&gt;Node5 -->
<g id="edge5" class="edge">
<title>Node3&#45;&gt;Node5</title>
<path fill="none" stroke="midnightblue" d="M154.49,-112.44C182.2,-103.32 226.25,-88.81 257.12,-78.65"/>
<polygon fill="midnightblue" stroke="midnightblue" points="258.23,-81.97 266.64,-75.52 256.04,-75.32 258.23,-81.97"/>
</g>
<!-- Node5&#45;&gt;Node2 -->
<g id="edge6" class="edge">
<title>Node5&#45;&gt;Node2</title>
<path fill="none" stroke="midnightblue" d="M257.72,-56.8C215.67,-46.88 145.15,-30.25 101.65,-20"/>
<polygon fill="midnightblue" stroke="midnightblue" points="102.27,-16.55 91.73,-17.66 100.66,-23.36 102.27,-16.55"/>
</g>
<!-- Node6 -->
<g id="node6" class="node">
<title>Node6</title>
<g id="a_node6"><a xlink:title=" ">
<polygon fill="none" stroke="#bfbfbf" points="247.5,-0.5 247.5,-19.5 337.5,-19.5 337.5,-0.5 247.5,-0.5"/>
<text text-anchor="middle" x="292.5" y="-7.5" font-family="Helvetica,sans-Serif" font-size="10.00">guunits/guunits.h</text>
</a>
</g>
</g>
<!-- Node5&#45;&gt;Node6 -->
<g id="edge7" class="edge">
<title>Node5&#45;&gt;Node6</title>
<path fill="none" stroke="midnightblue" d="M292.5,-56.08C292.5,-49.01 292.5,-38.86 292.5,-29.99"/>
<polygon fill="midnightblue" stroke="midnightblue" points="296,-29.75 292.5,-19.75 289,-29.75 296,-29.75"/>
</g>
</g>
</svg>
