<?xml version="1.0" encoding="UTF-8" standalone="no"?>
<!DOCTYPE svg PUBLIC "-//W3C//DTD SVG 1.1//EN"
 "http://www.w3.org/Graphics/SVG/1.1/DTD/svg11.dtd">
<!-- Generated by graphviz version 2.49.0 (20210830.1337)
 -->
<!-- Title: optional_line_sighting.c Pages: 1 -->
<svg width="266pt" height="196pt"
 viewBox="0.00 0.00 265.50 196.00" xmlns="http://www.w3.org/2000/svg" xmlns:xlink="http://www.w3.org/1999/xlink">
<g id="graph0" class="graph" transform="scale(1 1) rotate(0) translate(4 192)">
<title>optional_line_sighting.c</title>
<!-- Node1 -->
<g id="node1" class="node">
<title>Node1</title>
<g id="a_node1"><a xlink:title=" ">
<polygon fill="#bfbfbf" stroke="black" points="97.5,-168.5 97.5,-187.5 214.5,-187.5 214.5,-168.5 97.5,-168.5"/>
<text text-anchor="middle" x="156" y="-175.5" font-family="Helvetica,sans-Serif" font-size="10.00">optional_line_sighting.c</text>
</a>
</g>
</g>
<!-- Node2 -->
<g id="node2" class="node">
<title>Node2</title>
<g id="a_node2"><a xlink:href="optional__line__sighting_8h.html" target="_top" xlink:title=" ">
<polygon fill="none" stroke="black" points="97.5,-112.5 97.5,-131.5 214.5,-131.5 214.5,-112.5 97.5,-112.5"/>
<text text-anchor="middle" x="156" y="-119.5" font-family="Helvetica,sans-Serif" font-size="10.00">optional_line_sighting.h</text>
</a>
</g>
</g>
<!-- Node1&#45;&gt;Node2 -->
<g id="edge1" class="edge">
<title>Node1&#45;&gt;Node2</title>
<path fill="none" stroke="midnightblue" d="M156,-168.08C156,-161.01 156,-150.86 156,-141.99"/>
<polygon fill="midnightblue" stroke="midnightblue" points="159.5,-141.75 156,-131.75 152.5,-141.75 159.5,-141.75"/>
</g>
<!-- Node3 -->
<g id="node3" class="node">
<title>Node3</title>
<g id="a_node3"><a xlink:href="line__sighting_8h.html" target="_top" xlink:title=" ">
<polygon fill="none" stroke="black" points="75,-56.5 75,-75.5 153,-75.5 153,-56.5 75,-56.5"/>
<text text-anchor="middle" x="114" y="-63.5" font-family="Helvetica,sans-Serif" font-size="10.00">line_sighting.h</text>
</a>
</g>
</g>
<!-- Node2&#45;&gt;Node3 -->
<g id="edge2" class="edge">
<title>Node2&#45;&gt;Node3</title>
<path fill="none" stroke="midnightblue" d="M149.06,-112.08C143.07,-104.38 134.25,-93.03 126.95,-83.65"/>
<polygon fill="midnightblue" stroke="midnightblue" points="129.71,-81.5 120.81,-75.75 124.18,-85.79 129.71,-81.5"/>
</g>
<!-- Node6 -->
<g id="node6" class="node">
<title>Node6</title>
<g id="a_node6"><a xlink:title=" ">
<polygon fill="none" stroke="#bfbfbf" points="171,-56.5 171,-75.5 227,-75.5 227,-56.5 171,-56.5"/>
<text text-anchor="middle" x="199" y="-63.5" font-family="Helvetica,sans-Serif" font-size="10.00">stdbool.h</text>
</a>
</g>
</g>
<!-- Node2&#45;&gt;Node6 -->
<g id="edge5" class="edge">
<title>Node2&#45;&gt;Node6</title>
<path fill="none" stroke="midnightblue" d="M163.1,-112.08C169.24,-104.38 178.27,-93.03 185.74,-83.65"/>
<polygon fill="midnightblue" stroke="midnightblue" points="188.54,-85.75 192.03,-75.75 183.06,-81.39 188.54,-85.75"/>
</g>
<!-- Node4 -->
<g id="node4" class="node">
<title>Node4</title>
<g id="a_node4"><a xlink:title=" ">
<polygon fill="none" stroke="#bfbfbf" points="0,-0.5 0,-19.5 90,-19.5 90,-0.5 0,-0.5"/>
<text text-anchor="middle" x="45" y="-7.5" font-family="Helvetica,sans-Serif" font-size="10.00">guunits/guunits.h</text>
</a>
</g>
</g>
<!-- Node3&#45;&gt;Node4 -->
<g id="edge3" class="edge">
<title>Node3&#45;&gt;Node4</title>
<path fill="none" stroke="midnightblue" d="M102.91,-56.32C92.51,-48.18 76.74,-35.84 64.28,-26.09"/>
<polygon fill="midnightblue" stroke="midnightblue" points="66.32,-23.24 56.29,-19.83 62.01,-28.75 66.32,-23.24"/>
</g>
<!-- Node5 -->
<g id="node5" class="node">
<title>Node5</title>
<g id="a_node5"><a xlink:title=" ">
<polygon fill="none" stroke="#bfbfbf" points="108.5,-0.5 108.5,-19.5 257.5,-19.5 257.5,-0.5 108.5,-0.5"/>
<text text-anchor="middle" x="183" y="-7.5" font-family="Helvetica,sans-Serif" font-size="10.00">gucoordinates/gucoordinates.h</text>
</a>
</g>
</g>
<!-- Node3&#45;&gt;Node5 -->
<g id="edge4" class="edge">
<title>Node3&#45;&gt;Node5</title>
<path fill="none" stroke="midnightblue" d="M125.09,-56.32C135.49,-48.18 151.26,-35.84 163.72,-26.09"/>
<polygon fill="midnightblue" stroke="midnightblue" points="165.99,-28.75 171.71,-19.83 161.68,-23.24 165.99,-28.75"/>
</g>
</g>
</svg>
