<?xml version="1.0" encoding="UTF-8" standalone="no"?>
<!DOCTYPE svg PUBLIC "-//W3C//DTD SVG 1.1//EN"
 "http://www.w3.org/Graphics/SVG/1.1/DTD/svg11.dtd">
<!-- Generated by graphviz version 2.49.0 (20210830.1337)
 -->
<!-- Title: optional_rectangle_sighting.c Pages: 1 -->
<svg width="531pt" height="262pt"
 viewBox="0.00 0.00 530.50 262.00" xmlns="http://www.w3.org/2000/svg" xmlns:xlink="http://www.w3.org/1999/xlink">
<g id="graph0" class="graph" transform="scale(1 1) rotate(0) translate(4 258)">
<title>optional_rectangle_sighting.c</title>
<!-- Node1 -->
<g id="node1" class="node">
<title>Node1</title>
<g id="a_node1"><a xlink:title=" ">
<polygon fill="#bfbfbf" stroke="black" points="268.5,-223.5 268.5,-253.5 363.5,-253.5 363.5,-223.5 268.5,-223.5"/>
<text text-anchor="start" x="276.5" y="-241.5" font-family="Helvetica,sans-Serif" font-size="10.00">optional_rectangle</text>
<text text-anchor="middle" x="316" y="-230.5" font-family="Helvetica,sans-Serif" font-size="10.00">_sighting.c</text>
</a>
</g>
</g>
<!-- Node2 -->
<g id="node2" class="node">
<title>Node2</title>
<g id="a_node2"><a xlink:href="optional__rectangle__sighting_8h.html" target="_top" xlink:title=" ">
<polygon fill="none" stroke="black" points="268.5,-156.5 268.5,-186.5 363.5,-186.5 363.5,-156.5 268.5,-156.5"/>
<text text-anchor="start" x="276.5" y="-174.5" font-family="Helvetica,sans-Serif" font-size="10.00">optional_rectangle</text>
<text text-anchor="middle" x="316" y="-163.5" font-family="Helvetica,sans-Serif" font-size="10.00">_sighting.h</text>
</a>
</g>
</g>
<!-- Node1&#45;&gt;Node2 -->
<g id="edge1" class="edge">
<title>Node1&#45;&gt;Node2</title>
<path fill="none" stroke="midnightblue" d="M316,-223.4C316,-215.64 316,-205.81 316,-196.86"/>
<polygon fill="midnightblue" stroke="midnightblue" points="319.5,-196.58 316,-186.58 312.5,-196.58 319.5,-196.58"/>
</g>
<!-- Node3 -->
<g id="node3" class="node">
<title>Node3</title>
<g id="a_node3"><a xlink:href="rectangle__sighting_8h.html" target="_top" xlink:title=" ">
<polygon fill="none" stroke="black" points="131.5,-89.5 131.5,-108.5 234.5,-108.5 234.5,-89.5 131.5,-89.5"/>
<text text-anchor="middle" x="183" y="-96.5" font-family="Helvetica,sans-Serif" font-size="10.00">rectangle_sighting.h</text>
</a>
</g>
</g>
<!-- Node2&#45;&gt;Node3 -->
<g id="edge2" class="edge">
<title>Node2&#45;&gt;Node3</title>
<path fill="none" stroke="midnightblue" d="M289.41,-156.4C265.69,-143.83 231.22,-125.56 208,-113.25"/>
<polygon fill="midnightblue" stroke="midnightblue" points="209.57,-110.12 199.1,-108.53 206.3,-116.31 209.57,-110.12"/>
</g>
<!-- Node7 -->
<g id="node7" class="node">
<title>Node7</title>
<g id="a_node7"><a xlink:title=" ">
<polygon fill="none" stroke="#bfbfbf" points="253,-89.5 253,-108.5 309,-108.5 309,-89.5 253,-89.5"/>
<text text-anchor="middle" x="281" y="-96.5" font-family="Helvetica,sans-Serif" font-size="10.00">stdbool.h</text>
</a>
</g>
</g>
<!-- Node2&#45;&gt;Node7 -->
<g id="edge6" class="edge">
<title>Node2&#45;&gt;Node7</title>
<path fill="none" stroke="midnightblue" d="M308.92,-156.23C303.42,-145.17 295.78,-129.77 289.88,-117.88"/>
<polygon fill="midnightblue" stroke="midnightblue" points="293,-116.29 285.42,-108.89 286.73,-119.41 293,-116.29"/>
</g>
<!-- Node8 -->
<g id="node8" class="node">
<title>Node8</title>
<g id="a_node8"><a xlink:title=" ">
<polygon fill="none" stroke="#bfbfbf" points="327,-89.5 327,-108.5 375,-108.5 375,-89.5 327,-89.5"/>
<text text-anchor="middle" x="351" y="-96.5" font-family="Helvetica,sans-Serif" font-size="10.00">stdint.h</text>
</a>
</g>
</g>
<!-- Node2&#45;&gt;Node8 -->
<g id="edge7" class="edge">
<title>Node2&#45;&gt;Node8</title>
<path fill="none" stroke="midnightblue" d="M323.08,-156.23C328.58,-145.17 336.22,-129.77 342.12,-117.88"/>
<polygon fill="midnightblue" stroke="midnightblue" points="345.27,-119.41 346.58,-108.89 339,-116.29 345.27,-119.41"/>
</g>
<!-- Node9 -->
<g id="node9" class="node">
<title>Node9</title>
<g id="a_node9"><a xlink:title=" ">
<polygon fill="none" stroke="#bfbfbf" points="393.5,-78.5 393.5,-119.5 522.5,-119.5 522.5,-78.5 393.5,-78.5"/>
<text text-anchor="start" x="401.5" y="-107.5" font-family="Helvetica,sans-Serif" font-size="10.00">gusimplewhiteboard</text>
<text text-anchor="start" x="401.5" y="-96.5" font-family="Helvetica,sans-Serif" font-size="10.00">/typeClassDefs/wb_vision</text>
<text text-anchor="middle" x="458" y="-85.5" font-family="Helvetica,sans-Serif" font-size="10.00">_detection_goal_post.h</text>
</a>
</g>
</g>
<!-- Node2&#45;&gt;Node9 -->
<g id="edge8" class="edge">
<title>Node2&#45;&gt;Node9</title>
<path fill="none" stroke="midnightblue" d="M344.39,-156.4C363.02,-147.16 387.85,-134.83 409.55,-124.05"/>
<polygon fill="midnightblue" stroke="midnightblue" points="411.23,-127.13 418.63,-119.55 408.12,-120.86 411.23,-127.13"/>
</g>
<!-- Node4 -->
<g id="node4" class="node">
<title>Node4</title>
<g id="a_node4"><a xlink:title=" ">
<polygon fill="none" stroke="#bfbfbf" points="0,-11.5 0,-30.5 90,-30.5 90,-11.5 0,-11.5"/>
<text text-anchor="middle" x="45" y="-18.5" font-family="Helvetica,sans-Serif" font-size="10.00">guunits/guunits.h</text>
</a>
</g>
</g>
<!-- Node3&#45;&gt;Node4 -->
<g id="edge3" class="edge">
<title>Node3&#45;&gt;Node4</title>
<path fill="none" stroke="midnightblue" d="M167.44,-89.43C143.63,-76.32 97.94,-51.15 69.6,-35.55"/>
<polygon fill="midnightblue" stroke="midnightblue" points="71.16,-32.41 60.72,-30.66 67.79,-38.55 71.16,-32.41"/>
</g>
<!-- Node5 -->
<g id="node5" class="node">
<title>Node5</title>
<g id="a_node5"><a xlink:title=" ">
<polygon fill="none" stroke="#bfbfbf" points="108.5,-11.5 108.5,-30.5 257.5,-30.5 257.5,-11.5 108.5,-11.5"/>
<text text-anchor="middle" x="183" y="-18.5" font-family="Helvetica,sans-Serif" font-size="10.00">gucoordinates/gucoordinates.h</text>
</a>
</g>
</g>
<!-- Node3&#45;&gt;Node5 -->
<g id="edge4" class="edge">
<title>Node3&#45;&gt;Node5</title>
<path fill="none" stroke="midnightblue" d="M183,-89.28C183,-77.49 183,-56.13 183,-40.64"/>
<polygon fill="midnightblue" stroke="midnightblue" points="186.5,-40.62 183,-30.62 179.5,-40.62 186.5,-40.62"/>
</g>
<!-- Node6 -->
<g id="node6" class="node">
<title>Node6</title>
<g id="a_node6"><a xlink:title=" ">
<polygon fill="none" stroke="#bfbfbf" points="275.5,-0.5 275.5,-41.5 404.5,-41.5 404.5,-0.5 275.5,-0.5"/>
<text text-anchor="start" x="283.5" y="-29.5" font-family="Helvetica,sans-Serif" font-size="10.00">gusimplewhiteboard</text>
<text text-anchor="start" x="283.5" y="-18.5" font-family="Helvetica,sans-Serif" font-size="10.00">/typeClassDefs/wb_vision</text>
<text text-anchor="middle" x="340" y="-7.5" font-family="Helvetica,sans-Serif" font-size="10.00">_line.h</text>
</a>
</g>
</g>
<!-- Node3&#45;&gt;Node6 -->
<g id="edge5" class="edge">
<title>Node3&#45;&gt;Node6</title>
<path fill="none" stroke="midnightblue" d="M200.7,-89.43C222.29,-78.98 259.68,-60.88 290.28,-46.07"/>
<polygon fill="midnightblue" stroke="midnightblue" points="292.06,-49.09 299.54,-41.59 289.01,-42.79 292.06,-49.09"/>
</g>
</g>
</svg>
