<?xml version="1.0" encoding="UTF-8" standalone="no"?>
<!DOCTYPE svg PUBLIC "-//W3C//DTD SVG 1.1//EN"
 "http://www.w3.org/Graphics/SVG/1.1/DTD/svg11.dtd">
<!-- Generated by graphviz version 2.49.0 (20210830.1337)
 -->
<!-- Title: optional_horizon_sighting.h Pages: 1 -->
<svg width="558pt" height="218pt"
 viewBox="0.00 0.00 557.50 218.00" xmlns="http://www.w3.org/2000/svg" xmlns:xlink="http://www.w3.org/1999/xlink">
<g id="graph0" class="graph" transform="scale(1 1) rotate(0) translate(4 214)">
<title>optional_horizon_sighting.h</title>
<!-- Node1 -->
<g id="node1" class="node">
<title>Node1</title>
<g id="a_node1"><a xlink:title=" ">
<polygon fill="#bfbfbf" stroke="black" points="240.5,-190.5 240.5,-209.5 373.5,-209.5 373.5,-190.5 240.5,-190.5"/>
<text text-anchor="middle" x="307" y="-197.5" font-family="Helvetica,sans-Serif" font-size="10.00">optional_horizon_sighting.h</text>
</a>
</g>
</g>
<!-- Node2 -->
<g id="node2" class="node">
<title>Node2</title>
<g id="a_node2"><a xlink:href="horizon__sighting_8h.html" target="_top" xlink:title=" ">
<polygon fill="none" stroke="black" points="223,-134.5 223,-153.5 317,-153.5 317,-134.5 223,-134.5"/>
<text text-anchor="middle" x="270" y="-141.5" font-family="Helvetica,sans-Serif" font-size="10.00">horizon_sighting.h</text>
</a>
</g>
</g>
<!-- Node1&#45;&gt;Node2 -->
<g id="edge1" class="edge">
<title>Node1&#45;&gt;Node2</title>
<path fill="none" stroke="midnightblue" d="M300.89,-190.08C295.72,-182.53 288.15,-171.49 281.81,-162.23"/>
<polygon fill="midnightblue" stroke="midnightblue" points="284.54,-160.02 276,-153.75 278.76,-163.98 284.54,-160.02"/>
</g>
<!-- Node5 -->
<g id="node5" class="node">
<title>Node5</title>
<g id="a_node5"><a xlink:title=" ">
<polygon fill="none" stroke="#bfbfbf" points="0,-67.5 0,-86.5 56,-86.5 56,-67.5 0,-67.5"/>
<text text-anchor="middle" x="28" y="-74.5" font-family="Helvetica,sans-Serif" font-size="10.00">stdbool.h</text>
</a>
</g>
</g>
<!-- Node1&#45;&gt;Node5 -->
<g id="edge13" class="edge">
<title>Node1&#45;&gt;Node5</title>
<path fill="none" stroke="midnightblue" d="M287.38,-190.49C239.07,-169.54 114.17,-115.37 57.16,-90.64"/>
<polygon fill="midnightblue" stroke="midnightblue" points="58.54,-87.43 47.97,-86.66 55.75,-93.85 58.54,-87.43"/>
</g>
<!-- Node6 -->
<g id="node6" class="node">
<title>Node6</title>
<g id="a_node6"><a xlink:title=" ">
<polygon fill="none" stroke="#bfbfbf" points="354,-67.5 354,-86.5 402,-86.5 402,-67.5 354,-67.5"/>
<text text-anchor="middle" x="378" y="-74.5" font-family="Helvetica,sans-Serif" font-size="10.00">stdint.h</text>
</a>
</g>
</g>
<!-- Node1&#45;&gt;Node6 -->
<g id="edge14" class="edge">
<title>Node1&#45;&gt;Node6</title>
<path fill="none" stroke="midnightblue" d="M312.11,-190.3C323.72,-170.5 352.31,-121.78 367.74,-95.49"/>
<polygon fill="midnightblue" stroke="midnightblue" points="370.9,-97.02 372.94,-86.62 364.86,-93.48 370.9,-97.02"/>
</g>
<!-- Node9 -->
<g id="node9" class="node">
<title>Node9</title>
<g id="a_node9"><a xlink:title=" ">
<polygon fill="none" stroke="#bfbfbf" points="420.5,-56.5 420.5,-97.5 549.5,-97.5 549.5,-56.5 420.5,-56.5"/>
<text text-anchor="start" x="428.5" y="-85.5" font-family="Helvetica,sans-Serif" font-size="10.00">gusimplewhiteboard</text>
<text text-anchor="start" x="428.5" y="-74.5" font-family="Helvetica,sans-Serif" font-size="10.00">/typeClassDefs/wb_vision</text>
<text text-anchor="middle" x="485" y="-63.5" font-family="Helvetica,sans-Serif" font-size="10.00">_detection_horizon.h</text>
</a>
</g>
</g>
<!-- Node1&#45;&gt;Node9 -->
<g id="edge15" class="edge">
<title>Node1&#45;&gt;Node9</title>
<path fill="none" stroke="midnightblue" d="M319.52,-190.49C345.76,-172.65 407.45,-130.72 447.64,-103.4"/>
<polygon fill="midnightblue" stroke="midnightblue" points="449.82,-106.15 456.12,-97.63 445.88,-100.36 449.82,-106.15"/>
</g>
<!-- Node3 -->
<g id="node3" class="node">
<title>Node3</title>
<g id="a_node3"><a xlink:title=" ">
<polygon fill="none" stroke="#bfbfbf" points="94,-0.5 94,-19.5 184,-19.5 184,-0.5 94,-0.5"/>
<text text-anchor="middle" x="139" y="-7.5" font-family="Helvetica,sans-Serif" font-size="10.00">guunits/guunits.h</text>
</a>
</g>
</g>
<!-- Node2&#45;&gt;Node3 -->
<g id="edge2" class="edge">
<title>Node2&#45;&gt;Node3</title>
<path fill="none" stroke="midnightblue" d="M222.91,-136.74C178.81,-129.8 117.56,-117.01 103,-98 91.65,-83.18 96.82,-73.61 103,-56 106.79,-45.21 114.37,-35.08 121.6,-27.18"/>
<polygon fill="midnightblue" stroke="midnightblue" points="124.33,-29.4 128.84,-19.81 119.33,-24.49 124.33,-29.4"/>
</g>
<!-- Node4 -->
<g id="node4" class="node">
<title>Node4</title>
<g id="a_node4"><a xlink:title=" ">
<polygon fill="none" stroke="#bfbfbf" points="202.5,-0.5 202.5,-19.5 351.5,-19.5 351.5,-0.5 202.5,-0.5"/>
<text text-anchor="middle" x="277" y="-7.5" font-family="Helvetica,sans-Serif" font-size="10.00">gucoordinates/gucoordinates.h</text>
</a>
</g>
</g>
<!-- Node2&#45;&gt;Node4 -->
<g id="edge3" class="edge">
<title>Node2&#45;&gt;Node4</title>
<path fill="none" stroke="midnightblue" d="M280.44,-134.24C289.42,-125.97 301.75,-112.66 307,-98 313.3,-80.43 312.41,-73.87 307,-56 303.88,-45.7 297.55,-35.61 291.5,-27.6"/>
<polygon fill="midnightblue" stroke="midnightblue" points="294.22,-25.4 285.21,-19.82 288.77,-29.8 294.22,-25.4"/>
</g>
<!-- Node2&#45;&gt;Node5 -->
<g id="edge4" class="edge">
<title>Node2&#45;&gt;Node5</title>
<path fill="none" stroke="midnightblue" d="M222.7,-135.43C181.65,-128.14 120.96,-115.62 70,-98 64.47,-96.09 58.7,-93.65 53.27,-91.15"/>
<polygon fill="midnightblue" stroke="midnightblue" points="54.53,-87.87 44,-86.66 51.47,-94.17 54.53,-87.87"/>
</g>
<!-- Node2&#45;&gt;Node6 -->
<g id="edge5" class="edge">
<title>Node2&#45;&gt;Node6</title>
<path fill="none" stroke="midnightblue" d="M284.57,-134.23C302.62,-123.37 333.61,-104.72 354.92,-91.89"/>
<polygon fill="midnightblue" stroke="midnightblue" points="356.9,-94.78 363.67,-86.63 353.29,-88.79 356.9,-94.78"/>
</g>
<!-- Node7 -->
<g id="node7" class="node">
<title>Node7</title>
<g id="a_node7"><a xlink:href="line__sighting_8h.html" target="_top" xlink:title=" ">
<polygon fill="none" stroke="black" points="220,-67.5 220,-86.5 298,-86.5 298,-67.5 220,-67.5"/>
<text text-anchor="middle" x="259" y="-74.5" font-family="Helvetica,sans-Serif" font-size="10.00">line_sighting.h</text>
</a>
</g>
</g>
<!-- Node2&#45;&gt;Node7 -->
<g id="edge6" class="edge">
<title>Node2&#45;&gt;Node7</title>
<path fill="none" stroke="midnightblue" d="M268.52,-134.23C266.9,-124.68 264.27,-109.12 262.18,-96.78"/>
<polygon fill="midnightblue" stroke="midnightblue" points="265.58,-95.9 260.46,-86.63 258.68,-97.07 265.58,-95.9"/>
</g>
<!-- Node8 -->
<g id="node8" class="node">
<title>Node8</title>
<g id="a_node8"><a xlink:href="corner__sighting_8h.html" target="_top" xlink:title=" ">
<polygon fill="none" stroke="black" points="112,-67.5 112,-86.5 202,-86.5 202,-67.5 112,-67.5"/>
<text text-anchor="middle" x="157" y="-74.5" font-family="Helvetica,sans-Serif" font-size="10.00">corner_sighting.h</text>
</a>
</g>
</g>
<!-- Node2&#45;&gt;Node8 -->
<g id="edge9" class="edge">
<title>Node2&#45;&gt;Node8</title>
<path fill="none" stroke="midnightblue" d="M254.76,-134.23C235.78,-123.32 203.15,-104.55 180.85,-91.72"/>
<polygon fill="midnightblue" stroke="midnightblue" points="182.41,-88.58 172,-86.63 178.92,-94.65 182.41,-88.58"/>
</g>
<!-- Node2&#45;&gt;Node9 -->
<g id="edge12" class="edge">
<title>Node2&#45;&gt;Node9</title>
<path fill="none" stroke="midnightblue" d="M298.55,-134.37C326.98,-125.77 371.83,-112.21 410.42,-100.55"/>
<polygon fill="midnightblue" stroke="midnightblue" points="411.53,-103.87 420.09,-97.63 409.5,-97.17 411.53,-103.87"/>
</g>
<!-- Node7&#45;&gt;Node3 -->
<g id="edge7" class="edge">
<title>Node7&#45;&gt;Node3</title>
<path fill="none" stroke="midnightblue" d="M242.82,-67.23C222.57,-56.27 187.7,-37.38 164.01,-24.55"/>
<polygon fill="midnightblue" stroke="midnightblue" points="165.39,-21.31 154.93,-19.63 162.05,-27.47 165.39,-21.31"/>
</g>
<!-- Node7&#45;&gt;Node4 -->
<g id="edge8" class="edge">
<title>Node7&#45;&gt;Node4</title>
<path fill="none" stroke="midnightblue" d="M261.43,-67.23C264.1,-57.59 268.47,-41.8 271.9,-29.41"/>
<polygon fill="midnightblue" stroke="midnightblue" points="275.32,-30.2 274.61,-19.63 268.57,-28.33 275.32,-30.2"/>
</g>
<!-- Node8&#45;&gt;Node3 -->
<g id="edge10" class="edge">
<title>Node8&#45;&gt;Node3</title>
<path fill="none" stroke="midnightblue" d="M154.57,-67.23C151.9,-57.59 147.53,-41.8 144.1,-29.41"/>
<polygon fill="midnightblue" stroke="midnightblue" points="147.43,-28.33 141.39,-19.63 140.68,-30.2 147.43,-28.33"/>
</g>
<!-- Node8&#45;&gt;Node4 -->
<g id="edge11" class="edge">
<title>Node8&#45;&gt;Node4</title>
<path fill="none" stroke="midnightblue" d="M173.18,-67.23C193.43,-56.27 228.3,-37.38 251.99,-24.55"/>
<polygon fill="midnightblue" stroke="midnightblue" points="253.95,-27.47 261.07,-19.63 250.61,-21.31 253.95,-27.47"/>
</g>
</g>
</svg>
