<?xml version="1.0" encoding="UTF-8" standalone="no"?>
<!DOCTYPE svg PUBLIC "-//W3C//DTD SVG 1.1//EN"
 "http://www.w3.org/Graphics/SVG/1.1/DTD/svg11.dtd">
<!-- Generated by graphviz version 2.49.0 (20210830.1337)
 -->
<!-- Title: optional_ellipse_sighting.h Pages: 1 -->
<svg width="300pt" height="364pt"
 viewBox="0.00 0.00 300.00 364.00" xmlns="http://www.w3.org/2000/svg" xmlns:xlink="http://www.w3.org/1999/xlink">
<g id="graph0" class="graph" transform="scale(1 1) rotate(0) translate(4 360)">
<title>optional_ellipse_sighting.h</title>
<!-- Node1 -->
<g id="node1" class="node">
<title>Node1</title>
<g id="a_node1"><a xlink:title=" ">
<polygon fill="#bfbfbf" stroke="black" points="66,-336.5 66,-355.5 196,-355.5 196,-336.5 66,-336.5"/>
<text text-anchor="middle" x="131" y="-343.5" font-family="Helvetica,sans-Serif" font-size="10.00">optional_ellipse_sighting.h</text>
</a>
</g>
</g>
<!-- Node2 -->
<g id="node2" class="node">
<title>Node2</title>
<g id="a_node2"><a xlink:href="optional__ellipse__sighting_8c.html" target="_top" xlink:title=" ">
<polygon fill="none" stroke="black" points="0,-280.5 0,-299.5 130,-299.5 130,-280.5 0,-280.5"/>
<text text-anchor="middle" x="65" y="-287.5" font-family="Helvetica,sans-Serif" font-size="10.00">optional_ellipse_sighting.c</text>
</a>
</g>
</g>
<!-- Node1&#45;&gt;Node2 -->
<g id="edge1" class="edge">
<title>Node1&#45;&gt;Node2</title>
<path fill="none" stroke="midnightblue" d="M112.45,-329.82C100.62,-320.15 85.71,-307.95 75.8,-299.83"/>
<polygon fill="midnightblue" stroke="midnightblue" points="110.44,-332.7 120.4,-336.32 114.87,-327.28 110.44,-332.7"/>
</g>
<!-- Node3 -->
<g id="node3" class="node">
<title>Node3</title>
<g id="a_node3"><a xlink:href="soccer__sightings_8h.html" target="_top" xlink:title=" ">
<polygon fill="none" stroke="black" points="148,-280.5 148,-299.5 246,-299.5 246,-280.5 148,-280.5"/>
<text text-anchor="middle" x="197" y="-287.5" font-family="Helvetica,sans-Serif" font-size="10.00">soccer_sightings.h</text>
</a>
</g>
</g>
<!-- Node1&#45;&gt;Node3 -->
<g id="edge2" class="edge">
<title>Node1&#45;&gt;Node3</title>
<path fill="none" stroke="midnightblue" d="M149.55,-329.82C161.38,-320.15 176.29,-307.95 186.2,-299.83"/>
<polygon fill="midnightblue" stroke="midnightblue" points="147.13,-327.28 141.6,-336.32 151.56,-332.7 147.13,-327.28"/>
</g>
<!-- Node4 -->
<g id="node4" class="node">
<title>Node4</title>
<g id="a_node4"><a xlink:href="nao_8h.html" target="_top" xlink:title=" ">
<polygon fill="none" stroke="black" points="133,-224.5 133,-243.5 173,-243.5 173,-224.5 133,-224.5"/>
<text text-anchor="middle" x="153" y="-231.5" font-family="Helvetica,sans-Serif" font-size="10.00">nao.h</text>
</a>
</g>
</g>
<!-- Node3&#45;&gt;Node4 -->
<g id="edge3" class="edge">
<title>Node3&#45;&gt;Node4</title>
<path fill="none" stroke="midnightblue" d="M183.27,-272.14C175.6,-262.74 166.37,-251.4 160.13,-243.75"/>
<polygon fill="midnightblue" stroke="midnightblue" points="180.7,-274.54 189.73,-280.08 186.13,-270.12 180.7,-274.54"/>
</g>
<!-- Node12 -->
<g id="node12" class="node">
<title>Node12</title>
<g id="a_node12"><a xlink:href="soccer__sightings_8c.html" target="_top" xlink:title=" ">
<polygon fill="none" stroke="black" points="191,-224.5 191,-243.5 289,-243.5 289,-224.5 191,-224.5"/>
<text text-anchor="middle" x="240" y="-231.5" font-family="Helvetica,sans-Serif" font-size="10.00">soccer_sightings.c</text>
</a>
</g>
</g>
<!-- Node3&#45;&gt;Node12 -->
<g id="edge12" class="edge">
<title>Node3&#45;&gt;Node12</title>
<path fill="none" stroke="midnightblue" d="M210.42,-272.14C217.91,-262.74 226.94,-251.4 233.03,-243.75"/>
<polygon fill="midnightblue" stroke="midnightblue" points="207.59,-270.08 204.1,-280.08 213.07,-274.44 207.59,-270.08"/>
</g>
<!-- Node5 -->
<g id="node5" class="node">
<title>Node5</title>
<g id="a_node5"><a xlink:href="_nao_v5_8hpp.html" target="_top" xlink:title=" ">
<polygon fill="none" stroke="black" points="59.5,-168.5 59.5,-187.5 124.5,-187.5 124.5,-168.5 59.5,-168.5"/>
<text text-anchor="middle" x="92" y="-175.5" font-family="Helvetica,sans-Serif" font-size="10.00">NaoV5.hpp</text>
</a>
</g>
</g>
<!-- Node4&#45;&gt;Node5 -->
<g id="edge4" class="edge">
<title>Node4&#45;&gt;Node5</title>
<path fill="none" stroke="midnightblue" d="M135.53,-217.54C124.66,-207.91 111.06,-195.87 101.98,-187.83"/>
<polygon fill="midnightblue" stroke="midnightblue" points="133.39,-220.32 143.2,-224.32 138.03,-215.07 133.39,-220.32"/>
</g>
<!-- Node7 -->
<g id="node7" class="node">
<title>Node7</title>
<g id="a_node7"><a xlink:href="gurobots_8h.html" target="_top" xlink:title=" ">
<polygon fill="none" stroke="black" points="122,-112.5 122,-131.5 184,-131.5 184,-112.5 122,-112.5"/>
<text text-anchor="middle" x="153" y="-119.5" font-family="Helvetica,sans-Serif" font-size="10.00">gurobots.h</text>
</a>
</g>
</g>
<!-- Node4&#45;&gt;Node7 -->
<g id="edge10" class="edge">
<title>Node4&#45;&gt;Node7</title>
<path fill="none" stroke="midnightblue" d="M153,-214.35C153,-190.25 153,-149.31 153,-131.59"/>
<polygon fill="midnightblue" stroke="midnightblue" points="149.5,-214.37 153,-224.37 156.5,-214.37 149.5,-214.37"/>
</g>
<!-- Node11 -->
<g id="node11" class="node">
<title>Node11</title>
<g id="a_node11"><a xlink:href="nao_8c.html" target="_top" xlink:title=" ">
<polygon fill="none" stroke="black" points="181,-168.5 181,-187.5 221,-187.5 221,-168.5 181,-168.5"/>
<text text-anchor="middle" x="201" y="-175.5" font-family="Helvetica,sans-Serif" font-size="10.00">nao.c</text>
</a>
</g>
</g>
<!-- Node4&#45;&gt;Node11 -->
<g id="edge11" class="edge">
<title>Node4&#45;&gt;Node11</title>
<path fill="none" stroke="midnightblue" d="M167.73,-216.43C176.14,-206.97 186.35,-195.48 193.22,-187.75"/>
<polygon fill="midnightblue" stroke="midnightblue" points="164.95,-214.28 160.93,-224.08 170.19,-218.93 164.95,-214.28"/>
</g>
<!-- Node6 -->
<g id="node6" class="node">
<title>Node6</title>
<g id="a_node6"><a xlink:href="_nao_v5_8cc.html" target="_top" xlink:title=" ">
<polygon fill="none" stroke="black" points="44.5,-112.5 44.5,-131.5 103.5,-131.5 103.5,-112.5 44.5,-112.5"/>
<text text-anchor="middle" x="74" y="-119.5" font-family="Helvetica,sans-Serif" font-size="10.00">NaoV5.cc</text>
</a>
</g>
</g>
<!-- Node5&#45;&gt;Node6 -->
<g id="edge5" class="edge">
<title>Node5&#45;&gt;Node6</title>
<path fill="none" stroke="midnightblue" d="M85.8,-158.4C82.79,-149.36 79.31,-138.94 76.92,-131.75"/>
<polygon fill="midnightblue" stroke="midnightblue" points="82.54,-159.7 89.03,-168.08 89.19,-157.49 82.54,-159.7"/>
</g>
<!-- Node5&#45;&gt;Node7 -->
<g id="edge6" class="edge">
<title>Node5&#45;&gt;Node7</title>
<path fill="none" stroke="midnightblue" d="M109.47,-161.54C120.34,-151.91 133.94,-139.87 143.02,-131.83"/>
<polygon fill="midnightblue" stroke="midnightblue" points="106.97,-159.07 101.8,-168.32 111.61,-164.32 106.97,-159.07"/>
</g>
<!-- Node8 -->
<g id="node8" class="node">
<title>Node8</title>
<g id="a_node8"><a xlink:href="gurobots__tests_8hpp.html" target="_top" xlink:title=" ">
<polygon fill="none" stroke="black" points="14.5,-56.5 14.5,-75.5 143.5,-75.5 143.5,-56.5 14.5,-56.5"/>
<text text-anchor="middle" x="79" y="-63.5" font-family="Helvetica,sans-Serif" font-size="10.00">ctests/gurobots_tests.hpp</text>
</a>
</g>
</g>
<!-- Node7&#45;&gt;Node8 -->
<g id="edge7" class="edge">
<title>Node7&#45;&gt;Node8</title>
<path fill="none" stroke="midnightblue" d="M132.97,-106.38C119.59,-96.62 102.44,-84.11 91.11,-75.83"/>
<polygon fill="midnightblue" stroke="midnightblue" points="130.97,-109.26 141.11,-112.32 135.1,-103.6 130.97,-109.26"/>
</g>
<!-- Node9 -->
<g id="node9" class="node">
<title>Node9</title>
<g id="a_node9"><a xlink:href="_g_u_robots_tests_8hpp.html" target="_top" xlink:title=" ">
<polygon fill="none" stroke="black" points="162,-56.5 162,-75.5 292,-75.5 292,-56.5 162,-56.5"/>
<text text-anchor="middle" x="227" y="-63.5" font-family="Helvetica,sans-Serif" font-size="10.00">tests/GURobotsTests.hpp</text>
</a>
</g>
</g>
<!-- Node7&#45;&gt;Node9 -->
<g id="edge8" class="edge">
<title>Node7&#45;&gt;Node9</title>
<path fill="none" stroke="midnightblue" d="M173.03,-106.38C186.41,-96.62 203.56,-84.11 214.89,-75.83"/>
<polygon fill="midnightblue" stroke="midnightblue" points="170.9,-103.6 164.89,-112.32 175.03,-109.26 170.9,-103.6"/>
</g>
<!-- Node10 -->
<g id="node10" class="node">
<title>Node10</title>
<g id="a_node10"><a xlink:href="_nao_v5_tests_8cc.html" target="_top" xlink:title=" ">
<polygon fill="none" stroke="black" points="172.5,-0.5 172.5,-19.5 281.5,-19.5 281.5,-0.5 172.5,-0.5"/>
<text text-anchor="middle" x="227" y="-7.5" font-family="Helvetica,sans-Serif" font-size="10.00">tests/NaoV5Tests.cc</text>
</a>
</g>
</g>
<!-- Node9&#45;&gt;Node10 -->
<g id="edge9" class="edge">
<title>Node9&#45;&gt;Node10</title>
<path fill="none" stroke="midnightblue" d="M227,-45.8C227,-36.91 227,-26.78 227,-19.75"/>
<polygon fill="midnightblue" stroke="midnightblue" points="223.5,-46.08 227,-56.08 230.5,-46.08 223.5,-46.08"/>
</g>
</g>
</svg>
