<?xml version="1.0" encoding="UTF-8" standalone="no"?>
<!DOCTYPE svg PUBLIC "-//W3C//DTD SVG 1.1//EN"
 "http://www.w3.org/Graphics/SVG/1.1/DTD/svg11.dtd">
<!-- Generated by graphviz version 2.49.0 (20210830.1337)
 -->
<!-- Title: optional_rectangle_sighting.h Pages: 1 -->
<svg width="286pt" height="386pt"
 viewBox="0.00 0.00 285.50 386.00" xmlns="http://www.w3.org/2000/svg" xmlns:xlink="http://www.w3.org/1999/xlink">
<g id="graph0" class="graph" transform="scale(1 1) rotate(0) translate(4 382)">
<title>optional_rectangle_sighting.h</title>
<!-- Node1 -->
<g id="node1" class="node">
<title>Node1</title>
<g id="a_node1"><a xlink:title=" ">
<polygon fill="#bfbfbf" stroke="black" points="77,-347.5 77,-377.5 172,-377.5 172,-347.5 77,-347.5"/>
<text text-anchor="start" x="85" y="-365.5" font-family="Helvetica,sans-Serif" font-size="10.00">optional_rectangle</text>
<text text-anchor="middle" x="124.5" y="-354.5" font-family="Helvetica,sans-Serif" font-size="10.00">_sighting.h</text>
</a>
</g>
</g>
<!-- Node2 -->
<g id="node2" class="node">
<title>Node2</title>
<g id="a_node2"><a xlink:href="optional__rectangle__sighting_8c.html" target="_top" xlink:title=" ">
<polygon fill="none" stroke="black" points="20,-280.5 20,-310.5 115,-310.5 115,-280.5 20,-280.5"/>
<text text-anchor="start" x="28" y="-298.5" font-family="Helvetica,sans-Serif" font-size="10.00">optional_rectangle</text>
<text text-anchor="middle" x="67.5" y="-287.5" font-family="Helvetica,sans-Serif" font-size="10.00">_sighting.c</text>
</a>
</g>
</g>
<!-- Node1&#45;&gt;Node2 -->
<g id="edge1" class="edge">
<title>Node1&#45;&gt;Node2</title>
<path fill="none" stroke="midnightblue" d="M105.41,-339.74C96.98,-330.12 87.31,-319.09 79.84,-310.58"/>
<polygon fill="midnightblue" stroke="midnightblue" points="102.91,-342.18 112.13,-347.4 108.17,-337.57 102.91,-342.18"/>
</g>
<!-- Node3 -->
<g id="node3" class="node">
<title>Node3</title>
<g id="a_node3"><a xlink:href="soccer__sightings_8h.html" target="_top" xlink:title=" ">
<polygon fill="none" stroke="black" points="133.5,-286 133.5,-305 231.5,-305 231.5,-286 133.5,-286"/>
<text text-anchor="middle" x="182.5" y="-293" font-family="Helvetica,sans-Serif" font-size="10.00">soccer_sightings.h</text>
</a>
</g>
</g>
<!-- Node1&#45;&gt;Node3 -->
<g id="edge2" class="edge">
<title>Node1&#45;&gt;Node3</title>
<path fill="none" stroke="midnightblue" d="M143.99,-339.66C154.51,-327.86 166.91,-313.97 174.74,-305.19"/>
<polygon fill="midnightblue" stroke="midnightblue" points="141.13,-337.6 137.09,-347.4 146.35,-342.26 141.13,-337.6"/>
</g>
<!-- Node4 -->
<g id="node4" class="node">
<title>Node4</title>
<g id="a_node4"><a xlink:href="nao_8h.html" target="_top" xlink:title=" ">
<polygon fill="none" stroke="black" points="118.5,-224.5 118.5,-243.5 158.5,-243.5 158.5,-224.5 118.5,-224.5"/>
<text text-anchor="middle" x="138.5" y="-231.5" font-family="Helvetica,sans-Serif" font-size="10.00">nao.h</text>
</a>
</g>
</g>
<!-- Node3&#45;&gt;Node4 -->
<g id="edge3" class="edge">
<title>Node3&#45;&gt;Node4</title>
<path fill="none" stroke="midnightblue" d="M170.18,-277.84C161.92,-266.67 151.39,-252.43 144.79,-243.51"/>
<polygon fill="midnightblue" stroke="midnightblue" points="167.44,-280.02 176.2,-285.98 173.06,-275.85 167.44,-280.02"/>
</g>
<!-- Node12 -->
<g id="node12" class="node">
<title>Node12</title>
<g id="a_node12"><a xlink:href="soccer__sightings_8c.html" target="_top" xlink:title=" ">
<polygon fill="none" stroke="black" points="176.5,-224.5 176.5,-243.5 274.5,-243.5 274.5,-224.5 176.5,-224.5"/>
<text text-anchor="middle" x="225.5" y="-231.5" font-family="Helvetica,sans-Serif" font-size="10.00">soccer_sightings.c</text>
</a>
</g>
</g>
<!-- Node3&#45;&gt;Node12 -->
<g id="edge12" class="edge">
<title>Node3&#45;&gt;Node12</title>
<path fill="none" stroke="midnightblue" d="M194.54,-277.84C202.61,-266.67 212.91,-252.43 219.35,-243.51"/>
<polygon fill="midnightblue" stroke="midnightblue" points="191.68,-275.82 188.66,-285.98 197.36,-279.92 191.68,-275.82"/>
</g>
<!-- Node5 -->
<g id="node5" class="node">
<title>Node5</title>
<g id="a_node5"><a xlink:href="_nao_v5_8hpp.html" target="_top" xlink:title=" ">
<polygon fill="none" stroke="black" points="45,-168.5 45,-187.5 110,-187.5 110,-168.5 45,-168.5"/>
<text text-anchor="middle" x="77.5" y="-175.5" font-family="Helvetica,sans-Serif" font-size="10.00">NaoV5.hpp</text>
</a>
</g>
</g>
<!-- Node4&#45;&gt;Node5 -->
<g id="edge4" class="edge">
<title>Node4&#45;&gt;Node5</title>
<path fill="none" stroke="midnightblue" d="M121.03,-217.54C110.16,-207.91 96.56,-195.87 87.48,-187.83"/>
<polygon fill="midnightblue" stroke="midnightblue" points="118.89,-220.32 128.7,-224.32 123.53,-215.07 118.89,-220.32"/>
</g>
<!-- Node7 -->
<g id="node7" class="node">
<title>Node7</title>
<g id="a_node7"><a xlink:href="gurobots_8h.html" target="_top" xlink:title=" ">
<polygon fill="none" stroke="black" points="107.5,-112.5 107.5,-131.5 169.5,-131.5 169.5,-112.5 107.5,-112.5"/>
<text text-anchor="middle" x="138.5" y="-119.5" font-family="Helvetica,sans-Serif" font-size="10.00">gurobots.h</text>
</a>
</g>
</g>
<!-- Node4&#45;&gt;Node7 -->
<g id="edge10" class="edge">
<title>Node4&#45;&gt;Node7</title>
<path fill="none" stroke="midnightblue" d="M138.5,-214.35C138.5,-190.25 138.5,-149.31 138.5,-131.59"/>
<polygon fill="midnightblue" stroke="midnightblue" points="135,-214.37 138.5,-224.37 142,-214.37 135,-214.37"/>
</g>
<!-- Node11 -->
<g id="node11" class="node">
<title>Node11</title>
<g id="a_node11"><a xlink:href="nao_8c.html" target="_top" xlink:title=" ">
<polygon fill="none" stroke="black" points="166.5,-168.5 166.5,-187.5 206.5,-187.5 206.5,-168.5 166.5,-168.5"/>
<text text-anchor="middle" x="186.5" y="-175.5" font-family="Helvetica,sans-Serif" font-size="10.00">nao.c</text>
</a>
</g>
</g>
<!-- Node4&#45;&gt;Node11 -->
<g id="edge11" class="edge">
<title>Node4&#45;&gt;Node11</title>
<path fill="none" stroke="midnightblue" d="M153.23,-216.43C161.64,-206.97 171.85,-195.48 178.72,-187.75"/>
<polygon fill="midnightblue" stroke="midnightblue" points="150.45,-214.28 146.43,-224.08 155.69,-218.93 150.45,-214.28"/>
</g>
<!-- Node6 -->
<g id="node6" class="node">
<title>Node6</title>
<g id="a_node6"><a xlink:href="_nao_v5_8cc.html" target="_top" xlink:title=" ">
<polygon fill="none" stroke="black" points="30,-112.5 30,-131.5 89,-131.5 89,-112.5 30,-112.5"/>
<text text-anchor="middle" x="59.5" y="-119.5" font-family="Helvetica,sans-Serif" font-size="10.00">NaoV5.cc</text>
</a>
</g>
</g>
<!-- Node5&#45;&gt;Node6 -->
<g id="edge5" class="edge">
<title>Node5&#45;&gt;Node6</title>
<path fill="none" stroke="midnightblue" d="M71.3,-158.4C68.29,-149.36 64.81,-138.94 62.42,-131.75"/>
<polygon fill="midnightblue" stroke="midnightblue" points="68.04,-159.7 74.53,-168.08 74.69,-157.49 68.04,-159.7"/>
</g>
<!-- Node5&#45;&gt;Node7 -->
<g id="edge6" class="edge">
<title>Node5&#45;&gt;Node7</title>
<path fill="none" stroke="midnightblue" d="M94.97,-161.54C105.84,-151.91 119.44,-139.87 128.52,-131.83"/>
<polygon fill="midnightblue" stroke="midnightblue" points="92.47,-159.07 87.3,-168.32 97.11,-164.32 92.47,-159.07"/>
</g>
<!-- Node8 -->
<g id="node8" class="node">
<title>Node8</title>
<g id="a_node8"><a xlink:href="gurobots__tests_8hpp.html" target="_top" xlink:title=" ">
<polygon fill="none" stroke="black" points="0,-56.5 0,-75.5 129,-75.5 129,-56.5 0,-56.5"/>
<text text-anchor="middle" x="64.5" y="-63.5" font-family="Helvetica,sans-Serif" font-size="10.00">ctests/gurobots_tests.hpp</text>
</a>
</g>
</g>
<!-- Node7&#45;&gt;Node8 -->
<g id="edge7" class="edge">
<title>Node7&#45;&gt;Node8</title>
<path fill="none" stroke="midnightblue" d="M118.47,-106.38C105.09,-96.62 87.94,-84.11 76.61,-75.83"/>
<polygon fill="midnightblue" stroke="midnightblue" points="116.47,-109.26 126.61,-112.32 120.6,-103.6 116.47,-109.26"/>
</g>
<!-- Node9 -->
<g id="node9" class="node">
<title>Node9</title>
<g id="a_node9"><a xlink:href="_g_u_robots_tests_8hpp.html" target="_top" xlink:title=" ">
<polygon fill="none" stroke="black" points="147.5,-56.5 147.5,-75.5 277.5,-75.5 277.5,-56.5 147.5,-56.5"/>
<text text-anchor="middle" x="212.5" y="-63.5" font-family="Helvetica,sans-Serif" font-size="10.00">tests/GURobotsTests.hpp</text>
</a>
</g>
</g>
<!-- Node7&#45;&gt;Node9 -->
<g id="edge8" class="edge">
<title>Node7&#45;&gt;Node9</title>
<path fill="none" stroke="midnightblue" d="M158.53,-106.38C171.91,-96.62 189.06,-84.11 200.39,-75.83"/>
<polygon fill="midnightblue" stroke="midnightblue" points="156.4,-103.6 150.39,-112.32 160.53,-109.26 156.4,-103.6"/>
</g>
<!-- Node10 -->
<g id="node10" class="node">
<title>Node10</title>
<g id="a_node10"><a xlink:href="_nao_v5_tests_8cc.html" target="_top" xlink:title=" ">
<polygon fill="none" stroke="black" points="158,-0.5 158,-19.5 267,-19.5 267,-0.5 158,-0.5"/>
<text text-anchor="middle" x="212.5" y="-7.5" font-family="Helvetica,sans-Serif" font-size="10.00">tests/NaoV5Tests.cc</text>
</a>
</g>
</g>
<!-- Node9&#45;&gt;Node10 -->
<g id="edge9" class="edge">
<title>Node9&#45;&gt;Node10</title>
<path fill="none" stroke="midnightblue" d="M212.5,-45.8C212.5,-36.91 212.5,-26.78 212.5,-19.75"/>
<polygon fill="midnightblue" stroke="midnightblue" points="209,-46.08 212.5,-56.08 216,-46.08 209,-46.08"/>
</g>
</g>
</svg>
