<?xml version="1.0" encoding="UTF-8" standalone="no"?>
<!DOCTYPE svg PUBLIC "-//W3C//DTD SVG 1.1//EN"
 "http://www.w3.org/Graphics/SVG/1.1/DTD/svg11.dtd">
<!-- Generated by graphviz version 2.49.0 (20210830.1337)
 -->
<!-- Title: optional_horizon_sighting.h Pages: 1 -->
<svg width="304pt" height="364pt"
 viewBox="0.00 0.00 303.50 364.00" xmlns="http://www.w3.org/2000/svg" xmlns:xlink="http://www.w3.org/1999/xlink">
<g id="graph0" class="graph" transform="scale(1 1) rotate(0) translate(4 360)">
<title>optional_horizon_sighting.h</title>
<!-- Node1 -->
<g id="node1" class="node">
<title>Node1</title>
<g id="a_node1"><a xlink:title=" ">
<polygon fill="#bfbfbf" stroke="black" points="67,-336.5 67,-355.5 200,-355.5 200,-336.5 67,-336.5"/>
<text text-anchor="middle" x="133.5" y="-343.5" font-family="Helvetica,sans-Serif" font-size="10.00">optional_horizon_sighting.h</text>
</a>
</g>
</g>
<!-- Node2 -->
<g id="node2" class="node">
<title>Node2</title>
<g id="a_node2"><a xlink:href="optional__horizon__sighting_8c.html" target="_top" xlink:title=" ">
<polygon fill="none" stroke="black" points="0,-280.5 0,-299.5 133,-299.5 133,-280.5 0,-280.5"/>
<text text-anchor="middle" x="66.5" y="-287.5" font-family="Helvetica,sans-Serif" font-size="10.00">optional_horizon_sighting.c</text>
</a>
</g>
</g>
<!-- Node1&#45;&gt;Node2 -->
<g id="edge1" class="edge">
<title>Node1&#45;&gt;Node2</title>
<path fill="none" stroke="midnightblue" d="M114.67,-329.82C102.66,-320.15 87.53,-307.95 77.46,-299.83"/>
<polygon fill="midnightblue" stroke="midnightblue" points="112.75,-332.77 122.74,-336.32 117.15,-327.32 112.75,-332.77"/>
</g>
<!-- Node3 -->
<g id="node3" class="node">
<title>Node3</title>
<g id="a_node3"><a xlink:href="soccer__sightings_8h.html" target="_top" xlink:title=" ">
<polygon fill="none" stroke="black" points="151.5,-280.5 151.5,-299.5 249.5,-299.5 249.5,-280.5 151.5,-280.5"/>
<text text-anchor="middle" x="200.5" y="-287.5" font-family="Helvetica,sans-Serif" font-size="10.00">soccer_sightings.h</text>
</a>
</g>
</g>
<!-- Node1&#45;&gt;Node3 -->
<g id="edge2" class="edge">
<title>Node1&#45;&gt;Node3</title>
<path fill="none" stroke="midnightblue" d="M152.33,-329.82C164.34,-320.15 179.47,-307.95 189.54,-299.83"/>
<polygon fill="midnightblue" stroke="midnightblue" points="149.85,-327.32 144.26,-336.32 154.25,-332.77 149.85,-327.32"/>
</g>
<!-- Node4 -->
<g id="node4" class="node">
<title>Node4</title>
<g id="a_node4"><a xlink:href="nao_8h.html" target="_top" xlink:title=" ">
<polygon fill="none" stroke="black" points="136.5,-224.5 136.5,-243.5 176.5,-243.5 176.5,-224.5 136.5,-224.5"/>
<text text-anchor="middle" x="156.5" y="-231.5" font-family="Helvetica,sans-Serif" font-size="10.00">nao.h</text>
</a>
</g>
</g>
<!-- Node3&#45;&gt;Node4 -->
<g id="edge3" class="edge">
<title>Node3&#45;&gt;Node4</title>
<path fill="none" stroke="midnightblue" d="M186.77,-272.14C179.1,-262.74 169.87,-251.4 163.63,-243.75"/>
<polygon fill="midnightblue" stroke="midnightblue" points="184.2,-274.54 193.23,-280.08 189.63,-270.12 184.2,-274.54"/>
</g>
<!-- Node12 -->
<g id="node12" class="node">
<title>Node12</title>
<g id="a_node12"><a xlink:href="soccer__sightings_8c.html" target="_top" xlink:title=" ">
<polygon fill="none" stroke="black" points="194.5,-224.5 194.5,-243.5 292.5,-243.5 292.5,-224.5 194.5,-224.5"/>
<text text-anchor="middle" x="243.5" y="-231.5" font-family="Helvetica,sans-Serif" font-size="10.00">soccer_sightings.c</text>
</a>
</g>
</g>
<!-- Node3&#45;&gt;Node12 -->
<g id="edge12" class="edge">
<title>Node3&#45;&gt;Node12</title>
<path fill="none" stroke="midnightblue" d="M213.92,-272.14C221.41,-262.74 230.44,-251.4 236.53,-243.75"/>
<polygon fill="midnightblue" stroke="midnightblue" points="211.09,-270.08 207.6,-280.08 216.57,-274.44 211.09,-270.08"/>
</g>
<!-- Node5 -->
<g id="node5" class="node">
<title>Node5</title>
<g id="a_node5"><a xlink:href="_nao_v5_8hpp.html" target="_top" xlink:title=" ">
<polygon fill="none" stroke="black" points="63,-168.5 63,-187.5 128,-187.5 128,-168.5 63,-168.5"/>
<text text-anchor="middle" x="95.5" y="-175.5" font-family="Helvetica,sans-Serif" font-size="10.00">NaoV5.hpp</text>
</a>
</g>
</g>
<!-- Node4&#45;&gt;Node5 -->
<g id="edge4" class="edge">
<title>Node4&#45;&gt;Node5</title>
<path fill="none" stroke="midnightblue" d="M139.03,-217.54C128.16,-207.91 114.56,-195.87 105.48,-187.83"/>
<polygon fill="midnightblue" stroke="midnightblue" points="136.89,-220.32 146.7,-224.32 141.53,-215.07 136.89,-220.32"/>
</g>
<!-- Node7 -->
<g id="node7" class="node">
<title>Node7</title>
<g id="a_node7"><a xlink:href="gurobots_8h.html" target="_top" xlink:title=" ">
<polygon fill="none" stroke="black" points="125.5,-112.5 125.5,-131.5 187.5,-131.5 187.5,-112.5 125.5,-112.5"/>
<text text-anchor="middle" x="156.5" y="-119.5" font-family="Helvetica,sans-Serif" font-size="10.00">gurobots.h</text>
</a>
</g>
</g>
<!-- Node4&#45;&gt;Node7 -->
<g id="edge10" class="edge">
<title>Node4&#45;&gt;Node7</title>
<path fill="none" stroke="midnightblue" d="M156.5,-214.35C156.5,-190.25 156.5,-149.31 156.5,-131.59"/>
<polygon fill="midnightblue" stroke="midnightblue" points="153,-214.37 156.5,-224.37 160,-214.37 153,-214.37"/>
</g>
<!-- Node11 -->
<g id="node11" class="node">
<title>Node11</title>
<g id="a_node11"><a xlink:href="nao_8c.html" target="_top" xlink:title=" ">
<polygon fill="none" stroke="black" points="184.5,-168.5 184.5,-187.5 224.5,-187.5 224.5,-168.5 184.5,-168.5"/>
<text text-anchor="middle" x="204.5" y="-175.5" font-family="Helvetica,sans-Serif" font-size="10.00">nao.c</text>
</a>
</g>
</g>
<!-- Node4&#45;&gt;Node11 -->
<g id="edge11" class="edge">
<title>Node4&#45;&gt;Node11</title>
<path fill="none" stroke="midnightblue" d="M171.23,-216.43C179.64,-206.97 189.85,-195.48 196.72,-187.75"/>
<polygon fill="midnightblue" stroke="midnightblue" points="168.45,-214.28 164.43,-224.08 173.69,-218.93 168.45,-214.28"/>
</g>
<!-- Node6 -->
<g id="node6" class="node">
<title>Node6</title>
<g id="a_node6"><a xlink:href="_nao_v5_8cc.html" target="_top" xlink:title=" ">
<polygon fill="none" stroke="black" points="48,-112.5 48,-131.5 107,-131.5 107,-112.5 48,-112.5"/>
<text text-anchor="middle" x="77.5" y="-119.5" font-family="Helvetica,sans-Serif" font-size="10.00">NaoV5.cc</text>
</a>
</g>
</g>
<!-- Node5&#45;&gt;Node6 -->
<g id="edge5" class="edge">
<title>Node5&#45;&gt;Node6</title>
<path fill="none" stroke="midnightblue" d="M89.3,-158.4C86.29,-149.36 82.81,-138.94 80.42,-131.75"/>
<polygon fill="midnightblue" stroke="midnightblue" points="86.04,-159.7 92.53,-168.08 92.69,-157.49 86.04,-159.7"/>
</g>
<!-- Node5&#45;&gt;Node7 -->
<g id="edge6" class="edge">
<title>Node5&#45;&gt;Node7</title>
<path fill="none" stroke="midnightblue" d="M112.97,-161.54C123.84,-151.91 137.44,-139.87 146.52,-131.83"/>
<polygon fill="midnightblue" stroke="midnightblue" points="110.47,-159.07 105.3,-168.32 115.11,-164.32 110.47,-159.07"/>
</g>
<!-- Node8 -->
<g id="node8" class="node">
<title>Node8</title>
<g id="a_node8"><a xlink:href="gurobots__tests_8hpp.html" target="_top" xlink:title=" ">
<polygon fill="none" stroke="black" points="18,-56.5 18,-75.5 147,-75.5 147,-56.5 18,-56.5"/>
<text text-anchor="middle" x="82.5" y="-63.5" font-family="Helvetica,sans-Serif" font-size="10.00">ctests/gurobots_tests.hpp</text>
</a>
</g>
</g>
<!-- Node7&#45;&gt;Node8 -->
<g id="edge7" class="edge">
<title>Node7&#45;&gt;Node8</title>
<path fill="none" stroke="midnightblue" d="M136.47,-106.38C123.09,-96.62 105.94,-84.11 94.61,-75.83"/>
<polygon fill="midnightblue" stroke="midnightblue" points="134.47,-109.26 144.61,-112.32 138.6,-103.6 134.47,-109.26"/>
</g>
<!-- Node9 -->
<g id="node9" class="node">
<title>Node9</title>
<g id="a_node9"><a xlink:href="_g_u_robots_tests_8hpp.html" target="_top" xlink:title=" ">
<polygon fill="none" stroke="black" points="165.5,-56.5 165.5,-75.5 295.5,-75.5 295.5,-56.5 165.5,-56.5"/>
<text text-anchor="middle" x="230.5" y="-63.5" font-family="Helvetica,sans-Serif" font-size="10.00">tests/GURobotsTests.hpp</text>
</a>
</g>
</g>
<!-- Node7&#45;&gt;Node9 -->
<g id="edge8" class="edge">
<title>Node7&#45;&gt;Node9</title>
<path fill="none" stroke="midnightblue" d="M176.53,-106.38C189.91,-96.62 207.06,-84.11 218.39,-75.83"/>
<polygon fill="midnightblue" stroke="midnightblue" points="174.4,-103.6 168.39,-112.32 178.53,-109.26 174.4,-103.6"/>
</g>
<!-- Node10 -->
<g id="node10" class="node">
<title>Node10</title>
<g id="a_node10"><a xlink:href="_nao_v5_tests_8cc.html" target="_top" xlink:title=" ">
<polygon fill="none" stroke="black" points="176,-0.5 176,-19.5 285,-19.5 285,-0.5 176,-0.5"/>
<text text-anchor="middle" x="230.5" y="-7.5" font-family="Helvetica,sans-Serif" font-size="10.00">tests/NaoV5Tests.cc</text>
</a>
</g>
</g>
<!-- Node9&#45;&gt;Node10 -->
<g id="edge9" class="edge">
<title>Node9&#45;&gt;Node10</title>
<path fill="none" stroke="midnightblue" d="M230.5,-45.8C230.5,-36.91 230.5,-26.78 230.5,-19.75"/>
<polygon fill="midnightblue" stroke="midnightblue" points="227,-46.08 230.5,-56.08 234,-46.08 227,-46.08"/>
</g>
</g>
</svg>
