<?xml version="1.0" encoding="UTF-8" standalone="no"?>
<!DOCTYPE svg PUBLIC "-//W3C//DTD SVG 1.1//EN"
 "http://www.w3.org/Graphics/SVG/1.1/DTD/svg11.dtd">
<!-- Generated by graphviz version 2.49.0 (20210830.1337)
 -->
<!-- Title: optional_corner_sighting.h Pages: 1 -->
<svg width="266pt" height="140pt"
 viewBox="0.00 0.00 265.50 140.00" xmlns="http://www.w3.org/2000/svg" xmlns:xlink="http://www.w3.org/1999/xlink">
<g id="graph0" class="graph" transform="scale(1 1) rotate(0) translate(4 136)">
<title>optional_corner_sighting.h</title>
<!-- Node1 -->
<g id="node1" class="node">
<title>Node1</title>
<g id="a_node1"><a xlink:title=" ">
<polygon fill="#bfbfbf" stroke="black" points="94.5,-112.5 94.5,-131.5 223.5,-131.5 223.5,-112.5 94.5,-112.5"/>
<text text-anchor="middle" x="159" y="-119.5" font-family="Helvetica,sans-Serif" font-size="10.00">optional_corner_sighting.h</text>
</a>
</g>
</g>
<!-- Node2 -->
<g id="node2" class="node">
<title>Node2</title>
<g id="a_node2"><a xlink:href="corner__sighting_8h.html" target="_top" xlink:title=" ">
<polygon fill="none" stroke="black" points="69,-56.5 69,-75.5 159,-75.5 159,-56.5 69,-56.5"/>
<text text-anchor="middle" x="114" y="-63.5" font-family="Helvetica,sans-Serif" font-size="10.00">corner_sighting.h</text>
</a>
</g>
</g>
<!-- Node1&#45;&gt;Node2 -->
<g id="edge1" class="edge">
<title>Node1&#45;&gt;Node2</title>
<path fill="none" stroke="midnightblue" d="M151.57,-112.08C145.15,-104.38 135.69,-93.03 127.88,-83.65"/>
<polygon fill="midnightblue" stroke="midnightblue" points="130.38,-81.19 121.29,-75.75 125.01,-85.67 130.38,-81.19"/>
</g>
<!-- Node5 -->
<g id="node5" class="node">
<title>Node5</title>
<g id="a_node5"><a xlink:title=" ">
<polygon fill="none" stroke="#bfbfbf" points="177,-56.5 177,-75.5 233,-75.5 233,-56.5 177,-56.5"/>
<text text-anchor="middle" x="205" y="-63.5" font-family="Helvetica,sans-Serif" font-size="10.00">stdbool.h</text>
</a>
</g>
</g>
<!-- Node1&#45;&gt;Node5 -->
<g id="edge4" class="edge">
<title>Node1&#45;&gt;Node5</title>
<path fill="none" stroke="midnightblue" d="M166.6,-112.08C173.23,-104.3 183.02,-92.8 191.06,-83.37"/>
<polygon fill="midnightblue" stroke="midnightblue" points="193.73,-85.63 197.55,-75.75 188.4,-81.09 193.73,-85.63"/>
</g>
<!-- Node3 -->
<g id="node3" class="node">
<title>Node3</title>
<g id="a_node3"><a xlink:title=" ">
<polygon fill="none" stroke="#bfbfbf" points="0,-0.5 0,-19.5 90,-19.5 90,-0.5 0,-0.5"/>
<text text-anchor="middle" x="45" y="-7.5" font-family="Helvetica,sans-Serif" font-size="10.00">guunits/guunits.h</text>
</a>
</g>
</g>
<!-- Node2&#45;&gt;Node3 -->
<g id="edge2" class="edge">
<title>Node2&#45;&gt;Node3</title>
<path fill="none" stroke="midnightblue" d="M102.91,-56.32C92.51,-48.18 76.74,-35.84 64.28,-26.09"/>
<polygon fill="midnightblue" stroke="midnightblue" points="66.32,-23.24 56.29,-19.83 62.01,-28.75 66.32,-23.24"/>
</g>
<!-- Node4 -->
<g id="node4" class="node">
<title>Node4</title>
<g id="a_node4"><a xlink:title=" ">
<polygon fill="none" stroke="#bfbfbf" points="108.5,-0.5 108.5,-19.5 257.5,-19.5 257.5,-0.5 108.5,-0.5"/>
<text text-anchor="middle" x="183" y="-7.5" font-family="Helvetica,sans-Serif" font-size="10.00">gucoordinates/gucoordinates.h</text>
</a>
</g>
</g>
<!-- Node2&#45;&gt;Node4 -->
<g id="edge3" class="edge">
<title>Node2&#45;&gt;Node4</title>
<path fill="none" stroke="midnightblue" d="M125.09,-56.32C135.49,-48.18 151.26,-35.84 163.72,-26.09"/>
<polygon fill="midnightblue" stroke="midnightblue" points="165.99,-28.75 171.71,-19.83 161.68,-23.24 165.99,-28.75"/>
</g>
</g>
</svg>
