<?xml version="1.0" encoding="UTF-8" standalone="no"?>
<!DOCTYPE svg PUBLIC "-//W3C//DTD SVG 1.1//EN"
 "http://www.w3.org/Graphics/SVG/1.1/DTD/svg11.dtd">
<!-- Generated by graphviz version 2.49.0 (20210830.1337)
 -->
<!-- Title: orientation.c Pages: 1 -->
<svg width="180pt" height="140pt"
 viewBox="0.00 0.00 180.00 140.00" xmlns="http://www.w3.org/2000/svg" xmlns:xlink="http://www.w3.org/1999/xlink">
<g id="graph0" class="graph" transform="scale(1 1) rotate(0) translate(4 136)">
<title>orientation.c</title>
<!-- Node1 -->
<g id="node1" class="node">
<title>Node1</title>
<g id="a_node1"><a xlink:title=" ">
<polygon fill="#bfbfbf" stroke="black" points="76.5,-112.5 76.5,-131.5 145.5,-131.5 145.5,-112.5 76.5,-112.5"/>
<text text-anchor="middle" x="111" y="-119.5" font-family="Helvetica,sans-Serif" font-size="10.00">orientation.c</text>
</a>
</g>
</g>
<!-- Node2 -->
<g id="node2" class="node">
<title>Node2</title>
<g id="a_node2"><a xlink:href="orientation_8h.html" target="_top" xlink:title=" ">
<polygon fill="none" stroke="black" points="38.5,-56.5 38.5,-75.5 107.5,-75.5 107.5,-56.5 38.5,-56.5"/>
<text text-anchor="middle" x="73" y="-63.5" font-family="Helvetica,sans-Serif" font-size="10.00">orientation.h</text>
</a>
</g>
</g>
<!-- Node1&#45;&gt;Node2 -->
<g id="edge1" class="edge">
<title>Node1&#45;&gt;Node2</title>
<path fill="none" stroke="midnightblue" d="M104.73,-112.08C99.36,-104.46 91.48,-93.26 84.92,-83.94"/>
<polygon fill="midnightblue" stroke="midnightblue" points="87.78,-81.91 79.16,-75.75 82.05,-85.94 87.78,-81.91"/>
</g>
<!-- Node5 -->
<g id="node5" class="node">
<title>Node5</title>
<g id="a_node5"><a xlink:title=" ">
<polygon fill="none" stroke="#bfbfbf" points="126,-56.5 126,-75.5 172,-75.5 172,-56.5 126,-56.5"/>
<text text-anchor="middle" x="149" y="-63.5" font-family="Helvetica,sans-Serif" font-size="10.00">math.h</text>
</a>
</g>
</g>
<!-- Node1&#45;&gt;Node5 -->
<g id="edge4" class="edge">
<title>Node1&#45;&gt;Node5</title>
<path fill="none" stroke="midnightblue" d="M117.27,-112.08C122.64,-104.46 130.52,-93.26 137.08,-83.94"/>
<polygon fill="midnightblue" stroke="midnightblue" points="139.95,-85.94 142.84,-75.75 134.22,-81.91 139.95,-85.94"/>
</g>
<!-- Node3 -->
<g id="node3" class="node">
<title>Node3</title>
<g id="a_node3"><a xlink:title=" ">
<polygon fill="none" stroke="#bfbfbf" points="0,-0.5 0,-19.5 56,-19.5 56,-0.5 0,-0.5"/>
<text text-anchor="middle" x="28" y="-7.5" font-family="Helvetica,sans-Serif" font-size="10.00">stdbool.h</text>
</a>
</g>
</g>
<!-- Node2&#45;&gt;Node3 -->
<g id="edge2" class="edge">
<title>Node2&#45;&gt;Node3</title>
<path fill="none" stroke="midnightblue" d="M65.57,-56.08C59.15,-48.38 49.69,-37.03 41.88,-27.65"/>
<polygon fill="midnightblue" stroke="midnightblue" points="44.38,-25.19 35.29,-19.75 39.01,-29.67 44.38,-25.19"/>
</g>
<!-- Node4 -->
<g id="node4" class="node">
<title>Node4</title>
<g id="a_node4"><a xlink:title=" ">
<polygon fill="none" stroke="#bfbfbf" points="74,-0.5 74,-19.5 164,-19.5 164,-0.5 74,-0.5"/>
<text text-anchor="middle" x="119" y="-7.5" font-family="Helvetica,sans-Serif" font-size="10.00">guunits/guunits.h</text>
</a>
</g>
</g>
<!-- Node2&#45;&gt;Node4 -->
<g id="edge3" class="edge">
<title>Node2&#45;&gt;Node4</title>
<path fill="none" stroke="midnightblue" d="M80.6,-56.08C87.23,-48.3 97.02,-36.8 105.06,-27.37"/>
<polygon fill="midnightblue" stroke="midnightblue" points="107.73,-29.63 111.55,-19.75 102.4,-25.09 107.73,-29.63"/>
</g>
</g>
</svg>
