<?xml version="1.0" encoding="UTF-8" standalone="no"?>
<!DOCTYPE svg PUBLIC "-//W3C//DTD SVG 1.1//EN"
 "http://www.w3.org/Graphics/SVG/1.1/DTD/svg11.dtd">
<!-- Generated by graphviz version 2.49.0 (20210830.1337)
 -->
<!-- Title: pitch_yaw_joint.h Pages: 1 -->
<svg width="351pt" height="308pt"
 viewBox="0.00 0.00 351.00 308.00" xmlns="http://www.w3.org/2000/svg" xmlns:xlink="http://www.w3.org/1999/xlink">
<g id="graph0" class="graph" transform="scale(1 1) rotate(0) translate(4 304)">
<title>pitch_yaw_joint.h</title>
<!-- Node1 -->
<g id="node1" class="node">
<title>Node1</title>
<g id="a_node1"><a xlink:title=" ">
<polygon fill="#bfbfbf" stroke="black" points="127.5,-280.5 127.5,-299.5 218.5,-299.5 218.5,-280.5 127.5,-280.5"/>
<text text-anchor="middle" x="173" y="-287.5" font-family="Helvetica,sans-Serif" font-size="10.00">pitch_yaw_joint.h</text>
</a>
</g>
</g>
<!-- Node2 -->
<g id="node2" class="node">
<title>Node2</title>
<g id="a_node2"><a xlink:href="_pitch_yaw_joint_8hpp.html" target="_top" xlink:title=" ">
<polygon fill="none" stroke="black" points="32,-224.5 32,-243.5 130,-243.5 130,-224.5 32,-224.5"/>
<text text-anchor="middle" x="81" y="-231.5" font-family="Helvetica,sans-Serif" font-size="10.00">PitchYawJoint.hpp</text>
</a>
</g>
</g>
<!-- Node1&#45;&gt;Node2 -->
<g id="edge1" class="edge">
<title>Node1&#45;&gt;Node2</title>
<path fill="none" stroke="midnightblue" d="M149.45,-275.18C132.52,-265.24 110.22,-252.15 95.74,-243.65"/>
<polygon fill="midnightblue" stroke="midnightblue" points="147.82,-278.28 158.22,-280.32 151.37,-272.24 147.82,-278.28"/>
</g>
<!-- Node4 -->
<g id="node4" class="node">
<title>Node4</title>
<g id="a_node4"><a xlink:href="nao_8h.html" target="_top" xlink:title=" ">
<polygon fill="none" stroke="black" points="153,-224.5 153,-243.5 193,-243.5 193,-224.5 153,-224.5"/>
<text text-anchor="middle" x="173" y="-231.5" font-family="Helvetica,sans-Serif" font-size="10.00">nao.h</text>
</a>
</g>
</g>
<!-- Node1&#45;&gt;Node4 -->
<g id="edge3" class="edge">
<title>Node1&#45;&gt;Node4</title>
<path fill="none" stroke="midnightblue" d="M173,-269.8C173,-260.91 173,-250.78 173,-243.75"/>
<polygon fill="midnightblue" stroke="midnightblue" points="169.5,-270.08 173,-280.08 176.5,-270.08 169.5,-270.08"/>
</g>
<!-- Node12 -->
<g id="node12" class="node">
<title>Node12</title>
<g id="a_node12"><a xlink:href="pitch__yaw__joint_8c.html" target="_top" xlink:title=" ">
<polygon fill="none" stroke="black" points="211.5,-224.5 211.5,-243.5 302.5,-243.5 302.5,-224.5 211.5,-224.5"/>
<text text-anchor="middle" x="257" y="-231.5" font-family="Helvetica,sans-Serif" font-size="10.00">pitch_yaw_joint.c</text>
</a>
</g>
</g>
<!-- Node1&#45;&gt;Node12 -->
<g id="edge12" class="edge">
<title>Node1&#45;&gt;Node12</title>
<path fill="none" stroke="midnightblue" d="M194.93,-274.9C210.34,-265 230.45,-252.07 243.54,-243.65"/>
<polygon fill="midnightblue" stroke="midnightblue" points="193.02,-271.97 186.5,-280.32 196.8,-277.86 193.02,-271.97"/>
</g>
<!-- Node3 -->
<g id="node3" class="node">
<title>Node3</title>
<g id="a_node3"><a xlink:href="_pitch_yaw_joint_8cc.html" target="_top" xlink:title=" ">
<polygon fill="none" stroke="black" points="0,-168.5 0,-187.5 92,-187.5 92,-168.5 0,-168.5"/>
<text text-anchor="middle" x="46" y="-175.5" font-family="Helvetica,sans-Serif" font-size="10.00">PitchYawJoint.cc</text>
</a>
</g>
</g>
<!-- Node2&#45;&gt;Node3 -->
<g id="edge2" class="edge">
<title>Node2&#45;&gt;Node3</title>
<path fill="none" stroke="midnightblue" d="M69.7,-215.57C63.68,-206.27 56.53,-195.25 51.67,-187.75"/>
<polygon fill="midnightblue" stroke="midnightblue" points="66.84,-217.6 75.22,-224.08 72.72,-213.79 66.84,-217.6"/>
</g>
<!-- Node5 -->
<g id="node5" class="node">
<title>Node5</title>
<g id="a_node5"><a xlink:href="_nao_v5_8hpp.html" target="_top" xlink:title=" ">
<polygon fill="none" stroke="black" points="110.5,-168.5 110.5,-187.5 175.5,-187.5 175.5,-168.5 110.5,-168.5"/>
<text text-anchor="middle" x="143" y="-175.5" font-family="Helvetica,sans-Serif" font-size="10.00">NaoV5.hpp</text>
</a>
</g>
</g>
<!-- Node4&#45;&gt;Node5 -->
<g id="edge4" class="edge">
<title>Node4&#45;&gt;Node5</title>
<path fill="none" stroke="midnightblue" d="M163.15,-215.27C158.03,-206.05 151.98,-195.17 147.86,-187.75"/>
<polygon fill="midnightblue" stroke="midnightblue" points="160.13,-217.04 168.05,-224.08 166.25,-213.64 160.13,-217.04"/>
</g>
<!-- Node7 -->
<g id="node7" class="node">
<title>Node7</title>
<g id="a_node7"><a xlink:href="gurobots_8h.html" target="_top" xlink:title=" ">
<polygon fill="none" stroke="black" points="173,-112.5 173,-131.5 235,-131.5 235,-112.5 173,-112.5"/>
<text text-anchor="middle" x="204" y="-119.5" font-family="Helvetica,sans-Serif" font-size="10.00">gurobots.h</text>
</a>
</g>
</g>
<!-- Node4&#45;&gt;Node7 -->
<g id="edge10" class="edge">
<title>Node4&#45;&gt;Node7</title>
<path fill="none" stroke="midnightblue" d="M178.16,-214.67C184.94,-190.62 196.56,-149.39 201.58,-131.59"/>
<polygon fill="midnightblue" stroke="midnightblue" points="174.78,-213.79 175.43,-224.37 181.51,-215.69 174.78,-213.79"/>
</g>
<!-- Node11 -->
<g id="node11" class="node">
<title>Node11</title>
<g id="a_node11"><a xlink:href="nao_8c.html" target="_top" xlink:title=" ">
<polygon fill="none" stroke="black" points="232,-168.5 232,-187.5 272,-187.5 272,-168.5 232,-168.5"/>
<text text-anchor="middle" x="252" y="-175.5" font-family="Helvetica,sans-Serif" font-size="10.00">nao.c</text>
</a>
</g>
</g>
<!-- Node4&#45;&gt;Node11 -->
<g id="edge11" class="edge">
<title>Node4&#45;&gt;Node11</title>
<path fill="none" stroke="midnightblue" d="M194.03,-218.62C208.47,-208.76 227.14,-195.99 239.34,-187.65"/>
<polygon fill="midnightblue" stroke="midnightblue" points="191.97,-215.79 185.69,-224.32 195.92,-221.57 191.97,-215.79"/>
</g>
<!-- Node6 -->
<g id="node6" class="node">
<title>Node6</title>
<g id="a_node6"><a xlink:href="_nao_v5_8cc.html" target="_top" xlink:title=" ">
<polygon fill="none" stroke="black" points="95.5,-112.5 95.5,-131.5 154.5,-131.5 154.5,-112.5 95.5,-112.5"/>
<text text-anchor="middle" x="125" y="-119.5" font-family="Helvetica,sans-Serif" font-size="10.00">NaoV5.cc</text>
</a>
</g>
</g>
<!-- Node5&#45;&gt;Node6 -->
<g id="edge5" class="edge">
<title>Node5&#45;&gt;Node6</title>
<path fill="none" stroke="midnightblue" d="M136.8,-158.4C133.79,-149.36 130.31,-138.94 127.92,-131.75"/>
<polygon fill="midnightblue" stroke="midnightblue" points="133.54,-159.7 140.03,-168.08 140.19,-157.49 133.54,-159.7"/>
</g>
<!-- Node5&#45;&gt;Node7 -->
<g id="edge6" class="edge">
<title>Node5&#45;&gt;Node7</title>
<path fill="none" stroke="midnightblue" d="M160.47,-161.54C171.34,-151.91 184.94,-139.87 194.02,-131.83"/>
<polygon fill="midnightblue" stroke="midnightblue" points="157.97,-159.07 152.8,-168.32 162.61,-164.32 157.97,-159.07"/>
</g>
<!-- Node8 -->
<g id="node8" class="node">
<title>Node8</title>
<g id="a_node8"><a xlink:href="gurobots__tests_8hpp.html" target="_top" xlink:title=" ">
<polygon fill="none" stroke="black" points="65.5,-56.5 65.5,-75.5 194.5,-75.5 194.5,-56.5 65.5,-56.5"/>
<text text-anchor="middle" x="130" y="-63.5" font-family="Helvetica,sans-Serif" font-size="10.00">ctests/gurobots_tests.hpp</text>
</a>
</g>
</g>
<!-- Node7&#45;&gt;Node8 -->
<g id="edge7" class="edge">
<title>Node7&#45;&gt;Node8</title>
<path fill="none" stroke="midnightblue" d="M183.97,-106.38C170.59,-96.62 153.44,-84.11 142.11,-75.83"/>
<polygon fill="midnightblue" stroke="midnightblue" points="181.97,-109.26 192.11,-112.32 186.1,-103.6 181.97,-109.26"/>
</g>
<!-- Node9 -->
<g id="node9" class="node">
<title>Node9</title>
<g id="a_node9"><a xlink:href="_g_u_robots_tests_8hpp.html" target="_top" xlink:title=" ">
<polygon fill="none" stroke="black" points="213,-56.5 213,-75.5 343,-75.5 343,-56.5 213,-56.5"/>
<text text-anchor="middle" x="278" y="-63.5" font-family="Helvetica,sans-Serif" font-size="10.00">tests/GURobotsTests.hpp</text>
</a>
</g>
</g>
<!-- Node7&#45;&gt;Node9 -->
<g id="edge8" class="edge">
<title>Node7&#45;&gt;Node9</title>
<path fill="none" stroke="midnightblue" d="M224.03,-106.38C237.41,-96.62 254.56,-84.11 265.89,-75.83"/>
<polygon fill="midnightblue" stroke="midnightblue" points="221.9,-103.6 215.89,-112.32 226.03,-109.26 221.9,-103.6"/>
</g>
<!-- Node10 -->
<g id="node10" class="node">
<title>Node10</title>
<g id="a_node10"><a xlink:href="_nao_v5_tests_8cc.html" target="_top" xlink:title=" ">
<polygon fill="none" stroke="black" points="223.5,-0.5 223.5,-19.5 332.5,-19.5 332.5,-0.5 223.5,-0.5"/>
<text text-anchor="middle" x="278" y="-7.5" font-family="Helvetica,sans-Serif" font-size="10.00">tests/NaoV5Tests.cc</text>
</a>
</g>
</g>
<!-- Node9&#45;&gt;Node10 -->
<g id="edge9" class="edge">
<title>Node9&#45;&gt;Node10</title>
<path fill="none" stroke="midnightblue" d="M278,-45.8C278,-36.91 278,-26.78 278,-19.75"/>
<polygon fill="midnightblue" stroke="midnightblue" points="274.5,-46.08 278,-56.08 281.5,-46.08 274.5,-46.08"/>
</g>
</g>
</svg>
