<?xml version="1.0" encoding="UTF-8" standalone="no"?>
<!DOCTYPE svg PUBLIC "-//W3C//DTD SVG 1.1//EN"
 "http://www.w3.org/Graphics/SVG/1.1/DTD/svg11.dtd">
<!-- Generated by graphviz version 2.49.0 (20210830.1337)
 -->
<!-- Title: pitch_roll_joint.h Pages: 1 -->
<svg width="348pt" height="308pt"
 viewBox="0.00 0.00 347.50 308.00" xmlns="http://www.w3.org/2000/svg" xmlns:xlink="http://www.w3.org/1999/xlink">
<g id="graph0" class="graph" transform="scale(1 1) rotate(0) translate(4 304)">
<title>pitch_roll_joint.h</title>
<!-- Node1 -->
<g id="node1" class="node">
<title>Node1</title>
<g id="a_node1"><a xlink:title=" ">
<polygon fill="#bfbfbf" stroke="black" points="126.5,-280.5 126.5,-299.5 212.5,-299.5 212.5,-280.5 126.5,-280.5"/>
<text text-anchor="middle" x="169.5" y="-287.5" font-family="Helvetica,sans-Serif" font-size="10.00">pitch_roll_joint.h</text>
</a>
</g>
</g>
<!-- Node2 -->
<g id="node2" class="node">
<title>Node2</title>
<g id="a_node2"><a xlink:href="_pitch_roll_joint_8hpp.html" target="_top" xlink:title=" ">
<polygon fill="none" stroke="black" points="32,-224.5 32,-243.5 127,-243.5 127,-224.5 32,-224.5"/>
<text text-anchor="middle" x="79.5" y="-231.5" font-family="Helvetica,sans-Serif" font-size="10.00">PitchRollJoint.hpp</text>
</a>
</g>
</g>
<!-- Node1&#45;&gt;Node2 -->
<g id="edge1" class="edge">
<title>Node1&#45;&gt;Node2</title>
<path fill="none" stroke="midnightblue" d="M146.46,-275.18C129.9,-265.24 108.08,-252.15 93.92,-243.65"/>
<polygon fill="midnightblue" stroke="midnightblue" points="144.66,-278.18 155.04,-280.32 148.27,-272.18 144.66,-278.18"/>
</g>
<!-- Node4 -->
<g id="node4" class="node">
<title>Node4</title>
<g id="a_node4"><a xlink:href="nao_8h.html" target="_top" xlink:title=" ">
<polygon fill="none" stroke="black" points="149.5,-224.5 149.5,-243.5 189.5,-243.5 189.5,-224.5 149.5,-224.5"/>
<text text-anchor="middle" x="169.5" y="-231.5" font-family="Helvetica,sans-Serif" font-size="10.00">nao.h</text>
</a>
</g>
</g>
<!-- Node1&#45;&gt;Node4 -->
<g id="edge3" class="edge">
<title>Node1&#45;&gt;Node4</title>
<path fill="none" stroke="midnightblue" d="M169.5,-269.8C169.5,-260.91 169.5,-250.78 169.5,-243.75"/>
<polygon fill="midnightblue" stroke="midnightblue" points="166,-270.08 169.5,-280.08 173,-270.08 166,-270.08"/>
</g>
<!-- Node12 -->
<g id="node12" class="node">
<title>Node12</title>
<g id="a_node12"><a xlink:href="pitch__roll__joint_8c.html" target="_top" xlink:title=" ">
<polygon fill="none" stroke="black" points="207.5,-224.5 207.5,-243.5 293.5,-243.5 293.5,-224.5 207.5,-224.5"/>
<text text-anchor="middle" x="250.5" y="-231.5" font-family="Helvetica,sans-Serif" font-size="10.00">pitch_roll_joint.c</text>
</a>
</g>
</g>
<!-- Node1&#45;&gt;Node12 -->
<g id="edge12" class="edge">
<title>Node1&#45;&gt;Node12</title>
<path fill="none" stroke="midnightblue" d="M191.07,-274.62C205.86,-264.76 225.01,-251.99 237.52,-243.65"/>
<polygon fill="midnightblue" stroke="midnightblue" points="188.89,-271.86 182.51,-280.32 192.78,-277.69 188.89,-271.86"/>
</g>
<!-- Node3 -->
<g id="node3" class="node">
<title>Node3</title>
<g id="a_node3"><a xlink:href="_pitch_roll_joint_8cc.html" target="_top" xlink:title=" ">
<polygon fill="none" stroke="black" points="0,-168.5 0,-187.5 89,-187.5 89,-168.5 0,-168.5"/>
<text text-anchor="middle" x="44.5" y="-175.5" font-family="Helvetica,sans-Serif" font-size="10.00">PitchRollJoint.cc</text>
</a>
</g>
</g>
<!-- Node2&#45;&gt;Node3 -->
<g id="edge2" class="edge">
<title>Node2&#45;&gt;Node3</title>
<path fill="none" stroke="midnightblue" d="M68.2,-215.57C62.18,-206.27 55.03,-195.25 50.17,-187.75"/>
<polygon fill="midnightblue" stroke="midnightblue" points="65.34,-217.6 73.72,-224.08 71.22,-213.79 65.34,-217.6"/>
</g>
<!-- Node5 -->
<g id="node5" class="node">
<title>Node5</title>
<g id="a_node5"><a xlink:href="_nao_v5_8hpp.html" target="_top" xlink:title=" ">
<polygon fill="none" stroke="black" points="107,-168.5 107,-187.5 172,-187.5 172,-168.5 107,-168.5"/>
<text text-anchor="middle" x="139.5" y="-175.5" font-family="Helvetica,sans-Serif" font-size="10.00">NaoV5.hpp</text>
</a>
</g>
</g>
<!-- Node4&#45;&gt;Node5 -->
<g id="edge4" class="edge">
<title>Node4&#45;&gt;Node5</title>
<path fill="none" stroke="midnightblue" d="M159.65,-215.27C154.53,-206.05 148.48,-195.17 144.36,-187.75"/>
<polygon fill="midnightblue" stroke="midnightblue" points="156.63,-217.04 164.55,-224.08 162.75,-213.64 156.63,-217.04"/>
</g>
<!-- Node7 -->
<g id="node7" class="node">
<title>Node7</title>
<g id="a_node7"><a xlink:href="gurobots_8h.html" target="_top" xlink:title=" ">
<polygon fill="none" stroke="black" points="169.5,-112.5 169.5,-131.5 231.5,-131.5 231.5,-112.5 169.5,-112.5"/>
<text text-anchor="middle" x="200.5" y="-119.5" font-family="Helvetica,sans-Serif" font-size="10.00">gurobots.h</text>
</a>
</g>
</g>
<!-- Node4&#45;&gt;Node7 -->
<g id="edge10" class="edge">
<title>Node4&#45;&gt;Node7</title>
<path fill="none" stroke="midnightblue" d="M174.66,-214.67C181.44,-190.62 193.06,-149.39 198.08,-131.59"/>
<polygon fill="midnightblue" stroke="midnightblue" points="171.28,-213.79 171.93,-224.37 178.01,-215.69 171.28,-213.79"/>
</g>
<!-- Node11 -->
<g id="node11" class="node">
<title>Node11</title>
<g id="a_node11"><a xlink:href="nao_8c.html" target="_top" xlink:title=" ">
<polygon fill="none" stroke="black" points="228.5,-168.5 228.5,-187.5 268.5,-187.5 268.5,-168.5 228.5,-168.5"/>
<text text-anchor="middle" x="248.5" y="-175.5" font-family="Helvetica,sans-Serif" font-size="10.00">nao.c</text>
</a>
</g>
</g>
<!-- Node4&#45;&gt;Node11 -->
<g id="edge11" class="edge">
<title>Node4&#45;&gt;Node11</title>
<path fill="none" stroke="midnightblue" d="M190.53,-218.62C204.97,-208.76 223.64,-195.99 235.84,-187.65"/>
<polygon fill="midnightblue" stroke="midnightblue" points="188.47,-215.79 182.19,-224.32 192.42,-221.57 188.47,-215.79"/>
</g>
<!-- Node6 -->
<g id="node6" class="node">
<title>Node6</title>
<g id="a_node6"><a xlink:href="_nao_v5_8cc.html" target="_top" xlink:title=" ">
<polygon fill="none" stroke="black" points="92,-112.5 92,-131.5 151,-131.5 151,-112.5 92,-112.5"/>
<text text-anchor="middle" x="121.5" y="-119.5" font-family="Helvetica,sans-Serif" font-size="10.00">NaoV5.cc</text>
</a>
</g>
</g>
<!-- Node5&#45;&gt;Node6 -->
<g id="edge5" class="edge">
<title>Node5&#45;&gt;Node6</title>
<path fill="none" stroke="midnightblue" d="M133.3,-158.4C130.29,-149.36 126.81,-138.94 124.42,-131.75"/>
<polygon fill="midnightblue" stroke="midnightblue" points="130.04,-159.7 136.53,-168.08 136.69,-157.49 130.04,-159.7"/>
</g>
<!-- Node5&#45;&gt;Node7 -->
<g id="edge6" class="edge">
<title>Node5&#45;&gt;Node7</title>
<path fill="none" stroke="midnightblue" d="M156.97,-161.54C167.84,-151.91 181.44,-139.87 190.52,-131.83"/>
<polygon fill="midnightblue" stroke="midnightblue" points="154.47,-159.07 149.3,-168.32 159.11,-164.32 154.47,-159.07"/>
</g>
<!-- Node8 -->
<g id="node8" class="node">
<title>Node8</title>
<g id="a_node8"><a xlink:href="gurobots__tests_8hpp.html" target="_top" xlink:title=" ">
<polygon fill="none" stroke="black" points="62,-56.5 62,-75.5 191,-75.5 191,-56.5 62,-56.5"/>
<text text-anchor="middle" x="126.5" y="-63.5" font-family="Helvetica,sans-Serif" font-size="10.00">ctests/gurobots_tests.hpp</text>
</a>
</g>
</g>
<!-- Node7&#45;&gt;Node8 -->
<g id="edge7" class="edge">
<title>Node7&#45;&gt;Node8</title>
<path fill="none" stroke="midnightblue" d="M180.47,-106.38C167.09,-96.62 149.94,-84.11 138.61,-75.83"/>
<polygon fill="midnightblue" stroke="midnightblue" points="178.47,-109.26 188.61,-112.32 182.6,-103.6 178.47,-109.26"/>
</g>
<!-- Node9 -->
<g id="node9" class="node">
<title>Node9</title>
<g id="a_node9"><a xlink:href="_g_u_robots_tests_8hpp.html" target="_top" xlink:title=" ">
<polygon fill="none" stroke="black" points="209.5,-56.5 209.5,-75.5 339.5,-75.5 339.5,-56.5 209.5,-56.5"/>
<text text-anchor="middle" x="274.5" y="-63.5" font-family="Helvetica,sans-Serif" font-size="10.00">tests/GURobotsTests.hpp</text>
</a>
</g>
</g>
<!-- Node7&#45;&gt;Node9 -->
<g id="edge8" class="edge">
<title>Node7&#45;&gt;Node9</title>
<path fill="none" stroke="midnightblue" d="M220.53,-106.38C233.91,-96.62 251.06,-84.11 262.39,-75.83"/>
<polygon fill="midnightblue" stroke="midnightblue" points="218.4,-103.6 212.39,-112.32 222.53,-109.26 218.4,-103.6"/>
</g>
<!-- Node10 -->
<g id="node10" class="node">
<title>Node10</title>
<g id="a_node10"><a xlink:href="_nao_v5_tests_8cc.html" target="_top" xlink:title=" ">
<polygon fill="none" stroke="black" points="220,-0.5 220,-19.5 329,-19.5 329,-0.5 220,-0.5"/>
<text text-anchor="middle" x="274.5" y="-7.5" font-family="Helvetica,sans-Serif" font-size="10.00">tests/NaoV5Tests.cc</text>
</a>
</g>
</g>
<!-- Node9&#45;&gt;Node10 -->
<g id="edge9" class="edge">
<title>Node9&#45;&gt;Node10</title>
<path fill="none" stroke="midnightblue" d="M274.5,-45.8C274.5,-36.91 274.5,-26.78 274.5,-19.75"/>
<polygon fill="midnightblue" stroke="midnightblue" points="271,-46.08 274.5,-56.08 278,-46.08 271,-46.08"/>
</g>
</g>
</svg>
