<?xml version="1.0" encoding="UTF-8" standalone="no"?>
<!DOCTYPE svg PUBLIC "-//W3C//DTD SVG 1.1//EN"
 "http://www.w3.org/Graphics/SVG/1.1/DTD/svg11.dtd">
<!-- Generated by graphviz version 2.49.0 (20210830.1337)
 -->
<!-- Title: pitch_joint.h Pages: 1 -->
<svg width="332pt" height="308pt"
 viewBox="0.00 0.00 331.50 308.00" xmlns="http://www.w3.org/2000/svg" xmlns:xlink="http://www.w3.org/1999/xlink">
<g id="graph0" class="graph" transform="scale(1 1) rotate(0) translate(4 304)">
<title>pitch_joint.h</title>
<!-- Node1 -->
<g id="node1" class="node">
<title>Node1</title>
<g id="a_node1"><a xlink:title=" ">
<polygon fill="#bfbfbf" stroke="black" points="119.5,-280.5 119.5,-299.5 187.5,-299.5 187.5,-280.5 119.5,-280.5"/>
<text text-anchor="middle" x="153.5" y="-287.5" font-family="Helvetica,sans-Serif" font-size="10.00">pitch_joint.h</text>
</a>
</g>
</g>
<!-- Node2 -->
<g id="node2" class="node">
<title>Node2</title>
<g id="a_node2"><a xlink:href="_pitch_joint_8hpp.html" target="_top" xlink:title=" ">
<polygon fill="none" stroke="black" points="32.5,-224.5 32.5,-243.5 110.5,-243.5 110.5,-224.5 32.5,-224.5"/>
<text text-anchor="middle" x="71.5" y="-231.5" font-family="Helvetica,sans-Serif" font-size="10.00">PitchJoint.hpp</text>
</a>
</g>
</g>
<!-- Node1&#45;&gt;Node2 -->
<g id="edge1" class="edge">
<title>Node1&#45;&gt;Node2</title>
<path fill="none" stroke="midnightblue" d="M131.67,-274.62C116.69,-264.76 97.3,-251.99 84.64,-243.65"/>
<polygon fill="midnightblue" stroke="midnightblue" points="130.05,-277.75 140.33,-280.32 133.9,-271.9 130.05,-277.75"/>
</g>
<!-- Node4 -->
<g id="node4" class="node">
<title>Node4</title>
<g id="a_node4"><a xlink:href="nao_8h.html" target="_top" xlink:title=" ">
<polygon fill="none" stroke="black" points="133.5,-224.5 133.5,-243.5 173.5,-243.5 173.5,-224.5 133.5,-224.5"/>
<text text-anchor="middle" x="153.5" y="-231.5" font-family="Helvetica,sans-Serif" font-size="10.00">nao.h</text>
</a>
</g>
</g>
<!-- Node1&#45;&gt;Node4 -->
<g id="edge3" class="edge">
<title>Node1&#45;&gt;Node4</title>
<path fill="none" stroke="midnightblue" d="M153.5,-269.8C153.5,-260.91 153.5,-250.78 153.5,-243.75"/>
<polygon fill="midnightblue" stroke="midnightblue" points="150,-270.08 153.5,-280.08 157,-270.08 150,-270.08"/>
</g>
<!-- Node12 -->
<g id="node12" class="node">
<title>Node12</title>
<g id="a_node12"><a xlink:href="pitch__joint_8c.html" target="_top" xlink:title=" ">
<polygon fill="none" stroke="black" points="191.5,-224.5 191.5,-243.5 259.5,-243.5 259.5,-224.5 191.5,-224.5"/>
<text text-anchor="middle" x="225.5" y="-231.5" font-family="Helvetica,sans-Serif" font-size="10.00">pitch_joint.c</text>
</a>
</g>
</g>
<!-- Node1&#45;&gt;Node12 -->
<g id="edge12" class="edge">
<title>Node1&#45;&gt;Node12</title>
<path fill="none" stroke="midnightblue" d="M173.37,-274.1C186.32,-264.38 202.8,-252.03 213.72,-243.83"/>
<polygon fill="midnightblue" stroke="midnightblue" points="170.97,-271.52 165.07,-280.32 175.17,-277.12 170.97,-271.52"/>
</g>
<!-- Node3 -->
<g id="node3" class="node">
<title>Node3</title>
<g id="a_node3"><a xlink:href="_pitch_joint_8cc.html" target="_top" xlink:title=" ">
<polygon fill="none" stroke="black" points="0,-168.5 0,-187.5 73,-187.5 73,-168.5 0,-168.5"/>
<text text-anchor="middle" x="36.5" y="-175.5" font-family="Helvetica,sans-Serif" font-size="10.00">PitchJoint.cc</text>
</a>
</g>
</g>
<!-- Node2&#45;&gt;Node3 -->
<g id="edge2" class="edge">
<title>Node2&#45;&gt;Node3</title>
<path fill="none" stroke="midnightblue" d="M60.2,-215.57C54.18,-206.27 47.03,-195.25 42.17,-187.75"/>
<polygon fill="midnightblue" stroke="midnightblue" points="57.34,-217.6 65.72,-224.08 63.22,-213.79 57.34,-217.6"/>
</g>
<!-- Node5 -->
<g id="node5" class="node">
<title>Node5</title>
<g id="a_node5"><a xlink:href="_nao_v5_8hpp.html" target="_top" xlink:title=" ">
<polygon fill="none" stroke="black" points="91,-168.5 91,-187.5 156,-187.5 156,-168.5 91,-168.5"/>
<text text-anchor="middle" x="123.5" y="-175.5" font-family="Helvetica,sans-Serif" font-size="10.00">NaoV5.hpp</text>
</a>
</g>
</g>
<!-- Node4&#45;&gt;Node5 -->
<g id="edge4" class="edge">
<title>Node4&#45;&gt;Node5</title>
<path fill="none" stroke="midnightblue" d="M143.65,-215.27C138.53,-206.05 132.48,-195.17 128.36,-187.75"/>
<polygon fill="midnightblue" stroke="midnightblue" points="140.63,-217.04 148.55,-224.08 146.75,-213.64 140.63,-217.04"/>
</g>
<!-- Node7 -->
<g id="node7" class="node">
<title>Node7</title>
<g id="a_node7"><a xlink:href="gurobots_8h.html" target="_top" xlink:title=" ">
<polygon fill="none" stroke="black" points="153.5,-112.5 153.5,-131.5 215.5,-131.5 215.5,-112.5 153.5,-112.5"/>
<text text-anchor="middle" x="184.5" y="-119.5" font-family="Helvetica,sans-Serif" font-size="10.00">gurobots.h</text>
</a>
</g>
</g>
<!-- Node4&#45;&gt;Node7 -->
<g id="edge10" class="edge">
<title>Node4&#45;&gt;Node7</title>
<path fill="none" stroke="midnightblue" d="M158.66,-214.67C165.44,-190.62 177.06,-149.39 182.08,-131.59"/>
<polygon fill="midnightblue" stroke="midnightblue" points="155.28,-213.79 155.93,-224.37 162.01,-215.69 155.28,-213.79"/>
</g>
<!-- Node11 -->
<g id="node11" class="node">
<title>Node11</title>
<g id="a_node11"><a xlink:href="nao_8c.html" target="_top" xlink:title=" ">
<polygon fill="none" stroke="black" points="212.5,-168.5 212.5,-187.5 252.5,-187.5 252.5,-168.5 212.5,-168.5"/>
<text text-anchor="middle" x="232.5" y="-175.5" font-family="Helvetica,sans-Serif" font-size="10.00">nao.c</text>
</a>
</g>
</g>
<!-- Node4&#45;&gt;Node11 -->
<g id="edge11" class="edge">
<title>Node4&#45;&gt;Node11</title>
<path fill="none" stroke="midnightblue" d="M174.53,-218.62C188.97,-208.76 207.64,-195.99 219.84,-187.65"/>
<polygon fill="midnightblue" stroke="midnightblue" points="172.47,-215.79 166.19,-224.32 176.42,-221.57 172.47,-215.79"/>
</g>
<!-- Node6 -->
<g id="node6" class="node">
<title>Node6</title>
<g id="a_node6"><a xlink:href="_nao_v5_8cc.html" target="_top" xlink:title=" ">
<polygon fill="none" stroke="black" points="76,-112.5 76,-131.5 135,-131.5 135,-112.5 76,-112.5"/>
<text text-anchor="middle" x="105.5" y="-119.5" font-family="Helvetica,sans-Serif" font-size="10.00">NaoV5.cc</text>
</a>
</g>
</g>
<!-- Node5&#45;&gt;Node6 -->
<g id="edge5" class="edge">
<title>Node5&#45;&gt;Node6</title>
<path fill="none" stroke="midnightblue" d="M117.3,-158.4C114.29,-149.36 110.81,-138.94 108.42,-131.75"/>
<polygon fill="midnightblue" stroke="midnightblue" points="114.04,-159.7 120.53,-168.08 120.69,-157.49 114.04,-159.7"/>
</g>
<!-- Node5&#45;&gt;Node7 -->
<g id="edge6" class="edge">
<title>Node5&#45;&gt;Node7</title>
<path fill="none" stroke="midnightblue" d="M140.97,-161.54C151.84,-151.91 165.44,-139.87 174.52,-131.83"/>
<polygon fill="midnightblue" stroke="midnightblue" points="138.47,-159.07 133.3,-168.32 143.11,-164.32 138.47,-159.07"/>
</g>
<!-- Node8 -->
<g id="node8" class="node">
<title>Node8</title>
<g id="a_node8"><a xlink:href="gurobots__tests_8hpp.html" target="_top" xlink:title=" ">
<polygon fill="none" stroke="black" points="46,-56.5 46,-75.5 175,-75.5 175,-56.5 46,-56.5"/>
<text text-anchor="middle" x="110.5" y="-63.5" font-family="Helvetica,sans-Serif" font-size="10.00">ctests/gurobots_tests.hpp</text>
</a>
</g>
</g>
<!-- Node7&#45;&gt;Node8 -->
<g id="edge7" class="edge">
<title>Node7&#45;&gt;Node8</title>
<path fill="none" stroke="midnightblue" d="M164.47,-106.38C151.09,-96.62 133.94,-84.11 122.61,-75.83"/>
<polygon fill="midnightblue" stroke="midnightblue" points="162.47,-109.26 172.61,-112.32 166.6,-103.6 162.47,-109.26"/>
</g>
<!-- Node9 -->
<g id="node9" class="node">
<title>Node9</title>
<g id="a_node9"><a xlink:href="_g_u_robots_tests_8hpp.html" target="_top" xlink:title=" ">
<polygon fill="none" stroke="black" points="193.5,-56.5 193.5,-75.5 323.5,-75.5 323.5,-56.5 193.5,-56.5"/>
<text text-anchor="middle" x="258.5" y="-63.5" font-family="Helvetica,sans-Serif" font-size="10.00">tests/GURobotsTests.hpp</text>
</a>
</g>
</g>
<!-- Node7&#45;&gt;Node9 -->
<g id="edge8" class="edge">
<title>Node7&#45;&gt;Node9</title>
<path fill="none" stroke="midnightblue" d="M204.53,-106.38C217.91,-96.62 235.06,-84.11 246.39,-75.83"/>
<polygon fill="midnightblue" stroke="midnightblue" points="202.4,-103.6 196.39,-112.32 206.53,-109.26 202.4,-103.6"/>
</g>
<!-- Node10 -->
<g id="node10" class="node">
<title>Node10</title>
<g id="a_node10"><a xlink:href="_nao_v5_tests_8cc.html" target="_top" xlink:title=" ">
<polygon fill="none" stroke="black" points="204,-0.5 204,-19.5 313,-19.5 313,-0.5 204,-0.5"/>
<text text-anchor="middle" x="258.5" y="-7.5" font-family="Helvetica,sans-Serif" font-size="10.00">tests/NaoV5Tests.cc</text>
</a>
</g>
</g>
<!-- Node9&#45;&gt;Node10 -->
<g id="edge9" class="edge">
<title>Node9&#45;&gt;Node10</title>
<path fill="none" stroke="midnightblue" d="M258.5,-45.8C258.5,-36.91 258.5,-26.78 258.5,-19.75"/>
<polygon fill="midnightblue" stroke="midnightblue" points="255,-46.08 258.5,-56.08 262,-46.08 255,-46.08"/>
</g>
</g>
</svg>
