<?xml version="1.0" encoding="UTF-8" standalone="no"?>
<!DOCTYPE svg PUBLIC "-//W3C//DTD SVG 1.1//EN"
 "http://www.w3.org/Graphics/SVG/1.1/DTD/svg11.dtd">
<!-- Generated by graphviz version 2.49.0 (20210830.1337)
 -->
<!-- Title: ctests/pixel_coordinate_fakes.h Pages: 1 -->
<svg width="202pt" height="162pt"
 viewBox="0.00 0.00 201.50 162.00" xmlns="http://www.w3.org/2000/svg" xmlns:xlink="http://www.w3.org/1999/xlink">
<g id="graph0" class="graph" transform="scale(1 1) rotate(0) translate(4 158)">
<title>ctests/pixel_coordinate_fakes.h</title>
<!-- Node1 -->
<g id="node1" class="node">
<title>Node1</title>
<g id="a_node1"><a xlink:title=" ">
<polygon fill="#bfbfbf" stroke="black" points="43.5,-123.5 43.5,-153.5 159.5,-153.5 159.5,-123.5 43.5,-123.5"/>
<text text-anchor="start" x="51.5" y="-141.5" font-family="Helvetica,sans-Serif" font-size="10.00">ctests/pixel_coordinate</text>
<text text-anchor="middle" x="101.5" y="-130.5" font-family="Helvetica,sans-Serif" font-size="10.00">_fakes.h</text>
</a>
</g>
</g>
<!-- Node2 -->
<g id="node2" class="node">
<title>Node2</title>
<g id="a_node2"><a xlink:href="ctests_2fff_8h.html" target="_top" xlink:title=" ">
<polygon fill="none" stroke="black" points="43.5,-62 43.5,-81 75.5,-81 75.5,-62 43.5,-62"/>
<text text-anchor="middle" x="59.5" y="-69" font-family="Helvetica,sans-Serif" font-size="10.00">fff.h</text>
</a>
</g>
</g>
<!-- Node1&#45;&gt;Node2 -->
<g id="edge1" class="edge">
<title>Node1&#45;&gt;Node2</title>
<path fill="none" stroke="midnightblue" d="M92.39,-123.4C86.03,-113.56 77.51,-100.38 70.74,-89.89"/>
<polygon fill="midnightblue" stroke="midnightblue" points="73.48,-87.69 65.12,-81.19 67.61,-91.49 73.48,-87.69"/>
</g>
<!-- Node5 -->
<g id="node5" class="node">
<title>Node5</title>
<g id="a_node5"><a xlink:title=" ">
<polygon fill="none" stroke="#bfbfbf" points="93.5,-56.5 93.5,-86.5 193.5,-86.5 193.5,-56.5 93.5,-56.5"/>
<text text-anchor="start" x="101.5" y="-74.5" font-family="Helvetica,sans-Serif" font-size="10.00">gucoordinates/pixel</text>
<text text-anchor="middle" x="143.5" y="-63.5" font-family="Helvetica,sans-Serif" font-size="10.00">_coordinate.h</text>
</a>
</g>
</g>
<!-- Node1&#45;&gt;Node5 -->
<g id="edge4" class="edge">
<title>Node1&#45;&gt;Node5</title>
<path fill="none" stroke="midnightblue" d="M110.61,-123.4C115.95,-115.13 122.82,-104.51 128.9,-95.1"/>
<polygon fill="midnightblue" stroke="midnightblue" points="131.92,-96.88 134.4,-86.58 126.04,-93.08 131.92,-96.88"/>
</g>
<!-- Node3 -->
<g id="node3" class="node">
<title>Node3</title>
<g id="a_node3"><a xlink:title=" ">
<polygon fill="none" stroke="#bfbfbf" points="0,-0.5 0,-19.5 51,-19.5 51,-0.5 0,-0.5"/>
<text text-anchor="middle" x="25.5" y="-7.5" font-family="Helvetica,sans-Serif" font-size="10.00">stdarg.h</text>
</a>
</g>
</g>
<!-- Node2&#45;&gt;Node3 -->
<g id="edge2" class="edge">
<title>Node2&#45;&gt;Node3</title>
<path fill="none" stroke="midnightblue" d="M54.63,-61.98C49.63,-53.23 41.71,-39.37 35.39,-28.31"/>
<polygon fill="midnightblue" stroke="midnightblue" points="38.36,-26.46 30.36,-19.51 32.28,-29.93 38.36,-26.46"/>
</g>
<!-- Node4 -->
<g id="node4" class="node">
<title>Node4</title>
<g id="a_node4"><a xlink:title=" ">
<polygon fill="none" stroke="#bfbfbf" points="69.5,-0.5 69.5,-19.5 117.5,-19.5 117.5,-0.5 69.5,-0.5"/>
<text text-anchor="middle" x="93.5" y="-7.5" font-family="Helvetica,sans-Serif" font-size="10.00">string.h</text>
</a>
</g>
</g>
<!-- Node2&#45;&gt;Node4 -->
<g id="edge3" class="edge">
<title>Node2&#45;&gt;Node4</title>
<path fill="none" stroke="midnightblue" d="M64.37,-61.98C69.37,-53.23 77.29,-39.37 83.61,-28.31"/>
<polygon fill="midnightblue" stroke="midnightblue" points="86.72,-29.93 88.64,-19.51 80.64,-26.46 86.72,-29.93"/>
</g>
</g>
</svg>
