<?xml version="1.0" encoding="UTF-8" standalone="no"?>
<!DOCTYPE svg PUBLIC "-//W3C//DTD SVG 1.1//EN"
 "http://www.w3.org/Graphics/SVG/1.1/DTD/svg11.dtd">
<!-- Generated by graphviz version 2.49.0 (20210830.1337)
 -->
<!-- Title: rectangle_sighting.c Pages: 1 -->
<svg width="413pt" height="162pt"
 viewBox="0.00 0.00 412.50 162.00" xmlns="http://www.w3.org/2000/svg" xmlns:xlink="http://www.w3.org/1999/xlink">
<g id="graph0" class="graph" transform="scale(1 1) rotate(0) translate(4 158)">
<title>rectangle_sighting.c</title>
<!-- Node1 -->
<g id="node1" class="node">
<title>Node1</title>
<g id="a_node1"><a xlink:title=" ">
<polygon fill="#bfbfbf" stroke="black" points="131.5,-134.5 131.5,-153.5 234.5,-153.5 234.5,-134.5 131.5,-134.5"/>
<text text-anchor="middle" x="183" y="-141.5" font-family="Helvetica,sans-Serif" font-size="10.00">rectangle_sighting.c</text>
</a>
</g>
</g>
<!-- Node2 -->
<g id="node2" class="node">
<title>Node2</title>
<g id="a_node2"><a xlink:href="rectangle__sighting_8h.html" target="_top" xlink:title=" ">
<polygon fill="none" stroke="black" points="131.5,-78.5 131.5,-97.5 234.5,-97.5 234.5,-78.5 131.5,-78.5"/>
<text text-anchor="middle" x="183" y="-85.5" font-family="Helvetica,sans-Serif" font-size="10.00">rectangle_sighting.h</text>
</a>
</g>
</g>
<!-- Node1&#45;&gt;Node2 -->
<g id="edge1" class="edge">
<title>Node1&#45;&gt;Node2</title>
<path fill="none" stroke="midnightblue" d="M183,-134.08C183,-127.01 183,-116.86 183,-107.99"/>
<polygon fill="midnightblue" stroke="midnightblue" points="186.5,-107.75 183,-97.75 179.5,-107.75 186.5,-107.75"/>
</g>
<!-- Node3 -->
<g id="node3" class="node">
<title>Node3</title>
<g id="a_node3"><a xlink:title=" ">
<polygon fill="none" stroke="#bfbfbf" points="0,-11.5 0,-30.5 90,-30.5 90,-11.5 0,-11.5"/>
<text text-anchor="middle" x="45" y="-18.5" font-family="Helvetica,sans-Serif" font-size="10.00">guunits/guunits.h</text>
</a>
</g>
</g>
<!-- Node2&#45;&gt;Node3 -->
<g id="edge2" class="edge">
<title>Node2&#45;&gt;Node3</title>
<path fill="none" stroke="midnightblue" d="M164.67,-78.37C141.06,-67.25 99.81,-47.82 72.45,-34.93"/>
<polygon fill="midnightblue" stroke="midnightblue" points="73.94,-31.76 63.4,-30.67 70.96,-38.09 73.94,-31.76"/>
</g>
<!-- Node4 -->
<g id="node4" class="node">
<title>Node4</title>
<g id="a_node4"><a xlink:title=" ">
<polygon fill="none" stroke="#bfbfbf" points="108.5,-11.5 108.5,-30.5 257.5,-30.5 257.5,-11.5 108.5,-11.5"/>
<text text-anchor="middle" x="183" y="-18.5" font-family="Helvetica,sans-Serif" font-size="10.00">gucoordinates/gucoordinates.h</text>
</a>
</g>
</g>
<!-- Node2&#45;&gt;Node4 -->
<g id="edge3" class="edge">
<title>Node2&#45;&gt;Node4</title>
<path fill="none" stroke="midnightblue" d="M183,-78.23C183,-68.68 183,-53.12 183,-40.78"/>
<polygon fill="midnightblue" stroke="midnightblue" points="186.5,-40.63 183,-30.63 179.5,-40.63 186.5,-40.63"/>
</g>
<!-- Node5 -->
<g id="node5" class="node">
<title>Node5</title>
<g id="a_node5"><a xlink:title=" ">
<polygon fill="none" stroke="#bfbfbf" points="275.5,-0.5 275.5,-41.5 404.5,-41.5 404.5,-0.5 275.5,-0.5"/>
<text text-anchor="start" x="283.5" y="-29.5" font-family="Helvetica,sans-Serif" font-size="10.00">gusimplewhiteboard</text>
<text text-anchor="start" x="283.5" y="-18.5" font-family="Helvetica,sans-Serif" font-size="10.00">/typeClassDefs/wb_vision</text>
<text text-anchor="middle" x="340" y="-7.5" font-family="Helvetica,sans-Serif" font-size="10.00">_line.h</text>
</a>
</g>
</g>
<!-- Node2&#45;&gt;Node5 -->
<g id="edge4" class="edge">
<title>Node2&#45;&gt;Node5</title>
<path fill="none" stroke="midnightblue" d="M203.85,-78.37C223.99,-70.03 255.43,-57.01 283.02,-45.59"/>
<polygon fill="midnightblue" stroke="midnightblue" points="284.7,-48.68 292.6,-41.63 282.02,-42.22 284.7,-48.68"/>
</g>
</g>
</svg>
