<?xml version="1.0" encoding="UTF-8" standalone="no"?>
<!DOCTYPE svg PUBLIC "-//W3C//DTD SVG 1.1//EN"
 "http://www.w3.org/Graphics/SVG/1.1/DTD/svg11.dtd">
<!-- Generated by graphviz version 2.49.0 (20210830.1337)
 -->
<!-- Title: ctests/relative_coordinate_fakes.h Pages: 1 -->
<svg width="258pt" height="162pt"
 viewBox="0.00 0.00 257.50 162.00" xmlns="http://www.w3.org/2000/svg" xmlns:xlink="http://www.w3.org/1999/xlink">
<g id="graph0" class="graph" transform="scale(1 1) rotate(0) translate(4 158)">
<title>ctests/relative_coordinate_fakes.h</title>
<!-- Node1 -->
<g id="node1" class="node">
<title>Node1</title>
<g id="a_node1"><a xlink:title=" ">
<polygon fill="#bfbfbf" stroke="black" points="60.5,-123.5 60.5,-153.5 188.5,-153.5 188.5,-123.5 60.5,-123.5"/>
<text text-anchor="start" x="68.5" y="-141.5" font-family="Helvetica,sans-Serif" font-size="10.00">ctests/relative_coordinate</text>
<text text-anchor="middle" x="124.5" y="-130.5" font-family="Helvetica,sans-Serif" font-size="10.00">_fakes.h</text>
</a>
</g>
</g>
<!-- Node2 -->
<g id="node2" class="node">
<title>Node2</title>
<g id="a_node2"><a xlink:href="ctests_2fakes_8h.html" target="_top" xlink:title=" ">
<polygon fill="none" stroke="black" points="25.5,-62 25.5,-81 103.5,-81 103.5,-62 25.5,-62"/>
<text text-anchor="middle" x="64.5" y="-69" font-family="Helvetica,sans-Serif" font-size="10.00">ctests/fakes.h</text>
</a>
</g>
</g>
<!-- Node1&#45;&gt;Node2 -->
<g id="edge1" class="edge">
<title>Node1&#45;&gt;Node2</title>
<path fill="none" stroke="midnightblue" d="M104.65,-116C93.7,-104.13 80.7,-90.05 72.53,-81.19"/>
<polygon fill="midnightblue" stroke="midnightblue" points="102.13,-118.42 111.48,-123.4 107.27,-113.67 102.13,-118.42"/>
</g>
<!-- Node4 -->
<g id="node4" class="node">
<title>Node4</title>
<g id="a_node4"><a xlink:href="relative__coordinate__fakes_8c.html" target="_top" xlink:title=" ">
<polygon fill="none" stroke="black" points="121.5,-56.5 121.5,-86.5 249.5,-86.5 249.5,-56.5 121.5,-56.5"/>
<text text-anchor="start" x="129.5" y="-74.5" font-family="Helvetica,sans-Serif" font-size="10.00">ctests/relative_coordinate</text>
<text text-anchor="middle" x="185.5" y="-63.5" font-family="Helvetica,sans-Serif" font-size="10.00">_fakes.c</text>
</a>
</g>
</g>
<!-- Node1&#45;&gt;Node4 -->
<g id="edge3" class="edge">
<title>Node1&#45;&gt;Node4</title>
<path fill="none" stroke="midnightblue" d="M144.65,-116.02C153.74,-106.34 164.22,-95.17 172.29,-86.58"/>
<polygon fill="midnightblue" stroke="midnightblue" points="142.03,-113.71 137.74,-123.4 147.13,-118.5 142.03,-113.71"/>
</g>
<!-- Node3 -->
<g id="node3" class="node">
<title>Node3</title>
<g id="a_node3"><a xlink:href="gurobots__tests_8hpp.html" target="_top" xlink:title=" ">
<polygon fill="none" stroke="black" points="0,-0.5 0,-19.5 129,-19.5 129,-0.5 0,-0.5"/>
<text text-anchor="middle" x="64.5" y="-7.5" font-family="Helvetica,sans-Serif" font-size="10.00">ctests/gurobots_tests.hpp</text>
</a>
</g>
</g>
<!-- Node2&#45;&gt;Node3 -->
<g id="edge2" class="edge">
<title>Node2&#45;&gt;Node3</title>
<path fill="none" stroke="midnightblue" d="M64.5,-51.82C64.5,-41 64.5,-27.9 64.5,-19.51"/>
<polygon fill="midnightblue" stroke="midnightblue" points="61,-51.98 64.5,-61.98 68,-51.98 61,-51.98"/>
</g>
</g>
</svg>
