<?xml version="1.0" encoding="UTF-8" standalone="no"?>
<!DOCTYPE svg PUBLIC "-//W3C//DTD SVG 1.1//EN"
 "http://www.w3.org/Graphics/SVG/1.1/DTD/svg11.dtd">
<!-- Generated by graphviz version 2.49.0 (20210830.1337)
 -->
<!-- Title: soccer_locations.h Pages: 1 -->
<svg width="362pt" height="308pt"
 viewBox="0.00 0.00 361.50 308.00" xmlns="http://www.w3.org/2000/svg" xmlns:xlink="http://www.w3.org/1999/xlink">
<g id="graph0" class="graph" transform="scale(1 1) rotate(0) translate(4 304)">
<title>soccer_locations.h</title>
<!-- Node1 -->
<g id="node1" class="node">
<title>Node1</title>
<g id="a_node1"><a xlink:title=" ">
<polygon fill="#bfbfbf" stroke="black" points="134.5,-280.5 134.5,-299.5 232.5,-299.5 232.5,-280.5 134.5,-280.5"/>
<text text-anchor="middle" x="183.5" y="-287.5" font-family="Helvetica,sans-Serif" font-size="10.00">soccer_locations.h</text>
</a>
</g>
</g>
<!-- Node2 -->
<g id="node2" class="node">
<title>Node2</title>
<g id="a_node2"><a xlink:href="_soccer_locations_8hpp.html" target="_top" xlink:title=" ">
<polygon fill="none" stroke="black" points="32.5,-224.5 32.5,-243.5 140.5,-243.5 140.5,-224.5 32.5,-224.5"/>
<text text-anchor="middle" x="86.5" y="-231.5" font-family="Helvetica,sans-Serif" font-size="10.00">SoccerLocations.hpp</text>
</a>
</g>
</g>
<!-- Node1&#45;&gt;Node2 -->
<g id="edge1" class="edge">
<title>Node1&#45;&gt;Node2</title>
<path fill="none" stroke="midnightblue" d="M159.16,-275.45C141.26,-265.48 117.45,-252.23 102.05,-243.65"/>
<polygon fill="midnightblue" stroke="midnightblue" points="157.48,-278.52 167.92,-280.32 160.88,-272.4 157.48,-278.52"/>
</g>
<!-- Node4 -->
<g id="node4" class="node">
<title>Node4</title>
<g id="a_node4"><a xlink:href="nao_8h.html" target="_top" xlink:title=" ">
<polygon fill="none" stroke="black" points="163.5,-224.5 163.5,-243.5 203.5,-243.5 203.5,-224.5 163.5,-224.5"/>
<text text-anchor="middle" x="183.5" y="-231.5" font-family="Helvetica,sans-Serif" font-size="10.00">nao.h</text>
</a>
</g>
</g>
<!-- Node1&#45;&gt;Node4 -->
<g id="edge3" class="edge">
<title>Node1&#45;&gt;Node4</title>
<path fill="none" stroke="midnightblue" d="M183.5,-269.8C183.5,-260.91 183.5,-250.78 183.5,-243.75"/>
<polygon fill="midnightblue" stroke="midnightblue" points="180,-270.08 183.5,-280.08 187,-270.08 180,-270.08"/>
</g>
<!-- Node12 -->
<g id="node12" class="node">
<title>Node12</title>
<g id="a_node12"><a xlink:href="soccer__locations_8c.html" target="_top" xlink:title=" ">
<polygon fill="none" stroke="black" points="221.5,-224.5 221.5,-243.5 319.5,-243.5 319.5,-224.5 221.5,-224.5"/>
<text text-anchor="middle" x="270.5" y="-231.5" font-family="Helvetica,sans-Serif" font-size="10.00">soccer_locations.c</text>
</a>
</g>
</g>
<!-- Node1&#45;&gt;Node12 -->
<g id="edge12" class="edge">
<title>Node1&#45;&gt;Node12</title>
<path fill="none" stroke="midnightblue" d="M206.22,-274.9C222.17,-265 243,-252.07 256.56,-243.65"/>
<polygon fill="midnightblue" stroke="midnightblue" points="204.13,-272.08 197.48,-280.32 207.82,-278.02 204.13,-272.08"/>
</g>
<!-- Node3 -->
<g id="node3" class="node">
<title>Node3</title>
<g id="a_node3"><a xlink:href="_soccer_locations_8cc.html" target="_top" xlink:title=" ">
<polygon fill="none" stroke="black" points="0,-168.5 0,-187.5 103,-187.5 103,-168.5 0,-168.5"/>
<text text-anchor="middle" x="51.5" y="-175.5" font-family="Helvetica,sans-Serif" font-size="10.00">SoccerLocations.cc</text>
</a>
</g>
</g>
<!-- Node2&#45;&gt;Node3 -->
<g id="edge2" class="edge">
<title>Node2&#45;&gt;Node3</title>
<path fill="none" stroke="midnightblue" d="M75.2,-215.57C69.18,-206.27 62.03,-195.25 57.17,-187.75"/>
<polygon fill="midnightblue" stroke="midnightblue" points="72.34,-217.6 80.72,-224.08 78.22,-213.79 72.34,-217.6"/>
</g>
<!-- Node5 -->
<g id="node5" class="node">
<title>Node5</title>
<g id="a_node5"><a xlink:href="_nao_v5_8hpp.html" target="_top" xlink:title=" ">
<polygon fill="none" stroke="black" points="121,-168.5 121,-187.5 186,-187.5 186,-168.5 121,-168.5"/>
<text text-anchor="middle" x="153.5" y="-175.5" font-family="Helvetica,sans-Serif" font-size="10.00">NaoV5.hpp</text>
</a>
</g>
</g>
<!-- Node4&#45;&gt;Node5 -->
<g id="edge4" class="edge">
<title>Node4&#45;&gt;Node5</title>
<path fill="none" stroke="midnightblue" d="M173.65,-215.27C168.53,-206.05 162.48,-195.17 158.36,-187.75"/>
<polygon fill="midnightblue" stroke="midnightblue" points="170.63,-217.04 178.55,-224.08 176.75,-213.64 170.63,-217.04"/>
</g>
<!-- Node7 -->
<g id="node7" class="node">
<title>Node7</title>
<g id="a_node7"><a xlink:href="gurobots_8h.html" target="_top" xlink:title=" ">
<polygon fill="none" stroke="black" points="183.5,-112.5 183.5,-131.5 245.5,-131.5 245.5,-112.5 183.5,-112.5"/>
<text text-anchor="middle" x="214.5" y="-119.5" font-family="Helvetica,sans-Serif" font-size="10.00">gurobots.h</text>
</a>
</g>
</g>
<!-- Node4&#45;&gt;Node7 -->
<g id="edge10" class="edge">
<title>Node4&#45;&gt;Node7</title>
<path fill="none" stroke="midnightblue" d="M188.66,-214.67C195.44,-190.62 207.06,-149.39 212.08,-131.59"/>
<polygon fill="midnightblue" stroke="midnightblue" points="185.28,-213.79 185.93,-224.37 192.01,-215.69 185.28,-213.79"/>
</g>
<!-- Node11 -->
<g id="node11" class="node">
<title>Node11</title>
<g id="a_node11"><a xlink:href="nao_8c.html" target="_top" xlink:title=" ">
<polygon fill="none" stroke="black" points="242.5,-168.5 242.5,-187.5 282.5,-187.5 282.5,-168.5 242.5,-168.5"/>
<text text-anchor="middle" x="262.5" y="-175.5" font-family="Helvetica,sans-Serif" font-size="10.00">nao.c</text>
</a>
</g>
</g>
<!-- Node4&#45;&gt;Node11 -->
<g id="edge11" class="edge">
<title>Node4&#45;&gt;Node11</title>
<path fill="none" stroke="midnightblue" d="M204.53,-218.62C218.97,-208.76 237.64,-195.99 249.84,-187.65"/>
<polygon fill="midnightblue" stroke="midnightblue" points="202.47,-215.79 196.19,-224.32 206.42,-221.57 202.47,-215.79"/>
</g>
<!-- Node6 -->
<g id="node6" class="node">
<title>Node6</title>
<g id="a_node6"><a xlink:href="_nao_v5_8cc.html" target="_top" xlink:title=" ">
<polygon fill="none" stroke="black" points="106,-112.5 106,-131.5 165,-131.5 165,-112.5 106,-112.5"/>
<text text-anchor="middle" x="135.5" y="-119.5" font-family="Helvetica,sans-Serif" font-size="10.00">NaoV5.cc</text>
</a>
</g>
</g>
<!-- Node5&#45;&gt;Node6 -->
<g id="edge5" class="edge">
<title>Node5&#45;&gt;Node6</title>
<path fill="none" stroke="midnightblue" d="M147.3,-158.4C144.29,-149.36 140.81,-138.94 138.42,-131.75"/>
<polygon fill="midnightblue" stroke="midnightblue" points="144.04,-159.7 150.53,-168.08 150.69,-157.49 144.04,-159.7"/>
</g>
<!-- Node5&#45;&gt;Node7 -->
<g id="edge6" class="edge">
<title>Node5&#45;&gt;Node7</title>
<path fill="none" stroke="midnightblue" d="M170.97,-161.54C181.84,-151.91 195.44,-139.87 204.52,-131.83"/>
<polygon fill="midnightblue" stroke="midnightblue" points="168.47,-159.07 163.3,-168.32 173.11,-164.32 168.47,-159.07"/>
</g>
<!-- Node8 -->
<g id="node8" class="node">
<title>Node8</title>
<g id="a_node8"><a xlink:href="gurobots__tests_8hpp.html" target="_top" xlink:title=" ">
<polygon fill="none" stroke="black" points="76,-56.5 76,-75.5 205,-75.5 205,-56.5 76,-56.5"/>
<text text-anchor="middle" x="140.5" y="-63.5" font-family="Helvetica,sans-Serif" font-size="10.00">ctests/gurobots_tests.hpp</text>
</a>
</g>
</g>
<!-- Node7&#45;&gt;Node8 -->
<g id="edge7" class="edge">
<title>Node7&#45;&gt;Node8</title>
<path fill="none" stroke="midnightblue" d="M194.47,-106.38C181.09,-96.62 163.94,-84.11 152.61,-75.83"/>
<polygon fill="midnightblue" stroke="midnightblue" points="192.47,-109.26 202.61,-112.32 196.6,-103.6 192.47,-109.26"/>
</g>
<!-- Node9 -->
<g id="node9" class="node">
<title>Node9</title>
<g id="a_node9"><a xlink:href="_g_u_robots_tests_8hpp.html" target="_top" xlink:title=" ">
<polygon fill="none" stroke="black" points="223.5,-56.5 223.5,-75.5 353.5,-75.5 353.5,-56.5 223.5,-56.5"/>
<text text-anchor="middle" x="288.5" y="-63.5" font-family="Helvetica,sans-Serif" font-size="10.00">tests/GURobotsTests.hpp</text>
</a>
</g>
</g>
<!-- Node7&#45;&gt;Node9 -->
<g id="edge8" class="edge">
<title>Node7&#45;&gt;Node9</title>
<path fill="none" stroke="midnightblue" d="M234.53,-106.38C247.91,-96.62 265.06,-84.11 276.39,-75.83"/>
<polygon fill="midnightblue" stroke="midnightblue" points="232.4,-103.6 226.39,-112.32 236.53,-109.26 232.4,-103.6"/>
</g>
<!-- Node10 -->
<g id="node10" class="node">
<title>Node10</title>
<g id="a_node10"><a xlink:href="_nao_v5_tests_8cc.html" target="_top" xlink:title=" ">
<polygon fill="none" stroke="black" points="234,-0.5 234,-19.5 343,-19.5 343,-0.5 234,-0.5"/>
<text text-anchor="middle" x="288.5" y="-7.5" font-family="Helvetica,sans-Serif" font-size="10.00">tests/NaoV5Tests.cc</text>
</a>
</g>
</g>
<!-- Node9&#45;&gt;Node10 -->
<g id="edge9" class="edge">
<title>Node9&#45;&gt;Node10</title>
<path fill="none" stroke="midnightblue" d="M288.5,-45.8C288.5,-36.91 288.5,-26.78 288.5,-19.75"/>
<polygon fill="midnightblue" stroke="midnightblue" points="285,-46.08 288.5,-56.08 292,-46.08 285,-46.08"/>
</g>
</g>
</svg>
