<?xml version="1.0" encoding="UTF-8" standalone="no"?>
<!DOCTYPE svg PUBLIC "-//W3C//DTD SVG 1.1//EN"
 "http://www.w3.org/Graphics/SVG/1.1/DTD/svg11.dtd">
<!-- Generated by graphviz version 2.49.0 (20210830.1337)
 -->
<!-- Title: soccer_sightings.c Pages: 1 -->
<svg width="1130pt" height="385pt"
 viewBox="0.00 0.00 1129.76 385.00" xmlns="http://www.w3.org/2000/svg" xmlns:xlink="http://www.w3.org/1999/xlink">
<g id="graph0" class="graph" transform="scale(1 1) rotate(0) translate(4 381)">
<title>soccer_sightings.c</title>
<!-- Node1 -->
<g id="node1" class="node">
<title>Node1</title>
<g id="a_node1"><a xlink:title=" ">
<polygon fill="#bfbfbf" stroke="black" points="356.26,-357.5 356.26,-376.5 454.26,-376.5 454.26,-357.5 356.26,-357.5"/>
<text text-anchor="middle" x="405.26" y="-364.5" font-family="Helvetica,sans-Serif" font-size="10.00">soccer_sightings.c</text>
</a>
</g>
</g>
<!-- Node2 -->
<g id="node2" class="node">
<title>Node2</title>
<g id="a_node2"><a xlink:href="soccer__sightings_8h.html" target="_top" xlink:title=" ">
<polygon fill="none" stroke="black" points="311.26,-301.5 311.26,-320.5 409.26,-320.5 409.26,-301.5 311.26,-301.5"/>
<text text-anchor="middle" x="360.26" y="-308.5" font-family="Helvetica,sans-Serif" font-size="10.00">soccer_sightings.h</text>
</a>
</g>
</g>
<!-- Node1&#45;&gt;Node2 -->
<g id="edge1" class="edge">
<title>Node1&#45;&gt;Node2</title>
<path fill="none" stroke="midnightblue" d="M397.83,-357.08C391.4,-349.38 381.95,-338.03 374.13,-328.65"/>
<polygon fill="midnightblue" stroke="midnightblue" points="376.64,-326.19 367.55,-320.75 371.26,-330.67 376.64,-326.19"/>
</g>
<!-- Node21 -->
<g id="node21" class="node">
<title>Node21</title>
<g id="a_node21"><a xlink:title=" ">
<polygon fill="none" stroke="#bfbfbf" points="427.26,-301.5 427.26,-320.5 473.26,-320.5 473.26,-301.5 427.26,-301.5"/>
<text text-anchor="middle" x="450.26" y="-308.5" font-family="Helvetica,sans-Serif" font-size="10.00">math.h</text>
</a>
</g>
</g>
<!-- Node1&#45;&gt;Node21 -->
<g id="edge40" class="edge">
<title>Node1&#45;&gt;Node21</title>
<path fill="none" stroke="midnightblue" d="M412.69,-357.08C419.11,-349.38 428.56,-338.03 436.38,-328.65"/>
<polygon fill="midnightblue" stroke="midnightblue" points="439.25,-330.67 442.96,-320.75 433.87,-326.19 439.25,-330.67"/>
</g>
<!-- Node3 -->
<g id="node3" class="node">
<title>Node3</title>
<g id="a_node3"><a xlink:title=" ">
<polygon fill="none" stroke="#bfbfbf" points="315.26,-89.5 315.26,-108.5 363.26,-108.5 363.26,-89.5 315.26,-89.5"/>
<text text-anchor="middle" x="339.26" y="-96.5" font-family="Helvetica,sans-Serif" font-size="10.00">stdint.h</text>
</a>
</g>
</g>
<!-- Node2&#45;&gt;Node3 -->
<g id="edge2" class="edge">
<title>Node2&#45;&gt;Node3</title>
<path fill="none" stroke="midnightblue" d="M359.38,-301.24C356.25,-269.89 345.53,-162.76 341.15,-118.93"/>
<polygon fill="midnightblue" stroke="midnightblue" points="344.61,-118.4 340.14,-108.79 337.65,-119.09 344.61,-118.4"/>
</g>
<!-- Node4 -->
<g id="node4" class="node">
<title>Node4</title>
<g id="a_node4"><a xlink:title=" ">
<polygon fill="none" stroke="#bfbfbf" points="518.76,-11.5 518.76,-30.5 667.76,-30.5 667.76,-11.5 518.76,-11.5"/>
<text text-anchor="middle" x="593.26" y="-18.5" font-family="Helvetica,sans-Serif" font-size="10.00">gucoordinates/gucoordinates.h</text>
</a>
</g>
</g>
<!-- Node2&#45;&gt;Node4 -->
<g id="edge3" class="edge">
<title>Node2&#45;&gt;Node4</title>
<path fill="none" stroke="midnightblue" d="M326.21,-301.42C225.02,-274.42 -60.92,-186.56 37.26,-78 68.22,-43.77 360.41,-29.48 508.33,-24.41"/>
<polygon fill="midnightblue" stroke="midnightblue" points="508.85,-27.89 518.72,-24.06 508.61,-20.9 508.85,-27.89"/>
</g>
<!-- Node5 -->
<g id="node5" class="node">
<title>Node5</title>
<g id="a_node5"><a xlink:href="optional__ellipse__sighting_8h.html" target="_top" xlink:title=" ">
<polygon fill="none" stroke="black" points="407.26,-162 407.26,-181 537.26,-181 537.26,-162 407.26,-162"/>
<text text-anchor="middle" x="472.26" y="-169" font-family="Helvetica,sans-Serif" font-size="10.00">optional_ellipse_sighting.h</text>
</a>
</g>
</g>
<!-- Node2&#45;&gt;Node5 -->
<g id="edge4" class="edge">
<title>Node2&#45;&gt;Node5</title>
<path fill="none" stroke="midnightblue" d="M367.26,-301.4C385.49,-279.02 434.64,-218.68 458.67,-189.18"/>
<polygon fill="midnightblue" stroke="midnightblue" points="461.65,-191.06 465.25,-181.1 456.22,-186.64 461.65,-191.06"/>
</g>
<!-- Node10 -->
<g id="node10" class="node">
<title>Node10</title>
<g id="a_node10"><a xlink:href="optional__rectangle__sighting_8h.html" target="_top" xlink:title=" ">
<polygon fill="none" stroke="black" points="217.76,-156.5 217.76,-186.5 312.76,-186.5 312.76,-156.5 217.76,-156.5"/>
<text text-anchor="start" x="225.76" y="-174.5" font-family="Helvetica,sans-Serif" font-size="10.00">optional_rectangle</text>
<text text-anchor="middle" x="265.26" y="-163.5" font-family="Helvetica,sans-Serif" font-size="10.00">_sighting.h</text>
</a>
</g>
</g>
<!-- Node2&#45;&gt;Node10 -->
<g id="edge11" class="edge">
<title>Node2&#45;&gt;Node10</title>
<path fill="none" stroke="midnightblue" d="M353.82,-301.45C347.09,-292.46 336.27,-277.85 327.26,-265 310.75,-241.47 292.51,-214.07 280.11,-195.23"/>
<polygon fill="midnightblue" stroke="midnightblue" points="282.94,-193.17 274.53,-186.73 277.09,-197.01 282.94,-193.17"/>
</g>
<!-- Node12 -->
<g id="node12" class="node">
<title>Node12</title>
<g id="a_node12"><a xlink:title=" ">
<polygon fill="none" stroke="#bfbfbf" points="48.76,-0.5 48.76,-41.5 177.76,-41.5 177.76,-0.5 48.76,-0.5"/>
<text text-anchor="start" x="56.76" y="-29.5" font-family="Helvetica,sans-Serif" font-size="10.00">gusimplewhiteboard</text>
<text text-anchor="start" x="56.76" y="-18.5" font-family="Helvetica,sans-Serif" font-size="10.00">/typeClassDefs/wb_vision</text>
<text text-anchor="middle" x="113.26" y="-7.5" font-family="Helvetica,sans-Serif" font-size="10.00">_line.h</text>
</a>
</g>
</g>
<!-- Node2&#45;&gt;Node12 -->
<g id="edge39" class="edge">
<title>Node2&#45;&gt;Node12</title>
<path fill="none" stroke="midnightblue" d="M311.05,-310.19C231.9,-307.39 79.62,-288.42 24.26,-187 0.95,-144.3 -10.25,-120.02 14.26,-78 21.86,-64.97 33.73,-54.73 46.66,-46.78"/>
<polygon fill="midnightblue" stroke="midnightblue" points="48.76,-49.61 55.73,-41.63 45.31,-43.52 48.76,-49.61"/>
</g>
<!-- Node14 -->
<g id="node14" class="node">
<title>Node14</title>
<g id="a_node14"><a xlink:href="optional__horizon__sighting_8h.html" target="_top" xlink:title=" ">
<polygon fill="none" stroke="black" points="505.76,-234.5 505.76,-253.5 638.76,-253.5 638.76,-234.5 505.76,-234.5"/>
<text text-anchor="middle" x="572.26" y="-241.5" font-family="Helvetica,sans-Serif" font-size="10.00">optional_horizon_sighting.h</text>
</a>
</g>
</g>
<!-- Node2&#45;&gt;Node14 -->
<g id="edge19" class="edge">
<title>Node2&#45;&gt;Node14</title>
<path fill="none" stroke="midnightblue" d="M388.41,-301.37C426.05,-289.83 492.89,-269.34 534.76,-256.5"/>
<polygon fill="midnightblue" stroke="midnightblue" points="535.79,-259.84 544.33,-253.56 533.74,-253.15 535.79,-259.84"/>
</g>
<!-- Node19 -->
<g id="node19" class="node">
<title>Node19</title>
<g id="a_node19"><a xlink:href="optional__line__sighting_8h.html" target="_top" xlink:title=" ">
<polygon fill="none" stroke="black" points="607.76,-162 607.76,-181 724.76,-181 724.76,-162 607.76,-162"/>
<text text-anchor="middle" x="666.26" y="-169" font-family="Helvetica,sans-Serif" font-size="10.00">optional_line_sighting.h</text>
</a>
</g>
</g>
<!-- Node2&#45;&gt;Node19 -->
<g id="edge35" class="edge">
<title>Node2&#45;&gt;Node19</title>
<path fill="none" stroke="midnightblue" d="M373.3,-301.43C404.95,-280.67 484.18,-228.97 497.26,-223 536.05,-205.3 582.65,-191.91 617.08,-183.38"/>
<polygon fill="midnightblue" stroke="midnightblue" points="618.01,-186.76 626.9,-181 616.35,-179.96 618.01,-186.76"/>
</g>
<!-- Node20 -->
<g id="node20" class="node">
<title>Node20</title>
<g id="a_node20"><a xlink:title=" ">
<polygon fill="none" stroke="#bfbfbf" points="656.76,-223.5 656.76,-264.5 785.76,-264.5 785.76,-223.5 656.76,-223.5"/>
<text text-anchor="start" x="664.76" y="-252.5" font-family="Helvetica,sans-Serif" font-size="10.00">gusimplewhiteboard</text>
<text text-anchor="start" x="664.76" y="-241.5" font-family="Helvetica,sans-Serif" font-size="10.00">/typeClassDefs/wb_vision</text>
<text text-anchor="middle" x="721.26" y="-230.5" font-family="Helvetica,sans-Serif" font-size="10.00">_detection_goal.h</text>
</a>
</g>
</g>
<!-- Node2&#45;&gt;Node20 -->
<g id="edge38" class="edge">
<title>Node2&#45;&gt;Node20</title>
<path fill="none" stroke="midnightblue" d="M409.48,-302.34C481.11,-291.2 609.03,-271.28 646.51,-264.94"/>
<polygon fill="midnightblue" stroke="midnightblue" points="647.25,-268.37 656.47,-263.16 646.01,-261.48 647.25,-268.37"/>
</g>
<!-- Node5&#45;&gt;Node3 -->
<g id="edge9" class="edge">
<title>Node5&#45;&gt;Node3</title>
<path fill="none" stroke="midnightblue" d="M454.56,-161.88C434.63,-152.06 401.34,-135.4 373.26,-120 369.64,-118.02 365.85,-115.86 362.17,-113.73"/>
<polygon fill="midnightblue" stroke="midnightblue" points="363.77,-110.61 353.37,-108.56 360.22,-116.65 363.77,-110.61"/>
</g>
<!-- Node6 -->
<g id="node6" class="node">
<title>Node6</title>
<g id="a_node6"><a xlink:href="ellipse__sighting_8h.html" target="_top" xlink:title=" ">
<polygon fill="none" stroke="black" points="528.76,-89.5 528.76,-108.5 619.76,-108.5 619.76,-89.5 528.76,-89.5"/>
<text text-anchor="middle" x="574.26" y="-96.5" font-family="Helvetica,sans-Serif" font-size="10.00">ellipse_sighting.h</text>
</a>
</g>
</g>
<!-- Node5&#45;&gt;Node6 -->
<g id="edge5" class="edge">
<title>Node5&#45;&gt;Node6</title>
<path fill="none" stroke="midnightblue" d="M484.76,-161.86C501.82,-150.07 532.6,-128.79 553.23,-114.53"/>
<polygon fill="midnightblue" stroke="midnightblue" points="555.41,-117.28 561.65,-108.72 551.43,-111.52 555.41,-117.28"/>
</g>
<!-- Node8 -->
<g id="node8" class="node">
<title>Node8</title>
<g id="a_node8"><a xlink:title=" ">
<polygon fill="none" stroke="#bfbfbf" points="638.26,-89.5 638.26,-108.5 694.26,-108.5 694.26,-89.5 638.26,-89.5"/>
<text text-anchor="middle" x="666.26" y="-96.5" font-family="Helvetica,sans-Serif" font-size="10.00">stdbool.h</text>
</a>
</g>
</g>
<!-- Node5&#45;&gt;Node8 -->
<g id="edge8" class="edge">
<title>Node5&#45;&gt;Node8</title>
<path fill="none" stroke="midnightblue" d="M504.76,-161.94C536.96,-153.02 587.39,-137.87 629.26,-120 633.68,-118.11 638.28,-115.87 642.67,-113.58"/>
<polygon fill="midnightblue" stroke="midnightblue" points="644.69,-116.47 651.8,-108.62 641.34,-110.32 644.69,-116.47"/>
</g>
<!-- Node9 -->
<g id="node9" class="node">
<title>Node9</title>
<g id="a_node9"><a xlink:title=" ">
<polygon fill="none" stroke="#bfbfbf" points="381.76,-78.5 381.76,-119.5 510.76,-119.5 510.76,-78.5 381.76,-78.5"/>
<text text-anchor="start" x="389.76" y="-107.5" font-family="Helvetica,sans-Serif" font-size="10.00">gusimplewhiteboard</text>
<text text-anchor="start" x="389.76" y="-96.5" font-family="Helvetica,sans-Serif" font-size="10.00">/typeClassDefs/wb_vision</text>
<text text-anchor="middle" x="446.26" y="-85.5" font-family="Helvetica,sans-Serif" font-size="10.00">_detection_ball.h</text>
</a>
</g>
</g>
<!-- Node5&#45;&gt;Node9 -->
<g id="edge10" class="edge">
<title>Node5&#45;&gt;Node9</title>
<path fill="none" stroke="midnightblue" d="M469.07,-161.86C466.06,-153.7 461.38,-140.99 457.03,-129.22"/>
<polygon fill="midnightblue" stroke="midnightblue" points="460.25,-127.83 453.51,-119.66 453.68,-130.25 460.25,-127.83"/>
</g>
<!-- Node6&#45;&gt;Node4 -->
<g id="edge7" class="edge">
<title>Node6&#45;&gt;Node4</title>
<path fill="none" stroke="midnightblue" d="M576.44,-89.28C579.39,-77.49 584.72,-56.13 588.6,-40.64"/>
<polygon fill="midnightblue" stroke="midnightblue" points="592.07,-41.17 591.1,-30.62 585.28,-39.47 592.07,-41.17"/>
</g>
<!-- Node7 -->
<g id="node7" class="node">
<title>Node7</title>
<g id="a_node7"><a xlink:title=" ">
<polygon fill="none" stroke="#bfbfbf" points="706.26,-11.5 706.26,-30.5 796.26,-30.5 796.26,-11.5 706.26,-11.5"/>
<text text-anchor="middle" x="751.26" y="-18.5" font-family="Helvetica,sans-Serif" font-size="10.00">guunits/guunits.h</text>
</a>
</g>
</g>
<!-- Node6&#45;&gt;Node7 -->
<g id="edge6" class="edge">
<title>Node6&#45;&gt;Node7</title>
<path fill="none" stroke="midnightblue" d="M594.22,-89.43C625.37,-76.05 685.73,-50.14 721.86,-34.62"/>
<polygon fill="midnightblue" stroke="midnightblue" points="723.56,-37.7 731.37,-30.54 720.8,-31.27 723.56,-37.7"/>
</g>
<!-- Node10&#45;&gt;Node3 -->
<g id="edge17" class="edge">
<title>Node10&#45;&gt;Node3</title>
<path fill="none" stroke="midnightblue" d="M280.23,-156.23C292.43,-144.62 309.64,-128.22 322.33,-116.12"/>
<polygon fill="midnightblue" stroke="midnightblue" points="325.1,-118.33 329.92,-108.89 320.27,-113.26 325.1,-118.33"/>
</g>
<!-- Node10&#45;&gt;Node8 -->
<g id="edge16" class="edge">
<title>Node10&#45;&gt;Node8</title>
<path fill="none" stroke="midnightblue" d="M313.08,-164.83C404.98,-153.79 599.78,-129.66 629.26,-120 634.2,-118.38 639.26,-116.11 643.98,-113.68"/>
<polygon fill="midnightblue" stroke="midnightblue" points="646.04,-116.55 653.07,-108.63 642.63,-110.43 646.04,-116.55"/>
</g>
<!-- Node11 -->
<g id="node11" class="node">
<title>Node11</title>
<g id="a_node11"><a xlink:href="rectangle__sighting_8h.html" target="_top" xlink:title=" ">
<polygon fill="none" stroke="black" points="193.76,-89.5 193.76,-108.5 296.76,-108.5 296.76,-89.5 193.76,-89.5"/>
<text text-anchor="middle" x="245.26" y="-96.5" font-family="Helvetica,sans-Serif" font-size="10.00">rectangle_sighting.h</text>
</a>
</g>
</g>
<!-- Node10&#45;&gt;Node11 -->
<g id="edge12" class="edge">
<title>Node10&#45;&gt;Node11</title>
<path fill="none" stroke="midnightblue" d="M261.21,-156.23C258.13,-145.39 253.88,-130.38 250.53,-118.6"/>
<polygon fill="midnightblue" stroke="midnightblue" points="253.88,-117.56 247.78,-108.89 247.14,-119.47 253.88,-117.56"/>
</g>
<!-- Node13 -->
<g id="node13" class="node">
<title>Node13</title>
<g id="a_node13"><a xlink:title=" ">
<polygon fill="none" stroke="#bfbfbf" points="46.76,-78.5 46.76,-119.5 175.76,-119.5 175.76,-78.5 46.76,-78.5"/>
<text text-anchor="start" x="54.76" y="-107.5" font-family="Helvetica,sans-Serif" font-size="10.00">gusimplewhiteboard</text>
<text text-anchor="start" x="54.76" y="-96.5" font-family="Helvetica,sans-Serif" font-size="10.00">/typeClassDefs/wb_vision</text>
<text text-anchor="middle" x="111.26" y="-85.5" font-family="Helvetica,sans-Serif" font-size="10.00">_detection_goal_post.h</text>
</a>
</g>
</g>
<!-- Node10&#45;&gt;Node13 -->
<g id="edge18" class="edge">
<title>Node10&#45;&gt;Node13</title>
<path fill="none" stroke="midnightblue" d="M234.46,-156.4C214.08,-147.07 186.85,-134.61 163.17,-123.77"/>
<polygon fill="midnightblue" stroke="midnightblue" points="164.5,-120.53 153.95,-119.55 161.59,-126.89 164.5,-120.53"/>
</g>
<!-- Node11&#45;&gt;Node4 -->
<g id="edge14" class="edge">
<title>Node11&#45;&gt;Node4</title>
<path fill="none" stroke="midnightblue" d="M269.1,-89.42C280.28,-85.59 293.85,-81.23 306.26,-78 381.91,-58.3 470.41,-42.03 528.91,-32.2"/>
<polygon fill="midnightblue" stroke="midnightblue" points="529.83,-35.6 539.12,-30.5 528.68,-28.69 529.83,-35.6"/>
</g>
<!-- Node11&#45;&gt;Node7 -->
<g id="edge13" class="edge">
<title>Node11&#45;&gt;Node7</title>
<path fill="none" stroke="midnightblue" d="M267.25,-89.49C278.71,-85.39 293.06,-80.77 306.26,-78 468.39,-43.99 514.28,-71.72 677.26,-42 689.41,-39.78 702.48,-36.55 714.2,-33.32"/>
<polygon fill="midnightblue" stroke="midnightblue" points="715.43,-36.61 724.09,-30.51 713.52,-29.87 715.43,-36.61"/>
</g>
<!-- Node11&#45;&gt;Node12 -->
<g id="edge15" class="edge">
<title>Node11&#45;&gt;Node12</title>
<path fill="none" stroke="midnightblue" d="M230.37,-89.43C212.46,-79.12 181.6,-61.35 156.06,-46.64"/>
<polygon fill="midnightblue" stroke="midnightblue" points="157.69,-43.54 147.27,-41.59 154.19,-49.61 157.69,-43.54"/>
</g>
<!-- Node14&#45;&gt;Node3 -->
<g id="edge33" class="edge">
<title>Node14&#45;&gt;Node3</title>
<path fill="none" stroke="midnightblue" d="M514.96,-234.43C478.71,-226.75 432.41,-212.6 398.26,-187 373.99,-168.82 356.37,-137.59 346.99,-117.91"/>
<polygon fill="midnightblue" stroke="midnightblue" points="350.07,-116.22 342.74,-108.56 343.7,-119.11 350.07,-116.22"/>
</g>
<!-- Node14&#45;&gt;Node8 -->
<g id="edge32" class="edge">
<title>Node14&#45;&gt;Node8</title>
<path fill="none" stroke="midnightblue" d="M573.32,-234.14C575.65,-217.57 582.42,-181.27 599.26,-156 610.6,-138.97 628.61,-124.33 643.1,-114.29"/>
<polygon fill="midnightblue" stroke="midnightblue" points="645.19,-117.11 651.58,-108.66 641.31,-111.28 645.19,-117.11"/>
</g>
<!-- Node15 -->
<g id="node15" class="node">
<title>Node15</title>
<g id="a_node15"><a xlink:href="horizon__sighting_8h.html" target="_top" xlink:title=" ">
<polygon fill="none" stroke="black" points="757.26,-162 757.26,-181 851.26,-181 851.26,-162 757.26,-162"/>
<text text-anchor="middle" x="804.26" y="-169" font-family="Helvetica,sans-Serif" font-size="10.00">horizon_sighting.h</text>
</a>
</g>
</g>
<!-- Node14&#45;&gt;Node15 -->
<g id="edge20" class="edge">
<title>Node14&#45;&gt;Node15</title>
<path fill="none" stroke="midnightblue" d="M600.24,-234.5C641.78,-221.87 719.86,-198.15 766.45,-183.99"/>
<polygon fill="midnightblue" stroke="midnightblue" points="767.62,-187.29 776.17,-181.03 765.59,-180.59 767.62,-187.29"/>
</g>
<!-- Node18 -->
<g id="node18" class="node">
<title>Node18</title>
<g id="a_node18"><a xlink:title=" ">
<polygon fill="none" stroke="#bfbfbf" points="992.76,-78.5 992.76,-119.5 1121.76,-119.5 1121.76,-78.5 992.76,-78.5"/>
<text text-anchor="start" x="1000.76" y="-107.5" font-family="Helvetica,sans-Serif" font-size="10.00">gusimplewhiteboard</text>
<text text-anchor="start" x="1000.76" y="-96.5" font-family="Helvetica,sans-Serif" font-size="10.00">/typeClassDefs/wb_vision</text>
<text text-anchor="middle" x="1057.26" y="-85.5" font-family="Helvetica,sans-Serif" font-size="10.00">_detection_horizon.h</text>
</a>
</g>
</g>
<!-- Node14&#45;&gt;Node18 -->
<g id="edge34" class="edge">
<title>Node14&#45;&gt;Node18</title>
<path fill="none" stroke="midnightblue" d="M602.07,-234.5C616.03,-230.69 632.92,-226.31 648.26,-223 741.67,-202.82 768.73,-214.52 860.26,-187 913.96,-170.86 972.35,-143.77 1011.51,-124.1"/>
<polygon fill="midnightblue" stroke="midnightblue" points="1013.2,-127.16 1020.54,-119.52 1010.04,-120.92 1013.2,-127.16"/>
</g>
<!-- Node15&#45;&gt;Node3 -->
<g id="edge24" class="edge">
<title>Node15&#45;&gt;Node3</title>
<path fill="none" stroke="midnightblue" d="M766.61,-161.95C756.17,-159.78 744.81,-157.61 734.26,-156 574.87,-131.61 526.54,-170.04 373.26,-120 368.67,-118.5 364.02,-116.31 359.71,-113.92"/>
<polygon fill="midnightblue" stroke="midnightblue" points="361.28,-110.78 350.92,-108.57 357.64,-116.76 361.28,-110.78"/>
</g>
<!-- Node15&#45;&gt;Node4 -->
<g id="edge22" class="edge">
<title>Node15&#45;&gt;Node4</title>
<path fill="none" stroke="midnightblue" d="M806.76,-161.95C811.4,-144.13 819.17,-102.64 799.26,-78 789.4,-65.8 702.45,-45.24 644.71,-32.71"/>
<polygon fill="midnightblue" stroke="midnightblue" points="645.16,-29.23 634.65,-30.55 643.69,-36.07 645.16,-29.23"/>
</g>
<!-- Node15&#45;&gt;Node7 -->
<g id="edge21" class="edge">
<title>Node15&#45;&gt;Node7</title>
<path fill="none" stroke="midnightblue" d="M851.28,-167.23C883.52,-162.25 924.15,-149.98 945.26,-120 956,-104.74 956.48,-92.92 945.26,-78 928.51,-55.74 857.81,-39.54 806.58,-30.45"/>
<polygon fill="midnightblue" stroke="midnightblue" points="807.07,-26.98 796.62,-28.73 805.88,-33.88 807.07,-26.98"/>
</g>
<!-- Node15&#45;&gt;Node8 -->
<g id="edge23" class="edge">
<title>Node15&#45;&gt;Node8</title>
<path fill="none" stroke="midnightblue" d="M786.65,-161.91C766.43,-151.99 732.3,-135.11 703.26,-120 699.32,-117.95 695.17,-115.75 691.13,-113.58"/>
<polygon fill="midnightblue" stroke="midnightblue" points="692.5,-110.35 682.04,-108.68 689.18,-116.51 692.5,-110.35"/>
</g>
<!-- Node16 -->
<g id="node16" class="node">
<title>Node16</title>
<g id="a_node16"><a xlink:href="line__sighting_8h.html" target="_top" xlink:title=" ">
<polygon fill="none" stroke="black" points="712.26,-89.5 712.26,-108.5 790.26,-108.5 790.26,-89.5 712.26,-89.5"/>
<text text-anchor="middle" x="751.26" y="-96.5" font-family="Helvetica,sans-Serif" font-size="10.00">line_sighting.h</text>
</a>
</g>
</g>
<!-- Node15&#45;&gt;Node16 -->
<g id="edge25" class="edge">
<title>Node15&#45;&gt;Node16</title>
<path fill="none" stroke="midnightblue" d="M797.76,-161.86C789.41,-150.76 774.74,-131.24 764.11,-117.09"/>
<polygon fill="midnightblue" stroke="midnightblue" points="766.62,-114.61 757.81,-108.72 761.02,-118.81 766.62,-114.61"/>
</g>
<!-- Node17 -->
<g id="node17" class="node">
<title>Node17</title>
<g id="a_node17"><a xlink:href="corner__sighting_8h.html" target="_top" xlink:title=" ">
<polygon fill="none" stroke="black" points="846.26,-89.5 846.26,-108.5 936.26,-108.5 936.26,-89.5 846.26,-89.5"/>
<text text-anchor="middle" x="891.26" y="-96.5" font-family="Helvetica,sans-Serif" font-size="10.00">corner_sighting.h</text>
</a>
</g>
</g>
<!-- Node15&#45;&gt;Node17 -->
<g id="edge28" class="edge">
<title>Node15&#45;&gt;Node17</title>
<path fill="none" stroke="midnightblue" d="M814.92,-161.86C829.27,-150.23 855.02,-129.36 872.61,-115.11"/>
<polygon fill="midnightblue" stroke="midnightblue" points="874.94,-117.73 880.5,-108.72 870.53,-112.29 874.94,-117.73"/>
</g>
<!-- Node15&#45;&gt;Node18 -->
<g id="edge31" class="edge">
<title>Node15&#45;&gt;Node18</title>
<path fill="none" stroke="midnightblue" d="M834.77,-162C871.25,-151.83 933.54,-134.48 982.95,-120.71"/>
<polygon fill="midnightblue" stroke="midnightblue" points="983.95,-124.06 992.65,-118 982.07,-117.32 983.95,-124.06"/>
</g>
<!-- Node16&#45;&gt;Node4 -->
<g id="edge27" class="edge">
<title>Node16&#45;&gt;Node4</title>
<path fill="none" stroke="midnightblue" d="M733.44,-89.43C705.94,-76.2 652.95,-50.71 620.58,-35.14"/>
<polygon fill="midnightblue" stroke="midnightblue" points="621.78,-31.84 611.25,-30.66 618.75,-38.14 621.78,-31.84"/>
</g>
<!-- Node16&#45;&gt;Node7 -->
<g id="edge26" class="edge">
<title>Node16&#45;&gt;Node7</title>
<path fill="none" stroke="midnightblue" d="M751.26,-89.28C751.26,-77.49 751.26,-56.13 751.26,-40.64"/>
<polygon fill="midnightblue" stroke="midnightblue" points="754.76,-40.62 751.26,-30.62 747.76,-40.62 754.76,-40.62"/>
</g>
<!-- Node17&#45;&gt;Node4 -->
<g id="edge30" class="edge">
<title>Node17&#45;&gt;Node4</title>
<path fill="none" stroke="midnightblue" d="M867.88,-89.49C857.11,-85.73 844.11,-81.39 832.26,-78 768.37,-59.73 693.66,-42.95 644.99,-32.61"/>
<polygon fill="midnightblue" stroke="midnightblue" points="645.53,-29.15 635.02,-30.5 644.08,-36 645.53,-29.15"/>
</g>
<!-- Node17&#45;&gt;Node7 -->
<g id="edge29" class="edge">
<title>Node17&#45;&gt;Node7</title>
<path fill="none" stroke="midnightblue" d="M875.47,-89.43C851.31,-76.32 804.96,-51.15 776.22,-35.55"/>
<polygon fill="midnightblue" stroke="midnightblue" points="777.66,-32.35 767.2,-30.66 774.32,-38.5 777.66,-32.35"/>
</g>
<!-- Node19&#45;&gt;Node8 -->
<g id="edge37" class="edge">
<title>Node19&#45;&gt;Node8</title>
<path fill="none" stroke="midnightblue" d="M666.26,-161.86C666.26,-151.18 666.26,-132.72 666.26,-118.73"/>
<polygon fill="midnightblue" stroke="midnightblue" points="669.76,-118.72 666.26,-108.72 662.76,-118.72 669.76,-118.72"/>
</g>
<!-- Node19&#45;&gt;Node16 -->
<g id="edge36" class="edge">
<title>Node19&#45;&gt;Node16</title>
<path fill="none" stroke="midnightblue" d="M676.68,-161.86C690.7,-150.23 715.85,-129.36 733.04,-115.11"/>
<polygon fill="midnightblue" stroke="midnightblue" points="735.29,-117.79 740.75,-108.72 730.82,-112.41 735.29,-117.79"/>
</g>
</g>
</svg>
