<?xml version="1.0" encoding="UTF-8" standalone="no"?>
<!DOCTYPE svg PUBLIC "-//W3C//DTD SVG 1.1//EN"
 "http://www.w3.org/Graphics/SVG/1.1/DTD/svg11.dtd">
<!-- Generated by graphviz version 2.49.0 (20210830.1337)
 -->
<!-- Title: gu_optional_corner_sighting Pages: 1 -->
<svg width="111pt" height="204pt"
 viewBox="0.00 0.00 111.00 204.00" xmlns="http://www.w3.org/2000/svg" xmlns:xlink="http://www.w3.org/1999/xlink">
<g id="graph0" class="graph" transform="scale(1 1) rotate(0) translate(4 200)">
<title>gu_optional_corner_sighting</title>
<!-- Node1 -->
<g id="node1" class="node">
<title>Node1</title>
<g id="a_node1"><a xlink:title=" ">
<polygon fill="#bfbfbf" stroke="black" points="2.5,-0.5 2.5,-68.5 100.5,-68.5 100.5,-0.5 2.5,-0.5"/>
<text text-anchor="start" x="10.5" y="-56.5" font-family="Helvetica,sans-Serif" font-size="10.00">gu_optional_corner</text>
<text text-anchor="middle" x="51.5" y="-45.5" font-family="Helvetica,sans-Serif" font-size="10.00">_sighting</text>
<polyline fill="none" stroke="black" points="2.5,-38.5 100.5,-38.5 "/>
<text text-anchor="start" x="10.5" y="-26.5" font-family="Helvetica,sans-Serif" font-size="10.00">+ has_value</text>
<polyline fill="none" stroke="black" points="2.5,-19.5 100.5,-19.5 "/>
<text text-anchor="middle" x="51.5" y="-7.5" font-family="Helvetica,sans-Serif" font-size="10.00"> </text>
</a>
</g>
</g>
<!-- Node2 -->
<g id="node2" class="node">
<title>Node2</title>
<g id="a_node2"><a xlink:href="structgu__corner__sighting.html" target="_top" xlink:title=" ">
<polygon fill="none" stroke="black" points="0,-116.5 0,-195.5 103,-195.5 103,-116.5 0,-116.5"/>
<text text-anchor="middle" x="51.5" y="-183.5" font-family="Helvetica,sans-Serif" font-size="10.00">gu_corner_sighting</text>
<polyline fill="none" stroke="black" points="0,-176.5 103,-176.5 "/>
<text text-anchor="start" x="8" y="-164.5" font-family="Helvetica,sans-Serif" font-size="10.00">+ leftOrBottomPoint</text>
<text text-anchor="start" x="8" y="-153.5" font-family="Helvetica,sans-Serif" font-size="10.00">+ centerPoint</text>
<text text-anchor="start" x="8" y="-142.5" font-family="Helvetica,sans-Serif" font-size="10.00">+ rightOrTopPoint</text>
<polyline fill="none" stroke="black" points="0,-135.5 103,-135.5 "/>
<text text-anchor="middle" x="51.5" y="-123.5" font-family="Helvetica,sans-Serif" font-size="10.00"> </text>
</a>
</g>
</g>
<!-- Node2&#45;&gt;Node1 -->
<g id="edge1" class="edge">
<title>Node2&#45;&gt;Node1</title>
<path fill="none" stroke="#404040" d="M51.5,-116.2C51.5,-104.99 51.5,-92.65 51.5,-81.07"/>
<polygon fill="none" stroke="#404040" points="51.5,-80.89 47.5,-74.89 51.5,-68.89 55.5,-74.89 51.5,-80.89"/>
<text text-anchor="middle" x="67.5" y="-90" font-family="Helvetica,sans-Serif" font-size="10.00"> +value</text>
</g>
</g>
</svg>
