<?xml version="1.0" encoding="UTF-8" standalone="no"?>
<!DOCTYPE svg PUBLIC "-//W3C//DTD SVG 1.1//EN"
 "http://www.w3.org/Graphics/SVG/1.1/DTD/svg11.dtd">
<!-- Generated by graphviz version 2.49.0 (20210830.1337)
 -->
<!-- Title: gu_soccer_locations Pages: 1 -->
<svg width="118pt" height="303pt"
 viewBox="0.00 0.00 118.00 303.00" xmlns="http://www.w3.org/2000/svg" xmlns:xlink="http://www.w3.org/1999/xlink">
<g id="graph0" class="graph" transform="scale(1 1) rotate(0) translate(4 299)">
<title>gu_soccer_locations</title>
<!-- Node1 -->
<g id="node1" class="node">
<title>Node1</title>
<g id="a_node1"><a xlink:title=" ">
<polygon fill="#bfbfbf" stroke="black" points="2,-204.5 2,-294.5 108,-294.5 108,-204.5 2,-204.5"/>
<text text-anchor="middle" x="55" y="-282.5" font-family="Helvetica,sans-Serif" font-size="10.00">gu_soccer_locations</text>
<polyline fill="none" stroke="black" points="2,-275.5 108,-275.5 "/>
<text text-anchor="start" x="10" y="-263.5" font-family="Helvetica,sans-Serif" font-size="10.00">+ ball</text>
<text text-anchor="start" x="10" y="-252.5" font-family="Helvetica,sans-Serif" font-size="10.00">+ leftGoalPost</text>
<text text-anchor="start" x="10" y="-241.5" font-family="Helvetica,sans-Serif" font-size="10.00">+ rightGoalPost</text>
<text text-anchor="start" x="10" y="-230.5" font-family="Helvetica,sans-Serif" font-size="10.00">+ goal</text>
<polyline fill="none" stroke="black" points="2,-223.5 108,-223.5 "/>
<text text-anchor="middle" x="55" y="-211.5" font-family="Helvetica,sans-Serif" font-size="10.00"> </text>
</a>
</g>
</g>
<!-- Node2 -->
<g id="node2" class="node">
<title>Node2</title>
<g id="a_node2"><a xlink:href="struct_g_u_1_1_soccer_locations.html" target="_top" xlink:title=" ">
<polygon fill="none" stroke="black" points="0,-0.5 0,-167.5 110,-167.5 110,-0.5 0,-0.5"/>
<text text-anchor="middle" x="55" y="-155.5" font-family="Helvetica,sans-Serif" font-size="10.00">GU::SoccerLocations</text>
<polyline fill="none" stroke="black" points="0,-148.5 110,-148.5 "/>
<text text-anchor="middle" x="55" y="-136.5" font-family="Helvetica,sans-Serif" font-size="10.00"> </text>
<polyline fill="none" stroke="black" points="0,-129.5 110,-129.5 "/>
<text text-anchor="start" x="8" y="-117.5" font-family="Helvetica,sans-Serif" font-size="10.00">+ SoccerLocations()</text>
<text text-anchor="start" x="8" y="-106.5" font-family="Helvetica,sans-Serif" font-size="10.00">+ SoccerLocations()</text>
<text text-anchor="start" x="8" y="-95.5" font-family="Helvetica,sans-Serif" font-size="10.00">+ SoccerLocations()</text>
<text text-anchor="start" x="8" y="-84.5" font-family="Helvetica,sans-Serif" font-size="10.00">+ SoccerLocations()</text>
<text text-anchor="start" x="8" y="-73.5" font-family="Helvetica,sans-Serif" font-size="10.00">+ SoccerLocations()</text>
<text text-anchor="start" x="8" y="-62.5" font-family="Helvetica,sans-Serif" font-size="10.00">+ SoccerLocations()</text>
<text text-anchor="start" x="8" y="-51.5" font-family="Helvetica,sans-Serif" font-size="10.00">+ ~SoccerLocations()</text>
<text text-anchor="start" x="8" y="-40.5" font-family="Helvetica,sans-Serif" font-size="10.00">+ operator=()</text>
<text text-anchor="start" x="8" y="-29.5" font-family="Helvetica,sans-Serif" font-size="10.00">+ operator=()</text>
<text text-anchor="start" x="8" y="-18.5" font-family="Helvetica,sans-Serif" font-size="10.00">+ operator=()</text>
<text text-anchor="start" x="8" y="-7.5" font-family="Helvetica,sans-Serif" font-size="10.00">and 16 more...</text>
</a>
</g>
</g>
<!-- Node1&#45;&gt;Node2 -->
<g id="edge1" class="edge">
<title>Node1&#45;&gt;Node2</title>
<path fill="none" stroke="midnightblue" d="M55,-194.13C55,-185.63 55,-176.68 55,-167.72"/>
<polygon fill="none" stroke="midnightblue" points="51.5,-194.25 55,-204.25 58.5,-194.25 51.5,-194.25"/>
</g>
</g>
</svg>
