<?xml version="1.0" encoding="UTF-8" standalone="no"?>
<!DOCTYPE svg PUBLIC "-//W3C//DTD SVG 1.1//EN"
 "http://www.w3.org/Graphics/SVG/1.1/DTD/svg11.dtd">
<!-- Generated by graphviz version 2.49.0 (20210830.1337)
 -->
<!-- Title: gu_horizon_sighting Pages: 1 -->
<svg width="235pt" height="193pt"
 viewBox="0.00 0.00 234.50 193.00" xmlns="http://www.w3.org/2000/svg" xmlns:xlink="http://www.w3.org/1999/xlink">
<g id="graph0" class="graph" transform="scale(1 1) rotate(0) translate(4 189)">
<title>gu_horizon_sighting</title>
<!-- Node1 -->
<g id="node1" class="node">
<title>Node1</title>
<g id="a_node1"><a xlink:title=" ">
<polygon fill="#bfbfbf" stroke="black" points="60.5,-0.5 60.5,-57.5 162.5,-57.5 162.5,-0.5 60.5,-0.5"/>
<text text-anchor="middle" x="111.5" y="-45.5" font-family="Helvetica,sans-Serif" font-size="10.00">gu_horizon_sighting</text>
<polyline fill="none" stroke="black" points="60.5,-38.5 162.5,-38.5 "/>
<text text-anchor="start" x="68.5" y="-26.5" font-family="Helvetica,sans-Serif" font-size="10.00">+ sightingType</text>
<polyline fill="none" stroke="black" points="60.5,-19.5 162.5,-19.5 "/>
<text text-anchor="middle" x="111.5" y="-7.5" font-family="Helvetica,sans-Serif" font-size="10.00"> </text>
</a>
</g>
</g>
<!-- Node2 -->
<g id="node2" class="node">
<title>Node2</title>
<g id="a_node2"><a xlink:href="structgu__line__sighting.html" target="_top" xlink:title=" ">
<polygon fill="none" stroke="black" points="0,-111 0,-179 103,-179 103,-111 0,-111"/>
<text text-anchor="middle" x="51.5" y="-167" font-family="Helvetica,sans-Serif" font-size="10.00">gu_line_sighting</text>
<polyline fill="none" stroke="black" points="0,-160 103,-160 "/>
<text text-anchor="start" x="8" y="-148" font-family="Helvetica,sans-Serif" font-size="10.00">+ leftOrBottomPoint</text>
<text text-anchor="start" x="8" y="-137" font-family="Helvetica,sans-Serif" font-size="10.00">+ rightOrTopPoint</text>
<polyline fill="none" stroke="black" points="0,-130 103,-130 "/>
<text text-anchor="middle" x="51.5" y="-118" font-family="Helvetica,sans-Serif" font-size="10.00"> </text>
</a>
</g>
</g>
<!-- Node2&#45;&gt;Node1 -->
<g id="edge1" class="edge">
<title>Node2&#45;&gt;Node1</title>
<path fill="none" stroke="#404040" d="M69.02,-110.72C75.93,-97.58 83.93,-82.38 91.11,-68.75"/>
<polygon fill="none" stroke="#404040" points="91.31,-68.36 90.56,-61.19 96.9,-57.74 97.64,-64.91 91.31,-68.36"/>
<text text-anchor="middle" x="117" y="-79" font-family="Helvetica,sans-Serif" font-size="10.00"> +lineSighting</text>
</g>
<!-- Node3 -->
<g id="node3" class="node">
<title>Node3</title>
<g id="a_node3"><a xlink:href="structgu__corner__sighting.html" target="_top" xlink:title=" ">
<polygon fill="none" stroke="black" points="121,-105.5 121,-184.5 224,-184.5 224,-105.5 121,-105.5"/>
<text text-anchor="middle" x="172.5" y="-172.5" font-family="Helvetica,sans-Serif" font-size="10.00">gu_corner_sighting</text>
<polyline fill="none" stroke="black" points="121,-165.5 224,-165.5 "/>
<text text-anchor="start" x="129" y="-153.5" font-family="Helvetica,sans-Serif" font-size="10.00">+ leftOrBottomPoint</text>
<text text-anchor="start" x="129" y="-142.5" font-family="Helvetica,sans-Serif" font-size="10.00">+ centerPoint</text>
<text text-anchor="start" x="129" y="-131.5" font-family="Helvetica,sans-Serif" font-size="10.00">+ rightOrTopPoint</text>
<polyline fill="none" stroke="black" points="121,-124.5 224,-124.5 "/>
<text text-anchor="middle" x="172.5" y="-112.5" font-family="Helvetica,sans-Serif" font-size="10.00"> </text>
</a>
</g>
</g>
<!-- Node3&#45;&gt;Node1 -->
<g id="edge2" class="edge">
<title>Node3&#45;&gt;Node1</title>
<path fill="none" stroke="#404040" d="M162.92,-105.49C159.68,-95.56 155.57,-85.11 150.5,-76 148.91,-73.14 147.12,-70.29 145.22,-67.5"/>
<polygon fill="none" stroke="#404040" points="145.07,-67.3 138.28,-64.87 137.9,-57.67 144.69,-60.1 145.07,-67.3"/>
<text text-anchor="middle" x="191" y="-79" font-family="Helvetica,sans-Serif" font-size="10.00"> +cornerSighting</text>
</g>
</g>
</svg>
