<?xml version="1.0" encoding="UTF-8" standalone="no"?>
<!DOCTYPE svg PUBLIC "-//W3C//DTD SVG 1.1//EN"
 "http://www.w3.org/Graphics/SVG/1.1/DTD/svg11.dtd">
<!-- Generated by graphviz version 2.49.0 (20210830.1337)
 -->
<!-- Title: gu_nao Pages: 1 -->
<svg width="1429pt" height="662pt"
 viewBox="0.00 0.00 1429.00 662.00" xmlns="http://www.w3.org/2000/svg" xmlns:xlink="http://www.w3.org/1999/xlink">
<g id="graph0" class="graph" transform="scale(1 1) rotate(0) translate(4 658)">
<title>gu_nao</title>
<!-- Node1 -->
<g id="node1" class="node">
<title>Node1</title>
<g id="a_node1"><a xlink:title=" ">
<polygon fill="#bfbfbf" stroke="black" points="619,-0.5 619,-68.5 704,-68.5 704,-0.5 619,-0.5"/>
<text text-anchor="middle" x="661.5" y="-56.5" font-family="Helvetica,sans-Serif" font-size="10.00">gu_nao</text>
<polyline fill="none" stroke="black" points="619,-49.5 704,-49.5 "/>
<text text-anchor="start" x="627" y="-37.5" font-family="Helvetica,sans-Serif" font-size="10.00">+ playerNumber</text>
<text text-anchor="start" x="627" y="-26.5" font-family="Helvetica,sans-Serif" font-size="10.00">+ fieldPosition</text>
<polyline fill="none" stroke="black" points="619,-19.5 704,-19.5 "/>
<text text-anchor="middle" x="661.5" y="-7.5" font-family="Helvetica,sans-Serif" font-size="10.00"> </text>
</a>
</g>
</g>
<!-- Node2 -->
<g id="node2" class="node">
<title>Node2</title>
<g id="a_node2"><a xlink:href="structgu__optional__ball__position.html" target="_top" xlink:title="Provides the ability to specify whether we have a valid value for a gu_ball_position or not.">
<polygon fill="none" stroke="black" points="284,-160.5 284,-217.5 409,-217.5 409,-160.5 284,-160.5"/>
<text text-anchor="middle" x="346.5" y="-205.5" font-family="Helvetica,sans-Serif" font-size="10.00">gu_optional_ball_position</text>
<polyline fill="none" stroke="black" points="284,-198.5 409,-198.5 "/>
<text text-anchor="start" x="292" y="-186.5" font-family="Helvetica,sans-Serif" font-size="10.00">+ has_value</text>
<polyline fill="none" stroke="black" points="284,-179.5 409,-179.5 "/>
<text text-anchor="middle" x="346.5" y="-167.5" font-family="Helvetica,sans-Serif" font-size="10.00"> </text>
</a>
</g>
</g>
<!-- Node2&#45;&gt;Node1 -->
<g id="edge1" class="edge">
<title>Node2&#45;&gt;Node1</title>
<path fill="none" stroke="#404040" d="M403.54,-160.38C461.55,-132.3 550.76,-89.11 607.61,-61.59"/>
<polygon fill="none" stroke="#404040" points="607.73,-61.53 611.38,-55.32 618.53,-56.3 614.87,-62.52 607.73,-61.53"/>
<text text-anchor="middle" x="581" y="-95.5" font-family="Helvetica,sans-Serif" font-size="10.00"> +ballPosition</text>
</g>
<!-- Node3 -->
<g id="node3" class="node">
<title>Node3</title>
<g id="a_node3"><a xlink:href="structgu__ball__position.html" target="_top" xlink:title="A data structure representing the position and orientation of the soccer ball on the soccer field.">
<polygon fill="none" stroke="black" points="110.5,-326 110.5,-383 196.5,-383 196.5,-326 110.5,-326"/>
<text text-anchor="middle" x="153.5" y="-371" font-family="Helvetica,sans-Serif" font-size="10.00">gu_ball_position</text>
<polyline fill="none" stroke="black" points="110.5,-364 196.5,-364 "/>
<text text-anchor="start" x="118.5" y="-352" font-family="Helvetica,sans-Serif" font-size="10.00">+ position</text>
<polyline fill="none" stroke="black" points="110.5,-345 196.5,-345 "/>
<text text-anchor="middle" x="153.5" y="-333" font-family="Helvetica,sans-Serif" font-size="10.00"> </text>
</a>
</g>
</g>
<!-- Node3&#45;&gt;Node2 -->
<g id="edge2" class="edge">
<title>Node3&#45;&gt;Node2</title>
<path fill="none" stroke="#404040" d="M186.24,-325.76C218.78,-298.2 268.82,-255.8 304.32,-225.73"/>
<polygon fill="none" stroke="#404040" points="304.77,-225.35 306.76,-218.42 313.92,-217.6 311.93,-224.53 304.77,-225.35"/>
<text text-anchor="middle" x="266.5" y="-283" font-family="Helvetica,sans-Serif" font-size="10.00"> +value</text>
</g>
<!-- Node4 -->
<g id="node4" class="node">
<title>Node4</title>
<g id="a_node4"><a xlink:href="structgu__orientation.html" target="_top" xlink:title="The configuration of the orientation of the object with respect to the three angular coordinates.">
<polygon fill="none" stroke="black" points="0,-442 0,-521 77,-521 77,-442 0,-442"/>
<text text-anchor="middle" x="38.5" y="-509" font-family="Helvetica,sans-Serif" font-size="10.00">gu_orientation</text>
<polyline fill="none" stroke="black" points="0,-502 77,-502 "/>
<text text-anchor="start" x="8" y="-490" font-family="Helvetica,sans-Serif" font-size="10.00">+ pitch</text>
<text text-anchor="start" x="8" y="-479" font-family="Helvetica,sans-Serif" font-size="10.00">+ yaw</text>
<text text-anchor="start" x="8" y="-468" font-family="Helvetica,sans-Serif" font-size="10.00">+ roll</text>
<polyline fill="none" stroke="black" points="0,-461 77,-461 "/>
<text text-anchor="middle" x="38.5" y="-449" font-family="Helvetica,sans-Serif" font-size="10.00"> </text>
</a>
</g>
</g>
<!-- Node4&#45;&gt;Node3 -->
<g id="edge3" class="edge">
<title>Node4&#45;&gt;Node3</title>
<path fill="none" stroke="#404040" d="M41.12,-441.92C43.51,-429.78 47.82,-416.96 55.5,-407 66.66,-392.53 83.05,-381.71 99.24,-373.82"/>
<polygon fill="none" stroke="#404040" points="99.41,-373.74 103.23,-367.63 110.35,-368.81 106.52,-374.92 99.41,-373.74"/>
<text text-anchor="middle" x="82.5" y="-410" font-family="Helvetica,sans-Serif" font-size="10.00"> +orientation</text>
</g>
<!-- Node5 -->
<g id="node5" class="node">
<title>Node5</title>
<g id="a_node5"><a xlink:href="structgu__nao__joints.html" target="_top" xlink:title=" ">
<polygon fill="none" stroke="black" points="541,-160.5 541,-217.5 618,-217.5 618,-160.5 541,-160.5"/>
<text text-anchor="middle" x="579.5" y="-205.5" font-family="Helvetica,sans-Serif" font-size="10.00">gu_nao_joints</text>
<polyline fill="none" stroke="black" points="541,-198.5 618,-198.5 "/>
<text text-anchor="middle" x="579.5" y="-186.5" font-family="Helvetica,sans-Serif" font-size="10.00"> </text>
<polyline fill="none" stroke="black" points="541,-179.5 618,-179.5 "/>
<text text-anchor="middle" x="579.5" y="-167.5" font-family="Helvetica,sans-Serif" font-size="10.00"> </text>
</a>
</g>
</g>
<!-- Node5&#45;&gt;Node1 -->
<g id="edge4" class="edge">
<title>Node5&#45;&gt;Node1</title>
<path fill="none" stroke="#404040" d="M594.35,-160.38C606.46,-137.85 623.81,-105.6 637.83,-79.51"/>
<polygon fill="none" stroke="#404040" points="637.93,-79.33 637.25,-72.15 643.62,-68.76 644.3,-75.94 637.93,-79.33"/>
<text text-anchor="middle" x="649.5" y="-95.5" font-family="Helvetica,sans-Serif" font-size="10.00"> +joints</text>
</g>
<!-- Node6 -->
<g id="node6" class="node">
<title>Node6</title>
<g id="a_node6"><a xlink:href="structgu__nao__head.html" target="_top" xlink:title=" ">
<polygon fill="none" stroke="black" points="731.5,-326 731.5,-383 805.5,-383 805.5,-326 731.5,-326"/>
<text text-anchor="middle" x="768.5" y="-371" font-family="Helvetica,sans-Serif" font-size="10.00">gu_nao_head</text>
<polyline fill="none" stroke="black" points="731.5,-364 805.5,-364 "/>
<text text-anchor="middle" x="768.5" y="-352" font-family="Helvetica,sans-Serif" font-size="10.00"> </text>
<polyline fill="none" stroke="black" points="731.5,-345 805.5,-345 "/>
<text text-anchor="middle" x="768.5" y="-333" font-family="Helvetica,sans-Serif" font-size="10.00"> </text>
</a>
</g>
</g>
<!-- Node6&#45;&gt;Node5 -->
<g id="edge5" class="edge">
<title>Node6&#45;&gt;Node5</title>
<path fill="none" stroke="#404040" d="M731.32,-330.55C701.57,-311.27 659.66,-281.96 627.5,-251 620.11,-243.89 612.88,-235.62 606.36,-227.51"/>
<polygon fill="none" stroke="#404040" points="606.16,-227.25 599.32,-224.97 598.8,-217.78 605.64,-220.06 606.16,-227.25"/>
<text text-anchor="middle" x="701.5" y="-283" font-family="Helvetica,sans-Serif" font-size="10.00"> +head</text>
</g>
<!-- Node7 -->
<g id="node7" class="node">
<title>Node7</title>
<g id="a_node7"><a xlink:href="structgu__pitch__yaw__joint.html" target="_top" xlink:title=" ">
<polygon fill="none" stroke="black" points="719,-447.5 719,-515.5 818,-515.5 818,-447.5 719,-447.5"/>
<text text-anchor="middle" x="768.5" y="-503.5" font-family="Helvetica,sans-Serif" font-size="10.00">gu_pitch_yaw_joint</text>
<polyline fill="none" stroke="black" points="719,-496.5 818,-496.5 "/>
<text text-anchor="start" x="727" y="-484.5" font-family="Helvetica,sans-Serif" font-size="10.00">+ pitch</text>
<text text-anchor="start" x="727" y="-473.5" font-family="Helvetica,sans-Serif" font-size="10.00">+ yaw</text>
<polyline fill="none" stroke="black" points="719,-466.5 818,-466.5 "/>
<text text-anchor="middle" x="768.5" y="-454.5" font-family="Helvetica,sans-Serif" font-size="10.00"> </text>
</a>
</g>
</g>
<!-- Node7&#45;&gt;Node6 -->
<g id="edge6" class="edge">
<title>Node7&#45;&gt;Node6</title>
<path fill="none" stroke="#404040" d="M768.5,-447.33C768.5,-431.42 768.5,-412.24 768.5,-395.52"/>
<polygon fill="none" stroke="#404040" points="768.5,-395.32 764.5,-389.32 768.5,-383.32 772.5,-389.32 768.5,-395.32"/>
<text text-anchor="middle" x="783.5" y="-410" font-family="Helvetica,sans-Serif" font-size="10.00"> +neck</text>
</g>
<!-- Node8 -->
<g id="node8" class="node">
<title>Node8</title>
<g id="a_node8"><a xlink:href="structgu__nao__head__sensors.html" target="_top" xlink:title=" ">
<polygon fill="none" stroke="black" points="836.5,-442 836.5,-521 950.5,-521 950.5,-442 836.5,-442"/>
<text text-anchor="middle" x="893.5" y="-509" font-family="Helvetica,sans-Serif" font-size="10.00">gu_nao_head_sensors</text>
<polyline fill="none" stroke="black" points="836.5,-502 950.5,-502 "/>
<text text-anchor="start" x="844.5" y="-490" font-family="Helvetica,sans-Serif" font-size="10.00">+ touchFront</text>
<text text-anchor="start" x="844.5" y="-479" font-family="Helvetica,sans-Serif" font-size="10.00">+ touchMiddle</text>
<text text-anchor="start" x="844.5" y="-468" font-family="Helvetica,sans-Serif" font-size="10.00">+ touchRear</text>
<polyline fill="none" stroke="black" points="836.5,-461 950.5,-461 "/>
<text text-anchor="middle" x="893.5" y="-449" font-family="Helvetica,sans-Serif" font-size="10.00"> </text>
</a>
</g>
</g>
<!-- Node8&#45;&gt;Node6 -->
<g id="edge7" class="edge">
<title>Node8&#45;&gt;Node6</title>
<path fill="none" stroke="#404040" d="M854.98,-441.98C839.15,-426.15 820.9,-407.9 805.25,-392.25"/>
<polygon fill="none" stroke="#404040" points="804.87,-391.87 797.8,-390.45 796.38,-383.38 803.45,-384.8 804.87,-391.87"/>
<text text-anchor="middle" x="852" y="-410" font-family="Helvetica,sans-Serif" font-size="10.00"> +buttons</text>
</g>
<!-- Node9 -->
<g id="node9" class="node">
<title>Node9</title>
<g id="a_node9"><a xlink:href="structgu__nao__arm.html" target="_top" xlink:title=" ">
<polygon fill="none" stroke="black" points="329.5,-326 329.5,-383 399.5,-383 399.5,-326 329.5,-326"/>
<text text-anchor="middle" x="364.5" y="-371" font-family="Helvetica,sans-Serif" font-size="10.00">gu_nao_arm</text>
<polyline fill="none" stroke="black" points="329.5,-364 399.5,-364 "/>
<text text-anchor="middle" x="364.5" y="-352" font-family="Helvetica,sans-Serif" font-size="10.00"> </text>
<polyline fill="none" stroke="black" points="329.5,-345 399.5,-345 "/>
<text text-anchor="middle" x="364.5" y="-333" font-family="Helvetica,sans-Serif" font-size="10.00"> </text>
</a>
</g>
</g>
<!-- Node9&#45;&gt;Node5 -->
<g id="edge8" class="edge">
<title>Node9&#45;&gt;Node5</title>
<path fill="none" stroke="#404040" d="M399.52,-326.87C436.02,-299.11 493.37,-255.5 533.5,-224.98"/>
<polygon fill="none" stroke="#404040" points="533.5,-224.98 535.86,-218.16 543.05,-217.72 540.7,-224.53 533.5,-224.98"/>
<text text-anchor="middle" x="494" y="-288.5" font-family="Helvetica,sans-Serif" font-size="10.00"> +leftArm</text>
<text text-anchor="middle" x="494" y="-277.5" font-family="Helvetica,sans-Serif" font-size="10.00">+rightArm</text>
</g>
<!-- Node10 -->
<g id="node10" class="node">
<title>Node10</title>
<g id="a_node10"><a xlink:href="structgu__pitch__roll__joint.html" target="_top" xlink:title=" ">
<polygon fill="none" stroke="black" points="428,-447.5 428,-515.5 523,-515.5 523,-447.5 428,-447.5"/>
<text text-anchor="middle" x="475.5" y="-503.5" font-family="Helvetica,sans-Serif" font-size="10.00">gu_pitch_roll_joint</text>
<polyline fill="none" stroke="black" points="428,-496.5 523,-496.5 "/>
<text text-anchor="start" x="436" y="-484.5" font-family="Helvetica,sans-Serif" font-size="10.00">+ pitch</text>
<text text-anchor="start" x="436" y="-473.5" font-family="Helvetica,sans-Serif" font-size="10.00">+ roll</text>
<polyline fill="none" stroke="black" points="428,-466.5 523,-466.5 "/>
<text text-anchor="middle" x="475.5" y="-454.5" font-family="Helvetica,sans-Serif" font-size="10.00"> </text>
</a>
</g>
</g>
<!-- Node10&#45;&gt;Node9 -->
<g id="edge9" class="edge">
<title>Node10&#45;&gt;Node9</title>
<path fill="none" stroke="#404040" d="M446.05,-447.33C431.09,-430.49 412.87,-409.97 397.45,-392.6"/>
<polygon fill="none" stroke="#404040" points="397.17,-392.29 390.2,-390.46 389.21,-383.32 396.18,-385.15 397.17,-392.29"/>
<text text-anchor="middle" x="443.5" y="-410" font-family="Helvetica,sans-Serif" font-size="10.00"> +shoulder</text>
</g>
<!-- Node14 -->
<g id="node14" class="node">
<title>Node14</title>
<g id="a_node14"><a xlink:href="structgu__nao__leg.html" target="_top" xlink:title=" ">
<polygon fill="none" stroke="black" points="546.5,-326 546.5,-383 612.5,-383 612.5,-326 546.5,-326"/>
<text text-anchor="middle" x="579.5" y="-371" font-family="Helvetica,sans-Serif" font-size="10.00">gu_nao_leg</text>
<polyline fill="none" stroke="black" points="546.5,-364 612.5,-364 "/>
<text text-anchor="middle" x="579.5" y="-352" font-family="Helvetica,sans-Serif" font-size="10.00"> </text>
<polyline fill="none" stroke="black" points="546.5,-345 612.5,-345 "/>
<text text-anchor="middle" x="579.5" y="-333" font-family="Helvetica,sans-Serif" font-size="10.00"> </text>
</a>
</g>
</g>
<!-- Node10&#45;&gt;Node14 -->
<g id="edge16" class="edge">
<title>Node10&#45;&gt;Node14</title>
<path fill="none" stroke="#404040" d="M503.1,-447.33C517.11,-430.49 534.18,-409.97 548.63,-392.6"/>
<polygon fill="none" stroke="#404040" points="548.68,-392.55 549.44,-385.38 556.35,-383.32 555.59,-390.49 548.68,-392.55"/>
<text text-anchor="middle" x="550.5" y="-410" font-family="Helvetica,sans-Serif" font-size="10.00"> +ankle</text>
</g>
<!-- Node11 -->
<g id="node11" class="node">
<title>Node11</title>
<g id="a_node11"><a xlink:href="structgu__yaw__roll__joint.html" target="_top" xlink:title=" ">
<polygon fill="none" stroke="black" points="319,-447.5 319,-515.5 410,-515.5 410,-447.5 319,-447.5"/>
<text text-anchor="middle" x="364.5" y="-503.5" font-family="Helvetica,sans-Serif" font-size="10.00">gu_yaw_roll_joint</text>
<polyline fill="none" stroke="black" points="319,-496.5 410,-496.5 "/>
<text text-anchor="start" x="327" y="-484.5" font-family="Helvetica,sans-Serif" font-size="10.00">+ yaw</text>
<text text-anchor="start" x="327" y="-473.5" font-family="Helvetica,sans-Serif" font-size="10.00">+ roll</text>
<polyline fill="none" stroke="black" points="319,-466.5 410,-466.5 "/>
<text text-anchor="middle" x="364.5" y="-454.5" font-family="Helvetica,sans-Serif" font-size="10.00"> </text>
</a>
</g>
</g>
<!-- Node11&#45;&gt;Node9 -->
<g id="edge10" class="edge">
<title>Node11&#45;&gt;Node9</title>
<path fill="none" stroke="#404040" d="M364.5,-447.33C364.5,-431.42 364.5,-412.24 364.5,-395.52"/>
<polygon fill="none" stroke="#404040" points="364.5,-395.32 360.5,-389.32 364.5,-383.32 368.5,-389.32 364.5,-395.32"/>
<text text-anchor="middle" x="381.5" y="-410" font-family="Helvetica,sans-Serif" font-size="10.00"> +elbow</text>
</g>
<!-- Node12 -->
<g id="node12" class="node">
<title>Node12</title>
<g id="a_node12"><a xlink:href="structgu__yaw__joint.html" target="_top" xlink:title=" ">
<polygon fill="none" stroke="black" points="95,-453 95,-510 168,-510 168,-453 95,-453"/>
<text text-anchor="middle" x="131.5" y="-498" font-family="Helvetica,sans-Serif" font-size="10.00">gu_yaw_joint</text>
<polyline fill="none" stroke="black" points="95,-491 168,-491 "/>
<text text-anchor="start" x="103" y="-479" font-family="Helvetica,sans-Serif" font-size="10.00">+ yaw</text>
<polyline fill="none" stroke="black" points="95,-472 168,-472 "/>
<text text-anchor="middle" x="131.5" y="-460" font-family="Helvetica,sans-Serif" font-size="10.00"> </text>
</a>
</g>
</g>
<!-- Node12&#45;&gt;Node9 -->
<g id="edge11" class="edge">
<title>Node12&#45;&gt;Node9</title>
<path fill="none" stroke="#404040" d="M156.83,-452.85C163.2,-446.81 170.29,-440.81 177.5,-436 221.71,-406.55 278.47,-383.93 317.8,-370.27"/>
<polygon fill="none" stroke="#404040" points="317.8,-370.27 322.2,-364.55 329.17,-366.41 324.77,-372.13 317.8,-370.27"/>
<text text-anchor="middle" x="241.5" y="-410" font-family="Helvetica,sans-Serif" font-size="10.00"> +wrist</text>
</g>
<!-- Node13 -->
<g id="node13" class="node">
<title>Node13</title>
<g id="a_node13"><a xlink:href="structgu__nao__hand__sensors.html" target="_top" xlink:title=" ">
<polygon fill="none" stroke="black" points="186.5,-442 186.5,-521 300.5,-521 300.5,-442 186.5,-442"/>
<text text-anchor="middle" x="243.5" y="-509" font-family="Helvetica,sans-Serif" font-size="10.00">gu_nao_hand_sensors</text>
<polyline fill="none" stroke="black" points="186.5,-502 300.5,-502 "/>
<text text-anchor="start" x="194.5" y="-490" font-family="Helvetica,sans-Serif" font-size="10.00">+ touchLeft</text>
<text text-anchor="start" x="194.5" y="-479" font-family="Helvetica,sans-Serif" font-size="10.00">+ touchBack</text>
<text text-anchor="start" x="194.5" y="-468" font-family="Helvetica,sans-Serif" font-size="10.00">+ touchRight</text>
<polyline fill="none" stroke="black" points="186.5,-461 300.5,-461 "/>
<text text-anchor="middle" x="243.5" y="-449" font-family="Helvetica,sans-Serif" font-size="10.00"> </text>
</a>
</g>
</g>
<!-- Node13&#45;&gt;Node9 -->
<g id="edge12" class="edge">
<title>Node13&#45;&gt;Node9</title>
<path fill="none" stroke="#404040" d="M280.79,-441.98C296.12,-426.15 313.78,-407.9 328.92,-392.25"/>
<polygon fill="none" stroke="#404040" points="329.16,-392 330.46,-384.91 337.51,-383.38 336.21,-390.48 329.16,-392"/>
<text text-anchor="middle" x="326.5" y="-410" font-family="Helvetica,sans-Serif" font-size="10.00"> +hand</text>
</g>
<!-- Node14&#45;&gt;Node5 -->
<g id="edge13" class="edge">
<title>Node14&#45;&gt;Node5</title>
<path fill="none" stroke="#404040" d="M579.5,-325.76C579.5,-299.38 579.5,-259.4 579.5,-229.65"/>
<polygon fill="none" stroke="#404040" points="579.5,-229.6 575.5,-223.6 579.5,-217.6 583.5,-223.6 579.5,-229.6"/>
<text text-anchor="middle" x="600.5" y="-288.5" font-family="Helvetica,sans-Serif" font-size="10.00"> +leftLeg</text>
<text text-anchor="middle" x="600.5" y="-277.5" font-family="Helvetica,sans-Serif" font-size="10.00">+rightLeg</text>
</g>
<!-- Node15 -->
<g id="node15" class="node">
<title>Node15</title>
<g id="a_node15"><a xlink:href="structgu__yp__joint.html" target="_top" xlink:title=" ">
<polygon fill="none" stroke="black" points="636,-442 636,-521 701,-521 701,-442 636,-442"/>
<text text-anchor="middle" x="668.5" y="-509" font-family="Helvetica,sans-Serif" font-size="10.00">gu_yp_joint</text>
<polyline fill="none" stroke="black" points="636,-502 701,-502 "/>
<text text-anchor="start" x="644" y="-490" font-family="Helvetica,sans-Serif" font-size="10.00">+ pitch</text>
<text text-anchor="start" x="644" y="-479" font-family="Helvetica,sans-Serif" font-size="10.00">+ roll</text>
<text text-anchor="start" x="644" y="-468" font-family="Helvetica,sans-Serif" font-size="10.00">+ yawPitch</text>
<polyline fill="none" stroke="black" points="636,-461 701,-461 "/>
<text text-anchor="middle" x="668.5" y="-449" font-family="Helvetica,sans-Serif" font-size="10.00"> </text>
</a>
</g>
</g>
<!-- Node15&#45;&gt;Node14 -->
<g id="edge14" class="edge">
<title>Node15&#45;&gt;Node14</title>
<path fill="none" stroke="#404040" d="M641.07,-441.98C630.12,-426.59 617.53,-408.92 606.61,-393.57"/>
<polygon fill="none" stroke="#404040" points="606.31,-393.16 599.57,-390.59 599.35,-383.38 606.09,-385.95 606.31,-393.16"/>
<text text-anchor="middle" x="635.5" y="-410" font-family="Helvetica,sans-Serif" font-size="10.00"> +hip</text>
</g>
<!-- Node16 -->
<g id="node16" class="node">
<title>Node16</title>
<g id="a_node16"><a xlink:href="structgu__pitch__joint.html" target="_top" xlink:title=" ">
<polygon fill="none" stroke="black" points="541,-453 541,-510 618,-510 618,-453 541,-453"/>
<text text-anchor="middle" x="579.5" y="-498" font-family="Helvetica,sans-Serif" font-size="10.00">gu_pitch_joint</text>
<polyline fill="none" stroke="black" points="541,-491 618,-491 "/>
<text text-anchor="start" x="549" y="-479" font-family="Helvetica,sans-Serif" font-size="10.00">+ pitch</text>
<polyline fill="none" stroke="black" points="541,-472 618,-472 "/>
<text text-anchor="middle" x="579.5" y="-460" font-family="Helvetica,sans-Serif" font-size="10.00"> </text>
</a>
</g>
</g>
<!-- Node16&#45;&gt;Node14 -->
<g id="edge15" class="edge">
<title>Node16&#45;&gt;Node14</title>
<path fill="none" stroke="#404040" d="M579.5,-452.76C579.5,-435.85 579.5,-413.96 579.5,-395.23"/>
<polygon fill="none" stroke="#404040" points="579.5,-395.16 575.5,-389.16 579.5,-383.16 583.5,-389.16 579.5,-395.16"/>
<text text-anchor="middle" x="594.5" y="-410" font-family="Helvetica,sans-Serif" font-size="10.00"> +knee</text>
</g>
<!-- Node17 -->
<g id="node17" class="node">
<title>Node17</title>
<g id="a_node17"><a xlink:href="structgu__soccer__locations.html" target="_top" xlink:title=" ">
<polygon fill="none" stroke="black" points="636.5,-144 636.5,-234 742.5,-234 742.5,-144 636.5,-144"/>
<text text-anchor="middle" x="689.5" y="-222" font-family="Helvetica,sans-Serif" font-size="10.00">gu_soccer_locations</text>
<polyline fill="none" stroke="black" points="636.5,-215 742.5,-215 "/>
<text text-anchor="start" x="644.5" y="-203" font-family="Helvetica,sans-Serif" font-size="10.00">+ ball</text>
<text text-anchor="start" x="644.5" y="-192" font-family="Helvetica,sans-Serif" font-size="10.00">+ leftGoalPost</text>
<text text-anchor="start" x="644.5" y="-181" font-family="Helvetica,sans-Serif" font-size="10.00">+ rightGoalPost</text>
<text text-anchor="start" x="644.5" y="-170" font-family="Helvetica,sans-Serif" font-size="10.00">+ goal</text>
<polyline fill="none" stroke="black" points="636.5,-163 742.5,-163 "/>
<text text-anchor="middle" x="689.5" y="-151" font-family="Helvetica,sans-Serif" font-size="10.00"> </text>
</a>
</g>
</g>
<!-- Node17&#45;&gt;Node1 -->
<g id="edge17" class="edge">
<title>Node17&#45;&gt;Node1</title>
<path fill="none" stroke="#404040" d="M681.4,-143.89C677.76,-124.08 673.47,-100.72 669.81,-80.77"/>
<polygon fill="none" stroke="#404040" points="669.79,-80.65 664.77,-75.47 667.62,-68.85 672.64,-74.03 669.79,-80.65"/>
<text text-anchor="middle" x="699.5" y="-95.5" font-family="Helvetica,sans-Serif" font-size="10.00"> +locations</text>
</g>
<!-- Node18 -->
<g id="node18" class="node">
<title>Node18</title>
<g id="a_node18"><a xlink:href="structgu__soccer__sightings.html" target="_top" xlink:title=" ">
<polygon fill="none" stroke="black" points="1061.5,-127.5 1061.5,-250.5 1167.5,-250.5 1167.5,-127.5 1061.5,-127.5"/>
<text text-anchor="middle" x="1114.5" y="-238.5" font-family="Helvetica,sans-Serif" font-size="10.00">gu_soccer_sightings</text>
<polyline fill="none" stroke="black" points="1061.5,-231.5 1167.5,-231.5 "/>
<text text-anchor="start" x="1069.5" y="-219.5" font-family="Helvetica,sans-Serif" font-size="10.00">+ lineCorners</text>
<text text-anchor="start" x="1069.5" y="-208.5" font-family="Helvetica,sans-Serif" font-size="10.00">+ lineTIntersections</text>
<text text-anchor="start" x="1069.5" y="-197.5" font-family="Helvetica,sans-Serif" font-size="10.00">+ lineCrosses</text>
<text text-anchor="start" x="1069.5" y="-186.5" font-family="Helvetica,sans-Serif" font-size="10.00">+ numLines</text>
<text text-anchor="start" x="1069.5" y="-175.5" font-family="Helvetica,sans-Serif" font-size="10.00">+ numCorners</text>
<text text-anchor="start" x="1069.5" y="-164.5" font-family="Helvetica,sans-Serif" font-size="10.00">+ numTIntersections</text>
<text text-anchor="start" x="1069.5" y="-153.5" font-family="Helvetica,sans-Serif" font-size="10.00">+ numCrosses</text>
<polyline fill="none" stroke="black" points="1061.5,-146.5 1167.5,-146.5 "/>
<text text-anchor="middle" x="1114.5" y="-134.5" font-family="Helvetica,sans-Serif" font-size="10.00"> </text>
</a>
</g>
</g>
<!-- Node18&#45;&gt;Node1 -->
<g id="edge18" class="edge">
<title>Node18&#45;&gt;Node1</title>
<path fill="none" stroke="#404040" d="M1061.2,-170.06C974.33,-140.81 803.15,-83.19 715.7,-53.75"/>
<polygon fill="none" stroke="#404040" points="715.56,-53.7 708.6,-55.58 704.19,-49.87 711.15,-47.99 715.56,-53.7"/>
<text text-anchor="middle" x="931" y="-101" font-family="Helvetica,sans-Serif" font-size="10.00"> +bottomCameraSightings</text>
<text text-anchor="middle" x="931" y="-90" font-family="Helvetica,sans-Serif" font-size="10.00">+topCameraSightings</text>
</g>
<!-- Node19 -->
<g id="node19" class="node">
<title>Node19</title>
<g id="a_node19"><a xlink:href="structgu__optional__ellipse__sighting.html" target="_top" xlink:title=" ">
<polygon fill="none" stroke="black" points="946,-320.5 946,-388.5 1045,-388.5 1045,-320.5 946,-320.5"/>
<text text-anchor="start" x="954" y="-376.5" font-family="Helvetica,sans-Serif" font-size="10.00">gu_optional_ellipse</text>
<text text-anchor="middle" x="995.5" y="-365.5" font-family="Helvetica,sans-Serif" font-size="10.00">_sighting</text>
<polyline fill="none" stroke="black" points="946,-358.5 1045,-358.5 "/>
<text text-anchor="start" x="954" y="-346.5" font-family="Helvetica,sans-Serif" font-size="10.00">+ has_value</text>
<polyline fill="none" stroke="black" points="946,-339.5 1045,-339.5 "/>
<text text-anchor="middle" x="995.5" y="-327.5" font-family="Helvetica,sans-Serif" font-size="10.00"> </text>
</a>
</g>
</g>
<!-- Node19&#45;&gt;Node18 -->
<g id="edge19" class="edge">
<title>Node19&#45;&gt;Node18</title>
<path fill="none" stroke="#404040" d="M1019.58,-320.41C1032.13,-303.17 1047.98,-281.4 1063.11,-260.6"/>
<polygon fill="none" stroke="#404040" points="1063.17,-260.52 1063.47,-253.31 1070.24,-250.82 1069.94,-258.02 1063.17,-260.52"/>
<text text-anchor="middle" x="1067.5" y="-283" font-family="Helvetica,sans-Serif" font-size="10.00"> +ball</text>
</g>
<!-- Node20 -->
<g id="node20" class="node">
<title>Node20</title>
<g id="a_node20"><a xlink:href="structgu__ellipse__sighting.html" target="_top" xlink:title=" ">
<polygon fill="none" stroke="black" points="969,-442 969,-521 1068,-521 1068,-442 969,-442"/>
<text text-anchor="middle" x="1018.5" y="-509" font-family="Helvetica,sans-Serif" font-size="10.00">gu_ellipse_sighting</text>
<polyline fill="none" stroke="black" points="969,-502 1068,-502 "/>
<text text-anchor="start" x="977" y="-490" font-family="Helvetica,sans-Serif" font-size="10.00">+ centerPoint</text>
<text text-anchor="start" x="977" y="-479" font-family="Helvetica,sans-Serif" font-size="10.00">+ verticalRadius</text>
<text text-anchor="start" x="977" y="-468" font-family="Helvetica,sans-Serif" font-size="10.00">+ horizontalRadius</text>
<polyline fill="none" stroke="black" points="969,-461 1068,-461 "/>
<text text-anchor="middle" x="1018.5" y="-449" font-family="Helvetica,sans-Serif" font-size="10.00"> </text>
</a>
</g>
</g>
<!-- Node20&#45;&gt;Node19 -->
<g id="edge20" class="edge">
<title>Node20&#45;&gt;Node19</title>
<path fill="none" stroke="#404040" d="M1011.41,-441.98C1009.01,-428.9 1006.3,-414.18 1003.81,-400.64"/>
<polygon fill="none" stroke="#404040" points="1003.77,-400.42 998.75,-395.25 1001.59,-388.62 1006.61,-393.8 1003.77,-400.42"/>
<text text-anchor="middle" x="1023.5" y="-410" font-family="Helvetica,sans-Serif" font-size="10.00"> +value</text>
</g>
<!-- Node21 -->
<g id="node21" class="node">
<title>Node21</title>
<g id="a_node21"><a xlink:href="structgu__optional__rectangle__sighting.html" target="_top" xlink:title=" ">
<polygon fill="none" stroke="black" points="1063,-320.5 1063,-388.5 1174,-388.5 1174,-320.5 1063,-320.5"/>
<text text-anchor="start" x="1071" y="-376.5" font-family="Helvetica,sans-Serif" font-size="10.00">gu_optional_rectangle</text>
<text text-anchor="middle" x="1118.5" y="-365.5" font-family="Helvetica,sans-Serif" font-size="10.00">_sighting</text>
<polyline fill="none" stroke="black" points="1063,-358.5 1174,-358.5 "/>
<text text-anchor="start" x="1071" y="-346.5" font-family="Helvetica,sans-Serif" font-size="10.00">+ has_value</text>
<polyline fill="none" stroke="black" points="1063,-339.5 1174,-339.5 "/>
<text text-anchor="middle" x="1118.5" y="-327.5" font-family="Helvetica,sans-Serif" font-size="10.00"> </text>
</a>
</g>
</g>
<!-- Node21&#45;&gt;Node18 -->
<g id="edge21" class="edge">
<title>Node21&#45;&gt;Node18</title>
<path fill="none" stroke="#404040" d="M1116.32,-320.27C1115.99,-314.19 1115.7,-307.91 1115.5,-302 1115.08,-289.41 1114.8,-276.02 1114.63,-263.03"/>
<polygon fill="none" stroke="#404040" points="1114.63,-262.75 1110.56,-256.8 1114.5,-250.75 1118.56,-256.71 1114.63,-262.75"/>
<text text-anchor="middle" x="1156" y="-294" font-family="Helvetica,sans-Serif" font-size="10.00"> +genericGoalPost</text>
<text text-anchor="middle" x="1156" y="-283" font-family="Helvetica,sans-Serif" font-size="10.00">+leftGoalPost</text>
<text text-anchor="middle" x="1156" y="-272" font-family="Helvetica,sans-Serif" font-size="10.00">+rightGoalPost</text>
</g>
<!-- Node22 -->
<g id="node22" class="node">
<title>Node22</title>
<g id="a_node22"><a xlink:href="structgu__rectangle__sighting.html" target="_top" xlink:title=" ">
<polygon fill="none" stroke="black" points="1119,-436.5 1119,-526.5 1230,-526.5 1230,-436.5 1119,-436.5"/>
<text text-anchor="middle" x="1174.5" y="-514.5" font-family="Helvetica,sans-Serif" font-size="10.00">gu_rectangle_sighting</text>
<polyline fill="none" stroke="black" points="1119,-507.5 1230,-507.5 "/>
<text text-anchor="start" x="1127" y="-495.5" font-family="Helvetica,sans-Serif" font-size="10.00">+ topLeftPoint</text>
<text text-anchor="start" x="1127" y="-484.5" font-family="Helvetica,sans-Serif" font-size="10.00">+ topRightPoint</text>
<text text-anchor="start" x="1127" y="-473.5" font-family="Helvetica,sans-Serif" font-size="10.00">+ bottomLeftPoint</text>
<text text-anchor="start" x="1127" y="-462.5" font-family="Helvetica,sans-Serif" font-size="10.00">+ bottomRightPoint</text>
<polyline fill="none" stroke="black" points="1119,-455.5 1230,-455.5 "/>
<text text-anchor="middle" x="1174.5" y="-443.5" font-family="Helvetica,sans-Serif" font-size="10.00"> </text>
</a>
</g>
</g>
<!-- Node22&#45;&gt;Node18 -->
<g id="edge27" class="edge">
<title>Node22&#45;&gt;Node18</title>
<path fill="none" stroke="#404040" d="M1191.34,-436.1C1205.33,-391.95 1219.54,-323.19 1196.5,-269 1191.74,-257.81 1184.54,-247.44 1176.34,-238.14"/>
<polygon fill="none" stroke="#404040" points="1176.12,-237.91 1169.09,-236.31 1167.86,-229.2 1174.89,-230.8 1176.12,-237.91"/>
<text text-anchor="middle" x="1224" y="-352" font-family="Helvetica,sans-Serif" font-size="10.00"> +lines</text>
</g>
<!-- Node22&#45;&gt;Node21 -->
<g id="edge22" class="edge">
<title>Node22&#45;&gt;Node21</title>
<path fill="none" stroke="#404040" d="M1154.76,-436.43C1149.41,-424.5 1143.62,-411.58 1138.28,-399.65"/>
<polygon fill="none" stroke="#404040" points="1138.22,-399.52 1132.12,-395.68 1133.31,-388.57 1139.42,-392.41 1138.22,-399.52"/>
<text text-anchor="middle" x="1162.5" y="-410" font-family="Helvetica,sans-Serif" font-size="10.00"> +value</text>
</g>
<!-- Node23 -->
<g id="node23" class="node">
<title>Node23</title>
<g id="a_node23"><a xlink:href="structgu__optional__horizon__sighting.html" target="_top" xlink:title=" ">
<polygon fill="none" stroke="black" points="1257.5,-320.5 1257.5,-388.5 1359.5,-388.5 1359.5,-320.5 1257.5,-320.5"/>
<text text-anchor="start" x="1265.5" y="-376.5" font-family="Helvetica,sans-Serif" font-size="10.00">gu_optional_horizon</text>
<text text-anchor="middle" x="1308.5" y="-365.5" font-family="Helvetica,sans-Serif" font-size="10.00">_sighting</text>
<polyline fill="none" stroke="black" points="1257.5,-358.5 1359.5,-358.5 "/>
<text text-anchor="start" x="1265.5" y="-346.5" font-family="Helvetica,sans-Serif" font-size="10.00">+ has_value</text>
<polyline fill="none" stroke="black" points="1257.5,-339.5 1359.5,-339.5 "/>
<text text-anchor="middle" x="1308.5" y="-327.5" font-family="Helvetica,sans-Serif" font-size="10.00"> </text>
</a>
</g>
</g>
<!-- Node23&#45;&gt;Node18 -->
<g id="edge23" class="edge">
<title>Node23&#45;&gt;Node18</title>
<path fill="none" stroke="#404040" d="M1277.79,-320.11C1262.38,-304.02 1243.08,-284.83 1224.5,-269 1209.89,-256.56 1193.42,-244.02 1177.75,-232.71"/>
<polygon fill="none" stroke="#404040" points="1177.37,-232.43 1170.16,-232.21 1167.6,-225.47 1174.81,-225.69 1177.37,-232.43"/>
<text text-anchor="middle" x="1278.5" y="-283" font-family="Helvetica,sans-Serif" font-size="10.00"> +horizon</text>
</g>
<!-- Node24 -->
<g id="node24" class="node">
<title>Node24</title>
<g id="a_node24"><a xlink:href="structgu__horizon__sighting.html" target="_top" xlink:title=" ">
<polygon fill="none" stroke="black" points="1257.5,-453 1257.5,-510 1359.5,-510 1359.5,-453 1257.5,-453"/>
<text text-anchor="middle" x="1308.5" y="-498" font-family="Helvetica,sans-Serif" font-size="10.00">gu_horizon_sighting</text>
<polyline fill="none" stroke="black" points="1257.5,-491 1359.5,-491 "/>
<text text-anchor="start" x="1265.5" y="-479" font-family="Helvetica,sans-Serif" font-size="10.00">+ sightingType</text>
<polyline fill="none" stroke="black" points="1257.5,-472 1359.5,-472 "/>
<text text-anchor="middle" x="1308.5" y="-460" font-family="Helvetica,sans-Serif" font-size="10.00"> </text>
</a>
</g>
</g>
<!-- Node24&#45;&gt;Node23 -->
<g id="edge24" class="edge">
<title>Node24&#45;&gt;Node23</title>
<path fill="none" stroke="#404040" d="M1308.5,-452.76C1308.5,-437.59 1308.5,-418.43 1308.5,-401.13"/>
<polygon fill="none" stroke="#404040" points="1308.5,-400.94 1304.5,-394.94 1308.5,-388.94 1312.5,-394.94 1308.5,-400.94"/>
<text text-anchor="middle" x="1324.5" y="-410" font-family="Helvetica,sans-Serif" font-size="10.00"> +value</text>
</g>
<!-- Node25 -->
<g id="node25" class="node">
<title>Node25</title>
<g id="a_node25"><a xlink:href="structgu__line__sighting.html" target="_top" xlink:title=" ">
<polygon fill="none" stroke="black" points="1197,-580 1197,-648 1300,-648 1300,-580 1197,-580"/>
<text text-anchor="middle" x="1248.5" y="-636" font-family="Helvetica,sans-Serif" font-size="10.00">gu_line_sighting</text>
<polyline fill="none" stroke="black" points="1197,-629 1300,-629 "/>
<text text-anchor="start" x="1205" y="-617" font-family="Helvetica,sans-Serif" font-size="10.00">+ leftOrBottomPoint</text>
<text text-anchor="start" x="1205" y="-606" font-family="Helvetica,sans-Serif" font-size="10.00">+ rightOrTopPoint</text>
<polyline fill="none" stroke="black" points="1197,-599 1300,-599 "/>
<text text-anchor="middle" x="1248.5" y="-587" font-family="Helvetica,sans-Serif" font-size="10.00"> </text>
</a>
</g>
</g>
<!-- Node25&#45;&gt;Node24 -->
<g id="edge25" class="edge">
<title>Node25&#45;&gt;Node24</title>
<path fill="none" stroke="#404040" d="M1263.8,-579.73C1271.96,-561.97 1282.06,-540.01 1290.59,-521.46"/>
<polygon fill="none" stroke="#404040" points="1290.65,-521.32 1289.53,-514.19 1295.67,-510.41 1296.79,-517.54 1290.65,-521.32"/>
<text text-anchor="middle" x="1308" y="-548" font-family="Helvetica,sans-Serif" font-size="10.00"> +lineSighting</text>
</g>
<!-- Node26 -->
<g id="node26" class="node">
<title>Node26</title>
<g id="a_node26"><a xlink:href="structgu__corner__sighting.html" target="_top" xlink:title=" ">
<polygon fill="none" stroke="black" points="1318,-574.5 1318,-653.5 1421,-653.5 1421,-574.5 1318,-574.5"/>
<text text-anchor="middle" x="1369.5" y="-641.5" font-family="Helvetica,sans-Serif" font-size="10.00">gu_corner_sighting</text>
<polyline fill="none" stroke="black" points="1318,-634.5 1421,-634.5 "/>
<text text-anchor="start" x="1326" y="-622.5" font-family="Helvetica,sans-Serif" font-size="10.00">+ leftOrBottomPoint</text>
<text text-anchor="start" x="1326" y="-611.5" font-family="Helvetica,sans-Serif" font-size="10.00">+ centerPoint</text>
<text text-anchor="start" x="1326" y="-600.5" font-family="Helvetica,sans-Serif" font-size="10.00">+ rightOrTopPoint</text>
<polyline fill="none" stroke="black" points="1318,-593.5 1421,-593.5 "/>
<text text-anchor="middle" x="1369.5" y="-581.5" font-family="Helvetica,sans-Serif" font-size="10.00"> </text>
</a>
</g>
</g>
<!-- Node26&#45;&gt;Node24 -->
<g id="edge26" class="edge">
<title>Node26&#45;&gt;Node24</title>
<path fill="none" stroke="#404040" d="M1354.29,-574.24C1350.3,-564.61 1345.89,-554.36 1341.5,-545 1337.82,-537.15 1333.66,-528.86 1329.56,-520.99"/>
<polygon fill="none" stroke="#404040" points="1329.47,-520.82 1323.13,-517.39 1323.86,-510.21 1330.2,-513.65 1329.47,-520.82"/>
<text text-anchor="middle" x="1381" y="-548" font-family="Helvetica,sans-Serif" font-size="10.00"> +cornerSighting</text>
</g>
</g>
</svg>
