<?xml version="1.0" encoding="UTF-8" standalone="no"?>
<!DOCTYPE svg PUBLIC "-//W3C//DTD SVG 1.1//EN"
 "http://www.w3.org/Graphics/SVG/1.1/DTD/svg11.dtd">
<!-- Generated by graphviz version 2.49.0 (20210830.1337)
 -->
<!-- Title: gu_nao_head Pages: 1 -->
<svg width="240pt" height="193pt"
 viewBox="0.00 0.00 239.50 193.00" xmlns="http://www.w3.org/2000/svg" xmlns:xlink="http://www.w3.org/1999/xlink">
<g id="graph0" class="graph" transform="scale(1 1) rotate(0) translate(4 189)">
<title>gu_nao_head</title>
<!-- Node1 -->
<g id="node1" class="node">
<title>Node1</title>
<g id="a_node1"><a xlink:title=" ">
<polygon fill="#bfbfbf" stroke="black" points="74.5,-0.5 74.5,-57.5 148.5,-57.5 148.5,-0.5 74.5,-0.5"/>
<text text-anchor="middle" x="111.5" y="-45.5" font-family="Helvetica,sans-Serif" font-size="10.00">gu_nao_head</text>
<polyline fill="none" stroke="black" points="74.5,-38.5 148.5,-38.5 "/>
<text text-anchor="middle" x="111.5" y="-26.5" font-family="Helvetica,sans-Serif" font-size="10.00"> </text>
<polyline fill="none" stroke="black" points="74.5,-19.5 148.5,-19.5 "/>
<text text-anchor="middle" x="111.5" y="-7.5" font-family="Helvetica,sans-Serif" font-size="10.00"> </text>
</a>
</g>
</g>
<!-- Node2 -->
<g id="node2" class="node">
<title>Node2</title>
<g id="a_node2"><a xlink:href="structgu__pitch__yaw__joint.html" target="_top" xlink:title=" ">
<polygon fill="none" stroke="black" points="0,-111 0,-179 99,-179 99,-111 0,-111"/>
<text text-anchor="middle" x="49.5" y="-167" font-family="Helvetica,sans-Serif" font-size="10.00">gu_pitch_yaw_joint</text>
<polyline fill="none" stroke="black" points="0,-160 99,-160 "/>
<text text-anchor="start" x="8" y="-148" font-family="Helvetica,sans-Serif" font-size="10.00">+ pitch</text>
<text text-anchor="start" x="8" y="-137" font-family="Helvetica,sans-Serif" font-size="10.00">+ yaw</text>
<polyline fill="none" stroke="black" points="0,-130 99,-130 "/>
<text text-anchor="middle" x="49.5" y="-118" font-family="Helvetica,sans-Serif" font-size="10.00"> </text>
</a>
</g>
</g>
<!-- Node2&#45;&gt;Node1 -->
<g id="edge1" class="edge">
<title>Node2&#45;&gt;Node1</title>
<path fill="none" stroke="#404040" d="M67.6,-110.72C74.82,-97.44 83.18,-82.08 90.65,-68.34"/>
<polygon fill="none" stroke="#404040" points="90.68,-68.28 90.03,-61.1 96.41,-57.74 97.06,-64.92 90.68,-68.28"/>
<text text-anchor="middle" x="101.5" y="-79" font-family="Helvetica,sans-Serif" font-size="10.00"> +neck</text>
</g>
<!-- Node3 -->
<g id="node3" class="node">
<title>Node3</title>
<g id="a_node3"><a xlink:href="structgu__nao__head__sensors.html" target="_top" xlink:title=" ">
<polygon fill="none" stroke="black" points="117.5,-105.5 117.5,-184.5 231.5,-184.5 231.5,-105.5 117.5,-105.5"/>
<text text-anchor="middle" x="174.5" y="-172.5" font-family="Helvetica,sans-Serif" font-size="10.00">gu_nao_head_sensors</text>
<polyline fill="none" stroke="black" points="117.5,-165.5 231.5,-165.5 "/>
<text text-anchor="start" x="125.5" y="-153.5" font-family="Helvetica,sans-Serif" font-size="10.00">+ touchFront</text>
<text text-anchor="start" x="125.5" y="-142.5" font-family="Helvetica,sans-Serif" font-size="10.00">+ touchMiddle</text>
<text text-anchor="start" x="125.5" y="-131.5" font-family="Helvetica,sans-Serif" font-size="10.00">+ touchRear</text>
<polyline fill="none" stroke="black" points="117.5,-124.5 231.5,-124.5 "/>
<text text-anchor="middle" x="174.5" y="-112.5" font-family="Helvetica,sans-Serif" font-size="10.00"> </text>
</a>
</g>
</g>
<!-- Node3&#45;&gt;Node1 -->
<g id="edge2" class="edge">
<title>Node3&#45;&gt;Node1</title>
<path fill="none" stroke="#404040" d="M153.17,-105.4C146.56,-93.44 139.27,-80.26 132.67,-68.31"/>
<polygon fill="none" stroke="#404040" points="132.64,-68.25 126.24,-64.94 126.84,-57.75 133.24,-61.07 132.64,-68.25"/>
<text text-anchor="middle" x="163" y="-79" font-family="Helvetica,sans-Serif" font-size="10.00"> +buttons</text>
</g>
</g>
</svg>
