<?xml version="1.0" encoding="UTF-8" standalone="no"?>
<!DOCTYPE svg PUBLIC "-//W3C//DTD SVG 1.1//EN"
 "http://www.w3.org/Graphics/SVG/1.1/DTD/svg11.dtd">
<!-- Generated by graphviz version 2.49.0 (20210830.1337)
 -->
<!-- Title: gu_nao_leg Pages: 1 -->
<svg width="281pt" height="193pt"
 viewBox="0.00 0.00 281.00 193.00" xmlns="http://www.w3.org/2000/svg" xmlns:xlink="http://www.w3.org/1999/xlink">
<g id="graph0" class="graph" transform="scale(1 1) rotate(0) translate(4 189)">
<title>gu_nao_leg</title>
<!-- Node1 -->
<g id="node1" class="node">
<title>Node1</title>
<g id="a_node1"><a xlink:title=" ">
<polygon fill="#bfbfbf" stroke="black" points="88.5,-0.5 88.5,-57.5 154.5,-57.5 154.5,-0.5 88.5,-0.5"/>
<text text-anchor="middle" x="121.5" y="-45.5" font-family="Helvetica,sans-Serif" font-size="10.00">gu_nao_leg</text>
<polyline fill="none" stroke="black" points="88.5,-38.5 154.5,-38.5 "/>
<text text-anchor="middle" x="121.5" y="-26.5" font-family="Helvetica,sans-Serif" font-size="10.00"> </text>
<polyline fill="none" stroke="black" points="88.5,-19.5 154.5,-19.5 "/>
<text text-anchor="middle" x="121.5" y="-7.5" font-family="Helvetica,sans-Serif" font-size="10.00"> </text>
</a>
</g>
</g>
<!-- Node2 -->
<g id="node2" class="node">
<title>Node2</title>
<g id="a_node2"><a xlink:href="structgu__yp__joint.html" target="_top" xlink:title=" ">
<polygon fill="none" stroke="black" points="0,-105.5 0,-184.5 65,-184.5 65,-105.5 0,-105.5"/>
<text text-anchor="middle" x="32.5" y="-172.5" font-family="Helvetica,sans-Serif" font-size="10.00">gu_yp_joint</text>
<polyline fill="none" stroke="black" points="0,-165.5 65,-165.5 "/>
<text text-anchor="start" x="8" y="-153.5" font-family="Helvetica,sans-Serif" font-size="10.00">+ pitch</text>
<text text-anchor="start" x="8" y="-142.5" font-family="Helvetica,sans-Serif" font-size="10.00">+ roll</text>
<text text-anchor="start" x="8" y="-131.5" font-family="Helvetica,sans-Serif" font-size="10.00">+ yawPitch</text>
<polyline fill="none" stroke="black" points="0,-124.5 65,-124.5 "/>
<text text-anchor="middle" x="32.5" y="-112.5" font-family="Helvetica,sans-Serif" font-size="10.00"> </text>
</a>
</g>
</g>
<!-- Node2&#45;&gt;Node1 -->
<g id="edge1" class="edge">
<title>Node2&#45;&gt;Node1</title>
<path fill="none" stroke="#404040" d="M62.63,-105.4C72.26,-93.07 82.9,-79.45 92.45,-67.21"/>
<polygon fill="none" stroke="#404040" points="92.45,-67.21 92.99,-60.02 99.83,-57.75 99.3,-64.94 92.45,-67.21"/>
<text text-anchor="middle" x="96.5" y="-79" font-family="Helvetica,sans-Serif" font-size="10.00"> +hip</text>
</g>
<!-- Node3 -->
<g id="node3" class="node">
<title>Node3</title>
<g id="a_node3"><a xlink:href="structgu__pitch__joint.html" target="_top" xlink:title=" ">
<polygon fill="none" stroke="black" points="83,-116.5 83,-173.5 160,-173.5 160,-116.5 83,-116.5"/>
<text text-anchor="middle" x="121.5" y="-161.5" font-family="Helvetica,sans-Serif" font-size="10.00">gu_pitch_joint</text>
<polyline fill="none" stroke="black" points="83,-154.5 160,-154.5 "/>
<text text-anchor="start" x="91" y="-142.5" font-family="Helvetica,sans-Serif" font-size="10.00">+ pitch</text>
<polyline fill="none" stroke="black" points="83,-135.5 160,-135.5 "/>
<text text-anchor="middle" x="121.5" y="-123.5" font-family="Helvetica,sans-Serif" font-size="10.00"> </text>
</a>
</g>
</g>
<!-- Node3&#45;&gt;Node1 -->
<g id="edge2" class="edge">
<title>Node3&#45;&gt;Node1</title>
<path fill="none" stroke="#404040" d="M121.5,-116.4C121.5,-102.5 121.5,-85.39 121.5,-70.07"/>
<polygon fill="none" stroke="#404040" points="121.5,-69.74 117.5,-63.74 121.5,-57.74 125.5,-63.74 121.5,-69.74"/>
<text text-anchor="middle" x="136.5" y="-79" font-family="Helvetica,sans-Serif" font-size="10.00"> +knee</text>
</g>
<!-- Node4 -->
<g id="node4" class="node">
<title>Node4</title>
<g id="a_node4"><a xlink:href="structgu__pitch__roll__joint.html" target="_top" xlink:title=" ">
<polygon fill="none" stroke="black" points="178,-111 178,-179 273,-179 273,-111 178,-111"/>
<text text-anchor="middle" x="225.5" y="-167" font-family="Helvetica,sans-Serif" font-size="10.00">gu_pitch_roll_joint</text>
<polyline fill="none" stroke="black" points="178,-160 273,-160 "/>
<text text-anchor="start" x="186" y="-148" font-family="Helvetica,sans-Serif" font-size="10.00">+ pitch</text>
<text text-anchor="start" x="186" y="-137" font-family="Helvetica,sans-Serif" font-size="10.00">+ roll</text>
<polyline fill="none" stroke="black" points="178,-130 273,-130 "/>
<text text-anchor="middle" x="225.5" y="-118" font-family="Helvetica,sans-Serif" font-size="10.00"> </text>
</a>
</g>
</g>
<!-- Node4&#45;&gt;Node1 -->
<g id="edge3" class="edge">
<title>Node4&#45;&gt;Node1</title>
<path fill="none" stroke="#404040" d="M195.14,-110.72C182.55,-96.92 167.9,-80.86 155,-66.72"/>
<polygon fill="none" stroke="#404040" points="154.9,-66.61 147.9,-64.87 146.81,-57.74 153.81,-59.48 154.9,-66.61"/>
<text text-anchor="middle" x="189.5" y="-79" font-family="Helvetica,sans-Serif" font-size="10.00"> +ankle</text>
</g>
</g>
</svg>
