<?xml version="1.0" encoding="UTF-8" standalone="no"?>
<!DOCTYPE svg PUBLIC "-//W3C//DTD SVG 1.1//EN"
 "http://www.w3.org/Graphics/SVG/1.1/DTD/svg11.dtd">
<!-- Generated by graphviz version 2.49.0 (20210830.1337)
 -->
<!-- Title: gu_optional_ball_position Pages: 1 -->
<svg width="133pt" height="298pt"
 viewBox="0.00 0.00 133.00 298.00" xmlns="http://www.w3.org/2000/svg" xmlns:xlink="http://www.w3.org/1999/xlink">
<g id="graph0" class="graph" transform="scale(1 1) rotate(0) translate(4 294)">
<title>gu_optional_ball_position</title>
<!-- Node1 -->
<g id="node1" class="node">
<title>Node1</title>
<g id="a_node1"><a xlink:title="Provides the ability to specify whether we have a valid value for a gu_ball_position or not.">
<polygon fill="#bfbfbf" stroke="black" points="0,-0.5 0,-57.5 125,-57.5 125,-0.5 0,-0.5"/>
<text text-anchor="middle" x="62.5" y="-45.5" font-family="Helvetica,sans-Serif" font-size="10.00">gu_optional_ball_position</text>
<polyline fill="none" stroke="black" points="0,-38.5 125,-38.5 "/>
<text text-anchor="start" x="8" y="-26.5" font-family="Helvetica,sans-Serif" font-size="10.00">+ has_value</text>
<polyline fill="none" stroke="black" points="0,-19.5 125,-19.5 "/>
<text text-anchor="middle" x="62.5" y="-7.5" font-family="Helvetica,sans-Serif" font-size="10.00"> </text>
</a>
</g>
</g>
<!-- Node2 -->
<g id="node2" class="node">
<title>Node2</title>
<g id="a_node2"><a xlink:href="structgu__ball__position.html" target="_top" xlink:title="A data structure representing the position and orientation of the soccer ball on the soccer field.">
<polygon fill="none" stroke="black" points="19.5,-105.5 19.5,-162.5 105.5,-162.5 105.5,-105.5 19.5,-105.5"/>
<text text-anchor="middle" x="62.5" y="-150.5" font-family="Helvetica,sans-Serif" font-size="10.00">gu_ball_position</text>
<polyline fill="none" stroke="black" points="19.5,-143.5 105.5,-143.5 "/>
<text text-anchor="start" x="27.5" y="-131.5" font-family="Helvetica,sans-Serif" font-size="10.00">+ position</text>
<polyline fill="none" stroke="black" points="19.5,-124.5 105.5,-124.5 "/>
<text text-anchor="middle" x="62.5" y="-112.5" font-family="Helvetica,sans-Serif" font-size="10.00"> </text>
</a>
</g>
</g>
<!-- Node2&#45;&gt;Node1 -->
<g id="edge1" class="edge">
<title>Node2&#45;&gt;Node1</title>
<path fill="none" stroke="#404040" d="M62.5,-105.4C62.5,-94.55 62.5,-81.87 62.5,-70.05"/>
<polygon fill="none" stroke="#404040" points="62.5,-69.68 58.5,-63.68 62.5,-57.68 66.5,-63.68 62.5,-69.68"/>
<text text-anchor="middle" x="78.5" y="-79" font-family="Helvetica,sans-Serif" font-size="10.00"> +value</text>
</g>
<!-- Node3 -->
<g id="node3" class="node">
<title>Node3</title>
<g id="a_node3"><a xlink:href="structgu__orientation.html" target="_top" xlink:title="The configuration of the orientation of the object with respect to the three angular coordinates.">
<polygon fill="none" stroke="black" points="24,-210.5 24,-289.5 101,-289.5 101,-210.5 24,-210.5"/>
<text text-anchor="middle" x="62.5" y="-277.5" font-family="Helvetica,sans-Serif" font-size="10.00">gu_orientation</text>
<polyline fill="none" stroke="black" points="24,-270.5 101,-270.5 "/>
<text text-anchor="start" x="32" y="-258.5" font-family="Helvetica,sans-Serif" font-size="10.00">+ pitch</text>
<text text-anchor="start" x="32" y="-247.5" font-family="Helvetica,sans-Serif" font-size="10.00">+ yaw</text>
<text text-anchor="start" x="32" y="-236.5" font-family="Helvetica,sans-Serif" font-size="10.00">+ roll</text>
<polyline fill="none" stroke="black" points="24,-229.5 101,-229.5 "/>
<text text-anchor="middle" x="62.5" y="-217.5" font-family="Helvetica,sans-Serif" font-size="10.00"> </text>
</a>
</g>
</g>
<!-- Node3&#45;&gt;Node2 -->
<g id="edge2" class="edge">
<title>Node3&#45;&gt;Node2</title>
<path fill="none" stroke="#404040" d="M62.5,-210.4C62.5,-198.93 62.5,-186.33 62.5,-174.78"/>
<polygon fill="none" stroke="#404040" points="62.5,-174.75 58.5,-168.75 62.5,-162.75 66.5,-168.75 62.5,-174.75"/>
<text text-anchor="middle" x="89.5" y="-184" font-family="Helvetica,sans-Serif" font-size="10.00"> +orientation</text>
</g>
</g>
</svg>
