<?xml version="1.0" encoding="UTF-8" standalone="no"?>
<!DOCTYPE svg PUBLIC "-//W3C//DTD SVG 1.1//EN"
 "http://www.w3.org/Graphics/SVG/1.1/DTD/svg11.dtd">
<!-- Generated by graphviz version 2.49.0 (20210830.1337)
 -->
<!-- Title: gu_soccer_sightings Pages: 1 -->
<svg width="483pt" height="535pt"
 viewBox="0.00 0.00 483.00 535.00" xmlns="http://www.w3.org/2000/svg" xmlns:xlink="http://www.w3.org/1999/xlink">
<g id="graph0" class="graph" transform="scale(1 1) rotate(0) translate(4 531)">
<title>gu_soccer_sightings</title>
<!-- Node1 -->
<g id="node1" class="node">
<title>Node1</title>
<g id="a_node1"><a xlink:title=" ">
<polygon fill="#bfbfbf" stroke="black" points="116.5,-0.5 116.5,-123.5 222.5,-123.5 222.5,-0.5 116.5,-0.5"/>
<text text-anchor="middle" x="169.5" y="-111.5" font-family="Helvetica,sans-Serif" font-size="10.00">gu_soccer_sightings</text>
<polyline fill="none" stroke="black" points="116.5,-104.5 222.5,-104.5 "/>
<text text-anchor="start" x="124.5" y="-92.5" font-family="Helvetica,sans-Serif" font-size="10.00">+ lineCorners</text>
<text text-anchor="start" x="124.5" y="-81.5" font-family="Helvetica,sans-Serif" font-size="10.00">+ lineTIntersections</text>
<text text-anchor="start" x="124.5" y="-70.5" font-family="Helvetica,sans-Serif" font-size="10.00">+ lineCrosses</text>
<text text-anchor="start" x="124.5" y="-59.5" font-family="Helvetica,sans-Serif" font-size="10.00">+ numLines</text>
<text text-anchor="start" x="124.5" y="-48.5" font-family="Helvetica,sans-Serif" font-size="10.00">+ numCorners</text>
<text text-anchor="start" x="124.5" y="-37.5" font-family="Helvetica,sans-Serif" font-size="10.00">+ numTIntersections</text>
<text text-anchor="start" x="124.5" y="-26.5" font-family="Helvetica,sans-Serif" font-size="10.00">+ numCrosses</text>
<polyline fill="none" stroke="black" points="116.5,-19.5 222.5,-19.5 "/>
<text text-anchor="middle" x="169.5" y="-7.5" font-family="Helvetica,sans-Serif" font-size="10.00"> </text>
</a>
</g>
</g>
<!-- Node2 -->
<g id="node2" class="node">
<title>Node2</title>
<g id="a_node2"><a xlink:href="structgu__optional__ellipse__sighting.html" target="_top" xlink:title=" ">
<polygon fill="none" stroke="black" points="0,-193.5 0,-261.5 99,-261.5 99,-193.5 0,-193.5"/>
<text text-anchor="start" x="8" y="-249.5" font-family="Helvetica,sans-Serif" font-size="10.00">gu_optional_ellipse</text>
<text text-anchor="middle" x="49.5" y="-238.5" font-family="Helvetica,sans-Serif" font-size="10.00">_sighting</text>
<polyline fill="none" stroke="black" points="0,-231.5 99,-231.5 "/>
<text text-anchor="start" x="8" y="-219.5" font-family="Helvetica,sans-Serif" font-size="10.00">+ has_value</text>
<polyline fill="none" stroke="black" points="0,-212.5 99,-212.5 "/>
<text text-anchor="middle" x="49.5" y="-200.5" font-family="Helvetica,sans-Serif" font-size="10.00"> </text>
</a>
</g>
</g>
<!-- Node2&#45;&gt;Node1 -->
<g id="edge1" class="edge">
<title>Node2&#45;&gt;Node1</title>
<path fill="none" stroke="#404040" d="M66.11,-193.35C74.69,-177.32 85.81,-158.11 97.5,-142 100.93,-137.27 104.6,-132.52 108.41,-127.81"/>
<polygon fill="none" stroke="#404040" points="108.7,-127.45 109.47,-120.28 116.38,-118.23 115.62,-125.4 108.7,-127.45"/>
<text text-anchor="middle" x="109.5" y="-156" font-family="Helvetica,sans-Serif" font-size="10.00"> +ball</text>
</g>
<!-- Node3 -->
<g id="node3" class="node">
<title>Node3</title>
<g id="a_node3"><a xlink:href="structgu__ellipse__sighting.html" target="_top" xlink:title=" ">
<polygon fill="none" stroke="black" points="0,-315 0,-394 99,-394 99,-315 0,-315"/>
<text text-anchor="middle" x="49.5" y="-382" font-family="Helvetica,sans-Serif" font-size="10.00">gu_ellipse_sighting</text>
<polyline fill="none" stroke="black" points="0,-375 99,-375 "/>
<text text-anchor="start" x="8" y="-363" font-family="Helvetica,sans-Serif" font-size="10.00">+ centerPoint</text>
<text text-anchor="start" x="8" y="-352" font-family="Helvetica,sans-Serif" font-size="10.00">+ verticalRadius</text>
<text text-anchor="start" x="8" y="-341" font-family="Helvetica,sans-Serif" font-size="10.00">+ horizontalRadius</text>
<polyline fill="none" stroke="black" points="0,-334 99,-334 "/>
<text text-anchor="middle" x="49.5" y="-322" font-family="Helvetica,sans-Serif" font-size="10.00"> </text>
</a>
</g>
</g>
<!-- Node3&#45;&gt;Node2 -->
<g id="edge2" class="edge">
<title>Node3&#45;&gt;Node2</title>
<path fill="none" stroke="#404040" d="M49.5,-314.98C49.5,-301.9 49.5,-287.18 49.5,-273.64"/>
<polygon fill="none" stroke="#404040" points="49.5,-273.62 45.5,-267.62 49.5,-261.62 53.5,-267.62 49.5,-273.62"/>
<text text-anchor="middle" x="65.5" y="-283" font-family="Helvetica,sans-Serif" font-size="10.00"> +value</text>
</g>
<!-- Node4 -->
<g id="node4" class="node">
<title>Node4</title>
<g id="a_node4"><a xlink:href="structgu__optional__rectangle__sighting.html" target="_top" xlink:title=" ">
<polygon fill="none" stroke="black" points="183,-193.5 183,-261.5 294,-261.5 294,-193.5 183,-193.5"/>
<text text-anchor="start" x="191" y="-249.5" font-family="Helvetica,sans-Serif" font-size="10.00">gu_optional_rectangle</text>
<text text-anchor="middle" x="238.5" y="-238.5" font-family="Helvetica,sans-Serif" font-size="10.00">_sighting</text>
<polyline fill="none" stroke="black" points="183,-231.5 294,-231.5 "/>
<text text-anchor="start" x="191" y="-219.5" font-family="Helvetica,sans-Serif" font-size="10.00">+ has_value</text>
<polyline fill="none" stroke="black" points="183,-212.5 294,-212.5 "/>
<text text-anchor="middle" x="238.5" y="-200.5" font-family="Helvetica,sans-Serif" font-size="10.00"> </text>
</a>
</g>
</g>
<!-- Node4&#45;&gt;Node1 -->
<g id="edge3" class="edge">
<title>Node4&#45;&gt;Node1</title>
<path fill="none" stroke="#404040" d="M224.54,-193.41C217.43,-176.56 208.49,-155.38 199.89,-135.01"/>
<polygon fill="none" stroke="#404040" points="199.83,-134.87 193.81,-130.9 195.17,-123.82 201.18,-127.79 199.83,-134.87"/>
<text text-anchor="middle" x="257" y="-167" font-family="Helvetica,sans-Serif" font-size="10.00"> +genericGoalPost</text>
<text text-anchor="middle" x="257" y="-156" font-family="Helvetica,sans-Serif" font-size="10.00">+leftGoalPost</text>
<text text-anchor="middle" x="257" y="-145" font-family="Helvetica,sans-Serif" font-size="10.00">+rightGoalPost</text>
</g>
<!-- Node5 -->
<g id="node5" class="node">
<title>Node5</title>
<g id="a_node5"><a xlink:href="structgu__rectangle__sighting.html" target="_top" xlink:title=" ">
<polygon fill="none" stroke="black" points="134,-309.5 134,-399.5 245,-399.5 245,-309.5 134,-309.5"/>
<text text-anchor="middle" x="189.5" y="-387.5" font-family="Helvetica,sans-Serif" font-size="10.00">gu_rectangle_sighting</text>
<polyline fill="none" stroke="black" points="134,-380.5 245,-380.5 "/>
<text text-anchor="start" x="142" y="-368.5" font-family="Helvetica,sans-Serif" font-size="10.00">+ topLeftPoint</text>
<text text-anchor="start" x="142" y="-357.5" font-family="Helvetica,sans-Serif" font-size="10.00">+ topRightPoint</text>
<text text-anchor="start" x="142" y="-346.5" font-family="Helvetica,sans-Serif" font-size="10.00">+ bottomLeftPoint</text>
<text text-anchor="start" x="142" y="-335.5" font-family="Helvetica,sans-Serif" font-size="10.00">+ bottomRightPoint</text>
<polyline fill="none" stroke="black" points="134,-328.5 245,-328.5 "/>
<text text-anchor="middle" x="189.5" y="-316.5" font-family="Helvetica,sans-Serif" font-size="10.00"> </text>
</a>
</g>
</g>
<!-- Node5&#45;&gt;Node1 -->
<g id="edge9" class="edge">
<title>Node5&#45;&gt;Node1</title>
<path fill="none" stroke="#404040" d="M162.77,-309.42C155.34,-294.85 148.27,-278.21 144.5,-262 134.89,-220.69 140.09,-173.63 148.17,-135.65"/>
<polygon fill="none" stroke="#404040" points="148.24,-135.36 145.66,-128.63 150.89,-123.66 153.46,-130.39 148.24,-135.36"/>
<text text-anchor="middle" x="159" y="-225" font-family="Helvetica,sans-Serif" font-size="10.00"> +lines</text>
</g>
<!-- Node5&#45;&gt;Node4 -->
<g id="edge4" class="edge">
<title>Node5&#45;&gt;Node4</title>
<path fill="none" stroke="#404040" d="M206.78,-309.43C211.4,-297.62 216.41,-284.85 221.05,-273.02"/>
<polygon fill="none" stroke="#404040" points="221.16,-272.74 219.62,-265.69 225.54,-261.57 227.07,-268.61 221.16,-272.74"/>
<text text-anchor="middle" x="233.5" y="-283" font-family="Helvetica,sans-Serif" font-size="10.00"> +value</text>
</g>
<!-- Node6 -->
<g id="node6" class="node">
<title>Node6</title>
<g id="a_node6"><a xlink:href="structgu__optional__horizon__sighting.html" target="_top" xlink:title=" ">
<polygon fill="none" stroke="black" points="311.5,-193.5 311.5,-261.5 413.5,-261.5 413.5,-193.5 311.5,-193.5"/>
<text text-anchor="start" x="319.5" y="-249.5" font-family="Helvetica,sans-Serif" font-size="10.00">gu_optional_horizon</text>
<text text-anchor="middle" x="362.5" y="-238.5" font-family="Helvetica,sans-Serif" font-size="10.00">_sighting</text>
<polyline fill="none" stroke="black" points="311.5,-231.5 413.5,-231.5 "/>
<text text-anchor="start" x="319.5" y="-219.5" font-family="Helvetica,sans-Serif" font-size="10.00">+ has_value</text>
<polyline fill="none" stroke="black" points="311.5,-212.5 413.5,-212.5 "/>
<text text-anchor="middle" x="362.5" y="-200.5" font-family="Helvetica,sans-Serif" font-size="10.00"> </text>
</a>
</g>
</g>
<!-- Node6&#45;&gt;Node1 -->
<g id="edge5" class="edge">
<title>Node6&#45;&gt;Node1</title>
<path fill="none" stroke="#404040" d="M342.96,-193.14C332.14,-176.49 317.63,-156.8 301.5,-142 281.37,-123.53 256.25,-107.21 233.34,-94.26"/>
<polygon fill="none" stroke="#404040" points="233.16,-94.16 225.98,-94.77 222.65,-88.37 229.84,-87.76 233.16,-94.16"/>
<text text-anchor="middle" x="350.5" y="-156" font-family="Helvetica,sans-Serif" font-size="10.00"> +horizon</text>
</g>
<!-- Node7 -->
<g id="node7" class="node">
<title>Node7</title>
<g id="a_node7"><a xlink:href="structgu__horizon__sighting.html" target="_top" xlink:title=" ">
<polygon fill="none" stroke="black" points="311.5,-326 311.5,-383 413.5,-383 413.5,-326 311.5,-326"/>
<text text-anchor="middle" x="362.5" y="-371" font-family="Helvetica,sans-Serif" font-size="10.00">gu_horizon_sighting</text>
<polyline fill="none" stroke="black" points="311.5,-364 413.5,-364 "/>
<text text-anchor="start" x="319.5" y="-352" font-family="Helvetica,sans-Serif" font-size="10.00">+ sightingType</text>
<polyline fill="none" stroke="black" points="311.5,-345 413.5,-345 "/>
<text text-anchor="middle" x="362.5" y="-333" font-family="Helvetica,sans-Serif" font-size="10.00"> </text>
</a>
</g>
</g>
<!-- Node7&#45;&gt;Node6 -->
<g id="edge6" class="edge">
<title>Node7&#45;&gt;Node6</title>
<path fill="none" stroke="#404040" d="M362.5,-325.76C362.5,-310.59 362.5,-291.43 362.5,-274.13"/>
<polygon fill="none" stroke="#404040" points="362.5,-273.94 358.5,-267.94 362.5,-261.94 366.5,-267.94 362.5,-273.94"/>
<text text-anchor="middle" x="378.5" y="-283" font-family="Helvetica,sans-Serif" font-size="10.00"> +value</text>
</g>
<!-- Node8 -->
<g id="node8" class="node">
<title>Node8</title>
<g id="a_node8"><a xlink:href="structgu__line__sighting.html" target="_top" xlink:title=" ">
<polygon fill="none" stroke="black" points="251,-453 251,-521 354,-521 354,-453 251,-453"/>
<text text-anchor="middle" x="302.5" y="-509" font-family="Helvetica,sans-Serif" font-size="10.00">gu_line_sighting</text>
<polyline fill="none" stroke="black" points="251,-502 354,-502 "/>
<text text-anchor="start" x="259" y="-490" font-family="Helvetica,sans-Serif" font-size="10.00">+ leftOrBottomPoint</text>
<text text-anchor="start" x="259" y="-479" font-family="Helvetica,sans-Serif" font-size="10.00">+ rightOrTopPoint</text>
<polyline fill="none" stroke="black" points="251,-472 354,-472 "/>
<text text-anchor="middle" x="302.5" y="-460" font-family="Helvetica,sans-Serif" font-size="10.00"> </text>
</a>
</g>
</g>
<!-- Node8&#45;&gt;Node7 -->
<g id="edge7" class="edge">
<title>Node8&#45;&gt;Node7</title>
<path fill="none" stroke="#404040" d="M317.8,-452.73C325.96,-434.97 336.06,-413.01 344.59,-394.46"/>
<polygon fill="none" stroke="#404040" points="344.65,-394.32 343.53,-387.19 349.67,-383.41 350.79,-390.54 344.65,-394.32"/>
<text text-anchor="middle" x="362" y="-421" font-family="Helvetica,sans-Serif" font-size="10.00"> +lineSighting</text>
</g>
<!-- Node9 -->
<g id="node9" class="node">
<title>Node9</title>
<g id="a_node9"><a xlink:href="structgu__corner__sighting.html" target="_top" xlink:title=" ">
<polygon fill="none" stroke="black" points="372,-447.5 372,-526.5 475,-526.5 475,-447.5 372,-447.5"/>
<text text-anchor="middle" x="423.5" y="-514.5" font-family="Helvetica,sans-Serif" font-size="10.00">gu_corner_sighting</text>
<polyline fill="none" stroke="black" points="372,-507.5 475,-507.5 "/>
<text text-anchor="start" x="380" y="-495.5" font-family="Helvetica,sans-Serif" font-size="10.00">+ leftOrBottomPoint</text>
<text text-anchor="start" x="380" y="-484.5" font-family="Helvetica,sans-Serif" font-size="10.00">+ centerPoint</text>
<text text-anchor="start" x="380" y="-473.5" font-family="Helvetica,sans-Serif" font-size="10.00">+ rightOrTopPoint</text>
<polyline fill="none" stroke="black" points="372,-466.5 475,-466.5 "/>
<text text-anchor="middle" x="423.5" y="-454.5" font-family="Helvetica,sans-Serif" font-size="10.00"> </text>
</a>
</g>
</g>
<!-- Node9&#45;&gt;Node7 -->
<g id="edge8" class="edge">
<title>Node9&#45;&gt;Node7</title>
<path fill="none" stroke="#404040" d="M408.29,-447.24C404.3,-437.61 399.89,-427.36 395.5,-418 391.82,-410.15 387.66,-401.86 383.56,-393.99"/>
<polygon fill="none" stroke="#404040" points="383.47,-393.82 377.13,-390.39 377.86,-383.21 384.2,-386.65 383.47,-393.82"/>
<text text-anchor="middle" x="435" y="-421" font-family="Helvetica,sans-Serif" font-size="10.00"> +cornerSighting</text>
</g>
</g>
</svg>
