<?xml version="1.0" encoding="UTF-8" standalone="no"?>
<!DOCTYPE svg PUBLIC "-//W3C//DTD SVG 1.1//EN"
 "http://www.w3.org/Graphics/SVG/1.1/DTD/svg11.dtd">
<!-- Generated by graphviz version 2.49.0 (20210830.1337)
 -->
<!-- Title: gu_ball_position Pages: 1 -->
<svg width="105pt" height="193pt"
 viewBox="0.00 0.00 105.00 193.00" xmlns="http://www.w3.org/2000/svg" xmlns:xlink="http://www.w3.org/1999/xlink">
<g id="graph0" class="graph" transform="scale(1 1) rotate(0) translate(4 189)">
<title>gu_ball_position</title>
<!-- Node1 -->
<g id="node1" class="node">
<title>Node1</title>
<g id="a_node1"><a xlink:title="A data structure representing the position and orientation of the soccer ball on the soccer field.">
<polygon fill="#bfbfbf" stroke="black" points="0,-0.5 0,-57.5 86,-57.5 86,-0.5 0,-0.5"/>
<text text-anchor="middle" x="43" y="-45.5" font-family="Helvetica,sans-Serif" font-size="10.00">gu_ball_position</text>
<polyline fill="none" stroke="black" points="0,-38.5 86,-38.5 "/>
<text text-anchor="start" x="8" y="-26.5" font-family="Helvetica,sans-Serif" font-size="10.00">+ position</text>
<polyline fill="none" stroke="black" points="0,-19.5 86,-19.5 "/>
<text text-anchor="middle" x="43" y="-7.5" font-family="Helvetica,sans-Serif" font-size="10.00"> </text>
</a>
</g>
</g>
<!-- Node2 -->
<g id="node2" class="node">
<title>Node2</title>
<g id="a_node2"><a xlink:href="structgu__orientation.html" target="_top" xlink:title="The configuration of the orientation of the object with respect to the three angular coordinates.">
<polygon fill="none" stroke="black" points="4.5,-105.5 4.5,-184.5 81.5,-184.5 81.5,-105.5 4.5,-105.5"/>
<text text-anchor="middle" x="43" y="-172.5" font-family="Helvetica,sans-Serif" font-size="10.00">gu_orientation</text>
<polyline fill="none" stroke="black" points="4.5,-165.5 81.5,-165.5 "/>
<text text-anchor="start" x="12.5" y="-153.5" font-family="Helvetica,sans-Serif" font-size="10.00">+ pitch</text>
<text text-anchor="start" x="12.5" y="-142.5" font-family="Helvetica,sans-Serif" font-size="10.00">+ yaw</text>
<text text-anchor="start" x="12.5" y="-131.5" font-family="Helvetica,sans-Serif" font-size="10.00">+ roll</text>
<polyline fill="none" stroke="black" points="4.5,-124.5 81.5,-124.5 "/>
<text text-anchor="middle" x="43" y="-112.5" font-family="Helvetica,sans-Serif" font-size="10.00"> </text>
</a>
</g>
</g>
<!-- Node2&#45;&gt;Node1 -->
<g id="edge1" class="edge">
<title>Node2&#45;&gt;Node1</title>
<path fill="none" stroke="#404040" d="M43,-105.4C43,-93.93 43,-81.33 43,-69.78"/>
<polygon fill="none" stroke="#404040" points="43,-69.75 39,-63.75 43,-57.75 47,-63.75 43,-69.75"/>
<text text-anchor="middle" x="70" y="-79" font-family="Helvetica,sans-Serif" font-size="10.00"> +orientation</text>
</g>
</g>
</svg>
