<?xml version="1.0" encoding="UTF-8" standalone="no"?>
<!DOCTYPE svg PUBLIC "-//W3C//DTD SVG 1.1//EN"
 "http://www.w3.org/Graphics/SVG/1.1/DTD/svg11.dtd">
<!-- Generated by graphviz version 2.49.0 (20210830.1337)
 -->
<!-- Title: gu_nao_arm Pages: 1 -->
<svg width="436pt" height="193pt"
 viewBox="0.00 0.00 435.50 193.00" xmlns="http://www.w3.org/2000/svg" xmlns:xlink="http://www.w3.org/1999/xlink">
<g id="graph0" class="graph" transform="scale(1 1) rotate(0) translate(4 189)">
<title>gu_nao_arm</title>
<!-- Node1 -->
<g id="node1" class="node">
<title>Node1</title>
<g id="a_node1"><a xlink:title=" ">
<polygon fill="#bfbfbf" stroke="black" points="173.5,-0.5 173.5,-57.5 243.5,-57.5 243.5,-0.5 173.5,-0.5"/>
<text text-anchor="middle" x="208.5" y="-45.5" font-family="Helvetica,sans-Serif" font-size="10.00">gu_nao_arm</text>
<polyline fill="none" stroke="black" points="173.5,-38.5 243.5,-38.5 "/>
<text text-anchor="middle" x="208.5" y="-26.5" font-family="Helvetica,sans-Serif" font-size="10.00"> </text>
<polyline fill="none" stroke="black" points="173.5,-19.5 243.5,-19.5 "/>
<text text-anchor="middle" x="208.5" y="-7.5" font-family="Helvetica,sans-Serif" font-size="10.00"> </text>
</a>
</g>
</g>
<!-- Node2 -->
<g id="node2" class="node">
<title>Node2</title>
<g id="a_node2"><a xlink:href="structgu__pitch__roll__joint.html" target="_top" xlink:title=" ">
<polygon fill="none" stroke="black" points="0,-111 0,-179 95,-179 95,-111 0,-111"/>
<text text-anchor="middle" x="47.5" y="-167" font-family="Helvetica,sans-Serif" font-size="10.00">gu_pitch_roll_joint</text>
<polyline fill="none" stroke="black" points="0,-160 95,-160 "/>
<text text-anchor="start" x="8" y="-148" font-family="Helvetica,sans-Serif" font-size="10.00">+ pitch</text>
<text text-anchor="start" x="8" y="-137" font-family="Helvetica,sans-Serif" font-size="10.00">+ roll</text>
<polyline fill="none" stroke="black" points="0,-130 95,-130 "/>
<text text-anchor="middle" x="47.5" y="-118" font-family="Helvetica,sans-Serif" font-size="10.00"> </text>
</a>
</g>
</g>
<!-- Node2&#45;&gt;Node1 -->
<g id="edge1" class="edge">
<title>Node2&#45;&gt;Node1</title>
<path fill="none" stroke="#404040" d="M87.43,-110.82C101.69,-99.4 118.05,-86.79 133.5,-76 142.79,-69.51 152.99,-62.92 162.8,-56.84"/>
<polygon fill="none" stroke="#404040" points="162.99,-56.72 166.02,-50.18 173.22,-50.46 170.19,-57 162.99,-56.72"/>
<text text-anchor="middle" x="156.5" y="-79" font-family="Helvetica,sans-Serif" font-size="10.00"> +shoulder</text>
</g>
<!-- Node3 -->
<g id="node3" class="node">
<title>Node3</title>
<g id="a_node3"><a xlink:href="structgu__yaw__roll__joint.html" target="_top" xlink:title=" ">
<polygon fill="none" stroke="black" points="113,-111 113,-179 204,-179 204,-111 113,-111"/>
<text text-anchor="middle" x="158.5" y="-167" font-family="Helvetica,sans-Serif" font-size="10.00">gu_yaw_roll_joint</text>
<polyline fill="none" stroke="black" points="113,-160 204,-160 "/>
<text text-anchor="start" x="121" y="-148" font-family="Helvetica,sans-Serif" font-size="10.00">+ yaw</text>
<text text-anchor="start" x="121" y="-137" font-family="Helvetica,sans-Serif" font-size="10.00">+ roll</text>
<polyline fill="none" stroke="black" points="113,-130 204,-130 "/>
<text text-anchor="middle" x="158.5" y="-118" font-family="Helvetica,sans-Serif" font-size="10.00"> </text>
</a>
</g>
</g>
<!-- Node3&#45;&gt;Node1 -->
<g id="edge2" class="edge">
<title>Node3&#45;&gt;Node1</title>
<path fill="none" stroke="#404040" d="M173.1,-110.72C178.86,-97.58 185.52,-82.38 191.5,-68.75"/>
<polygon fill="none" stroke="#404040" points="191.51,-68.73 190.26,-61.63 196.33,-57.74 197.59,-64.84 191.51,-68.73"/>
<text text-anchor="middle" x="205.5" y="-79" font-family="Helvetica,sans-Serif" font-size="10.00"> +elbow</text>
</g>
<!-- Node4 -->
<g id="node4" class="node">
<title>Node4</title>
<g id="a_node4"><a xlink:href="structgu__yaw__joint.html" target="_top" xlink:title=" ">
<polygon fill="none" stroke="black" points="222,-116.5 222,-173.5 295,-173.5 295,-116.5 222,-116.5"/>
<text text-anchor="middle" x="258.5" y="-161.5" font-family="Helvetica,sans-Serif" font-size="10.00">gu_yaw_joint</text>
<polyline fill="none" stroke="black" points="222,-154.5 295,-154.5 "/>
<text text-anchor="start" x="230" y="-142.5" font-family="Helvetica,sans-Serif" font-size="10.00">+ yaw</text>
<polyline fill="none" stroke="black" points="222,-135.5 295,-135.5 "/>
<text text-anchor="middle" x="258.5" y="-123.5" font-family="Helvetica,sans-Serif" font-size="10.00"> </text>
</a>
</g>
</g>
<!-- Node4&#45;&gt;Node1 -->
<g id="edge3" class="edge">
<title>Node4&#45;&gt;Node1</title>
<path fill="none" stroke="#404040" d="M246.4,-116.4C240.18,-102.23 232.49,-84.71 225.67,-69.16"/>
<polygon fill="none" stroke="#404040" points="225.49,-68.73 219.41,-64.84 220.67,-57.74 226.74,-61.63 225.49,-68.73"/>
<text text-anchor="middle" x="248.5" y="-79" font-family="Helvetica,sans-Serif" font-size="10.00"> +wrist</text>
</g>
<!-- Node5 -->
<g id="node5" class="node">
<title>Node5</title>
<g id="a_node5"><a xlink:href="structgu__nao__hand__sensors.html" target="_top" xlink:title=" ">
<polygon fill="none" stroke="black" points="313.5,-105.5 313.5,-184.5 427.5,-184.5 427.5,-105.5 313.5,-105.5"/>
<text text-anchor="middle" x="370.5" y="-172.5" font-family="Helvetica,sans-Serif" font-size="10.00">gu_nao_hand_sensors</text>
<polyline fill="none" stroke="black" points="313.5,-165.5 427.5,-165.5 "/>
<text text-anchor="start" x="321.5" y="-153.5" font-family="Helvetica,sans-Serif" font-size="10.00">+ touchLeft</text>
<text text-anchor="start" x="321.5" y="-142.5" font-family="Helvetica,sans-Serif" font-size="10.00">+ touchBack</text>
<text text-anchor="start" x="321.5" y="-131.5" font-family="Helvetica,sans-Serif" font-size="10.00">+ touchRight</text>
<polyline fill="none" stroke="black" points="313.5,-124.5 427.5,-124.5 "/>
<text text-anchor="middle" x="370.5" y="-112.5" font-family="Helvetica,sans-Serif" font-size="10.00"> </text>
</a>
</g>
</g>
<!-- Node5&#45;&gt;Node1 -->
<g id="edge4" class="edge">
<title>Node5&#45;&gt;Node1</title>
<path fill="none" stroke="#404040" d="M315.65,-105.4C295.58,-91.28 273.1,-75.46 253.94,-61.98"/>
<polygon fill="none" stroke="#404040" points="253.78,-61.86 246.57,-61.68 243.96,-54.96 251.17,-55.14 253.78,-61.86"/>
<text text-anchor="middle" x="304.5" y="-79" font-family="Helvetica,sans-Serif" font-size="10.00"> +hand</text>
</g>
</g>
</svg>
