<?xml version="1.0" encoding="UTF-8" standalone="no"?>
<!DOCTYPE svg PUBLIC "-//W3C//DTD SVG 1.1//EN"
 "http://www.w3.org/Graphics/SVG/1.1/DTD/svg11.dtd">
<!-- Generated by graphviz version 2.49.0 (20210830.1337)
 -->
<!-- Title: gu_nao_joints Pages: 1 -->
<svg width="863pt" height="309pt"
 viewBox="0.00 0.00 863.00 309.00" xmlns="http://www.w3.org/2000/svg" xmlns:xlink="http://www.w3.org/1999/xlink">
<g id="graph0" class="graph" transform="scale(1 1) rotate(0) translate(4 305)">
<title>gu_nao_joints</title>
<!-- Node1 -->
<g id="node1" class="node">
<title>Node1</title>
<g id="a_node1"><a xlink:title=" ">
<polygon fill="#bfbfbf" stroke="black" points="338.5,-0.5 338.5,-57.5 415.5,-57.5 415.5,-0.5 338.5,-0.5"/>
<text text-anchor="middle" x="377" y="-45.5" font-family="Helvetica,sans-Serif" font-size="10.00">gu_nao_joints</text>
<polyline fill="none" stroke="black" points="338.5,-38.5 415.5,-38.5 "/>
<text text-anchor="middle" x="377" y="-26.5" font-family="Helvetica,sans-Serif" font-size="10.00"> </text>
<polyline fill="none" stroke="black" points="338.5,-19.5 415.5,-19.5 "/>
<text text-anchor="middle" x="377" y="-7.5" font-family="Helvetica,sans-Serif" font-size="10.00"> </text>
</a>
</g>
</g>
<!-- Node2 -->
<g id="node2" class="node">
<title>Node2</title>
<g id="a_node2"><a xlink:href="structgu__nao__head.html" target="_top" xlink:title=" ">
<polygon fill="none" stroke="black" points="145,-116.5 145,-173.5 219,-173.5 219,-116.5 145,-116.5"/>
<text text-anchor="middle" x="182" y="-161.5" font-family="Helvetica,sans-Serif" font-size="10.00">gu_nao_head</text>
<polyline fill="none" stroke="black" points="145,-154.5 219,-154.5 "/>
<text text-anchor="middle" x="182" y="-142.5" font-family="Helvetica,sans-Serif" font-size="10.00"> </text>
<polyline fill="none" stroke="black" points="145,-135.5 219,-135.5 "/>
<text text-anchor="middle" x="182" y="-123.5" font-family="Helvetica,sans-Serif" font-size="10.00"> </text>
</a>
</g>
</g>
<!-- Node2&#45;&gt;Node1 -->
<g id="edge1" class="edge">
<title>Node2&#45;&gt;Node1</title>
<path fill="none" stroke="#404040" d="M219.14,-122.29C249.95,-104.28 294.02,-78.51 327.77,-58.78"/>
<polygon fill="none" stroke="#404040" points="327.97,-58.66 331.13,-52.18 338.33,-52.61 335.17,-59.09 327.97,-58.66"/>
<text text-anchor="middle" x="312" y="-84.5" font-family="Helvetica,sans-Serif" font-size="10.00"> +head</text>
</g>
<!-- Node3 -->
<g id="node3" class="node">
<title>Node3</title>
<g id="a_node3"><a xlink:href="structgu__pitch__yaw__joint.html" target="_top" xlink:title=" ">
<polygon fill="none" stroke="black" points="132.5,-227 132.5,-295 231.5,-295 231.5,-227 132.5,-227"/>
<text text-anchor="middle" x="182" y="-283" font-family="Helvetica,sans-Serif" font-size="10.00">gu_pitch_yaw_joint</text>
<polyline fill="none" stroke="black" points="132.5,-276 231.5,-276 "/>
<text text-anchor="start" x="140.5" y="-264" font-family="Helvetica,sans-Serif" font-size="10.00">+ pitch</text>
<text text-anchor="start" x="140.5" y="-253" font-family="Helvetica,sans-Serif" font-size="10.00">+ yaw</text>
<polyline fill="none" stroke="black" points="132.5,-246 231.5,-246 "/>
<text text-anchor="middle" x="182" y="-234" font-family="Helvetica,sans-Serif" font-size="10.00"> </text>
</a>
</g>
</g>
<!-- Node3&#45;&gt;Node2 -->
<g id="edge2" class="edge">
<title>Node3&#45;&gt;Node2</title>
<path fill="none" stroke="#404040" d="M182,-226.72C182,-213.97 182,-199.29 182,-185.98"/>
<polygon fill="none" stroke="#404040" points="182,-185.74 178,-179.74 182,-173.74 186,-179.74 182,-185.74"/>
<text text-anchor="middle" x="197" y="-195" font-family="Helvetica,sans-Serif" font-size="10.00"> +neck</text>
</g>
<!-- Node4 -->
<g id="node4" class="node">
<title>Node4</title>
<g id="a_node4"><a xlink:href="structgu__nao__head__sensors.html" target="_top" xlink:title=" ">
<polygon fill="none" stroke="black" points="0,-221.5 0,-300.5 114,-300.5 114,-221.5 0,-221.5"/>
<text text-anchor="middle" x="57" y="-288.5" font-family="Helvetica,sans-Serif" font-size="10.00">gu_nao_head_sensors</text>
<polyline fill="none" stroke="black" points="0,-281.5 114,-281.5 "/>
<text text-anchor="start" x="8" y="-269.5" font-family="Helvetica,sans-Serif" font-size="10.00">+ touchFront</text>
<text text-anchor="start" x="8" y="-258.5" font-family="Helvetica,sans-Serif" font-size="10.00">+ touchMiddle</text>
<text text-anchor="start" x="8" y="-247.5" font-family="Helvetica,sans-Serif" font-size="10.00">+ touchRear</text>
<polyline fill="none" stroke="black" points="0,-240.5 114,-240.5 "/>
<text text-anchor="middle" x="57" y="-228.5" font-family="Helvetica,sans-Serif" font-size="10.00"> </text>
</a>
</g>
</g>
<!-- Node4&#45;&gt;Node2 -->
<g id="edge3" class="edge">
<title>Node4&#45;&gt;Node2</title>
<path fill="none" stroke="#404040" d="M99.32,-221.4C113.25,-208.7 128.67,-194.64 142.39,-182.13"/>
<polygon fill="none" stroke="#404040" points="142.7,-181.84 144.44,-174.84 151.57,-173.75 149.83,-180.75 142.7,-181.84"/>
<text text-anchor="middle" x="151.5" y="-195" font-family="Helvetica,sans-Serif" font-size="10.00"> +buttons</text>
</g>
<!-- Node5 -->
<g id="node5" class="node">
<title>Node5</title>
<g id="a_node5"><a xlink:href="structgu__nao__arm.html" target="_top" xlink:title=" ">
<polygon fill="none" stroke="black" points="551,-116.5 551,-173.5 621,-173.5 621,-116.5 551,-116.5"/>
<text text-anchor="middle" x="586" y="-161.5" font-family="Helvetica,sans-Serif" font-size="10.00">gu_nao_arm</text>
<polyline fill="none" stroke="black" points="551,-154.5 621,-154.5 "/>
<text text-anchor="middle" x="586" y="-142.5" font-family="Helvetica,sans-Serif" font-size="10.00"> </text>
<polyline fill="none" stroke="black" points="551,-135.5 621,-135.5 "/>
<text text-anchor="middle" x="586" y="-123.5" font-family="Helvetica,sans-Serif" font-size="10.00"> </text>
</a>
</g>
</g>
<!-- Node5&#45;&gt;Node1 -->
<g id="edge4" class="edge">
<title>Node5&#45;&gt;Node1</title>
<path fill="none" stroke="#404040" d="M550.55,-124.66C516.52,-106.1 464.82,-77.9 426.69,-57.1"/>
<polygon fill="none" stroke="#404040" points="426.36,-56.92 419.18,-57.56 415.83,-51.18 423.01,-50.54 426.36,-56.92"/>
<text text-anchor="middle" x="522.5" y="-90" font-family="Helvetica,sans-Serif" font-size="10.00"> +leftArm</text>
<text text-anchor="middle" x="522.5" y="-79" font-family="Helvetica,sans-Serif" font-size="10.00">+rightArm</text>
</g>
<!-- Node6 -->
<g id="node6" class="node">
<title>Node6</title>
<g id="a_node6"><a xlink:href="structgu__pitch__roll__joint.html" target="_top" xlink:title=" ">
<polygon fill="none" stroke="black" points="427.5,-227 427.5,-295 522.5,-295 522.5,-227 427.5,-227"/>
<text text-anchor="middle" x="475" y="-283" font-family="Helvetica,sans-Serif" font-size="10.00">gu_pitch_roll_joint</text>
<polyline fill="none" stroke="black" points="427.5,-276 522.5,-276 "/>
<text text-anchor="start" x="435.5" y="-264" font-family="Helvetica,sans-Serif" font-size="10.00">+ pitch</text>
<text text-anchor="start" x="435.5" y="-253" font-family="Helvetica,sans-Serif" font-size="10.00">+ roll</text>
<polyline fill="none" stroke="black" points="427.5,-246 522.5,-246 "/>
<text text-anchor="middle" x="475" y="-234" font-family="Helvetica,sans-Serif" font-size="10.00"> </text>
</a>
</g>
</g>
<!-- Node6&#45;&gt;Node5 -->
<g id="edge5" class="edge">
<title>Node6&#45;&gt;Node5</title>
<path fill="none" stroke="#404040" d="M503.55,-226.9C513.58,-215.62 525.08,-203.06 536,-192 539.31,-188.65 542.8,-185.23 546.34,-181.83"/>
<polygon fill="none" stroke="#404040" points="546.42,-181.75 548.04,-174.73 555.15,-173.52 553.53,-180.55 546.42,-181.75"/>
<text text-anchor="middle" x="559" y="-195" font-family="Helvetica,sans-Serif" font-size="10.00"> +shoulder</text>
</g>
<!-- Node10 -->
<g id="node10" class="node">
<title>Node10</title>
<g id="a_node10"><a xlink:href="structgu__nao__leg.html" target="_top" xlink:title=" ">
<polygon fill="none" stroke="black" points="344,-116.5 344,-173.5 410,-173.5 410,-116.5 344,-116.5"/>
<text text-anchor="middle" x="377" y="-161.5" font-family="Helvetica,sans-Serif" font-size="10.00">gu_nao_leg</text>
<polyline fill="none" stroke="black" points="344,-154.5 410,-154.5 "/>
<text text-anchor="middle" x="377" y="-142.5" font-family="Helvetica,sans-Serif" font-size="10.00"> </text>
<polyline fill="none" stroke="black" points="344,-135.5 410,-135.5 "/>
<text text-anchor="middle" x="377" y="-123.5" font-family="Helvetica,sans-Serif" font-size="10.00"> </text>
</a>
</g>
</g>
<!-- Node6&#45;&gt;Node10 -->
<g id="edge12" class="edge">
<title>Node6&#45;&gt;Node10</title>
<path fill="none" stroke="#404040" d="M446.39,-226.72C434.64,-213.05 420.98,-197.17 408.91,-183.12"/>
<polygon fill="none" stroke="#404040" points="408.67,-182.84 401.73,-180.9 400.85,-173.74 407.79,-175.68 408.67,-182.84"/>
<text text-anchor="middle" x="442" y="-195" font-family="Helvetica,sans-Serif" font-size="10.00"> +ankle</text>
</g>
<!-- Node7 -->
<g id="node7" class="node">
<title>Node7</title>
<g id="a_node7"><a xlink:href="structgu__yaw__roll__joint.html" target="_top" xlink:title=" ">
<polygon fill="none" stroke="black" points="540.5,-227 540.5,-295 631.5,-295 631.5,-227 540.5,-227"/>
<text text-anchor="middle" x="586" y="-283" font-family="Helvetica,sans-Serif" font-size="10.00">gu_yaw_roll_joint</text>
<polyline fill="none" stroke="black" points="540.5,-276 631.5,-276 "/>
<text text-anchor="start" x="548.5" y="-264" font-family="Helvetica,sans-Serif" font-size="10.00">+ yaw</text>
<text text-anchor="start" x="548.5" y="-253" font-family="Helvetica,sans-Serif" font-size="10.00">+ roll</text>
<polyline fill="none" stroke="black" points="540.5,-246 631.5,-246 "/>
<text text-anchor="middle" x="586" y="-234" font-family="Helvetica,sans-Serif" font-size="10.00"> </text>
</a>
</g>
</g>
<!-- Node7&#45;&gt;Node5 -->
<g id="edge6" class="edge">
<title>Node7&#45;&gt;Node5</title>
<path fill="none" stroke="#404040" d="M586,-226.72C586,-213.97 586,-199.29 586,-185.98"/>
<polygon fill="none" stroke="#404040" points="586,-185.74 582,-179.74 586,-173.74 590,-179.74 586,-185.74"/>
<text text-anchor="middle" x="603" y="-195" font-family="Helvetica,sans-Serif" font-size="10.00"> +elbow</text>
</g>
<!-- Node8 -->
<g id="node8" class="node">
<title>Node8</title>
<g id="a_node8"><a xlink:href="structgu__yaw__joint.html" target="_top" xlink:title=" ">
<polygon fill="none" stroke="black" points="649.5,-232.5 649.5,-289.5 722.5,-289.5 722.5,-232.5 649.5,-232.5"/>
<text text-anchor="middle" x="686" y="-277.5" font-family="Helvetica,sans-Serif" font-size="10.00">gu_yaw_joint</text>
<polyline fill="none" stroke="black" points="649.5,-270.5 722.5,-270.5 "/>
<text text-anchor="start" x="657.5" y="-258.5" font-family="Helvetica,sans-Serif" font-size="10.00">+ yaw</text>
<polyline fill="none" stroke="black" points="649.5,-251.5 722.5,-251.5 "/>
<text text-anchor="middle" x="686" y="-239.5" font-family="Helvetica,sans-Serif" font-size="10.00"> </text>
</a>
</g>
</g>
<!-- Node8&#45;&gt;Node5 -->
<g id="edge7" class="edge">
<title>Node8&#45;&gt;Node5</title>
<path fill="none" stroke="#404040" d="M661.79,-232.4C648.75,-217.53 632.47,-198.98 618.35,-182.88"/>
<polygon fill="none" stroke="#404040" points="618.24,-182.76 611.28,-180.89 610.33,-173.74 617.29,-175.61 618.24,-182.76"/>
<text text-anchor="middle" x="651" y="-195" font-family="Helvetica,sans-Serif" font-size="10.00"> +wrist</text>
</g>
<!-- Node9 -->
<g id="node9" class="node">
<title>Node9</title>
<g id="a_node9"><a xlink:href="structgu__nao__hand__sensors.html" target="_top" xlink:title=" ">
<polygon fill="none" stroke="black" points="741,-221.5 741,-300.5 855,-300.5 855,-221.5 741,-221.5"/>
<text text-anchor="middle" x="798" y="-288.5" font-family="Helvetica,sans-Serif" font-size="10.00">gu_nao_hand_sensors</text>
<polyline fill="none" stroke="black" points="741,-281.5 855,-281.5 "/>
<text text-anchor="start" x="749" y="-269.5" font-family="Helvetica,sans-Serif" font-size="10.00">+ touchLeft</text>
<text text-anchor="start" x="749" y="-258.5" font-family="Helvetica,sans-Serif" font-size="10.00">+ touchBack</text>
<text text-anchor="start" x="749" y="-247.5" font-family="Helvetica,sans-Serif" font-size="10.00">+ touchRight</text>
<polyline fill="none" stroke="black" points="741,-240.5 855,-240.5 "/>
<text text-anchor="middle" x="798" y="-228.5" font-family="Helvetica,sans-Serif" font-size="10.00"> </text>
</a>
</g>
</g>
<!-- Node9&#45;&gt;Node5 -->
<g id="edge8" class="edge">
<title>Node9&#45;&gt;Node5</title>
<path fill="none" stroke="#404040" d="M740.88,-225.97C737.89,-224.27 734.91,-222.61 732,-221 698.96,-202.77 661.04,-183.33 632.12,-168.82"/>
<polygon fill="none" stroke="#404040" points="631.85,-168.68 624.69,-169.57 621.11,-163.31 628.27,-162.42 631.85,-168.68"/>
<text text-anchor="middle" x="711" y="-195" font-family="Helvetica,sans-Serif" font-size="10.00"> +hand</text>
</g>
<!-- Node10&#45;&gt;Node1 -->
<g id="edge9" class="edge">
<title>Node10&#45;&gt;Node1</title>
<path fill="none" stroke="#404040" d="M377,-116.4C377,-102.5 377,-85.39 377,-70.07"/>
<polygon fill="none" stroke="#404040" points="377,-69.74 373,-63.74 377,-57.74 381,-63.74 377,-69.74"/>
<text text-anchor="middle" x="398" y="-90" font-family="Helvetica,sans-Serif" font-size="10.00"> +leftLeg</text>
<text text-anchor="middle" x="398" y="-79" font-family="Helvetica,sans-Serif" font-size="10.00">+rightLeg</text>
</g>
<!-- Node11 -->
<g id="node11" class="node">
<title>Node11</title>
<g id="a_node11"><a xlink:href="structgu__yp__joint.html" target="_top" xlink:title=" ">
<polygon fill="none" stroke="black" points="344.5,-221.5 344.5,-300.5 409.5,-300.5 409.5,-221.5 344.5,-221.5"/>
<text text-anchor="middle" x="377" y="-288.5" font-family="Helvetica,sans-Serif" font-size="10.00">gu_yp_joint</text>
<polyline fill="none" stroke="black" points="344.5,-281.5 409.5,-281.5 "/>
<text text-anchor="start" x="352.5" y="-269.5" font-family="Helvetica,sans-Serif" font-size="10.00">+ pitch</text>
<text text-anchor="start" x="352.5" y="-258.5" font-family="Helvetica,sans-Serif" font-size="10.00">+ roll</text>
<text text-anchor="start" x="352.5" y="-247.5" font-family="Helvetica,sans-Serif" font-size="10.00">+ yawPitch</text>
<polyline fill="none" stroke="black" points="344.5,-240.5 409.5,-240.5 "/>
<text text-anchor="middle" x="377" y="-228.5" font-family="Helvetica,sans-Serif" font-size="10.00"> </text>
</a>
</g>
</g>
<!-- Node11&#45;&gt;Node10 -->
<g id="edge10" class="edge">
<title>Node11&#45;&gt;Node10</title>
<path fill="none" stroke="#404040" d="M377,-221.4C377,-209.93 377,-197.33 377,-185.78"/>
<polygon fill="none" stroke="#404040" points="377,-185.75 373,-179.75 377,-173.75 381,-179.75 377,-185.75"/>
<text text-anchor="middle" x="388" y="-195" font-family="Helvetica,sans-Serif" font-size="10.00"> +hip</text>
</g>
<!-- Node12 -->
<g id="node12" class="node">
<title>Node12</title>
<g id="a_node12"><a xlink:href="structgu__pitch__joint.html" target="_top" xlink:title=" ">
<polygon fill="none" stroke="black" points="249.5,-232.5 249.5,-289.5 326.5,-289.5 326.5,-232.5 249.5,-232.5"/>
<text text-anchor="middle" x="288" y="-277.5" font-family="Helvetica,sans-Serif" font-size="10.00">gu_pitch_joint</text>
<polyline fill="none" stroke="black" points="249.5,-270.5 326.5,-270.5 "/>
<text text-anchor="start" x="257.5" y="-258.5" font-family="Helvetica,sans-Serif" font-size="10.00">+ pitch</text>
<polyline fill="none" stroke="black" points="249.5,-251.5 326.5,-251.5 "/>
<text text-anchor="middle" x="288" y="-239.5" font-family="Helvetica,sans-Serif" font-size="10.00"> </text>
</a>
</g>
</g>
<!-- Node12&#45;&gt;Node10 -->
<g id="edge11" class="edge">
<title>Node12&#45;&gt;Node10</title>
<path fill="none" stroke="#404040" d="M309.54,-232.4C321.05,-217.67 335.37,-199.33 347.85,-183.34"/>
<polygon fill="none" stroke="#404040" points="347.96,-183.2 348.5,-176.01 355.35,-173.74 354.81,-180.93 347.96,-183.2"/>
<text text-anchor="middle" x="356" y="-195" font-family="Helvetica,sans-Serif" font-size="10.00"> +knee</text>
</g>
</g>
</svg>
