<?xml version="1.0" encoding="UTF-8" standalone="no"?>
<!DOCTYPE svg PUBLIC "-//W3C//DTD SVG 1.1//EN"
 "http://www.w3.org/Graphics/SVG/1.1/DTD/svg11.dtd">
<!-- Generated by graphviz version 2.49.0 (20210830.1337)
 -->
<!-- Title: GU::PitchJoint Pages: 1 -->
<svg width="88pt" height="270pt"
 viewBox="0.00 0.00 88.00 270.00" xmlns="http://www.w3.org/2000/svg" xmlns:xlink="http://www.w3.org/1999/xlink">
<g id="graph0" class="graph" transform="scale(1 1) rotate(0) translate(4 266)">
<title>GU::PitchJoint</title>
<!-- Node1 -->
<g id="node1" class="node">
<title>Node1</title>
<g id="a_node1"><a xlink:title=" ">
<polygon fill="#bfbfbf" stroke="black" points="0,-0.5 0,-167.5 80,-167.5 80,-0.5 0,-0.5"/>
<text text-anchor="middle" x="40" y="-155.5" font-family="Helvetica,sans-Serif" font-size="10.00">GU::PitchJoint</text>
<polyline fill="none" stroke="black" points="0,-148.5 80,-148.5 "/>
<text text-anchor="middle" x="40" y="-136.5" font-family="Helvetica,sans-Serif" font-size="10.00"> </text>
<polyline fill="none" stroke="black" points="0,-129.5 80,-129.5 "/>
<text text-anchor="start" x="8" y="-117.5" font-family="Helvetica,sans-Serif" font-size="10.00">+ PitchJoint()</text>
<text text-anchor="start" x="8" y="-106.5" font-family="Helvetica,sans-Serif" font-size="10.00">+ PitchJoint()</text>
<text text-anchor="start" x="8" y="-95.5" font-family="Helvetica,sans-Serif" font-size="10.00">+ PitchJoint()</text>
<text text-anchor="start" x="8" y="-84.5" font-family="Helvetica,sans-Serif" font-size="10.00">+ PitchJoint()</text>
<text text-anchor="start" x="8" y="-73.5" font-family="Helvetica,sans-Serif" font-size="10.00">+ PitchJoint()</text>
<text text-anchor="start" x="8" y="-62.5" font-family="Helvetica,sans-Serif" font-size="10.00">+ ~PitchJoint()</text>
<text text-anchor="start" x="8" y="-51.5" font-family="Helvetica,sans-Serif" font-size="10.00">+ operator=()</text>
<text text-anchor="start" x="8" y="-40.5" font-family="Helvetica,sans-Serif" font-size="10.00">+ operator=()</text>
<text text-anchor="start" x="8" y="-29.5" font-family="Helvetica,sans-Serif" font-size="10.00">+ operator=()</text>
<text text-anchor="start" x="8" y="-18.5" font-family="Helvetica,sans-Serif" font-size="10.00">+ pitch()</text>
<text text-anchor="start" x="8" y="-7.5" font-family="Helvetica,sans-Serif" font-size="10.00">+ set_pitch()</text>
</a>
</g>
</g>
<!-- Node2 -->
<g id="node2" class="node">
<title>Node2</title>
<g id="a_node2"><a xlink:href="structgu__pitch__joint.html" target="_top" xlink:title=" ">
<polygon fill="none" stroke="black" points="1.5,-204.5 1.5,-261.5 78.5,-261.5 78.5,-204.5 1.5,-204.5"/>
<text text-anchor="middle" x="40" y="-249.5" font-family="Helvetica,sans-Serif" font-size="10.00">gu_pitch_joint</text>
<polyline fill="none" stroke="black" points="1.5,-242.5 78.5,-242.5 "/>
<text text-anchor="start" x="9.5" y="-230.5" font-family="Helvetica,sans-Serif" font-size="10.00">+ pitch</text>
<polyline fill="none" stroke="black" points="1.5,-223.5 78.5,-223.5 "/>
<text text-anchor="middle" x="40" y="-211.5" font-family="Helvetica,sans-Serif" font-size="10.00"> </text>
</a>
</g>
</g>
<!-- Node2&#45;&gt;Node1 -->
<g id="edge1" class="edge">
<title>Node2&#45;&gt;Node1</title>
<path fill="none" stroke="midnightblue" d="M40,-194.35C40,-186.08 40,-177.01 40,-167.74"/>
<polygon fill="none" stroke="midnightblue" points="36.5,-194.35 40,-204.35 43.5,-194.35 36.5,-194.35"/>
</g>
</g>
</svg>
