<?xml version="1.0" encoding="UTF-8" standalone="no"?>
<!DOCTYPE svg PUBLIC "-//W3C//DTD SVG 1.1//EN"
 "http://www.w3.org/Graphics/SVG/1.1/DTD/svg11.dtd">
<!-- Generated by graphviz version 2.49.0 (20210830.1337)
 -->
<!-- Title: gu_optional_ellipse_sighting Pages: 1 -->
<svg width="107pt" height="204pt"
 viewBox="0.00 0.00 107.00 204.00" xmlns="http://www.w3.org/2000/svg" xmlns:xlink="http://www.w3.org/1999/xlink">
<g id="graph0" class="graph" transform="scale(1 1) rotate(0) translate(4 200)">
<title>gu_optional_ellipse_sighting</title>
<!-- Node1 -->
<g id="node1" class="node">
<title>Node1</title>
<g id="a_node1"><a xlink:title=" ">
<polygon fill="#bfbfbf" stroke="black" points="0,-0.5 0,-68.5 99,-68.5 99,-0.5 0,-0.5"/>
<text text-anchor="start" x="8" y="-56.5" font-family="Helvetica,sans-Serif" font-size="10.00">gu_optional_ellipse</text>
<text text-anchor="middle" x="49.5" y="-45.5" font-family="Helvetica,sans-Serif" font-size="10.00">_sighting</text>
<polyline fill="none" stroke="black" points="0,-38.5 99,-38.5 "/>
<text text-anchor="start" x="8" y="-26.5" font-family="Helvetica,sans-Serif" font-size="10.00">+ has_value</text>
<polyline fill="none" stroke="black" points="0,-19.5 99,-19.5 "/>
<text text-anchor="middle" x="49.5" y="-7.5" font-family="Helvetica,sans-Serif" font-size="10.00"> </text>
</a>
</g>
</g>
<!-- Node2 -->
<g id="node2" class="node">
<title>Node2</title>
<g id="a_node2"><a xlink:href="structgu__ellipse__sighting.html" target="_top" xlink:title=" ">
<polygon fill="none" stroke="black" points="0,-116.5 0,-195.5 99,-195.5 99,-116.5 0,-116.5"/>
<text text-anchor="middle" x="49.5" y="-183.5" font-family="Helvetica,sans-Serif" font-size="10.00">gu_ellipse_sighting</text>
<polyline fill="none" stroke="black" points="0,-176.5 99,-176.5 "/>
<text text-anchor="start" x="8" y="-164.5" font-family="Helvetica,sans-Serif" font-size="10.00">+ centerPoint</text>
<text text-anchor="start" x="8" y="-153.5" font-family="Helvetica,sans-Serif" font-size="10.00">+ verticalRadius</text>
<text text-anchor="start" x="8" y="-142.5" font-family="Helvetica,sans-Serif" font-size="10.00">+ horizontalRadius</text>
<polyline fill="none" stroke="black" points="0,-135.5 99,-135.5 "/>
<text text-anchor="middle" x="49.5" y="-123.5" font-family="Helvetica,sans-Serif" font-size="10.00"> </text>
</a>
</g>
</g>
<!-- Node2&#45;&gt;Node1 -->
<g id="edge1" class="edge">
<title>Node2&#45;&gt;Node1</title>
<path fill="none" stroke="#404040" d="M49.5,-116.2C49.5,-104.99 49.5,-92.65 49.5,-81.07"/>
<polygon fill="none" stroke="#404040" points="49.5,-80.89 45.5,-74.89 49.5,-68.89 53.5,-74.89 49.5,-80.89"/>
<text text-anchor="middle" x="65.5" y="-90" font-family="Helvetica,sans-Serif" font-size="10.00"> +value</text>
</g>
</g>
</svg>
