<?xml version="1.0" encoding="UTF-8" standalone="no"?>
<!DOCTYPE svg PUBLIC "-//W3C//DTD SVG 1.1//EN"
 "http://www.w3.org/Graphics/SVG/1.1/DTD/svg11.dtd">
<!-- Generated by graphviz version 2.49.0 (20210830.1337)
 -->
<!-- Title: gu_optional_horizon_sighting Pages: 1 -->
<svg width="235pt" height="309pt"
 viewBox="0.00 0.00 234.50 309.00" xmlns="http://www.w3.org/2000/svg" xmlns:xlink="http://www.w3.org/1999/xlink">
<g id="graph0" class="graph" transform="scale(1 1) rotate(0) translate(4 305)">
<title>gu_optional_horizon_sighting</title>
<!-- Node1 -->
<g id="node1" class="node">
<title>Node1</title>
<g id="a_node1"><a xlink:title=" ">
<polygon fill="#bfbfbf" stroke="black" points="60.5,-0.5 60.5,-68.5 162.5,-68.5 162.5,-0.5 60.5,-0.5"/>
<text text-anchor="start" x="68.5" y="-56.5" font-family="Helvetica,sans-Serif" font-size="10.00">gu_optional_horizon</text>
<text text-anchor="middle" x="111.5" y="-45.5" font-family="Helvetica,sans-Serif" font-size="10.00">_sighting</text>
<polyline fill="none" stroke="black" points="60.5,-38.5 162.5,-38.5 "/>
<text text-anchor="start" x="68.5" y="-26.5" font-family="Helvetica,sans-Serif" font-size="10.00">+ has_value</text>
<polyline fill="none" stroke="black" points="60.5,-19.5 162.5,-19.5 "/>
<text text-anchor="middle" x="111.5" y="-7.5" font-family="Helvetica,sans-Serif" font-size="10.00"> </text>
</a>
</g>
</g>
<!-- Node2 -->
<g id="node2" class="node">
<title>Node2</title>
<g id="a_node2"><a xlink:href="structgu__horizon__sighting.html" target="_top" xlink:title=" ">
<polygon fill="none" stroke="black" points="60.5,-116.5 60.5,-173.5 162.5,-173.5 162.5,-116.5 60.5,-116.5"/>
<text text-anchor="middle" x="111.5" y="-161.5" font-family="Helvetica,sans-Serif" font-size="10.00">gu_horizon_sighting</text>
<polyline fill="none" stroke="black" points="60.5,-154.5 162.5,-154.5 "/>
<text text-anchor="start" x="68.5" y="-142.5" font-family="Helvetica,sans-Serif" font-size="10.00">+ sightingType</text>
<polyline fill="none" stroke="black" points="60.5,-135.5 162.5,-135.5 "/>
<text text-anchor="middle" x="111.5" y="-123.5" font-family="Helvetica,sans-Serif" font-size="10.00"> </text>
</a>
</g>
</g>
<!-- Node2&#45;&gt;Node1 -->
<g id="edge1" class="edge">
<title>Node2&#45;&gt;Node1</title>
<path fill="none" stroke="#404040" d="M111.5,-116.34C111.5,-105.53 111.5,-92.85 111.5,-80.77"/>
<polygon fill="none" stroke="#404040" points="111.5,-80.52 107.5,-74.52 111.5,-68.52 115.5,-74.52 111.5,-80.52"/>
<text text-anchor="middle" x="127.5" y="-90" font-family="Helvetica,sans-Serif" font-size="10.00"> +value</text>
</g>
<!-- Node3 -->
<g id="node3" class="node">
<title>Node3</title>
<g id="a_node3"><a xlink:href="structgu__line__sighting.html" target="_top" xlink:title=" ">
<polygon fill="none" stroke="black" points="0,-227 0,-295 103,-295 103,-227 0,-227"/>
<text text-anchor="middle" x="51.5" y="-283" font-family="Helvetica,sans-Serif" font-size="10.00">gu_line_sighting</text>
<polyline fill="none" stroke="black" points="0,-276 103,-276 "/>
<text text-anchor="start" x="8" y="-264" font-family="Helvetica,sans-Serif" font-size="10.00">+ leftOrBottomPoint</text>
<text text-anchor="start" x="8" y="-253" font-family="Helvetica,sans-Serif" font-size="10.00">+ rightOrTopPoint</text>
<polyline fill="none" stroke="black" points="0,-246 103,-246 "/>
<text text-anchor="middle" x="51.5" y="-234" font-family="Helvetica,sans-Serif" font-size="10.00"> </text>
</a>
</g>
</g>
<!-- Node3&#45;&gt;Node2 -->
<g id="edge2" class="edge">
<title>Node3&#45;&gt;Node2</title>
<path fill="none" stroke="#404040" d="M69.02,-226.72C75.93,-213.58 83.93,-198.38 91.11,-184.75"/>
<polygon fill="none" stroke="#404040" points="91.31,-184.36 90.56,-177.19 96.9,-173.74 97.64,-180.91 91.31,-184.36"/>
<text text-anchor="middle" x="117" y="-195" font-family="Helvetica,sans-Serif" font-size="10.00"> +lineSighting</text>
</g>
<!-- Node4 -->
<g id="node4" class="node">
<title>Node4</title>
<g id="a_node4"><a xlink:href="structgu__corner__sighting.html" target="_top" xlink:title=" ">
<polygon fill="none" stroke="black" points="121,-221.5 121,-300.5 224,-300.5 224,-221.5 121,-221.5"/>
<text text-anchor="middle" x="172.5" y="-288.5" font-family="Helvetica,sans-Serif" font-size="10.00">gu_corner_sighting</text>
<polyline fill="none" stroke="black" points="121,-281.5 224,-281.5 "/>
<text text-anchor="start" x="129" y="-269.5" font-family="Helvetica,sans-Serif" font-size="10.00">+ leftOrBottomPoint</text>
<text text-anchor="start" x="129" y="-258.5" font-family="Helvetica,sans-Serif" font-size="10.00">+ centerPoint</text>
<text text-anchor="start" x="129" y="-247.5" font-family="Helvetica,sans-Serif" font-size="10.00">+ rightOrTopPoint</text>
<polyline fill="none" stroke="black" points="121,-240.5 224,-240.5 "/>
<text text-anchor="middle" x="172.5" y="-228.5" font-family="Helvetica,sans-Serif" font-size="10.00"> </text>
</a>
</g>
</g>
<!-- Node4&#45;&gt;Node2 -->
<g id="edge3" class="edge">
<title>Node4&#45;&gt;Node2</title>
<path fill="none" stroke="#404040" d="M162.92,-221.49C159.68,-211.56 155.57,-201.11 150.5,-192 148.91,-189.14 147.12,-186.29 145.22,-183.5"/>
<polygon fill="none" stroke="#404040" points="145.07,-183.3 138.28,-180.87 137.9,-173.67 144.69,-176.1 145.07,-183.3"/>
<text text-anchor="middle" x="191" y="-195" font-family="Helvetica,sans-Serif" font-size="10.00"> +cornerSighting</text>
</g>
</g>
</svg>
