<?xml version="1.0" encoding="UTF-8" standalone="no"?>
<!DOCTYPE svg PUBLIC "-//W3C//DTD SVG 1.1//EN"
 "http://www.w3.org/Graphics/SVG/1.1/DTD/svg11.dtd">
<!-- Generated by graphviz version 2.49.0 (20210830.1337)
 -->
<!-- Title: gu_yaw_roll_joint Pages: 1 -->
<svg width="101pt" height="303pt"
 viewBox="0.00 0.00 101.00 303.00" xmlns="http://www.w3.org/2000/svg" xmlns:xlink="http://www.w3.org/1999/xlink">
<g id="graph0" class="graph" transform="scale(1 1) rotate(0) translate(4 299)">
<title>gu_yaw_roll_joint</title>
<!-- Node1 -->
<g id="node1" class="node">
<title>Node1</title>
<g id="a_node1"><a xlink:title=" ">
<polygon fill="#bfbfbf" stroke="black" points="1,-226.5 1,-294.5 92,-294.5 92,-226.5 1,-226.5"/>
<text text-anchor="middle" x="46.5" y="-282.5" font-family="Helvetica,sans-Serif" font-size="10.00">gu_yaw_roll_joint</text>
<polyline fill="none" stroke="black" points="1,-275.5 92,-275.5 "/>
<text text-anchor="start" x="9" y="-263.5" font-family="Helvetica,sans-Serif" font-size="10.00">+ yaw</text>
<text text-anchor="start" x="9" y="-252.5" font-family="Helvetica,sans-Serif" font-size="10.00">+ roll</text>
<polyline fill="none" stroke="black" points="1,-245.5 92,-245.5 "/>
<text text-anchor="middle" x="46.5" y="-233.5" font-family="Helvetica,sans-Serif" font-size="10.00"> </text>
</a>
</g>
</g>
<!-- Node2 -->
<g id="node2" class="node">
<title>Node2</title>
<g id="a_node2"><a xlink:href="struct_g_u_1_1_yaw_roll_joint.html" target="_top" xlink:title=" ">
<polygon fill="none" stroke="black" points="0,-0.5 0,-189.5 93,-189.5 93,-0.5 0,-0.5"/>
<text text-anchor="middle" x="46.5" y="-177.5" font-family="Helvetica,sans-Serif" font-size="10.00">GU::YawRollJoint</text>
<polyline fill="none" stroke="black" points="0,-170.5 93,-170.5 "/>
<text text-anchor="middle" x="46.5" y="-158.5" font-family="Helvetica,sans-Serif" font-size="10.00"> </text>
<polyline fill="none" stroke="black" points="0,-151.5 93,-151.5 "/>
<text text-anchor="start" x="8" y="-139.5" font-family="Helvetica,sans-Serif" font-size="10.00">+ YawRollJoint()</text>
<text text-anchor="start" x="8" y="-128.5" font-family="Helvetica,sans-Serif" font-size="10.00">+ YawRollJoint()</text>
<text text-anchor="start" x="8" y="-117.5" font-family="Helvetica,sans-Serif" font-size="10.00">+ YawRollJoint()</text>
<text text-anchor="start" x="8" y="-106.5" font-family="Helvetica,sans-Serif" font-size="10.00">+ YawRollJoint()</text>
<text text-anchor="start" x="8" y="-95.5" font-family="Helvetica,sans-Serif" font-size="10.00">+ YawRollJoint()</text>
<text text-anchor="start" x="8" y="-84.5" font-family="Helvetica,sans-Serif" font-size="10.00">+ ~YawRollJoint()</text>
<text text-anchor="start" x="8" y="-73.5" font-family="Helvetica,sans-Serif" font-size="10.00">+ operator=()</text>
<text text-anchor="start" x="8" y="-62.5" font-family="Helvetica,sans-Serif" font-size="10.00">+ operator=()</text>
<text text-anchor="start" x="8" y="-51.5" font-family="Helvetica,sans-Serif" font-size="10.00">+ operator=()</text>
<text text-anchor="start" x="8" y="-40.5" font-family="Helvetica,sans-Serif" font-size="10.00">+ yaw()</text>
<text text-anchor="start" x="8" y="-29.5" font-family="Helvetica,sans-Serif" font-size="10.00">+ set_yaw()</text>
<text text-anchor="start" x="8" y="-18.5" font-family="Helvetica,sans-Serif" font-size="10.00">+ roll()</text>
<text text-anchor="start" x="8" y="-7.5" font-family="Helvetica,sans-Serif" font-size="10.00">+ set_roll()</text>
</a>
</g>
</g>
<!-- Node1&#45;&gt;Node2 -->
<g id="edge1" class="edge">
<title>Node1&#45;&gt;Node2</title>
<path fill="none" stroke="midnightblue" d="M46.5,-216.25C46.5,-207.9 46.5,-198.85 46.5,-189.6"/>
<polygon fill="none" stroke="midnightblue" points="43,-216.41 46.5,-226.41 50,-216.41 43,-216.41"/>
</g>
</g>
</svg>
