<?xml version="1.0" encoding="UTF-8" standalone="no"?>
<!DOCTYPE svg PUBLIC "-//W3C//DTD SVG 1.1//EN"
 "http://www.w3.org/Graphics/SVG/1.1/DTD/svg11.dtd">
<!-- Generated by graphviz version 2.49.0 (20210830.1337)
 -->
<!-- Title: GU::NaoV5 Pages: 1 -->
<svg width="1429pt" height="867pt"
 viewBox="0.00 0.00 1429.00 867.00" xmlns="http://www.w3.org/2000/svg" xmlns:xlink="http://www.w3.org/1999/xlink">
<g id="graph0" class="graph" transform="scale(1 1) rotate(0) translate(4 863)">
<title>GU::NaoV5</title>
<!-- Node1 -->
<g id="node1" class="node">
<title>Node1</title>
<g id="a_node1"><a xlink:title=" ">
<polygon fill="#bfbfbf" stroke="black" points="618.5,-0.5 618.5,-167.5 704.5,-167.5 704.5,-0.5 618.5,-0.5"/>
<text text-anchor="middle" x="661.5" y="-155.5" font-family="Helvetica,sans-Serif" font-size="10.00">GU::NaoV5</text>
<polyline fill="none" stroke="black" points="618.5,-148.5 704.5,-148.5 "/>
<text text-anchor="middle" x="661.5" y="-136.5" font-family="Helvetica,sans-Serif" font-size="10.00"> </text>
<polyline fill="none" stroke="black" points="618.5,-129.5 704.5,-129.5 "/>
<text text-anchor="start" x="626.5" y="-117.5" font-family="Helvetica,sans-Serif" font-size="10.00">+ NaoV5()</text>
<text text-anchor="start" x="626.5" y="-106.5" font-family="Helvetica,sans-Serif" font-size="10.00">+ NaoV5()</text>
<text text-anchor="start" x="626.5" y="-95.5" font-family="Helvetica,sans-Serif" font-size="10.00">+ NaoV5()</text>
<text text-anchor="start" x="626.5" y="-84.5" font-family="Helvetica,sans-Serif" font-size="10.00">+ NaoV5()</text>
<text text-anchor="start" x="626.5" y="-73.5" font-family="Helvetica,sans-Serif" font-size="10.00">+ ~NaoV5()</text>
<text text-anchor="start" x="626.5" y="-62.5" font-family="Helvetica,sans-Serif" font-size="10.00">+ operator=()</text>
<text text-anchor="start" x="626.5" y="-51.5" font-family="Helvetica,sans-Serif" font-size="10.00">+ operator=()</text>
<text text-anchor="start" x="626.5" y="-40.5" font-family="Helvetica,sans-Serif" font-size="10.00">+ joints()</text>
<text text-anchor="start" x="626.5" y="-29.5" font-family="Helvetica,sans-Serif" font-size="10.00">+ locations()</text>
<text text-anchor="start" x="626.5" y="-18.5" font-family="Helvetica,sans-Serif" font-size="10.00">+ cameraPivot()</text>
<text text-anchor="start" x="626.5" y="-7.5" font-family="Helvetica,sans-Serif" font-size="10.00">and 17 more...</text>
</a>
</g>
</g>
<!-- Node2 -->
<g id="node2" class="node">
<title>Node2</title>
<g id="a_node2"><a xlink:href="structgu__nao.html" target="_top" xlink:title=" ">
<polygon fill="none" stroke="black" points="619,-205.5 619,-273.5 704,-273.5 704,-205.5 619,-205.5"/>
<text text-anchor="middle" x="661.5" y="-261.5" font-family="Helvetica,sans-Serif" font-size="10.00">gu_nao</text>
<polyline fill="none" stroke="black" points="619,-254.5 704,-254.5 "/>
<text text-anchor="start" x="627" y="-242.5" font-family="Helvetica,sans-Serif" font-size="10.00">+ playerNumber</text>
<text text-anchor="start" x="627" y="-231.5" font-family="Helvetica,sans-Serif" font-size="10.00">+ fieldPosition</text>
<polyline fill="none" stroke="black" points="619,-224.5 704,-224.5 "/>
<text text-anchor="middle" x="661.5" y="-212.5" font-family="Helvetica,sans-Serif" font-size="10.00"> </text>
</a>
</g>
</g>
<!-- Node2&#45;&gt;Node1 -->
<g id="edge1" class="edge">
<title>Node2&#45;&gt;Node1</title>
<path fill="none" stroke="midnightblue" d="M661.5,-195.06C661.5,-186.44 661.5,-177.12 661.5,-167.68"/>
<polygon fill="none" stroke="midnightblue" points="658,-195.19 661.5,-205.19 665,-195.19 658,-195.19"/>
</g>
<!-- Node3 -->
<g id="node3" class="node">
<title>Node3</title>
<g id="a_node3"><a xlink:href="structgu__optional__ball__position.html" target="_top" xlink:title="Provides the ability to specify whether we have a valid value for a gu_ball_position or not.">
<polygon fill="none" stroke="black" points="284,-365.5 284,-422.5 409,-422.5 409,-365.5 284,-365.5"/>
<text text-anchor="middle" x="346.5" y="-410.5" font-family="Helvetica,sans-Serif" font-size="10.00">gu_optional_ball_position</text>
<polyline fill="none" stroke="black" points="284,-403.5 409,-403.5 "/>
<text text-anchor="start" x="292" y="-391.5" font-family="Helvetica,sans-Serif" font-size="10.00">+ has_value</text>
<polyline fill="none" stroke="black" points="284,-384.5 409,-384.5 "/>
<text text-anchor="middle" x="346.5" y="-372.5" font-family="Helvetica,sans-Serif" font-size="10.00"> </text>
</a>
</g>
</g>
<!-- Node3&#45;&gt;Node2 -->
<g id="edge2" class="edge">
<title>Node3&#45;&gt;Node2</title>
<path fill="none" stroke="#404040" d="M403.54,-365.38C461.55,-337.3 550.76,-294.11 607.61,-266.59"/>
<polygon fill="none" stroke="#404040" points="607.73,-266.53 611.38,-260.32 618.53,-261.3 614.87,-267.52 607.73,-266.53"/>
<text text-anchor="middle" x="581" y="-300.5" font-family="Helvetica,sans-Serif" font-size="10.00"> +ballPosition</text>
</g>
<!-- Node4 -->
<g id="node4" class="node">
<title>Node4</title>
<g id="a_node4"><a xlink:href="structgu__ball__position.html" target="_top" xlink:title="A data structure representing the position and orientation of the soccer ball on the soccer field.">
<polygon fill="none" stroke="black" points="110.5,-531 110.5,-588 196.5,-588 196.5,-531 110.5,-531"/>
<text text-anchor="middle" x="153.5" y="-576" font-family="Helvetica,sans-Serif" font-size="10.00">gu_ball_position</text>
<polyline fill="none" stroke="black" points="110.5,-569 196.5,-569 "/>
<text text-anchor="start" x="118.5" y="-557" font-family="Helvetica,sans-Serif" font-size="10.00">+ position</text>
<polyline fill="none" stroke="black" points="110.5,-550 196.5,-550 "/>
<text text-anchor="middle" x="153.5" y="-538" font-family="Helvetica,sans-Serif" font-size="10.00"> </text>
</a>
</g>
</g>
<!-- Node4&#45;&gt;Node3 -->
<g id="edge3" class="edge">
<title>Node4&#45;&gt;Node3</title>
<path fill="none" stroke="#404040" d="M186.24,-530.76C218.78,-503.2 268.82,-460.8 304.32,-430.73"/>
<polygon fill="none" stroke="#404040" points="304.77,-430.35 306.76,-423.42 313.92,-422.6 311.93,-429.53 304.77,-430.35"/>
<text text-anchor="middle" x="266.5" y="-488" font-family="Helvetica,sans-Serif" font-size="10.00"> +value</text>
</g>
<!-- Node5 -->
<g id="node5" class="node">
<title>Node5</title>
<g id="a_node5"><a xlink:href="structgu__orientation.html" target="_top" xlink:title="The configuration of the orientation of the object with respect to the three angular coordinates.">
<polygon fill="none" stroke="black" points="0,-647 0,-726 77,-726 77,-647 0,-647"/>
<text text-anchor="middle" x="38.5" y="-714" font-family="Helvetica,sans-Serif" font-size="10.00">gu_orientation</text>
<polyline fill="none" stroke="black" points="0,-707 77,-707 "/>
<text text-anchor="start" x="8" y="-695" font-family="Helvetica,sans-Serif" font-size="10.00">+ pitch</text>
<text text-anchor="start" x="8" y="-684" font-family="Helvetica,sans-Serif" font-size="10.00">+ yaw</text>
<text text-anchor="start" x="8" y="-673" font-family="Helvetica,sans-Serif" font-size="10.00">+ roll</text>
<polyline fill="none" stroke="black" points="0,-666 77,-666 "/>
<text text-anchor="middle" x="38.5" y="-654" font-family="Helvetica,sans-Serif" font-size="10.00"> </text>
</a>
</g>
</g>
<!-- Node5&#45;&gt;Node4 -->
<g id="edge4" class="edge">
<title>Node5&#45;&gt;Node4</title>
<path fill="none" stroke="#404040" d="M41.12,-646.92C43.51,-634.78 47.82,-621.96 55.5,-612 66.66,-597.53 83.05,-586.71 99.24,-578.82"/>
<polygon fill="none" stroke="#404040" points="99.41,-578.74 103.23,-572.63 110.35,-573.81 106.52,-579.92 99.41,-578.74"/>
<text text-anchor="middle" x="82.5" y="-615" font-family="Helvetica,sans-Serif" font-size="10.00"> +orientation</text>
</g>
<!-- Node6 -->
<g id="node6" class="node">
<title>Node6</title>
<g id="a_node6"><a xlink:href="structgu__nao__joints.html" target="_top" xlink:title=" ">
<polygon fill="none" stroke="black" points="541,-365.5 541,-422.5 618,-422.5 618,-365.5 541,-365.5"/>
<text text-anchor="middle" x="579.5" y="-410.5" font-family="Helvetica,sans-Serif" font-size="10.00">gu_nao_joints</text>
<polyline fill="none" stroke="black" points="541,-403.5 618,-403.5 "/>
<text text-anchor="middle" x="579.5" y="-391.5" font-family="Helvetica,sans-Serif" font-size="10.00"> </text>
<polyline fill="none" stroke="black" points="541,-384.5 618,-384.5 "/>
<text text-anchor="middle" x="579.5" y="-372.5" font-family="Helvetica,sans-Serif" font-size="10.00"> </text>
</a>
</g>
</g>
<!-- Node6&#45;&gt;Node2 -->
<g id="edge5" class="edge">
<title>Node6&#45;&gt;Node2</title>
<path fill="none" stroke="#404040" d="M594.35,-365.38C606.46,-342.85 623.81,-310.6 637.83,-284.51"/>
<polygon fill="none" stroke="#404040" points="637.93,-284.33 637.25,-277.15 643.62,-273.76 644.3,-280.94 637.93,-284.33"/>
<text text-anchor="middle" x="649.5" y="-300.5" font-family="Helvetica,sans-Serif" font-size="10.00"> +joints</text>
</g>
<!-- Node7 -->
<g id="node7" class="node">
<title>Node7</title>
<g id="a_node7"><a xlink:href="structgu__nao__head.html" target="_top" xlink:title=" ">
<polygon fill="none" stroke="black" points="731.5,-531 731.5,-588 805.5,-588 805.5,-531 731.5,-531"/>
<text text-anchor="middle" x="768.5" y="-576" font-family="Helvetica,sans-Serif" font-size="10.00">gu_nao_head</text>
<polyline fill="none" stroke="black" points="731.5,-569 805.5,-569 "/>
<text text-anchor="middle" x="768.5" y="-557" font-family="Helvetica,sans-Serif" font-size="10.00"> </text>
<polyline fill="none" stroke="black" points="731.5,-550 805.5,-550 "/>
<text text-anchor="middle" x="768.5" y="-538" font-family="Helvetica,sans-Serif" font-size="10.00"> </text>
</a>
</g>
</g>
<!-- Node7&#45;&gt;Node6 -->
<g id="edge6" class="edge">
<title>Node7&#45;&gt;Node6</title>
<path fill="none" stroke="#404040" d="M731.32,-535.55C701.57,-516.27 659.66,-486.96 627.5,-456 620.11,-448.89 612.88,-440.62 606.36,-432.51"/>
<polygon fill="none" stroke="#404040" points="606.16,-432.25 599.32,-429.97 598.8,-422.78 605.64,-425.06 606.16,-432.25"/>
<text text-anchor="middle" x="701.5" y="-488" font-family="Helvetica,sans-Serif" font-size="10.00"> +head</text>
</g>
<!-- Node8 -->
<g id="node8" class="node">
<title>Node8</title>
<g id="a_node8"><a xlink:href="structgu__pitch__yaw__joint.html" target="_top" xlink:title=" ">
<polygon fill="none" stroke="black" points="719,-652.5 719,-720.5 818,-720.5 818,-652.5 719,-652.5"/>
<text text-anchor="middle" x="768.5" y="-708.5" font-family="Helvetica,sans-Serif" font-size="10.00">gu_pitch_yaw_joint</text>
<polyline fill="none" stroke="black" points="719,-701.5 818,-701.5 "/>
<text text-anchor="start" x="727" y="-689.5" font-family="Helvetica,sans-Serif" font-size="10.00">+ pitch</text>
<text text-anchor="start" x="727" y="-678.5" font-family="Helvetica,sans-Serif" font-size="10.00">+ yaw</text>
<polyline fill="none" stroke="black" points="719,-671.5 818,-671.5 "/>
<text text-anchor="middle" x="768.5" y="-659.5" font-family="Helvetica,sans-Serif" font-size="10.00"> </text>
</a>
</g>
</g>
<!-- Node8&#45;&gt;Node7 -->
<g id="edge7" class="edge">
<title>Node8&#45;&gt;Node7</title>
<path fill="none" stroke="#404040" d="M768.5,-652.33C768.5,-636.42 768.5,-617.24 768.5,-600.52"/>
<polygon fill="none" stroke="#404040" points="768.5,-600.32 764.5,-594.32 768.5,-588.32 772.5,-594.32 768.5,-600.32"/>
<text text-anchor="middle" x="783.5" y="-615" font-family="Helvetica,sans-Serif" font-size="10.00"> +neck</text>
</g>
<!-- Node9 -->
<g id="node9" class="node">
<title>Node9</title>
<g id="a_node9"><a xlink:href="structgu__nao__head__sensors.html" target="_top" xlink:title=" ">
<polygon fill="none" stroke="black" points="836.5,-647 836.5,-726 950.5,-726 950.5,-647 836.5,-647"/>
<text text-anchor="middle" x="893.5" y="-714" font-family="Helvetica,sans-Serif" font-size="10.00">gu_nao_head_sensors</text>
<polyline fill="none" stroke="black" points="836.5,-707 950.5,-707 "/>
<text text-anchor="start" x="844.5" y="-695" font-family="Helvetica,sans-Serif" font-size="10.00">+ touchFront</text>
<text text-anchor="start" x="844.5" y="-684" font-family="Helvetica,sans-Serif" font-size="10.00">+ touchMiddle</text>
<text text-anchor="start" x="844.5" y="-673" font-family="Helvetica,sans-Serif" font-size="10.00">+ touchRear</text>
<polyline fill="none" stroke="black" points="836.5,-666 950.5,-666 "/>
<text text-anchor="middle" x="893.5" y="-654" font-family="Helvetica,sans-Serif" font-size="10.00"> </text>
</a>
</g>
</g>
<!-- Node9&#45;&gt;Node7 -->
<g id="edge8" class="edge">
<title>Node9&#45;&gt;Node7</title>
<path fill="none" stroke="#404040" d="M854.98,-646.98C839.15,-631.15 820.9,-612.9 805.25,-597.25"/>
<polygon fill="none" stroke="#404040" points="804.87,-596.87 797.8,-595.45 796.38,-588.38 803.45,-589.8 804.87,-596.87"/>
<text text-anchor="middle" x="852" y="-615" font-family="Helvetica,sans-Serif" font-size="10.00"> +buttons</text>
</g>
<!-- Node10 -->
<g id="node10" class="node">
<title>Node10</title>
<g id="a_node10"><a xlink:href="structgu__nao__arm.html" target="_top" xlink:title=" ">
<polygon fill="none" stroke="black" points="329.5,-531 329.5,-588 399.5,-588 399.5,-531 329.5,-531"/>
<text text-anchor="middle" x="364.5" y="-576" font-family="Helvetica,sans-Serif" font-size="10.00">gu_nao_arm</text>
<polyline fill="none" stroke="black" points="329.5,-569 399.5,-569 "/>
<text text-anchor="middle" x="364.5" y="-557" font-family="Helvetica,sans-Serif" font-size="10.00"> </text>
<polyline fill="none" stroke="black" points="329.5,-550 399.5,-550 "/>
<text text-anchor="middle" x="364.5" y="-538" font-family="Helvetica,sans-Serif" font-size="10.00"> </text>
</a>
</g>
</g>
<!-- Node10&#45;&gt;Node6 -->
<g id="edge9" class="edge">
<title>Node10&#45;&gt;Node6</title>
<path fill="none" stroke="#404040" d="M399.52,-531.87C436.02,-504.11 493.37,-460.5 533.5,-429.98"/>
<polygon fill="none" stroke="#404040" points="533.5,-429.98 535.86,-423.16 543.05,-422.72 540.7,-429.53 533.5,-429.98"/>
<text text-anchor="middle" x="494" y="-493.5" font-family="Helvetica,sans-Serif" font-size="10.00"> +leftArm</text>
<text text-anchor="middle" x="494" y="-482.5" font-family="Helvetica,sans-Serif" font-size="10.00">+rightArm</text>
</g>
<!-- Node11 -->
<g id="node11" class="node">
<title>Node11</title>
<g id="a_node11"><a xlink:href="structgu__pitch__roll__joint.html" target="_top" xlink:title=" ">
<polygon fill="none" stroke="black" points="428,-652.5 428,-720.5 523,-720.5 523,-652.5 428,-652.5"/>
<text text-anchor="middle" x="475.5" y="-708.5" font-family="Helvetica,sans-Serif" font-size="10.00">gu_pitch_roll_joint</text>
<polyline fill="none" stroke="black" points="428,-701.5 523,-701.5 "/>
<text text-anchor="start" x="436" y="-689.5" font-family="Helvetica,sans-Serif" font-size="10.00">+ pitch</text>
<text text-anchor="start" x="436" y="-678.5" font-family="Helvetica,sans-Serif" font-size="10.00">+ roll</text>
<polyline fill="none" stroke="black" points="428,-671.5 523,-671.5 "/>
<text text-anchor="middle" x="475.5" y="-659.5" font-family="Helvetica,sans-Serif" font-size="10.00"> </text>
</a>
</g>
</g>
<!-- Node11&#45;&gt;Node10 -->
<g id="edge10" class="edge">
<title>Node11&#45;&gt;Node10</title>
<path fill="none" stroke="#404040" d="M446.05,-652.33C431.09,-635.49 412.87,-614.97 397.45,-597.6"/>
<polygon fill="none" stroke="#404040" points="397.17,-597.29 390.2,-595.46 389.21,-588.32 396.18,-590.15 397.17,-597.29"/>
<text text-anchor="middle" x="443.5" y="-615" font-family="Helvetica,sans-Serif" font-size="10.00"> +shoulder</text>
</g>
<!-- Node15 -->
<g id="node15" class="node">
<title>Node15</title>
<g id="a_node15"><a xlink:href="structgu__nao__leg.html" target="_top" xlink:title=" ">
<polygon fill="none" stroke="black" points="546.5,-531 546.5,-588 612.5,-588 612.5,-531 546.5,-531"/>
<text text-anchor="middle" x="579.5" y="-576" font-family="Helvetica,sans-Serif" font-size="10.00">gu_nao_leg</text>
<polyline fill="none" stroke="black" points="546.5,-569 612.5,-569 "/>
<text text-anchor="middle" x="579.5" y="-557" font-family="Helvetica,sans-Serif" font-size="10.00"> </text>
<polyline fill="none" stroke="black" points="546.5,-550 612.5,-550 "/>
<text text-anchor="middle" x="579.5" y="-538" font-family="Helvetica,sans-Serif" font-size="10.00"> </text>
</a>
</g>
</g>
<!-- Node11&#45;&gt;Node15 -->
<g id="edge17" class="edge">
<title>Node11&#45;&gt;Node15</title>
<path fill="none" stroke="#404040" d="M503.1,-652.33C517.11,-635.49 534.18,-614.97 548.63,-597.6"/>
<polygon fill="none" stroke="#404040" points="548.68,-597.55 549.44,-590.38 556.35,-588.32 555.59,-595.49 548.68,-597.55"/>
<text text-anchor="middle" x="550.5" y="-615" font-family="Helvetica,sans-Serif" font-size="10.00"> +ankle</text>
</g>
<!-- Node12 -->
<g id="node12" class="node">
<title>Node12</title>
<g id="a_node12"><a xlink:href="structgu__yaw__roll__joint.html" target="_top" xlink:title=" ">
<polygon fill="none" stroke="black" points="319,-652.5 319,-720.5 410,-720.5 410,-652.5 319,-652.5"/>
<text text-anchor="middle" x="364.5" y="-708.5" font-family="Helvetica,sans-Serif" font-size="10.00">gu_yaw_roll_joint</text>
<polyline fill="none" stroke="black" points="319,-701.5 410,-701.5 "/>
<text text-anchor="start" x="327" y="-689.5" font-family="Helvetica,sans-Serif" font-size="10.00">+ yaw</text>
<text text-anchor="start" x="327" y="-678.5" font-family="Helvetica,sans-Serif" font-size="10.00">+ roll</text>
<polyline fill="none" stroke="black" points="319,-671.5 410,-671.5 "/>
<text text-anchor="middle" x="364.5" y="-659.5" font-family="Helvetica,sans-Serif" font-size="10.00"> </text>
</a>
</g>
</g>
<!-- Node12&#45;&gt;Node10 -->
<g id="edge11" class="edge">
<title>Node12&#45;&gt;Node10</title>
<path fill="none" stroke="#404040" d="M364.5,-652.33C364.5,-636.42 364.5,-617.24 364.5,-600.52"/>
<polygon fill="none" stroke="#404040" points="364.5,-600.32 360.5,-594.32 364.5,-588.32 368.5,-594.32 364.5,-600.32"/>
<text text-anchor="middle" x="381.5" y="-615" font-family="Helvetica,sans-Serif" font-size="10.00"> +elbow</text>
</g>
<!-- Node13 -->
<g id="node13" class="node">
<title>Node13</title>
<g id="a_node13"><a xlink:href="structgu__yaw__joint.html" target="_top" xlink:title=" ">
<polygon fill="none" stroke="black" points="95,-658 95,-715 168,-715 168,-658 95,-658"/>
<text text-anchor="middle" x="131.5" y="-703" font-family="Helvetica,sans-Serif" font-size="10.00">gu_yaw_joint</text>
<polyline fill="none" stroke="black" points="95,-696 168,-696 "/>
<text text-anchor="start" x="103" y="-684" font-family="Helvetica,sans-Serif" font-size="10.00">+ yaw</text>
<polyline fill="none" stroke="black" points="95,-677 168,-677 "/>
<text text-anchor="middle" x="131.5" y="-665" font-family="Helvetica,sans-Serif" font-size="10.00"> </text>
</a>
</g>
</g>
<!-- Node13&#45;&gt;Node10 -->
<g id="edge12" class="edge">
<title>Node13&#45;&gt;Node10</title>
<path fill="none" stroke="#404040" d="M156.83,-657.85C163.2,-651.81 170.29,-645.81 177.5,-641 221.71,-611.55 278.47,-588.93 317.8,-575.27"/>
<polygon fill="none" stroke="#404040" points="317.8,-575.27 322.2,-569.55 329.17,-571.41 324.77,-577.13 317.8,-575.27"/>
<text text-anchor="middle" x="241.5" y="-615" font-family="Helvetica,sans-Serif" font-size="10.00"> +wrist</text>
</g>
<!-- Node14 -->
<g id="node14" class="node">
<title>Node14</title>
<g id="a_node14"><a xlink:href="structgu__nao__hand__sensors.html" target="_top" xlink:title=" ">
<polygon fill="none" stroke="black" points="186.5,-647 186.5,-726 300.5,-726 300.5,-647 186.5,-647"/>
<text text-anchor="middle" x="243.5" y="-714" font-family="Helvetica,sans-Serif" font-size="10.00">gu_nao_hand_sensors</text>
<polyline fill="none" stroke="black" points="186.5,-707 300.5,-707 "/>
<text text-anchor="start" x="194.5" y="-695" font-family="Helvetica,sans-Serif" font-size="10.00">+ touchLeft</text>
<text text-anchor="start" x="194.5" y="-684" font-family="Helvetica,sans-Serif" font-size="10.00">+ touchBack</text>
<text text-anchor="start" x="194.5" y="-673" font-family="Helvetica,sans-Serif" font-size="10.00">+ touchRight</text>
<polyline fill="none" stroke="black" points="186.5,-666 300.5,-666 "/>
<text text-anchor="middle" x="243.5" y="-654" font-family="Helvetica,sans-Serif" font-size="10.00"> </text>
</a>
</g>
</g>
<!-- Node14&#45;&gt;Node10 -->
<g id="edge13" class="edge">
<title>Node14&#45;&gt;Node10</title>
<path fill="none" stroke="#404040" d="M280.79,-646.98C296.12,-631.15 313.78,-612.9 328.92,-597.25"/>
<polygon fill="none" stroke="#404040" points="329.16,-597 330.46,-589.91 337.51,-588.38 336.21,-595.48 329.16,-597"/>
<text text-anchor="middle" x="326.5" y="-615" font-family="Helvetica,sans-Serif" font-size="10.00"> +hand</text>
</g>
<!-- Node15&#45;&gt;Node6 -->
<g id="edge14" class="edge">
<title>Node15&#45;&gt;Node6</title>
<path fill="none" stroke="#404040" d="M579.5,-530.76C579.5,-504.38 579.5,-464.4 579.5,-434.65"/>
<polygon fill="none" stroke="#404040" points="579.5,-434.6 575.5,-428.6 579.5,-422.6 583.5,-428.6 579.5,-434.6"/>
<text text-anchor="middle" x="600.5" y="-493.5" font-family="Helvetica,sans-Serif" font-size="10.00"> +leftLeg</text>
<text text-anchor="middle" x="600.5" y="-482.5" font-family="Helvetica,sans-Serif" font-size="10.00">+rightLeg</text>
</g>
<!-- Node16 -->
<g id="node16" class="node">
<title>Node16</title>
<g id="a_node16"><a xlink:href="structgu__yp__joint.html" target="_top" xlink:title=" ">
<polygon fill="none" stroke="black" points="636,-647 636,-726 701,-726 701,-647 636,-647"/>
<text text-anchor="middle" x="668.5" y="-714" font-family="Helvetica,sans-Serif" font-size="10.00">gu_yp_joint</text>
<polyline fill="none" stroke="black" points="636,-707 701,-707 "/>
<text text-anchor="start" x="644" y="-695" font-family="Helvetica,sans-Serif" font-size="10.00">+ pitch</text>
<text text-anchor="start" x="644" y="-684" font-family="Helvetica,sans-Serif" font-size="10.00">+ roll</text>
<text text-anchor="start" x="644" y="-673" font-family="Helvetica,sans-Serif" font-size="10.00">+ yawPitch</text>
<polyline fill="none" stroke="black" points="636,-666 701,-666 "/>
<text text-anchor="middle" x="668.5" y="-654" font-family="Helvetica,sans-Serif" font-size="10.00"> </text>
</a>
</g>
</g>
<!-- Node16&#45;&gt;Node15 -->
<g id="edge15" class="edge">
<title>Node16&#45;&gt;Node15</title>
<path fill="none" stroke="#404040" d="M641.07,-646.98C630.12,-631.59 617.53,-613.92 606.61,-598.57"/>
<polygon fill="none" stroke="#404040" points="606.31,-598.16 599.57,-595.59 599.35,-588.38 606.09,-590.95 606.31,-598.16"/>
<text text-anchor="middle" x="635.5" y="-615" font-family="Helvetica,sans-Serif" font-size="10.00"> +hip</text>
</g>
<!-- Node17 -->
<g id="node17" class="node">
<title>Node17</title>
<g id="a_node17"><a xlink:href="structgu__pitch__joint.html" target="_top" xlink:title=" ">
<polygon fill="none" stroke="black" points="541,-658 541,-715 618,-715 618,-658 541,-658"/>
<text text-anchor="middle" x="579.5" y="-703" font-family="Helvetica,sans-Serif" font-size="10.00">gu_pitch_joint</text>
<polyline fill="none" stroke="black" points="541,-696 618,-696 "/>
<text text-anchor="start" x="549" y="-684" font-family="Helvetica,sans-Serif" font-size="10.00">+ pitch</text>
<polyline fill="none" stroke="black" points="541,-677 618,-677 "/>
<text text-anchor="middle" x="579.5" y="-665" font-family="Helvetica,sans-Serif" font-size="10.00"> </text>
</a>
</g>
</g>
<!-- Node17&#45;&gt;Node15 -->
<g id="edge16" class="edge">
<title>Node17&#45;&gt;Node15</title>
<path fill="none" stroke="#404040" d="M579.5,-657.76C579.5,-640.85 579.5,-618.96 579.5,-600.23"/>
<polygon fill="none" stroke="#404040" points="579.5,-600.16 575.5,-594.16 579.5,-588.16 583.5,-594.16 579.5,-600.16"/>
<text text-anchor="middle" x="594.5" y="-615" font-family="Helvetica,sans-Serif" font-size="10.00"> +knee</text>
</g>
<!-- Node18 -->
<g id="node18" class="node">
<title>Node18</title>
<g id="a_node18"><a xlink:href="structgu__soccer__locations.html" target="_top" xlink:title=" ">
<polygon fill="none" stroke="black" points="636.5,-349 636.5,-439 742.5,-439 742.5,-349 636.5,-349"/>
<text text-anchor="middle" x="689.5" y="-427" font-family="Helvetica,sans-Serif" font-size="10.00">gu_soccer_locations</text>
<polyline fill="none" stroke="black" points="636.5,-420 742.5,-420 "/>
<text text-anchor="start" x="644.5" y="-408" font-family="Helvetica,sans-Serif" font-size="10.00">+ ball</text>
<text text-anchor="start" x="644.5" y="-397" font-family="Helvetica,sans-Serif" font-size="10.00">+ leftGoalPost</text>
<text text-anchor="start" x="644.5" y="-386" font-family="Helvetica,sans-Serif" font-size="10.00">+ rightGoalPost</text>
<text text-anchor="start" x="644.5" y="-375" font-family="Helvetica,sans-Serif" font-size="10.00">+ goal</text>
<polyline fill="none" stroke="black" points="636.5,-368 742.5,-368 "/>
<text text-anchor="middle" x="689.5" y="-356" font-family="Helvetica,sans-Serif" font-size="10.00"> </text>
</a>
</g>
</g>
<!-- Node18&#45;&gt;Node2 -->
<g id="edge18" class="edge">
<title>Node18&#45;&gt;Node2</title>
<path fill="none" stroke="#404040" d="M681.4,-348.89C677.76,-329.08 673.47,-305.72 669.81,-285.77"/>
<polygon fill="none" stroke="#404040" points="669.79,-285.65 664.77,-280.47 667.62,-273.85 672.64,-279.03 669.79,-285.65"/>
<text text-anchor="middle" x="699.5" y="-300.5" font-family="Helvetica,sans-Serif" font-size="10.00"> +locations</text>
</g>
<!-- Node19 -->
<g id="node19" class="node">
<title>Node19</title>
<g id="a_node19"><a xlink:href="structgu__soccer__sightings.html" target="_top" xlink:title=" ">
<polygon fill="none" stroke="black" points="1061.5,-332.5 1061.5,-455.5 1167.5,-455.5 1167.5,-332.5 1061.5,-332.5"/>
<text text-anchor="middle" x="1114.5" y="-443.5" font-family="Helvetica,sans-Serif" font-size="10.00">gu_soccer_sightings</text>
<polyline fill="none" stroke="black" points="1061.5,-436.5 1167.5,-436.5 "/>
<text text-anchor="start" x="1069.5" y="-424.5" font-family="Helvetica,sans-Serif" font-size="10.00">+ lineCorners</text>
<text text-anchor="start" x="1069.5" y="-413.5" font-family="Helvetica,sans-Serif" font-size="10.00">+ lineTIntersections</text>
<text text-anchor="start" x="1069.5" y="-402.5" font-family="Helvetica,sans-Serif" font-size="10.00">+ lineCrosses</text>
<text text-anchor="start" x="1069.5" y="-391.5" font-family="Helvetica,sans-Serif" font-size="10.00">+ numLines</text>
<text text-anchor="start" x="1069.5" y="-380.5" font-family="Helvetica,sans-Serif" font-size="10.00">+ numCorners</text>
<text text-anchor="start" x="1069.5" y="-369.5" font-family="Helvetica,sans-Serif" font-size="10.00">+ numTIntersections</text>
<text text-anchor="start" x="1069.5" y="-358.5" font-family="Helvetica,sans-Serif" font-size="10.00">+ numCrosses</text>
<polyline fill="none" stroke="black" points="1061.5,-351.5 1167.5,-351.5 "/>
<text text-anchor="middle" x="1114.5" y="-339.5" font-family="Helvetica,sans-Serif" font-size="10.00"> </text>
</a>
</g>
</g>
<!-- Node19&#45;&gt;Node2 -->
<g id="edge19" class="edge">
<title>Node19&#45;&gt;Node2</title>
<path fill="none" stroke="#404040" d="M1061.2,-375.06C974.33,-345.81 803.15,-288.19 715.7,-258.75"/>
<polygon fill="none" stroke="#404040" points="715.56,-258.7 708.6,-260.58 704.19,-254.87 711.15,-252.99 715.56,-258.7"/>
<text text-anchor="middle" x="931" y="-306" font-family="Helvetica,sans-Serif" font-size="10.00"> +bottomCameraSightings</text>
<text text-anchor="middle" x="931" y="-295" font-family="Helvetica,sans-Serif" font-size="10.00">+topCameraSightings</text>
</g>
<!-- Node20 -->
<g id="node20" class="node">
<title>Node20</title>
<g id="a_node20"><a xlink:href="structgu__optional__ellipse__sighting.html" target="_top" xlink:title=" ">
<polygon fill="none" stroke="black" points="946,-525.5 946,-593.5 1045,-593.5 1045,-525.5 946,-525.5"/>
<text text-anchor="start" x="954" y="-581.5" font-family="Helvetica,sans-Serif" font-size="10.00">gu_optional_ellipse</text>
<text text-anchor="middle" x="995.5" y="-570.5" font-family="Helvetica,sans-Serif" font-size="10.00">_sighting</text>
<polyline fill="none" stroke="black" points="946,-563.5 1045,-563.5 "/>
<text text-anchor="start" x="954" y="-551.5" font-family="Helvetica,sans-Serif" font-size="10.00">+ has_value</text>
<polyline fill="none" stroke="black" points="946,-544.5 1045,-544.5 "/>
<text text-anchor="middle" x="995.5" y="-532.5" font-family="Helvetica,sans-Serif" font-size="10.00"> </text>
</a>
</g>
</g>
<!-- Node20&#45;&gt;Node19 -->
<g id="edge20" class="edge">
<title>Node20&#45;&gt;Node19</title>
<path fill="none" stroke="#404040" d="M1019.58,-525.41C1032.13,-508.17 1047.98,-486.4 1063.11,-465.6"/>
<polygon fill="none" stroke="#404040" points="1063.17,-465.52 1063.47,-458.31 1070.24,-455.82 1069.94,-463.02 1063.17,-465.52"/>
<text text-anchor="middle" x="1067.5" y="-488" font-family="Helvetica,sans-Serif" font-size="10.00"> +ball</text>
</g>
<!-- Node21 -->
<g id="node21" class="node">
<title>Node21</title>
<g id="a_node21"><a xlink:href="structgu__ellipse__sighting.html" target="_top" xlink:title=" ">
<polygon fill="none" stroke="black" points="969,-647 969,-726 1068,-726 1068,-647 969,-647"/>
<text text-anchor="middle" x="1018.5" y="-714" font-family="Helvetica,sans-Serif" font-size="10.00">gu_ellipse_sighting</text>
<polyline fill="none" stroke="black" points="969,-707 1068,-707 "/>
<text text-anchor="start" x="977" y="-695" font-family="Helvetica,sans-Serif" font-size="10.00">+ centerPoint</text>
<text text-anchor="start" x="977" y="-684" font-family="Helvetica,sans-Serif" font-size="10.00">+ verticalRadius</text>
<text text-anchor="start" x="977" y="-673" font-family="Helvetica,sans-Serif" font-size="10.00">+ horizontalRadius</text>
<polyline fill="none" stroke="black" points="969,-666 1068,-666 "/>
<text text-anchor="middle" x="1018.5" y="-654" font-family="Helvetica,sans-Serif" font-size="10.00"> </text>
</a>
</g>
</g>
<!-- Node21&#45;&gt;Node20 -->
<g id="edge21" class="edge">
<title>Node21&#45;&gt;Node20</title>
<path fill="none" stroke="#404040" d="M1011.41,-646.98C1009.01,-633.9 1006.3,-619.18 1003.81,-605.64"/>
<polygon fill="none" stroke="#404040" points="1003.77,-605.42 998.75,-600.25 1001.59,-593.62 1006.61,-598.8 1003.77,-605.42"/>
<text text-anchor="middle" x="1023.5" y="-615" font-family="Helvetica,sans-Serif" font-size="10.00"> +value</text>
</g>
<!-- Node22 -->
<g id="node22" class="node">
<title>Node22</title>
<g id="a_node22"><a xlink:href="structgu__optional__rectangle__sighting.html" target="_top" xlink:title=" ">
<polygon fill="none" stroke="black" points="1063,-525.5 1063,-593.5 1174,-593.5 1174,-525.5 1063,-525.5"/>
<text text-anchor="start" x="1071" y="-581.5" font-family="Helvetica,sans-Serif" font-size="10.00">gu_optional_rectangle</text>
<text text-anchor="middle" x="1118.5" y="-570.5" font-family="Helvetica,sans-Serif" font-size="10.00">_sighting</text>
<polyline fill="none" stroke="black" points="1063,-563.5 1174,-563.5 "/>
<text text-anchor="start" x="1071" y="-551.5" font-family="Helvetica,sans-Serif" font-size="10.00">+ has_value</text>
<polyline fill="none" stroke="black" points="1063,-544.5 1174,-544.5 "/>
<text text-anchor="middle" x="1118.5" y="-532.5" font-family="Helvetica,sans-Serif" font-size="10.00"> </text>
</a>
</g>
</g>
<!-- Node22&#45;&gt;Node19 -->
<g id="edge22" class="edge">
<title>Node22&#45;&gt;Node19</title>
<path fill="none" stroke="#404040" d="M1116.32,-525.27C1115.99,-519.19 1115.7,-512.91 1115.5,-507 1115.08,-494.41 1114.8,-481.02 1114.63,-468.03"/>
<polygon fill="none" stroke="#404040" points="1114.63,-467.75 1110.56,-461.8 1114.5,-455.75 1118.56,-461.71 1114.63,-467.75"/>
<text text-anchor="middle" x="1156" y="-499" font-family="Helvetica,sans-Serif" font-size="10.00"> +genericGoalPost</text>
<text text-anchor="middle" x="1156" y="-488" font-family="Helvetica,sans-Serif" font-size="10.00">+leftGoalPost</text>
<text text-anchor="middle" x="1156" y="-477" font-family="Helvetica,sans-Serif" font-size="10.00">+rightGoalPost</text>
</g>
<!-- Node23 -->
<g id="node23" class="node">
<title>Node23</title>
<g id="a_node23"><a xlink:href="structgu__rectangle__sighting.html" target="_top" xlink:title=" ">
<polygon fill="none" stroke="black" points="1119,-641.5 1119,-731.5 1230,-731.5 1230,-641.5 1119,-641.5"/>
<text text-anchor="middle" x="1174.5" y="-719.5" font-family="Helvetica,sans-Serif" font-size="10.00">gu_rectangle_sighting</text>
<polyline fill="none" stroke="black" points="1119,-712.5 1230,-712.5 "/>
<text text-anchor="start" x="1127" y="-700.5" font-family="Helvetica,sans-Serif" font-size="10.00">+ topLeftPoint</text>
<text text-anchor="start" x="1127" y="-689.5" font-family="Helvetica,sans-Serif" font-size="10.00">+ topRightPoint</text>
<text text-anchor="start" x="1127" y="-678.5" font-family="Helvetica,sans-Serif" font-size="10.00">+ bottomLeftPoint</text>
<text text-anchor="start" x="1127" y="-667.5" font-family="Helvetica,sans-Serif" font-size="10.00">+ bottomRightPoint</text>
<polyline fill="none" stroke="black" points="1119,-660.5 1230,-660.5 "/>
<text text-anchor="middle" x="1174.5" y="-648.5" font-family="Helvetica,sans-Serif" font-size="10.00"> </text>
</a>
</g>
</g>
<!-- Node23&#45;&gt;Node19 -->
<g id="edge28" class="edge">
<title>Node23&#45;&gt;Node19</title>
<path fill="none" stroke="#404040" d="M1191.34,-641.1C1205.33,-596.95 1219.54,-528.19 1196.5,-474 1191.74,-462.81 1184.54,-452.44 1176.34,-443.14"/>
<polygon fill="none" stroke="#404040" points="1176.12,-442.91 1169.09,-441.31 1167.86,-434.2 1174.89,-435.8 1176.12,-442.91"/>
<text text-anchor="middle" x="1224" y="-557" font-family="Helvetica,sans-Serif" font-size="10.00"> +lines</text>
</g>
<!-- Node23&#45;&gt;Node22 -->
<g id="edge23" class="edge">
<title>Node23&#45;&gt;Node22</title>
<path fill="none" stroke="#404040" d="M1154.76,-641.43C1149.41,-629.5 1143.62,-616.58 1138.28,-604.65"/>
<polygon fill="none" stroke="#404040" points="1138.22,-604.52 1132.12,-600.68 1133.31,-593.57 1139.42,-597.41 1138.22,-604.52"/>
<text text-anchor="middle" x="1162.5" y="-615" font-family="Helvetica,sans-Serif" font-size="10.00"> +value</text>
</g>
<!-- Node24 -->
<g id="node24" class="node">
<title>Node24</title>
<g id="a_node24"><a xlink:href="structgu__optional__horizon__sighting.html" target="_top" xlink:title=" ">
<polygon fill="none" stroke="black" points="1257.5,-525.5 1257.5,-593.5 1359.5,-593.5 1359.5,-525.5 1257.5,-525.5"/>
<text text-anchor="start" x="1265.5" y="-581.5" font-family="Helvetica,sans-Serif" font-size="10.00">gu_optional_horizon</text>
<text text-anchor="middle" x="1308.5" y="-570.5" font-family="Helvetica,sans-Serif" font-size="10.00">_sighting</text>
<polyline fill="none" stroke="black" points="1257.5,-563.5 1359.5,-563.5 "/>
<text text-anchor="start" x="1265.5" y="-551.5" font-family="Helvetica,sans-Serif" font-size="10.00">+ has_value</text>
<polyline fill="none" stroke="black" points="1257.5,-544.5 1359.5,-544.5 "/>
<text text-anchor="middle" x="1308.5" y="-532.5" font-family="Helvetica,sans-Serif" font-size="10.00"> </text>
</a>
</g>
</g>
<!-- Node24&#45;&gt;Node19 -->
<g id="edge24" class="edge">
<title>Node24&#45;&gt;Node19</title>
<path fill="none" stroke="#404040" d="M1277.79,-525.11C1262.38,-509.02 1243.08,-489.83 1224.5,-474 1209.89,-461.56 1193.42,-449.02 1177.75,-437.71"/>
<polygon fill="none" stroke="#404040" points="1177.37,-437.43 1170.16,-437.21 1167.6,-430.47 1174.81,-430.69 1177.37,-437.43"/>
<text text-anchor="middle" x="1278.5" y="-488" font-family="Helvetica,sans-Serif" font-size="10.00"> +horizon</text>
</g>
<!-- Node25 -->
<g id="node25" class="node">
<title>Node25</title>
<g id="a_node25"><a xlink:href="structgu__horizon__sighting.html" target="_top" xlink:title=" ">
<polygon fill="none" stroke="black" points="1257.5,-658 1257.5,-715 1359.5,-715 1359.5,-658 1257.5,-658"/>
<text text-anchor="middle" x="1308.5" y="-703" font-family="Helvetica,sans-Serif" font-size="10.00">gu_horizon_sighting</text>
<polyline fill="none" stroke="black" points="1257.5,-696 1359.5,-696 "/>
<text text-anchor="start" x="1265.5" y="-684" font-family="Helvetica,sans-Serif" font-size="10.00">+ sightingType</text>
<polyline fill="none" stroke="black" points="1257.5,-677 1359.5,-677 "/>
<text text-anchor="middle" x="1308.5" y="-665" font-family="Helvetica,sans-Serif" font-size="10.00"> </text>
</a>
</g>
</g>
<!-- Node25&#45;&gt;Node24 -->
<g id="edge25" class="edge">
<title>Node25&#45;&gt;Node24</title>
<path fill="none" stroke="#404040" d="M1308.5,-657.76C1308.5,-642.59 1308.5,-623.43 1308.5,-606.13"/>
<polygon fill="none" stroke="#404040" points="1308.5,-605.94 1304.5,-599.94 1308.5,-593.94 1312.5,-599.94 1308.5,-605.94"/>
<text text-anchor="middle" x="1324.5" y="-615" font-family="Helvetica,sans-Serif" font-size="10.00"> +value</text>
</g>
<!-- Node26 -->
<g id="node26" class="node">
<title>Node26</title>
<g id="a_node26"><a xlink:href="structgu__line__sighting.html" target="_top" xlink:title=" ">
<polygon fill="none" stroke="black" points="1197,-785 1197,-853 1300,-853 1300,-785 1197,-785"/>
<text text-anchor="middle" x="1248.5" y="-841" font-family="Helvetica,sans-Serif" font-size="10.00">gu_line_sighting</text>
<polyline fill="none" stroke="black" points="1197,-834 1300,-834 "/>
<text text-anchor="start" x="1205" y="-822" font-family="Helvetica,sans-Serif" font-size="10.00">+ leftOrBottomPoint</text>
<text text-anchor="start" x="1205" y="-811" font-family="Helvetica,sans-Serif" font-size="10.00">+ rightOrTopPoint</text>
<polyline fill="none" stroke="black" points="1197,-804 1300,-804 "/>
<text text-anchor="middle" x="1248.5" y="-792" font-family="Helvetica,sans-Serif" font-size="10.00"> </text>
</a>
</g>
</g>
<!-- Node26&#45;&gt;Node25 -->
<g id="edge26" class="edge">
<title>Node26&#45;&gt;Node25</title>
<path fill="none" stroke="#404040" d="M1263.8,-784.73C1271.96,-766.97 1282.06,-745.01 1290.59,-726.46"/>
<polygon fill="none" stroke="#404040" points="1290.65,-726.32 1289.53,-719.19 1295.67,-715.41 1296.79,-722.54 1290.65,-726.32"/>
<text text-anchor="middle" x="1308" y="-753" font-family="Helvetica,sans-Serif" font-size="10.00"> +lineSighting</text>
</g>
<!-- Node27 -->
<g id="node27" class="node">
<title>Node27</title>
<g id="a_node27"><a xlink:href="structgu__corner__sighting.html" target="_top" xlink:title=" ">
<polygon fill="none" stroke="black" points="1318,-779.5 1318,-858.5 1421,-858.5 1421,-779.5 1318,-779.5"/>
<text text-anchor="middle" x="1369.5" y="-846.5" font-family="Helvetica,sans-Serif" font-size="10.00">gu_corner_sighting</text>
<polyline fill="none" stroke="black" points="1318,-839.5 1421,-839.5 "/>
<text text-anchor="start" x="1326" y="-827.5" font-family="Helvetica,sans-Serif" font-size="10.00">+ leftOrBottomPoint</text>
<text text-anchor="start" x="1326" y="-816.5" font-family="Helvetica,sans-Serif" font-size="10.00">+ centerPoint</text>
<text text-anchor="start" x="1326" y="-805.5" font-family="Helvetica,sans-Serif" font-size="10.00">+ rightOrTopPoint</text>
<polyline fill="none" stroke="black" points="1318,-798.5 1421,-798.5 "/>
<text text-anchor="middle" x="1369.5" y="-786.5" font-family="Helvetica,sans-Serif" font-size="10.00"> </text>
</a>
</g>
</g>
<!-- Node27&#45;&gt;Node25 -->
<g id="edge27" class="edge">
<title>Node27&#45;&gt;Node25</title>
<path fill="none" stroke="#404040" d="M1354.29,-779.24C1350.3,-769.61 1345.89,-759.36 1341.5,-750 1337.82,-742.15 1333.66,-733.86 1329.56,-725.99"/>
<polygon fill="none" stroke="#404040" points="1329.47,-725.82 1323.13,-722.39 1323.86,-715.21 1330.2,-718.65 1329.47,-725.82"/>
<text text-anchor="middle" x="1381" y="-753" font-family="Helvetica,sans-Serif" font-size="10.00"> +cornerSighting</text>
</g>
</g>
</svg>
