<?xml version="1.0" encoding="UTF-8" standalone="no"?>
<!DOCTYPE svg PUBLIC "-//W3C//DTD SVG 1.1//EN"
 "http://www.w3.org/Graphics/SVG/1.1/DTD/svg11.dtd">
<!-- Generated by graphviz version 2.49.0 (20210830.1337)
 -->
<!-- Title: yaw_joint.h Pages: 1 -->
<svg width="329pt" height="308pt"
 viewBox="0.00 0.00 329.00 308.00" xmlns="http://www.w3.org/2000/svg" xmlns:xlink="http://www.w3.org/1999/xlink">
<g id="graph0" class="graph" transform="scale(1 1) rotate(0) translate(4 304)">
<title>yaw_joint.h</title>
<!-- Node1 -->
<g id="node1" class="node">
<title>Node1</title>
<g id="a_node1"><a xlink:title=" ">
<polygon fill="#bfbfbf" stroke="black" points="118.5,-280.5 118.5,-299.5 183.5,-299.5 183.5,-280.5 118.5,-280.5"/>
<text text-anchor="middle" x="151" y="-287.5" font-family="Helvetica,sans-Serif" font-size="10.00">yaw_joint.h</text>
</a>
</g>
</g>
<!-- Node2 -->
<g id="node2" class="node">
<title>Node2</title>
<g id="a_node2"><a xlink:href="_yaw_joint_8hpp.html" target="_top" xlink:title=" ">
<polygon fill="none" stroke="black" points="32.5,-224.5 32.5,-243.5 107.5,-243.5 107.5,-224.5 32.5,-224.5"/>
<text text-anchor="middle" x="70" y="-231.5" font-family="Helvetica,sans-Serif" font-size="10.00">YawJoint.hpp</text>
</a>
</g>
</g>
<!-- Node1&#45;&gt;Node2 -->
<g id="edge1" class="edge">
<title>Node1&#45;&gt;Node2</title>
<path fill="none" stroke="midnightblue" d="M129.43,-274.62C114.64,-264.76 95.49,-251.99 82.98,-243.65"/>
<polygon fill="midnightblue" stroke="midnightblue" points="127.72,-277.69 137.99,-280.32 131.61,-271.86 127.72,-277.69"/>
</g>
<!-- Node4 -->
<g id="node4" class="node">
<title>Node4</title>
<g id="a_node4"><a xlink:href="nao_8h.html" target="_top" xlink:title=" ">
<polygon fill="none" stroke="black" points="131,-224.5 131,-243.5 171,-243.5 171,-224.5 131,-224.5"/>
<text text-anchor="middle" x="151" y="-231.5" font-family="Helvetica,sans-Serif" font-size="10.00">nao.h</text>
</a>
</g>
</g>
<!-- Node1&#45;&gt;Node4 -->
<g id="edge3" class="edge">
<title>Node1&#45;&gt;Node4</title>
<path fill="none" stroke="midnightblue" d="M151,-269.8C151,-260.91 151,-250.78 151,-243.75"/>
<polygon fill="midnightblue" stroke="midnightblue" points="147.5,-270.08 151,-280.08 154.5,-270.08 147.5,-270.08"/>
</g>
<!-- Node12 -->
<g id="node12" class="node">
<title>Node12</title>
<g id="a_node12"><a xlink:href="yaw__joint_8c.html" target="_top" xlink:title=" ">
<polygon fill="none" stroke="black" points="189.5,-224.5 189.5,-243.5 254.5,-243.5 254.5,-224.5 189.5,-224.5"/>
<text text-anchor="middle" x="222" y="-231.5" font-family="Helvetica,sans-Serif" font-size="10.00">yaw_joint.c</text>
</a>
</g>
</g>
<!-- Node1&#45;&gt;Node12 -->
<g id="edge12" class="edge">
<title>Node1&#45;&gt;Node12</title>
<path fill="none" stroke="midnightblue" d="M170.59,-274.1C183.37,-264.38 199.61,-252.03 210.39,-243.83"/>
<polygon fill="midnightblue" stroke="midnightblue" points="168.25,-271.48 162.41,-280.32 172.49,-277.06 168.25,-271.48"/>
</g>
<!-- Node3 -->
<g id="node3" class="node">
<title>Node3</title>
<g id="a_node3"><a xlink:href="_yaw_joint_8cc.html" target="_top" xlink:title=" ">
<polygon fill="none" stroke="black" points="0,-168.5 0,-187.5 70,-187.5 70,-168.5 0,-168.5"/>
<text text-anchor="middle" x="35" y="-175.5" font-family="Helvetica,sans-Serif" font-size="10.00">YawJoint.cc</text>
</a>
</g>
</g>
<!-- Node2&#45;&gt;Node3 -->
<g id="edge2" class="edge">
<title>Node2&#45;&gt;Node3</title>
<path fill="none" stroke="midnightblue" d="M58.7,-215.57C52.68,-206.27 45.53,-195.25 40.67,-187.75"/>
<polygon fill="midnightblue" stroke="midnightblue" points="55.84,-217.6 64.22,-224.08 61.72,-213.79 55.84,-217.6"/>
</g>
<!-- Node5 -->
<g id="node5" class="node">
<title>Node5</title>
<g id="a_node5"><a xlink:href="_nao_v5_8hpp.html" target="_top" xlink:title=" ">
<polygon fill="none" stroke="black" points="88.5,-168.5 88.5,-187.5 153.5,-187.5 153.5,-168.5 88.5,-168.5"/>
<text text-anchor="middle" x="121" y="-175.5" font-family="Helvetica,sans-Serif" font-size="10.00">NaoV5.hpp</text>
</a>
</g>
</g>
<!-- Node4&#45;&gt;Node5 -->
<g id="edge4" class="edge">
<title>Node4&#45;&gt;Node5</title>
<path fill="none" stroke="midnightblue" d="M141.15,-215.27C136.03,-206.05 129.98,-195.17 125.86,-187.75"/>
<polygon fill="midnightblue" stroke="midnightblue" points="138.13,-217.04 146.05,-224.08 144.25,-213.64 138.13,-217.04"/>
</g>
<!-- Node7 -->
<g id="node7" class="node">
<title>Node7</title>
<g id="a_node7"><a xlink:href="gurobots_8h.html" target="_top" xlink:title=" ">
<polygon fill="none" stroke="black" points="151,-112.5 151,-131.5 213,-131.5 213,-112.5 151,-112.5"/>
<text text-anchor="middle" x="182" y="-119.5" font-family="Helvetica,sans-Serif" font-size="10.00">gurobots.h</text>
</a>
</g>
</g>
<!-- Node4&#45;&gt;Node7 -->
<g id="edge10" class="edge">
<title>Node4&#45;&gt;Node7</title>
<path fill="none" stroke="midnightblue" d="M156.16,-214.67C162.94,-190.62 174.56,-149.39 179.58,-131.59"/>
<polygon fill="midnightblue" stroke="midnightblue" points="152.78,-213.79 153.43,-224.37 159.51,-215.69 152.78,-213.79"/>
</g>
<!-- Node11 -->
<g id="node11" class="node">
<title>Node11</title>
<g id="a_node11"><a xlink:href="nao_8c.html" target="_top" xlink:title=" ">
<polygon fill="none" stroke="black" points="210,-168.5 210,-187.5 250,-187.5 250,-168.5 210,-168.5"/>
<text text-anchor="middle" x="230" y="-175.5" font-family="Helvetica,sans-Serif" font-size="10.00">nao.c</text>
</a>
</g>
</g>
<!-- Node4&#45;&gt;Node11 -->
<g id="edge11" class="edge">
<title>Node4&#45;&gt;Node11</title>
<path fill="none" stroke="midnightblue" d="M172.03,-218.62C186.47,-208.76 205.14,-195.99 217.34,-187.65"/>
<polygon fill="midnightblue" stroke="midnightblue" points="169.97,-215.79 163.69,-224.32 173.92,-221.57 169.97,-215.79"/>
</g>
<!-- Node6 -->
<g id="node6" class="node">
<title>Node6</title>
<g id="a_node6"><a xlink:href="_nao_v5_8cc.html" target="_top" xlink:title=" ">
<polygon fill="none" stroke="black" points="73.5,-112.5 73.5,-131.5 132.5,-131.5 132.5,-112.5 73.5,-112.5"/>
<text text-anchor="middle" x="103" y="-119.5" font-family="Helvetica,sans-Serif" font-size="10.00">NaoV5.cc</text>
</a>
</g>
</g>
<!-- Node5&#45;&gt;Node6 -->
<g id="edge5" class="edge">
<title>Node5&#45;&gt;Node6</title>
<path fill="none" stroke="midnightblue" d="M114.8,-158.4C111.79,-149.36 108.31,-138.94 105.92,-131.75"/>
<polygon fill="midnightblue" stroke="midnightblue" points="111.54,-159.7 118.03,-168.08 118.19,-157.49 111.54,-159.7"/>
</g>
<!-- Node5&#45;&gt;Node7 -->
<g id="edge6" class="edge">
<title>Node5&#45;&gt;Node7</title>
<path fill="none" stroke="midnightblue" d="M138.47,-161.54C149.34,-151.91 162.94,-139.87 172.02,-131.83"/>
<polygon fill="midnightblue" stroke="midnightblue" points="135.97,-159.07 130.8,-168.32 140.61,-164.32 135.97,-159.07"/>
</g>
<!-- Node8 -->
<g id="node8" class="node">
<title>Node8</title>
<g id="a_node8"><a xlink:href="gurobots__tests_8hpp.html" target="_top" xlink:title=" ">
<polygon fill="none" stroke="black" points="43.5,-56.5 43.5,-75.5 172.5,-75.5 172.5,-56.5 43.5,-56.5"/>
<text text-anchor="middle" x="108" y="-63.5" font-family="Helvetica,sans-Serif" font-size="10.00">ctests/gurobots_tests.hpp</text>
</a>
</g>
</g>
<!-- Node7&#45;&gt;Node8 -->
<g id="edge7" class="edge">
<title>Node7&#45;&gt;Node8</title>
<path fill="none" stroke="midnightblue" d="M161.97,-106.38C148.59,-96.62 131.44,-84.11 120.11,-75.83"/>
<polygon fill="midnightblue" stroke="midnightblue" points="159.97,-109.26 170.11,-112.32 164.1,-103.6 159.97,-109.26"/>
</g>
<!-- Node9 -->
<g id="node9" class="node">
<title>Node9</title>
<g id="a_node9"><a xlink:href="_g_u_robots_tests_8hpp.html" target="_top" xlink:title=" ">
<polygon fill="none" stroke="black" points="191,-56.5 191,-75.5 321,-75.5 321,-56.5 191,-56.5"/>
<text text-anchor="middle" x="256" y="-63.5" font-family="Helvetica,sans-Serif" font-size="10.00">tests/GURobotsTests.hpp</text>
</a>
</g>
</g>
<!-- Node7&#45;&gt;Node9 -->
<g id="edge8" class="edge">
<title>Node7&#45;&gt;Node9</title>
<path fill="none" stroke="midnightblue" d="M202.03,-106.38C215.41,-96.62 232.56,-84.11 243.89,-75.83"/>
<polygon fill="midnightblue" stroke="midnightblue" points="199.9,-103.6 193.89,-112.32 204.03,-109.26 199.9,-103.6"/>
</g>
<!-- Node10 -->
<g id="node10" class="node">
<title>Node10</title>
<g id="a_node10"><a xlink:href="_nao_v5_tests_8cc.html" target="_top" xlink:title=" ">
<polygon fill="none" stroke="black" points="201.5,-0.5 201.5,-19.5 310.5,-19.5 310.5,-0.5 201.5,-0.5"/>
<text text-anchor="middle" x="256" y="-7.5" font-family="Helvetica,sans-Serif" font-size="10.00">tests/NaoV5Tests.cc</text>
</a>
</g>
</g>
<!-- Node9&#45;&gt;Node10 -->
<g id="edge9" class="edge">
<title>Node9&#45;&gt;Node10</title>
<path fill="none" stroke="midnightblue" d="M256,-45.8C256,-36.91 256,-26.78 256,-19.75"/>
<polygon fill="midnightblue" stroke="midnightblue" points="252.5,-46.08 256,-56.08 259.5,-46.08 252.5,-46.08"/>
</g>
</g>
</svg>
