<?xml version="1.0" encoding="UTF-8" standalone="no"?>
<!DOCTYPE svg PUBLIC "-//W3C//DTD SVG 1.1//EN"
 "http://www.w3.org/Graphics/SVG/1.1/DTD/svg11.dtd">
<!-- Generated by graphviz version 2.49.0 (20210830.1337)
 -->
<!-- Title: yaw_roll_joint.h Pages: 1 -->
<svg width="345pt" height="308pt"
 viewBox="0.00 0.00 345.00 308.00" xmlns="http://www.w3.org/2000/svg" xmlns:xlink="http://www.w3.org/1999/xlink">
<g id="graph0" class="graph" transform="scale(1 1) rotate(0) translate(4 304)">
<title>yaw_roll_joint.h</title>
<!-- Node1 -->
<g id="node1" class="node">
<title>Node1</title>
<g id="a_node1"><a xlink:title=" ">
<polygon fill="#bfbfbf" stroke="black" points="125.5,-280.5 125.5,-299.5 208.5,-299.5 208.5,-280.5 125.5,-280.5"/>
<text text-anchor="middle" x="167" y="-287.5" font-family="Helvetica,sans-Serif" font-size="10.00">yaw_roll_joint.h</text>
</a>
</g>
</g>
<!-- Node2 -->
<g id="node2" class="node">
<title>Node2</title>
<g id="a_node2"><a xlink:href="_yaw_roll_joint_8hpp.html" target="_top" xlink:title=" ">
<polygon fill="none" stroke="black" points="32,-224.5 32,-243.5 124,-243.5 124,-224.5 32,-224.5"/>
<text text-anchor="middle" x="78" y="-231.5" font-family="Helvetica,sans-Serif" font-size="10.00">YawRollJoint.hpp</text>
</a>
</g>
</g>
<!-- Node1&#45;&gt;Node2 -->
<g id="edge1" class="edge">
<title>Node1&#45;&gt;Node2</title>
<path fill="none" stroke="midnightblue" d="M143.76,-274.9C127.44,-265 106.13,-252.07 92.26,-243.65"/>
<polygon fill="midnightblue" stroke="midnightblue" points="142.34,-278.13 152.7,-280.32 145.97,-272.14 142.34,-278.13"/>
</g>
<!-- Node4 -->
<g id="node4" class="node">
<title>Node4</title>
<g id="a_node4"><a xlink:href="nao_8h.html" target="_top" xlink:title=" ">
<polygon fill="none" stroke="black" points="147,-224.5 147,-243.5 187,-243.5 187,-224.5 147,-224.5"/>
<text text-anchor="middle" x="167" y="-231.5" font-family="Helvetica,sans-Serif" font-size="10.00">nao.h</text>
</a>
</g>
</g>
<!-- Node1&#45;&gt;Node4 -->
<g id="edge3" class="edge">
<title>Node1&#45;&gt;Node4</title>
<path fill="none" stroke="midnightblue" d="M167,-269.8C167,-260.91 167,-250.78 167,-243.75"/>
<polygon fill="midnightblue" stroke="midnightblue" points="163.5,-270.08 167,-280.08 170.5,-270.08 163.5,-270.08"/>
</g>
<!-- Node12 -->
<g id="node12" class="node">
<title>Node12</title>
<g id="a_node12"><a xlink:href="yaw__roll__joint_8c.html" target="_top" xlink:title=" ">
<polygon fill="none" stroke="black" points="205.5,-224.5 205.5,-243.5 288.5,-243.5 288.5,-224.5 205.5,-224.5"/>
<text text-anchor="middle" x="247" y="-231.5" font-family="Helvetica,sans-Serif" font-size="10.00">yaw_roll_joint.c</text>
</a>
</g>
</g>
<!-- Node1&#45;&gt;Node12 -->
<g id="edge12" class="edge">
<title>Node1&#45;&gt;Node12</title>
<path fill="none" stroke="midnightblue" d="M188.3,-274.62C202.92,-264.76 221.83,-251.99 234.18,-243.65"/>
<polygon fill="midnightblue" stroke="midnightblue" points="186.18,-271.83 179.85,-280.32 190.1,-277.63 186.18,-271.83"/>
</g>
<!-- Node3 -->
<g id="node3" class="node">
<title>Node3</title>
<g id="a_node3"><a xlink:href="_yaw_roll_joint_8cc.html" target="_top" xlink:title=" ">
<polygon fill="none" stroke="black" points="0,-168.5 0,-187.5 86,-187.5 86,-168.5 0,-168.5"/>
<text text-anchor="middle" x="43" y="-175.5" font-family="Helvetica,sans-Serif" font-size="10.00">YawRollJoint.cc</text>
</a>
</g>
</g>
<!-- Node2&#45;&gt;Node3 -->
<g id="edge2" class="edge">
<title>Node2&#45;&gt;Node3</title>
<path fill="none" stroke="midnightblue" d="M66.7,-215.57C60.68,-206.27 53.53,-195.25 48.67,-187.75"/>
<polygon fill="midnightblue" stroke="midnightblue" points="63.84,-217.6 72.22,-224.08 69.72,-213.79 63.84,-217.6"/>
</g>
<!-- Node5 -->
<g id="node5" class="node">
<title>Node5</title>
<g id="a_node5"><a xlink:href="_nao_v5_8hpp.html" target="_top" xlink:title=" ">
<polygon fill="none" stroke="black" points="104.5,-168.5 104.5,-187.5 169.5,-187.5 169.5,-168.5 104.5,-168.5"/>
<text text-anchor="middle" x="137" y="-175.5" font-family="Helvetica,sans-Serif" font-size="10.00">NaoV5.hpp</text>
</a>
</g>
</g>
<!-- Node4&#45;&gt;Node5 -->
<g id="edge4" class="edge">
<title>Node4&#45;&gt;Node5</title>
<path fill="none" stroke="midnightblue" d="M157.15,-215.27C152.03,-206.05 145.98,-195.17 141.86,-187.75"/>
<polygon fill="midnightblue" stroke="midnightblue" points="154.13,-217.04 162.05,-224.08 160.25,-213.64 154.13,-217.04"/>
</g>
<!-- Node7 -->
<g id="node7" class="node">
<title>Node7</title>
<g id="a_node7"><a xlink:href="gurobots_8h.html" target="_top" xlink:title=" ">
<polygon fill="none" stroke="black" points="167,-112.5 167,-131.5 229,-131.5 229,-112.5 167,-112.5"/>
<text text-anchor="middle" x="198" y="-119.5" font-family="Helvetica,sans-Serif" font-size="10.00">gurobots.h</text>
</a>
</g>
</g>
<!-- Node4&#45;&gt;Node7 -->
<g id="edge10" class="edge">
<title>Node4&#45;&gt;Node7</title>
<path fill="none" stroke="midnightblue" d="M172.16,-214.67C178.94,-190.62 190.56,-149.39 195.58,-131.59"/>
<polygon fill="midnightblue" stroke="midnightblue" points="168.78,-213.79 169.43,-224.37 175.51,-215.69 168.78,-213.79"/>
</g>
<!-- Node11 -->
<g id="node11" class="node">
<title>Node11</title>
<g id="a_node11"><a xlink:href="nao_8c.html" target="_top" xlink:title=" ">
<polygon fill="none" stroke="black" points="226,-168.5 226,-187.5 266,-187.5 266,-168.5 226,-168.5"/>
<text text-anchor="middle" x="246" y="-175.5" font-family="Helvetica,sans-Serif" font-size="10.00">nao.c</text>
</a>
</g>
</g>
<!-- Node4&#45;&gt;Node11 -->
<g id="edge11" class="edge">
<title>Node4&#45;&gt;Node11</title>
<path fill="none" stroke="midnightblue" d="M188.03,-218.62C202.47,-208.76 221.14,-195.99 233.34,-187.65"/>
<polygon fill="midnightblue" stroke="midnightblue" points="185.97,-215.79 179.69,-224.32 189.92,-221.57 185.97,-215.79"/>
</g>
<!-- Node6 -->
<g id="node6" class="node">
<title>Node6</title>
<g id="a_node6"><a xlink:href="_nao_v5_8cc.html" target="_top" xlink:title=" ">
<polygon fill="none" stroke="black" points="89.5,-112.5 89.5,-131.5 148.5,-131.5 148.5,-112.5 89.5,-112.5"/>
<text text-anchor="middle" x="119" y="-119.5" font-family="Helvetica,sans-Serif" font-size="10.00">NaoV5.cc</text>
</a>
</g>
</g>
<!-- Node5&#45;&gt;Node6 -->
<g id="edge5" class="edge">
<title>Node5&#45;&gt;Node6</title>
<path fill="none" stroke="midnightblue" d="M130.8,-158.4C127.79,-149.36 124.31,-138.94 121.92,-131.75"/>
<polygon fill="midnightblue" stroke="midnightblue" points="127.54,-159.7 134.03,-168.08 134.19,-157.49 127.54,-159.7"/>
</g>
<!-- Node5&#45;&gt;Node7 -->
<g id="edge6" class="edge">
<title>Node5&#45;&gt;Node7</title>
<path fill="none" stroke="midnightblue" d="M154.47,-161.54C165.34,-151.91 178.94,-139.87 188.02,-131.83"/>
<polygon fill="midnightblue" stroke="midnightblue" points="151.97,-159.07 146.8,-168.32 156.61,-164.32 151.97,-159.07"/>
</g>
<!-- Node8 -->
<g id="node8" class="node">
<title>Node8</title>
<g id="a_node8"><a xlink:href="gurobots__tests_8hpp.html" target="_top" xlink:title=" ">
<polygon fill="none" stroke="black" points="59.5,-56.5 59.5,-75.5 188.5,-75.5 188.5,-56.5 59.5,-56.5"/>
<text text-anchor="middle" x="124" y="-63.5" font-family="Helvetica,sans-Serif" font-size="10.00">ctests/gurobots_tests.hpp</text>
</a>
</g>
</g>
<!-- Node7&#45;&gt;Node8 -->
<g id="edge7" class="edge">
<title>Node7&#45;&gt;Node8</title>
<path fill="none" stroke="midnightblue" d="M177.97,-106.38C164.59,-96.62 147.44,-84.11 136.11,-75.83"/>
<polygon fill="midnightblue" stroke="midnightblue" points="175.97,-109.26 186.11,-112.32 180.1,-103.6 175.97,-109.26"/>
</g>
<!-- Node9 -->
<g id="node9" class="node">
<title>Node9</title>
<g id="a_node9"><a xlink:href="_g_u_robots_tests_8hpp.html" target="_top" xlink:title=" ">
<polygon fill="none" stroke="black" points="207,-56.5 207,-75.5 337,-75.5 337,-56.5 207,-56.5"/>
<text text-anchor="middle" x="272" y="-63.5" font-family="Helvetica,sans-Serif" font-size="10.00">tests/GURobotsTests.hpp</text>
</a>
</g>
</g>
<!-- Node7&#45;&gt;Node9 -->
<g id="edge8" class="edge">
<title>Node7&#45;&gt;Node9</title>
<path fill="none" stroke="midnightblue" d="M218.03,-106.38C231.41,-96.62 248.56,-84.11 259.89,-75.83"/>
<polygon fill="midnightblue" stroke="midnightblue" points="215.9,-103.6 209.89,-112.32 220.03,-109.26 215.9,-103.6"/>
</g>
<!-- Node10 -->
<g id="node10" class="node">
<title>Node10</title>
<g id="a_node10"><a xlink:href="_nao_v5_tests_8cc.html" target="_top" xlink:title=" ">
<polygon fill="none" stroke="black" points="217.5,-0.5 217.5,-19.5 326.5,-19.5 326.5,-0.5 217.5,-0.5"/>
<text text-anchor="middle" x="272" y="-7.5" font-family="Helvetica,sans-Serif" font-size="10.00">tests/NaoV5Tests.cc</text>
</a>
</g>
</g>
<!-- Node9&#45;&gt;Node10 -->
<g id="edge9" class="edge">
<title>Node9&#45;&gt;Node10</title>
<path fill="none" stroke="midnightblue" d="M272,-45.8C272,-36.91 272,-26.78 272,-19.75"/>
<polygon fill="midnightblue" stroke="midnightblue" points="268.5,-46.08 272,-56.08 275.5,-46.08 268.5,-46.08"/>
</g>
</g>
</svg>
